<svg xmlns="http://www.w3.org/2000/svg" width="394.001" height="394.057" viewBox="0 0 394.001 394.057"><defs><style>.a{fill:#88e2a6;}</style></defs><g transform="translate(-7769.565 -1437.826)"><g transform="translate(7893.544 1561.685)"><path class="a" d="M7980.445,1719.5a3.4,3.4,0,0,1-.116-6.807c.439-.016.875-.035,1.312-.059a3.4,3.4,0,0,1,.364,6.8c-.479.025-.957.047-1.439.063Zm-13.692-.853a3.469,3.469,0,0,1-.547-.044q-.713-.115-1.421-.244a3.4,3.4,0,1,1,1.216-6.7c.429.078.859.153,1.291.222a3.405,3.405,0,0,1-.538,6.767Zm28.633-1.294a3.4,3.4,0,0,1-.846-6.7c.425-.109.846-.222,1.268-.339a3.4,3.4,0,0,1,1.819,6.561c-.461.128-.926.252-1.39.371A3.37,3.37,0,0,1,7995.386,1717.356Zm-43.191-2.719a3.378,3.378,0,0,1-1.257-.242q-.675-.268-1.341-.549a3.4,3.4,0,1,1,2.644-6.273q.6.253,1.213.5a3.405,3.405,0,0,1-1.259,6.569Zm57.326-2.6a3.4,3.4,0,0,1-1.542-6.441q.581-.3,1.154-.6a3.4,3.4,0,1,1,3.2,6.009c-.424.226-.849.448-1.279.666A3.4,3.4,0,0,1,8009.52,1712.033Zm-70.673-4.461a3.384,3.384,0,0,1-1.906-.586q-.6-.406-1.192-.825a3.4,3.4,0,0,1,3.937-5.556c.354.25.712.5,1.072.741a3.406,3.406,0,0,1-1.911,6.226Zm83.315-3.78a3.4,3.4,0,0,1-2.154-6.043c.338-.276.67-.553,1-.835a3.4,3.4,0,0,1,4.412,5.186q-.548.467-1.11.925A3.39,3.39,0,0,1,8022.162,1703.793Zm-94.83-5.986a3.39,3.39,0,0,1-2.468-1.059q-.5-.522-.98-1.052a3.4,3.4,0,0,1,5.021-4.6q.445.485.9.96a3.4,3.4,0,0,1-2.468,5.748Zm105.417-4.772a3.405,3.405,0,0,1-2.667-5.517c.271-.343.542-.688.806-1.037a3.4,3.4,0,0,1,5.417,4.125q-.437.573-.883,1.137A3.4,3.4,0,0,1,8032.749,1693.035Zm-114.576-7.224a3.4,3.4,0,0,1-2.916-1.641q-.371-.614-.732-1.235a3.4,3.4,0,0,1,5.889-3.419q.328.567.667,1.127a3.4,3.4,0,0,1-2.909,5.168Zm122.62-5.552a3.4,3.4,0,0,1-3.055-4.9c.189-.389.376-.782.558-1.176a3.4,3.4,0,0,1,6.181,2.855q-.3.662-.625,1.315A3.4,3.4,0,0,1,8040.792,1680.259Zm-128.991-8.132a3.4,3.4,0,0,1-3.222-2.309c-.156-.454-.3-.911-.451-1.37a3.4,3.4,0,0,1,6.487-2.068c.133.417.268.831.409,1.244a3.406,3.406,0,0,1-3.223,4.5Zm134.1-6.081a3.405,3.405,0,0,1-3.314-4.2q.153-.638.294-1.28a3.4,3.4,0,1,1,6.649,1.46q-.154.7-.32,1.4A3.405,3.405,0,0,1,8045.9,1666.046Zm-137.359-8.658a3.4,3.4,0,0,1-3.38-3.038q-.078-.713-.142-1.429a3.4,3.4,0,1,1,6.781-.611c.039.438.083.873.129,1.307a3.4,3.4,0,0,1-3.019,3.751A3.346,3.346,0,0,1,7908.537,1657.388Zm139.268-6.315h-.071a3.4,3.4,0,0,1-3.333-3.473q.012-.652.012-1.306v-.284a3.4,3.4,0,1,1,6.809,0v.236c0,.531,0,1.012-.015,1.492A3.4,3.4,0,0,1,8047.805,1651.073Zm-139.291-8.78a3.41,3.41,0,0,1-3.389-3.76q.075-.721.166-1.437a3.4,3.4,0,1,1,6.755.853q-.081.644-.15,1.294A3.4,3.4,0,0,1,7908.514,1642.293Zm137.907-6.533a3.4,3.4,0,0,1-3.334-2.735q-.127-.638-.272-1.273a3.405,3.405,0,0,1,6.647-1.483c.1.47.205.942.3,1.416a3.409,3.409,0,0,1-3.341,4.075Zm-134.71-8.219a3.406,3.406,0,0,1-3.229-4.486q.229-.681.467-1.357a3.4,3.4,0,1,1,6.421,2.268q-.223.623-.431,1.251A3.407,3.407,0,0,1,7911.71,1627.541Zm130.128-6.163a3.4,3.4,0,0,1-3.115-2.029q-.264-.6-.539-1.184a3.4,3.4,0,0,1,6.17-2.878c.2.435.4.871.6,1.31a3.406,3.406,0,0,1-3.113,4.781Zm-123.814-7.554a3.4,3.4,0,0,1-2.915-5.159c.249-.413.5-.824.756-1.232a3.4,3.4,0,1,1,5.764,3.625c-.233.37-.46.741-.686,1.117A3.4,3.4,0,0,1,7918.024,1613.824Zm116.233-5.494a3.4,3.4,0,0,1-2.748-1.391q-.387-.526-.783-1.044a3.4,3.4,0,1,1,5.407-4.138c.291.381.581.764.865,1.153a3.4,3.4,0,0,1-2.741,5.418Zm-107.113-6.542a3.4,3.4,0,0,1-2.48-5.736q.494-.526,1-1.042a3.4,3.4,0,1,1,4.864,4.765q-.457.465-.9.941A3.4,3.4,0,0,1,7927.144,1601.787Zm96.9-4.582a3.384,3.384,0,0,1-2.244-.847q-.5-.432-.994-.856a3.4,3.4,0,1,1,4.4-5.2q.55.464,1.089.939a3.4,3.4,0,0,1-2.248,5.962Zm-85.422-5.226a3.4,3.4,0,0,1-1.923-6.215q.595-.406,1.2-.8a3.4,3.4,0,0,1,3.729,5.7q-.547.358-1.085.727A3.389,3.389,0,0,1,7938.624,1591.979Zm73.074-3.458a3.385,3.385,0,0,1-1.649-.428c-.379-.21-.763-.416-1.147-.619a3.4,3.4,0,1,1,3.171-6.025q.645.338,1.279.691a3.4,3.4,0,0,1-1.654,6.381Zm-59.763-3.656a3.4,3.4,0,0,1-1.27-6.563q.669-.269,1.344-.525a3.4,3.4,0,0,1,2.415,6.366c-.41.156-.816.315-1.221.477A3.408,3.408,0,0,1,7951.935,1584.865Zm45.835-2.168a3.4,3.4,0,0,1-.961-.139c-.417-.123-.84-.243-1.261-.358a3.4,3.4,0,0,1,1.795-6.568q.7.191,1.385.394a3.4,3.4,0,0,1-.958,6.672Zm-31.305-1.9a3.4,3.4,0,0,1-.55-6.764c.472-.078.948-.152,1.423-.221a3.4,3.4,0,0,1,.979,6.738q-.648.093-1.292.2A3.407,3.407,0,0,1,7966.465,1580.794Zm16.451-.771q-.12,0-.242-.008c-.434-.031-.87-.057-1.308-.08a3.4,3.4,0,1,1,.346-6.8q.72.036,1.437.085a3.4,3.4,0,0,1-.234,6.8Z" transform="translate(-7905.001 -1573.13)"/></g><g transform="translate(7936.852 1604.564)"><path class="a" d="M7978.168,1680.391a3.292,3.292,0,0,1-.48-.035c-.523-.073-1.04-.16-1.555-.26a3.4,3.4,0,1,1,1.3-6.684c.4.079.8.146,1.209.2a3.4,3.4,0,0,1-.474,6.775Zm13.755-1.627a3.4,3.4,0,0,1-1.256-6.57q.571-.225,1.125-.479a3.4,3.4,0,1,1,2.833,6.192q-.714.327-1.448.617A3.4,3.4,0,0,1,7991.923,1678.764Zm-27.6-4.672a3.39,3.39,0,0,1-2.225-.829q-.6-.516-1.167-1.064a3.4,3.4,0,1,1,4.715-4.91q.442.423.9.824a3.4,3.4,0,0,1-2.228,5.979Zm39.576-4.684a3.4,3.4,0,0,1-2.759-5.394q.355-.494.686-1.008a3.4,3.4,0,1,1,5.729,3.678c-.284.445-.582.882-.891,1.31A3.4,3.4,0,0,1,8003.9,1669.408Zm-47.823-8.089a3.4,3.4,0,0,1-3.264-2.441q-.223-.754-.408-1.526a3.4,3.4,0,0,1,6.622-1.583c.095.4.2.793.316,1.182a3.4,3.4,0,0,1-3.267,4.368Zm52.858-6.258c-.059,0-.118,0-.177,0a3.4,3.4,0,0,1-3.225-3.576q.031-.608.032-1.225a3.453,3.453,0,0,1,3.4-3.46,3.356,3.356,0,0,1,3.4,3.348v.112q0,.792-.041,1.576A3.4,3.4,0,0,1,8008.935,1655.061Zm-52.889-8.945a3.407,3.407,0,0,1-3.271-4.352q.221-.768.484-1.516a3.4,3.4,0,0,1,6.425,2.255c-.135.38-.257.765-.37,1.153A3.406,3.406,0,0,1,7956.045,1646.115Zm49.32-5.944a3.4,3.4,0,0,1-2.948-1.7q-.308-.53-.642-1.045a3.4,3.4,0,1,1,5.71-3.708q.427.658.822,1.338a3.406,3.406,0,0,1-2.943,5.113Zm-41.128-6.866a3.4,3.4,0,0,1-2.24-5.969q.592-.516,1.214-1.005a3.4,3.4,0,0,1,4.207,5.353q-.48.379-.943.781A3.4,3.4,0,0,1,7964.238,1633.3Zm30.128-3.632a3.387,3.387,0,0,1-1.562-.382q-.543-.281-1.1-.536a3.4,3.4,0,1,1,2.812-6.2q.719.327,1.422.689a3.405,3.405,0,0,1-1.567,6.429Zm-16.323-2.724a3.4,3.4,0,0,1-.489-6.774c.517-.075,1.04-.137,1.564-.187a3.4,3.4,0,0,1,.638,6.779q-.613.058-1.218.146A3.39,3.39,0,0,1,7978.042,1626.948Z" transform="translate(-7952.311 -1619.972)"/></g><g transform="translate(7852.299 1520.492)"><path class="a" d="M7970.505,1756.811c-.038,0-.076,0-.113,0-.463-.014-.927-.032-1.388-.053a3.4,3.4,0,0,1,.3-6.8q.653.029,1.305.05a3.4,3.4,0,0,1-.107,6.807Zm13.464-.37a3.4,3.4,0,0,1-.292-6.8c.435-.038.868-.079,1.3-.123a3.4,3.4,0,0,1,.675,6.776q-.691.068-1.384.13C7984.168,1756.438,7984.069,1756.441,7983.969,1756.441Zm-28.209-1.09a3.357,3.357,0,0,1-.562-.047q-.691-.114-1.375-.238a3.4,3.4,0,1,1,1.21-6.7q.638.114,1.282.221a3.4,3.4,0,0,1-.555,6.763Zm42.856-1.185a3.4,3.4,0,0,1-.747-6.725q.64-.144,1.278-.3a3.4,3.4,0,0,1,1.572,6.625q-.674.159-1.349.312A3.443,3.443,0,0,1,7998.616,1754.166Zm-57.282-2.23a3.41,3.41,0,0,1-1.007-.153c-.445-.137-.891-.278-1.332-.421a3.4,3.4,0,1,1,2.093-6.478c.415.133.831.266,1.25.4a3.4,3.4,0,0,1-1,6.657Zm71.493-1.987a3.405,3.405,0,0,1-1.189-6.6q.617-.229,1.227-.464a3.4,3.4,0,0,1,2.449,6.353q-.646.249-1.3.492A3.419,3.419,0,0,1,8012.827,1749.948Zm-85.343-3.339a3.393,3.393,0,0,1-1.431-.317q-.634-.3-1.263-.6a3.4,3.4,0,1,1,2.946-6.137q.59.282,1.184.557a3.4,3.4,0,0,1-1.436,6.493Zm98.861-2.748a3.4,3.4,0,0,1-1.6-6.408q.574-.306,1.142-.62a3.4,3.4,0,0,1,3.285,5.964q-.609.335-1.222.662A3.388,3.388,0,0,1,8026.345,1743.861Zm-111.866-4.384a3.4,3.4,0,0,1-1.833-.537q-.582-.375-1.163-.754a3.4,3.4,0,1,1,3.732-5.694c.367.24.733.478,1.1.714a3.4,3.4,0,0,1-1.839,6.271Zm124.44-3.449a3.4,3.4,0,0,1-1.99-6.168q.527-.38,1.049-.766a3.4,3.4,0,1,1,4.05,5.473c-.374.276-.748.549-1.126.821A3.388,3.388,0,0,1,8038.919,1736.028Zm-136.373-5.349a3.387,3.387,0,0,1-2.2-.806l-1.051-.9a3.4,3.4,0,1,1,4.45-5.155l1,.856a3.4,3.4,0,0,1-2.2,6Zm147.794-4.088a3.4,3.4,0,0,1-2.335-5.881q.475-.448.943-.9a3.4,3.4,0,1,1,4.733,4.894q-.5.485-1.006.962A3.392,3.392,0,0,1,8050.341,1726.591Zm-158.451-6.212a3.4,3.4,0,0,1-2.523-1.118q-.467-.515-.925-1.034a3.4,3.4,0,0,1,5.1-4.514q.433.49.873.975a3.4,3.4,0,0,1-2.522,5.69Zm168.527-4.658a3.4,3.4,0,0,1-2.641-5.55q.41-.508.817-1.02a3.4,3.4,0,0,1,5.34,4.224q-.433.546-.87,1.087A3.4,3.4,0,0,1,8060.417,1715.721Zm-177.722-6.961a3.4,3.4,0,0,1-2.809-1.477q-.392-.57-.777-1.143a3.4,3.4,0,0,1,5.652-3.8c.243.363.489.724.736,1.083a3.4,3.4,0,0,1-2.8,5.332Zm186.268-5.152a3.4,3.4,0,0,1-2.9-5.176q.339-.56.677-1.125a3.4,3.4,0,1,1,5.854,3.475q-.354.6-.717,1.191A3.4,3.4,0,0,1,8068.963,1703.609Zm-193.838-7.581a3.4,3.4,0,0,1-3.04-1.868q-.311-.614-.617-1.232a3.4,3.4,0,1,1,6.106-3.013l.585,1.172a3.4,3.4,0,0,1-3.035,4.941Zm200.7-5.568a3.405,3.405,0,0,1-3.112-4.781c.177-.4.348-.8.518-1.2a3.4,3.4,0,0,1,6.266,2.667q-.275.645-.556,1.285A3.4,3.4,0,0,1,8075.822,1690.459Zm-206.5-8.067a3.407,3.407,0,0,1-3.216-2.286q-.228-.658-.448-1.317a3.4,3.4,0,1,1,6.458-2.156c.138.413.277.825.421,1.235a3.406,3.406,0,0,1-3.215,4.524Zm211.539-5.886a3.405,3.405,0,0,1-3.273-4.343q.179-.626.35-1.256a3.405,3.405,0,0,1,6.57,1.792q-.185.671-.375,1.341A3.408,3.408,0,0,1,8080.862,1676.506ZM7865.4,1668.1a3.4,3.4,0,0,1-3.332-2.73l-.268-1.355a3.4,3.4,0,1,1,6.686-1.287l.254,1.291a3.409,3.409,0,0,1-3.341,4.081Zm218.582-6.081a3.413,3.413,0,0,1-3.374-3.89l.182-1.3a3.4,3.4,0,0,1,6.749.905l-.19,1.368A3.405,3.405,0,0,1,8083.979,1662.017Zm-220.552-8.609a3.4,3.4,0,0,1-3.392-3.173q-.048-.7-.085-1.4a3.4,3.4,0,1,1,6.8-.363q.035.648.08,1.3a3.4,3.4,0,0,1-3.166,3.629C7863.583,1653.406,7863.5,1653.408,7863.426,1653.408Zm221.7-6.169h-.041a3.4,3.4,0,0,1-3.364-3.445q.007-.652.007-1.308v-.221a3.4,3.4,0,0,1,6.809,0v.221q0,.7-.008,1.39A3.4,3.4,0,0,1,8085.13,1647.24Zm-221.71-8.653c-.076,0-.15,0-.226-.006a3.406,3.406,0,0,1-3.176-3.619c.03-.462.064-.925.1-1.386a3.4,3.4,0,1,1,6.788.524c-.034.436-.064.87-.091,1.305A3.407,3.407,0,0,1,7863.42,1638.586Zm220.881-6.366a3.4,3.4,0,0,1-3.374-2.982l-.168-1.306a3.4,3.4,0,0,1,6.748-.908l.176,1.37a3.4,3.4,0,0,1-2.955,3.8A3.575,3.575,0,0,1,8084.3,1632.22Zm-218.937-8.327a3.406,3.406,0,0,1-3.341-4.079l.281-1.352a3.4,3.4,0,1,1,6.659,1.411l-.267,1.289A3.4,3.4,0,0,1,7865.363,1623.894Zm216.149-6.229a3.4,3.4,0,0,1-3.292-2.55q-.163-.628-.335-1.25a3.4,3.4,0,1,1,6.561-1.814q.188.676.364,1.355a3.406,3.406,0,0,1-3.3,4.26Zm-212.259-8.079a3.405,3.405,0,0,1-3.216-4.518q.228-.662.466-1.319a3.4,3.4,0,1,1,6.4,2.309q-.221.615-.437,1.235A3.4,3.4,0,0,1,7869.253,1609.585Zm207.546-5.972a3.4,3.4,0,0,1-3.146-2.1c-.167-.4-.334-.8-.506-1.2a3.4,3.4,0,1,1,6.263-2.672q.27.634.533,1.272a3.405,3.405,0,0,1-3.144,4.707Zm-201.763-7.689a3.405,3.405,0,0,1-3.035-4.942l.627-1.227a3.4,3.4,0,1,1,6.051,3.122l-.6,1.179A3.4,3.4,0,0,1,7875.037,1595.924Zm195.215-5.592a3.4,3.4,0,0,1-2.951-1.7q-.324-.56-.657-1.117a3.4,3.4,0,0,1,5.846-3.492q.357.6.708,1.2a3.406,3.406,0,0,1-2.946,5.108Zm-187.66-7.168a3.405,3.405,0,0,1-2.8-5.335q.393-.571.793-1.138a3.4,3.4,0,1,1,5.566,3.919q-.378.537-.75,1.08A3.4,3.4,0,0,1,7882.592,1583.165Zm179.393-5.128a3.4,3.4,0,0,1-2.7-1.325c-.265-.342-.53-.684-.8-1.023a3.4,3.4,0,0,1,5.333-4.235c.288.364.576.73.858,1.1a3.4,3.4,0,0,1-2.692,5.484Zm-170.207-6.51a3.405,3.405,0,0,1-2.525-5.687q.467-.517.94-1.028a3.4,3.4,0,0,1,4.993,4.631q-.445.478-.882.963A3.4,3.4,0,0,1,7891.778,1571.526Zm160.379-4.582a3.4,3.4,0,0,1-2.392-.981q-.467-.461-.937-.915a3.4,3.4,0,0,1,4.728-4.9c.333.32.664.644.995.969a3.4,3.4,0,0,1-2.393,5.827Zm-149.732-5.734a3.4,3.4,0,0,1-2.2-6q.529-.448,1.064-.891a3.4,3.4,0,1,1,4.338,5.247q-.5.416-1,.839A3.389,3.389,0,0,1,7902.425,1561.21Zm138.514-3.961a3.391,3.391,0,0,1-2.049-.688q-.521-.393-1.045-.779a3.4,3.4,0,1,1,4.029-5.488c.377.275.749.554,1.121.835a3.4,3.4,0,0,1-2.055,6.12Zm-126.6-4.849a3.405,3.405,0,0,1-1.839-6.271q.585-.375,1.177-.744a3.4,3.4,0,1,1,3.6,5.783q-.552.343-1.1.695A3.394,3.394,0,0,1,7914.339,1552.4Zm114.2-3.272a3.386,3.386,0,0,1-1.667-.438q-.573-.321-1.148-.636a3.4,3.4,0,1,1,3.269-5.973c.407.222.811.448,1.217.676a3.405,3.405,0,0,1-1.671,6.372Zm-101.223-3.872a3.4,3.4,0,0,1-1.443-6.489q.63-.292,1.261-.579a3.4,3.4,0,0,1,2.8,6.207q-.593.268-1.18.542A3.391,3.391,0,0,1,7927.313,1545.256Zm87.843-2.524a3.392,3.392,0,0,1-1.254-.241q-.609-.242-1.223-.477a3.4,3.4,0,0,1,2.436-6.359q.653.25,1.3.507a3.4,3.4,0,0,1-1.257,6.569Zm-74.027-2.821a3.405,3.405,0,0,1-1.011-6.656q.668-.206,1.334-.406a3.4,3.4,0,0,1,1.939,6.527c-.418.125-.833.251-1.249.381A3.419,3.419,0,0,1,7941.129,1539.911Zm59.909-1.72a3.41,3.41,0,0,1-.829-.1q-.633-.157-1.266-.306a3.4,3.4,0,0,1,1.561-6.628c.452.107.906.216,1.356.33a3.4,3.4,0,0,1-.823,6.707Zm-45.5-1.724a3.4,3.4,0,0,1-.561-6.762q.686-.117,1.372-.223a3.4,3.4,0,1,1,1.048,6.728c-.43.067-.862.137-1.29.209A3.444,3.444,0,0,1,7955.543,1536.467Zm30.905-.882a3.5,3.5,0,0,1-.377-.021q-.65-.071-1.3-.135a3.4,3.4,0,1,1,.662-6.777q.7.067,1.383.144a3.4,3.4,0,0,1-.37,6.789Zm-16.159-.607a3.4,3.4,0,0,1-.112-6.807q.692-.023,1.386-.038a3.36,3.36,0,0,1,3.479,3.327,3.4,3.4,0,0,1-3.327,3.479q-.654.014-1.305.037Z" transform="translate(-7859.945 -1528.131)"/></g><g transform="translate(7872.433 1540.985)"><path class="a" d="M7982.209,1738.252a3.4,3.4,0,0,1-.225-6.8c.437-.03.873-.062,1.309-.1a3.4,3.4,0,0,1,.559,6.787q-.7.058-1.41.1C7982.365,1738.249,7982.286,1738.252,7982.209,1738.252Zm-13.6-.091c-.092,0-.185,0-.279-.011-.471-.037-.94-.08-1.412-.125a3.4,3.4,0,0,1,.657-6.777q.651.063,1.3.116a3.4,3.4,0,0,1-.27,6.8Zm28.406-2.145a3.4,3.4,0,0,1-.781-6.718q.638-.151,1.274-.311a3.4,3.4,0,1,1,1.665,6.6c-.457.116-.915.229-1.372.337A3.47,3.47,0,0,1,7997.012,1736.016Zm-43.176-.29a3.384,3.384,0,0,1-.833-.1q-.688-.173-1.368-.355a3.4,3.4,0,1,1,1.758-6.577c.421.113.846.222,1.27.33a3.4,3.4,0,0,1-.827,6.706Zm57.409-4.363a3.405,3.405,0,0,1-1.316-6.545q.6-.25,1.19-.513a3.405,3.405,0,0,1,2.746,6.232c-.433.19-.866.377-1.3.56A3.392,3.392,0,0,1,8011.245,1731.363Zm-71.587-.487a3.384,3.384,0,0,1-1.364-.286q-.651-.285-1.3-.579a3.4,3.4,0,1,1,2.827-6.193c.4.18.8.36,1.2.536a3.4,3.4,0,0,1-1.367,6.523Zm84.843-6.449a3.4,3.4,0,0,1-1.833-6.276c.369-.235.74-.473,1.107-.714a3.4,3.4,0,0,1,3.729,5.7q-.587.383-1.177.759A3.384,3.384,0,0,1,8024.5,1724.427Zm-98.018-.68a3.387,3.387,0,0,1-1.861-.556q-.592-.387-1.181-.784a3.405,3.405,0,1,1,3.814-5.642q.543.369,1.093.727a3.4,3.4,0,0,1-1.866,6.254Zm109.954-8.346a3.4,3.4,0,0,1-2.273-5.94c.326-.291.651-.585.971-.882a3.4,3.4,0,1,1,4.617,5.005q-.521.479-1.045.949A3.4,3.4,0,0,1,8036.436,1715.4Zm-121.773-.85a3.388,3.388,0,0,1-2.3-.9q-.519-.476-1.032-.963a3.4,3.4,0,1,1,4.684-4.941q.476.45.96.9a3.4,3.4,0,0,1-2.308,5.909Zm132.072-10.011a3.4,3.4,0,0,1-2.651-5.535c.274-.341.545-.686.815-1.031a3.4,3.4,0,1,1,5.37,4.185q-.433.557-.876,1.109A3.4,3.4,0,0,1,8046.735,1704.54Zm-142.22-.991a3.4,3.4,0,0,1-2.687-1.309q-.434-.556-.86-1.119a3.4,3.4,0,1,1,5.429-4.111q.395.523.8,1.04a3.4,3.4,0,0,1-2.681,5.5Zm150.606-11.414a3.405,3.405,0,0,1-2.959-5.082q.319-.567.629-1.139a3.4,3.4,0,1,1,5.987,3.241c-.227.419-.456.836-.691,1.252A3.4,3.4,0,0,1,8055.122,1692.134Zm-158.816-1.1a3.4,3.4,0,0,1-2.991-1.775q-.339-.622-.667-1.25a3.4,3.4,0,1,1,6.031-3.155c.2.384.406.766.613,1.146a3.405,3.405,0,0,1-2.987,5.035Zm165.049-12.527a3.4,3.4,0,0,1-3.2-4.559q.221-.617.435-1.238a3.4,3.4,0,1,1,6.441,2.2c-.153.449-.312.9-.472,1.342A3.4,3.4,0,0,1,8061.355,1678.51Zm-171.087-1.169a3.406,3.406,0,0,1-3.219-2.3q-.229-.665-.45-1.335a3.4,3.4,0,0,1,6.468-2.129q.206.626.421,1.249a3.409,3.409,0,0,1-3.22,4.513Zm174.975-13.294a3.331,3.331,0,0,1-.613-.056,3.4,3.4,0,0,1-2.741-3.958q.116-.642.224-1.29a3.4,3.4,0,1,1,6.716,1.114q-.116.7-.241,1.394A3.4,3.4,0,0,1,8065.243,1664.047Zm-178.66-1.216a3.405,3.405,0,0,1-3.354-2.846q-.116-.692-.222-1.387a3.4,3.4,0,1,1,6.728-1.036q.1.655.209,1.305a3.405,3.405,0,0,1-2.8,3.917A3.456,3.456,0,0,1,7886.583,1662.831Zm180.1-13.684h-.052a3.405,3.405,0,0,1-3.353-3.454q.01-.655.01-1.313v-.251a3.4,3.4,0,1,1,6.809,0v.251q0,.707-.01,1.413A3.406,3.406,0,0,1,8066.684,1649.148Zm-181.34-1.3a3.351,3.351,0,0,1-3.4-3.341v-.126q0-.641.008-1.281a3.4,3.4,0,0,1,3.4-3.36h.046a3.406,3.406,0,0,1,3.361,3.448q-.009.6-.009,1.193A3.459,3.459,0,0,1,7885.343,1647.848Zm180.3-13.886a3.4,3.4,0,0,1-3.36-2.887c-.066-.433-.136-.863-.208-1.294a3.4,3.4,0,0,1,6.712-1.137q.118.7.225,1.4a3.4,3.4,0,0,1-2.847,3.882A3.5,3.5,0,0,1,8065.644,1633.962Zm-179.1-.971a3.445,3.445,0,0,1-.552-.045,3.406,3.406,0,0,1-2.812-3.908q.114-.7.239-1.394a3.4,3.4,0,1,1,6.7,1.2q-.115.645-.22,1.292A3.406,3.406,0,0,1,7886.548,1632.991Zm175.616-13.587a3.4,3.4,0,0,1-3.233-2.341q-.2-.622-.418-1.239a3.4,3.4,0,1,1,6.432-2.235q.233.67.454,1.344a3.408,3.408,0,0,1-3.234,4.47Zm-171.977-.934a3.406,3.406,0,0,1-3.221-4.507q.229-.673.469-1.341a3.4,3.4,0,1,1,6.407,2.3c-.148.413-.292.826-.435,1.24A3.4,3.4,0,0,1,7890.187,1618.47Zm166.13-12.849a3.406,3.406,0,0,1-3.019-1.824q-.3-.578-.614-1.148a3.4,3.4,0,0,1,5.979-3.26q.337.621.668,1.247a3.407,3.407,0,0,1-3.014,4.985Zm-160.129-.878a3.408,3.408,0,0,1-2.993-5.025q.338-.623.683-1.24a3.4,3.4,0,1,1,5.941,3.324c-.215.383-.425.768-.635,1.154A3.4,3.4,0,0,1,7896.188,1604.743ZM8048.279,1593a3.4,3.4,0,0,1-2.711-1.342q-.4-.524-.8-1.042a3.4,3.4,0,1,1,5.362-4.194q.432.552.858,1.113a3.4,3.4,0,0,1-2.706,5.466Zm-143.908-.8a3.4,3.4,0,0,1-2.685-5.494q.433-.556.872-1.106a3.4,3.4,0,1,1,5.32,4.251q-.411.513-.817,1.034A3.4,3.4,0,0,1,7904.372,1592.2Zm133.906-10.337a3.4,3.4,0,0,1-2.339-.93q-.475-.45-.959-.893a3.4,3.4,0,1,1,4.6-5.019q.521.479,1.035.964a3.4,3.4,0,0,1-2.339,5.878Zm-123.775-.692a3.4,3.4,0,0,1-2.311-5.907c.347-.318.692-.634,1.042-.947a3.4,3.4,0,0,1,4.548,5.066q-.489.441-.972.886A3.4,3.4,0,0,1,7914.5,1581.169Zm112.081-8.661a3.393,3.393,0,0,1-1.9-.58c-.362-.244-.726-.486-1.093-.724a3.4,3.4,0,1,1,3.71-5.708q.595.387,1.184.783a3.406,3.406,0,0,1-1.9,6.23Zm-100.289-.559a3.4,3.4,0,0,1-1.869-6.251q.583-.384,1.173-.761a3.4,3.4,0,0,1,3.668,5.737q-.555.354-1.108.717A3.394,3.394,0,0,1,7926.295,1571.95Zm87.212-6.748a3.385,3.385,0,0,1-1.411-.309q-.595-.272-1.2-.533a3.4,3.4,0,0,1,2.723-6.24q.653.286,1.3.58a3.4,3.4,0,0,1-1.417,6.5Zm-74.075-.406a3.4,3.4,0,0,1-1.377-6.519c.431-.19.863-.378,1.3-.562a3.4,3.4,0,1,1,2.646,6.273q-.6.253-1.192.515A3.4,3.4,0,0,1,7939.432,1564.795Zm59.973-4.639a3.4,3.4,0,0,1-.882-.116q-.63-.169-1.266-.328a3.4,3.4,0,1,1,1.652-6.6c.459.114.917.233,1.372.355a3.4,3.4,0,0,1-.876,6.693Zm-45.831-.246a3.405,3.405,0,0,1-.836-6.705q.686-.173,1.372-.337a3.4,3.4,0,0,1,1.578,6.623q-.639.153-1.273.314A3.413,3.413,0,0,1,7953.574,1559.909Zm31.1-2.392c-.109,0-.218-.005-.328-.016q-.65-.063-1.3-.114a3.4,3.4,0,0,1,.538-6.788q.707.056,1.414.124a3.4,3.4,0,0,1-.321,6.793Zm-16.336-.087a3.4,3.4,0,0,1-.281-6.8q.7-.058,1.41-.107a3.4,3.4,0,1,1,.468,6.792c-.436.03-.874.063-1.308.1C7968.526,1557.427,7968.43,1557.43,7968.335,1557.43Z" transform="translate(-7881.939 -1550.517)"/></g><g transform="translate(7914.239 1582.569)"><path class="a" d="M7979.93,1700.5h-.049q-.724,0-1.444-.02a3.4,3.4,0,1,1,.192-6.806c.415.012.833.017,1.252.017a3.424,3.424,0,0,1,3.428,3.4A3.383,3.383,0,0,1,7979.93,1700.5Zm13.757-1.978a3.4,3.4,0,0,1-.956-6.672q.623-.183,1.237-.383a3.4,3.4,0,0,1,2.106,6.475q-.71.231-1.428.441A3.392,3.392,0,0,1,7993.688,1698.519Zm-28.854-.383a3.41,3.41,0,0,1-1.049-.166q-.712-.231-1.416-.482a3.4,3.4,0,1,1,2.276-6.416c.411.145.822.286,1.236.419a3.4,3.4,0,0,1-1.047,6.644Zm42.66-6.18a3.4,3.4,0,0,1-1.929-6.212q.535-.365,1.057-.747a3.4,3.4,0,1,1,4.012,5.5q-.6.439-1.217.86A3.394,3.394,0,0,1,8007.493,1691.957Zm-56.289-.753a3.384,3.384,0,0,1-2-.649q-.6-.438-1.2-.894a3.4,3.4,0,1,1,4.154-5.395q.516.4,1.041.779a3.4,3.4,0,0,1-2,6.159Zm67.386-9.745a3.4,3.4,0,0,1-2.693-5.483q.4-.516.781-1.042a3.4,3.4,0,1,1,5.5,4.007q-.439.6-.9,1.194A3.4,3.4,0,0,1,8018.59,1681.459Zm-78.2-1.048a3.4,3.4,0,0,1-2.752-1.4q-.442-.606-.865-1.223a3.4,3.4,0,0,1,5.62-3.845c.242.355.491.7.743,1.052a3.4,3.4,0,0,1-2.746,5.412Zm85.54-12.363a3.407,3.407,0,0,1-3.207-4.551c.146-.406.285-.815.417-1.226a3.4,3.4,0,0,1,6.479,2.094c-.154.478-.317.952-.484,1.423A3.406,3.406,0,0,1,8025.926,1668.047Zm-92.509-1.234a3.4,3.4,0,0,1-3.235-2.353q-.232-.706-.441-1.421a3.4,3.4,0,1,1,6.53-1.927c.124.416.252.83.386,1.241a3.407,3.407,0,0,1-3.239,4.459Zm95.316-13.791h-.1a3.406,3.406,0,0,1-3.307-3.5q.02-.645.02-1.3v-.189a3.4,3.4,0,1,1,6.809,0v.189q0,.75-.022,1.493A3.4,3.4,0,0,1,8028.732,1653.022Zm-97.72-1.348a3.364,3.364,0,0,1-3.4-3.357v-.1q0-.7.018-1.394a3.445,3.445,0,0,1,3.5-3.309,3.4,3.4,0,0,1,3.308,3.5c-.01.4-.016.8-.016,1.205A3.445,3.445,0,0,1,7931.013,1651.675Zm95.719-13.989a3.407,3.407,0,0,1-3.263-2.435q-.185-.623-.387-1.239a3.4,3.4,0,0,1,6.469-2.126c.156.471.3.946.445,1.425a3.407,3.407,0,0,1-3.264,4.375Zm-93.371-1.062a3.407,3.407,0,0,1-3.241-4.451q.23-.713.479-1.418a3.4,3.4,0,0,1,6.418,2.276c-.146.408-.284.819-.417,1.234A3.407,3.407,0,0,1,7933.36,1636.624Zm86.773-12.72a3.4,3.4,0,0,1-2.8-1.467c-.248-.358-.5-.712-.756-1.062a3.4,3.4,0,0,1,5.5-4.021q.437.6.858,1.208a3.4,3.4,0,0,1-2.8,5.342Zm-79.859-.912a3.4,3.4,0,0,1-2.755-5.4q.438-.608.9-1.2a3.4,3.4,0,0,1,5.392,4.159q-.4.511-.773,1.034A3.4,3.4,0,0,1,7940.274,1622.992Zm69.322-10.161a3.391,3.391,0,0,1-2.076-.709q-.51-.393-1.032-.771a3.4,3.4,0,1,1,3.984-5.52c.407.293.81.592,1.206.9a3.4,3.4,0,0,1-2.081,6.1Zm-58.533-.673a3.4,3.4,0,0,1-2.011-6.152q.6-.437,1.2-.857a3.4,3.4,0,0,1,3.88,5.6q-.538.373-1.068.758A3.382,3.382,0,0,1,7951.063,1612.158Zm45.1-6.619a3.39,3.39,0,0,1-1.135-.2c-.41-.145-.819-.283-1.232-.416a3.4,3.4,0,1,1,2.08-6.483q.716.229,1.422.48a3.4,3.4,0,0,1-1.134,6.614Zm-31.518-.36a3.4,3.4,0,0,1-1.057-6.641q.706-.231,1.418-.442a3.4,3.4,0,0,1,1.939,6.527q-.625.185-1.244.387A3.4,3.4,0,0,1,7964.651,1605.179Zm16.485-2.4h-.088q-.582-.015-1.166-.015h-.142a3.4,3.4,0,1,1,0-6.809h.093c.5-.017.942,0,1.388.016a3.4,3.4,0,0,1-.085,6.807Z" transform="translate(-7927.608 -1595.944)"/></g><g transform="translate(7809.799 1478.133)"><path class="a" d="M7970.31,1795.288l-1.393-.005a3.4,3.4,0,0,1,.027-6.809h.026l1.26.005a3.438,3.438,0,0,1,3.445,3.4A3.37,3.37,0,0,1,7970.31,1795.288Zm13.659-.608a3.4,3.4,0,0,1-.294-6.8c.443-.039.886-.08,1.327-.124a3.4,3.4,0,1,1,.665,6.776c-.465.046-.93.09-1.4.13C7984.17,1794.675,7984.069,1794.68,7983.969,1794.68Zm-28.677-.112c-.11,0-.22-.005-.332-.016l-1.393-.14a3.405,3.405,0,0,1,.715-6.772l1.332.136a3.4,3.4,0,0,1-.323,6.792Zm43.573-1.952a3.4,3.4,0,0,1-.629-6.749l1.316-.255a3.4,3.4,0,0,1,1.322,6.68l-1.373.265A3.431,3.431,0,0,1,7998.865,1792.616Zm-58.454-.227a3.422,3.422,0,0,1-.664-.065l-1.367-.276a3.4,3.4,0,1,1,1.372-6.669l1.313.266a3.4,3.4,0,0,1-.655,6.745Zm73.08-3.291a3.405,3.405,0,0,1-.958-6.672l1.282-.382a3.4,3.4,0,1,1,1.976,6.516l-1.34.4A3.4,3.4,0,0,1,8013.491,1789.1Zm-87.678-.344a3.4,3.4,0,0,1-.984-.146q-.675-.2-1.348-.415a3.4,3.4,0,1,1,2.035-6.5q.639.2,1.28.393a3.4,3.4,0,0,1-.982,6.664Zm101.886-4.6a3.4,3.4,0,0,1-1.277-6.562q.616-.248,1.229-.5a3.4,3.4,0,1,1,2.614,6.286q-.645.268-1.292.53A3.409,3.409,0,0,1,8027.7,1784.153Zm-116.065-.46a3.383,3.383,0,0,1-1.3-.26l-1.295-.542a3.4,3.4,0,1,1,2.659-6.268l1.238.519a3.4,3.4,0,0,1-1.3,6.551Zm129.708-5.857a3.405,3.405,0,0,1-1.584-6.42l1.178-.624a3.4,3.4,0,1,1,3.217,6l-1.231.653A3.389,3.389,0,0,1,8041.341,1777.835Zm-143.314-.58a3.382,3.382,0,0,1-1.6-.4l-1.23-.665a3.4,3.4,0,1,1,3.255-5.979l1.185.64a3.4,3.4,0,0,1-1.607,6.407Zm156.271-7.049a3.405,3.405,0,0,1-1.868-6.253c.371-.244.741-.487,1.107-.734a3.4,3.4,0,1,1,3.792,5.655c-.388.26-.776.518-1.168.775A3.388,3.388,0,0,1,8054.3,1770.206Zm-169.173-.69a3.387,3.387,0,0,1-1.889-.574q-.585-.39-1.163-.784a3.4,3.4,0,0,1,3.835-5.625l1.108.747a3.405,3.405,0,0,1-1.893,6.237Zm181.324-8.173a3.4,3.4,0,0,1-2.142-6.052l1.04-.847a3.4,3.4,0,1,1,4.319,5.263l-1.08.88A3.389,3.389,0,0,1,8066.448,1761.343Zm-193.408-.793a3.389,3.389,0,0,1-2.157-.773l-1.075-.89a3.4,3.4,0,1,1,4.359-5.231l1.034.857a3.4,3.4,0,0,1-2.161,6.036Zm204.635-9.214a3.4,3.4,0,0,1-2.384-5.834q.474-.467.946-.939a3.4,3.4,0,0,1,4.818,4.81q-.494.5-1,.989A3.4,3.4,0,0,1,8077.676,1751.337Zm-215.784-.887a3.4,3.4,0,0,1-2.4-.995l-.986-.993a3.4,3.4,0,1,1,4.854-4.774l.941.947a3.4,3.4,0,0,1-2.4,5.815Zm225.988-10.167a3.4,3.4,0,0,1-2.617-5.58l.862-1.041a3.4,3.4,0,0,1,5.257,4.326l-.882,1.066A3.4,3.4,0,0,1,8087.88,1740.282Zm-236.1-.969a3.4,3.4,0,0,1-2.628-1.24l-.882-1.08a3.4,3.4,0,0,1,5.291-4.288l.846,1.038a3.4,3.4,0,0,1-2.625,5.569Zm245.173-11.029a3.4,3.4,0,0,1-2.806-5.327q.376-.552.747-1.106a3.4,3.4,0,0,1,5.66,3.786q-.392.585-.787,1.164A3.4,3.4,0,0,1,8096.954,1728.284Zm-254.149-1.038a3.4,3.4,0,0,1-2.827-1.506q-.391-.582-.775-1.167a3.4,3.4,0,0,1,5.688-3.739q.365.556.736,1.108a3.405,3.405,0,0,1-2.822,5.3Zm262.011-11.791a3.4,3.4,0,0,1-2.983-5.041q.322-.585.636-1.175a3.4,3.4,0,0,1,6,3.21c-.223.414-.445.826-.67,1.237A3.405,3.405,0,0,1,8104.816,1715.455Zm-269.763-1.094a3.4,3.4,0,0,1-3-1.791q-.331-.617-.657-1.237a3.4,3.4,0,0,1,6.03-3.164c.206.393.412.784.623,1.174a3.405,3.405,0,0,1-3,5.018Zm276.33-12.448a3.405,3.405,0,0,1-3.133-4.732l.521-1.244a3.4,3.4,0,1,1,6.287,2.61l-.539,1.288A3.405,3.405,0,0,1,8111.383,1701.913ZM7828.6,1700.78a3.409,3.409,0,0,1-3.146-2.1c-.177-.428-.355-.859-.529-1.291a3.4,3.4,0,1,1,6.311-2.553l.505,1.229a3.408,3.408,0,0,1-3.142,4.713Zm287.978-12.994a3.4,3.4,0,0,1-3.249-4.425l.393-1.281a3.4,3.4,0,0,1,6.516,1.975c-.137.449-.273.9-.415,1.346A3.406,3.406,0,0,1,8116.582,1687.786Zm-293.058-1.158a3.407,3.407,0,0,1-3.255-2.412l-.4-1.343a3.4,3.4,0,1,1,6.531-1.922l.383,1.28a3.407,3.407,0,0,1-3.257,4.4Zm296.836-13.406a3.353,3.353,0,0,1-.688-.071,3.4,3.4,0,0,1-2.65-4.019l.267-1.321a3.4,3.4,0,0,1,6.678,1.329l-.275,1.361A3.406,3.406,0,0,1,8120.36,1673.222Zm-300.5-1.184a3.406,3.406,0,0,1-3.335-2.739l-.266-1.375a3.4,3.4,0,0,1,6.688-1.269l.256,1.313a3.405,3.405,0,0,1-3.343,4.07Zm302.817-13.677a3.475,3.475,0,0,1-.362-.019,3.405,3.405,0,0,1-3.028-3.743l.136-1.331a3.4,3.4,0,0,1,6.777.655l-.141,1.391A3.406,3.406,0,0,1,8122.68,1658.361Zm-305.019-1.2a3.4,3.4,0,0,1-3.383-3.067l-.133-1.393a3.4,3.4,0,0,1,6.782-.614l.125,1.332a3.4,3.4,0,0,1-3.049,3.725A3.281,3.281,0,0,1,7817.661,1657.161Zm305.874-13.815h-.029a3.405,3.405,0,0,1-3.375-3.435l.007-1.658a3.4,3.4,0,1,1,6.809,0l-.006,1.718A3.4,3.4,0,0,1,8123.535,1643.345Zm-306.614-1.208a3.4,3.4,0,0,1-3.4-3.4l.005-1.4a3.4,3.4,0,0,1,3.4-3.37h.035a3.4,3.4,0,0,1,3.371,3.438l0,1.334A3.4,3.4,0,0,1,7816.921,1642.137ZM8122.91,1628a3.405,3.405,0,0,1-3.385-3.088l-.128-1.342a3.4,3.4,0,1,1,6.774-.675l.133,1.383a3.4,3.4,0,0,1-3.071,3.706C8123.123,1627.993,8123.016,1628,8122.91,1628Zm-305.273-.884c-.109,0-.221-.005-.331-.016a3.4,3.4,0,0,1-3.061-3.716l.139-1.392a3.4,3.4,0,0,1,6.771.716l-.134,1.331A3.4,3.4,0,0,1,7817.637,1627.114Zm303.187-14.011a3.407,3.407,0,0,1-3.339-2.76l-.259-1.322a3.4,3.4,0,0,1,6.678-1.331l.268,1.363a3.407,3.407,0,0,1-3.347,4.05Zm-301.015-.87a3.41,3.41,0,0,1-3.345-4.06l.275-1.371a3.405,3.405,0,0,1,6.671,1.37l-.266,1.312A3.405,3.405,0,0,1,7819.809,1612.232Zm297.475-13.747a3.407,3.407,0,0,1-3.265-2.442l-.383-1.281a3.4,3.4,0,1,1,6.513-1.985l.4,1.34a3.4,3.4,0,0,1-3.267,4.367Zm-293.852-.85a3.405,3.405,0,0,1-3.259-4.392l.409-1.336a3.4,3.4,0,0,1,6.5,2.018l-.4,1.292A3.407,3.407,0,0,1,7823.432,1597.635Zm288.886-13.348a3.4,3.4,0,0,1-3.154-2.12l-.51-1.237a3.4,3.4,0,0,1,6.288-2.615l.527,1.282a3.4,3.4,0,0,1-3.151,4.69Zm-283.833-.832a3.406,3.406,0,0,1-3.146-4.7l.541-1.3a3.4,3.4,0,0,1,6.272,2.65l-.518,1.239A3.4,3.4,0,0,1,7828.485,1583.456Zm277.495-12.8a3.405,3.405,0,0,1-3.016-1.821l-.625-1.175a3.4,3.4,0,0,1,6-3.227c.22.41.44.822.657,1.234a3.406,3.406,0,0,1-3.011,4.989Zm-271.068-.811a3.406,3.406,0,0,1-3-5.008q.331-.622.667-1.238a3.4,3.4,0,0,1,5.974,3.269q-.322.586-.636,1.175A3.4,3.4,0,0,1,7834.912,1569.847Zm263.419-12.134a3.4,3.4,0,0,1-2.846-1.533l-.738-1.109a3.4,3.4,0,1,1,5.649-3.8l.775,1.164a3.406,3.406,0,0,1-2.84,5.277Zm-255.685-.775a3.406,3.406,0,0,1-2.827-5.3l.778-1.154a3.4,3.4,0,0,1,5.635,3.822l-.754,1.119A3.4,3.4,0,0,1,7842.646,1556.938Zm246.805-11.362a3.4,3.4,0,0,1-2.645-1.258l-.85-1.041a3.4,3.4,0,1,1,5.253-4.33l.881,1.077a3.4,3.4,0,0,1-2.64,5.551Zm-237.844-.728a3.4,3.4,0,0,1-2.631-5.565l.889-1.072a3.4,3.4,0,1,1,5.231,4.356l-.857,1.036A3.4,3.4,0,0,1,7851.607,1544.848Zm227.816-10.487a3.4,3.4,0,0,1-2.427-1.017q-.467-.474-.939-.945a3.4,3.4,0,0,1,4.8-4.824q.5.5.989.995a3.4,3.4,0,0,1-2.427,5.791Zm-217.722-.669a3.4,3.4,0,0,1-2.409-5.809l.987-.981a3.4,3.4,0,0,1,4.784,4.844l-.952.947A3.4,3.4,0,0,1,7861.7,1533.692Zm206.649-9.518a3.391,3.391,0,0,1-2.18-.79l-1.033-.854a3.4,3.4,0,1,1,4.318-5.264l1.077.89a3.4,3.4,0,0,1-2.183,6.018Zm-195.516-.6a3.4,3.4,0,0,1-2.168-6.029q.54-.448,1.087-.889a3.4,3.4,0,1,1,4.277,5.3c-.346.278-.687.558-1.029.84A3.394,3.394,0,0,1,7872.834,1523.575Zm183.5-8.459a3.381,3.381,0,0,1-1.915-.592q-.549-.375-1.1-.744a3.4,3.4,0,1,1,3.774-5.666c.391.26.781.523,1.167.785a3.4,3.4,0,0,1-1.921,6.218Zm-171.438-.523a3.4,3.4,0,0,1-1.9-6.232l1.16-.772a3.4,3.4,0,0,1,3.747,5.685l-1.114.742A3.4,3.4,0,0,1,7884.9,1514.593Zm158.6-7.318a3.39,3.39,0,0,1-1.626-.416l-1.184-.639a3.4,3.4,0,1,1,3.21-6l1.231.664a3.4,3.4,0,0,1-1.631,6.394Zm-145.715-.441a3.4,3.4,0,0,1-1.615-6.4l1.229-.655a3.4,3.4,0,1,1,3.173,6.023l-1.176.626A3.385,3.385,0,0,1,7897.781,1506.834Zm132.164-6.1a3.387,3.387,0,0,1-1.321-.268l-1.246-.521a3.4,3.4,0,1,1,2.6-6.291l1.289.537a3.4,3.4,0,0,1-1.323,6.542Zm-118.586-.351a3.4,3.4,0,0,1-1.309-6.549l1.284-.528a3.4,3.4,0,0,1,2.564,6.307l-1.233.507A3.38,3.38,0,0,1,7911.359,1500.38Zm104.453-4.823a3.388,3.388,0,0,1-1.009-.154l-1.289-.394a3.4,3.4,0,1,1,1.965-6.519l1.339.41a3.4,3.4,0,0,1-1.007,6.656Zm-90.308-.263a3.405,3.405,0,0,1-.993-6.661c.449-.137.9-.271,1.346-.4a3.4,3.4,0,1,1,1.918,6.533q-.639.188-1.276.382A3.422,3.422,0,0,1,7925.5,1495.294Zm75.738-3.49a3.358,3.358,0,0,1-.69-.07l-1.309-.262a3.4,3.4,0,0,1,1.309-6.682c.459.091.916.182,1.373.276a3.4,3.4,0,0,1-.683,6.739Zm-61.153-.176a3.4,3.4,0,0,1-.662-6.744l1.373-.267a3.4,3.4,0,0,1,1.271,6.69l-1.312.255A3.358,3.358,0,0,1,7940.089,1491.629Zm46.292-2.123a3.473,3.473,0,0,1-.362-.018c-.441-.047-.882-.091-1.325-.133a3.4,3.4,0,1,1,.643-6.779c.467.045.932.091,1.4.14a3.4,3.4,0,0,1-.354,6.79Zm-31.415-.089a3.4,3.4,0,0,1-.329-6.792l1.387-.131a3.4,3.4,0,1,1,.614,6.781l-1.336.125C7955.189,1489.412,7955.078,1489.417,7954.966,1489.417Zm16.394-.747h-.024l-1.1,0h-.239a3.4,3.4,0,0,1,0-6.809h.211l1.181,0a3.4,3.4,0,0,1-.024,6.809Z" transform="translate(-7813.517 -1481.858)"/></g><g transform="translate(7769.565 1437.826)"><path class="a" d="M7969.018,1831.884a3.4,3.4,0,0,1-.045-6.809l1.344-.021a3.4,3.4,0,1,1,.13,6.807l-1.383.023Zm-13.642-.3c-.065,0-.131,0-.2-.005l-1.383-.083a3.4,3.4,0,1,1,.429-6.8l1.343.08a3.4,3.4,0,0,1-.191,6.8Zm28.631-.465a3.4,3.4,0,0,1-.3-6.8l1.333-.124a3.4,3.4,0,1,1,.656,6.777l-1.384.129C7984.211,1831.116,7984.107,1831.12,7984.007,1831.12Zm-43.574-.96a3.411,3.411,0,0,1-.458-.031l-1.375-.19a3.4,3.4,0,1,1,.954-6.741l1.328.184a3.4,3.4,0,0,1-.449,6.779Zm58.463-.956a3.4,3.4,0,0,1-.562-6.762l1.325-.227a3.4,3.4,0,1,1,1.173,6.705l-1.365.236A3.453,3.453,0,0,1,7998.9,1829.2Zm-73.252-1.625a3.385,3.385,0,0,1-.72-.077l-1.358-.3a3.4,3.4,0,1,1,1.481-6.645l1.308.286a3.4,3.4,0,0,1-.711,6.734Zm87.948-1.443a3.4,3.4,0,0,1-.822-6.707l1.3-.329a3.4,3.4,0,1,1,1.7,6.592l-1.35.342A3.38,3.38,0,0,1,8013.592,1826.136Zm-102.5-2.281a3.409,3.409,0,0,1-.977-.143l-1.327-.4a3.4,3.4,0,1,1,1.991-6.51l1.285.388a3.4,3.4,0,0,1-.973,6.667Zm116.911-1.922a3.4,3.4,0,0,1-1.074-6.636l1.264-.427a3.4,3.4,0,1,1,2.208,6.442l-1.324.447A3.381,3.381,0,0,1,8028.008,1821.933ZM7896.866,1819a3.393,3.393,0,0,1-1.221-.228c-.437-.168-.876-.338-1.31-.511a3.4,3.4,0,1,1,2.511-6.329q.62.246,1.242.485a3.4,3.4,0,0,1-1.223,6.583Zm145.167-2.377a3.4,3.4,0,0,1-1.334-6.538l1.234-.528a3.4,3.4,0,1,1,2.7,6.251l-1.266.543A3.393,3.393,0,0,1,8042.033,1816.622Zm-158.973-3.576a3.381,3.381,0,0,1-1.463-.333l-1.261-.609a3.4,3.4,0,1,1,2.988-6.117l1.206.581a3.405,3.405,0,0,1-1.471,6.477Zm172.541-2.809a3.4,3.4,0,0,1-1.573-6.425l1.186-.622a3.4,3.4,0,1,1,3.181,6.021l-1.226.643A3.405,3.405,0,0,1,8055.6,1810.237Zm-185.834-4.2a3.384,3.384,0,0,1-1.7-.457l-1.2-.7a3.4,3.4,0,1,1,3.449-5.87l1.16.676a3.4,3.4,0,0,1-1.705,6.353Zm198.869-3.223a3.4,3.4,0,0,1-1.8-6.3l1.131-.709a3.4,3.4,0,1,1,3.637,5.757l-1.178.737A3.389,3.389,0,0,1,8068.637,1802.816Zm-211.579-4.794a3.383,3.383,0,0,1-1.921-.6l-1.148-.794a3.4,3.4,0,1,1,3.9-5.584l1.1.763a3.4,3.4,0,0,1-1.928,6.212Zm224.006-3.618a3.4,3.4,0,0,1-2.018-6.148l1.074-.8a3.4,3.4,0,1,1,4.072,5.456l-1.115.827A3.4,3.4,0,0,1,8081.063,1794.4Zm-236.053-5.355a3.4,3.4,0,0,1-2.135-.752l-1.081-.881a3.4,3.4,0,1,1,4.313-5.266l1.039.843a3.4,3.4,0,0,1-2.137,6.056Zm247.795-3.992a3.4,3.4,0,0,1-2.225-5.982l1.016-.882a3.4,3.4,0,0,1,4.477,5.132l-1.045.905A3.387,3.387,0,0,1,8092.806,1785.057Zm-259.108-5.882a3.4,3.4,0,0,1-2.337-.929l-1-.952a3.4,3.4,0,0,1,4.7-4.928l.978.928a3.4,3.4,0,0,1-2.336,5.88Zm270.1-4.346a3.405,3.405,0,0,1-2.41-5.809l.94-.951a3.4,3.4,0,0,1,4.859,4.769l-.979.991A3.4,3.4,0,0,1,8103.794,1774.829Zm-280.616-6.367a3.391,3.391,0,0,1-2.52-1.115l-.933-1.033a3.4,3.4,0,0,1,5.075-4.539l.895.992a3.4,3.4,0,0,1-2.518,5.695Zm290.788-4.679a3.4,3.4,0,0,1-2.585-5.619l.863-1.017a3.4,3.4,0,1,1,5.212,4.378l-.9,1.067A3.4,3.4,0,0,1,8113.966,1763.783Zm-300.447-6.811a3.4,3.4,0,0,1-2.69-1.314l-.853-1.106a3.4,3.4,0,0,1,5.416-4.128l.812,1.054a3.4,3.4,0,0,1-2.685,5.494Zm309.74-4.988a3.4,3.4,0,0,1-2.751-5.407l.789-1.092a3.4,3.4,0,0,1,5.529,3.972l-.812,1.127A3.4,3.4,0,0,1,8123.259,1751.984Zm-318.484-7.208a3.4,3.4,0,0,1-2.845-1.531l-.759-1.157a3.4,3.4,0,0,1,5.706-3.714l.735,1.122a3.4,3.4,0,0,1-2.838,5.279Zm326.84-5.276a3.405,3.405,0,0,1-2.894-5.191l.693-1.14a3.4,3.4,0,0,1,5.83,3.516c-.24.4-.483.8-.729,1.2A3.4,3.4,0,0,1,8131.614,1739.5ZM7797,1731.944a3.407,3.407,0,0,1-2.981-1.754l-.669-1.219a3.4,3.4,0,0,1,5.983-3.251l.641,1.168a3.405,3.405,0,0,1-2.974,5.056Zm341.978-5.544a3.4,3.4,0,0,1-3.024-4.961l.605-1.194a3.4,3.4,0,0,1,6.083,3.057l-.634,1.248A3.4,3.4,0,0,1,8138.979,1726.4Zm-348.729-7.849a3.4,3.4,0,0,1-3.1-1.991l-.57-1.26a3.4,3.4,0,0,1,6.214-2.786l.552,1.218a3.406,3.406,0,0,1-3.1,4.819Zm355.056-5.787a3.4,3.4,0,0,1-3.141-4.714l.514-1.246a3.4,3.4,0,0,1,6.3,2.576l-.532,1.287A3.4,3.4,0,0,1,8145.306,1712.765Zm-360.746-8.082a3.4,3.4,0,0,1-3.2-2.236l-.474-1.313a3.4,3.4,0,0,1,6.415-2.28l.453,1.255a3.406,3.406,0,0,1-3.2,4.574Zm365.989-6.011a3.368,3.368,0,0,1-1.06-.17,3.4,3.4,0,0,1-2.175-4.3l.415-1.283a3.4,3.4,0,0,1,6.484,2.079l-.43,1.325A3.406,3.406,0,0,1,8150.549,1698.672Zm-370.587-8.283a3.4,3.4,0,0,1-3.275-2.489l-.371-1.348a3.4,3.4,0,1,1,6.574-1.769l.354,1.285a3.407,3.407,0,0,1-3.281,4.321Zm374.711-6.159a3.406,3.406,0,0,1-3.312-4.2l.314-1.314a3.4,3.4,0,0,1,6.626,1.569l-.32,1.34A3.407,3.407,0,0,1,8154.673,1684.229Zm-378.177-8.448a3.406,3.406,0,0,1-3.337-2.748l-.263-1.367a3.4,3.4,0,1,1,6.689-1.261l.254,1.315a3.4,3.4,0,0,1-2.684,4A3.45,3.45,0,0,1,7776.5,1675.781Zm381.159-6.265a3.412,3.412,0,0,1-3.366-3.943l.211-1.328a3.4,3.4,0,1,1,6.729,1.034l-.217,1.369A3.4,3.4,0,0,1,8157.655,1669.516Zm-383.478-8.567a3.406,3.406,0,0,1-3.378-3.012l-.155-1.378a3.4,3.4,0,1,1,6.768-.744l.15,1.336a3.4,3.4,0,0,1-2.987,3.775A3.454,3.454,0,0,1,7774.178,1660.949Zm385.3-6.335c-.1,0-.194,0-.292-.012a3.405,3.405,0,0,1-3.1-3.682l.105-1.331a3.405,3.405,0,0,1,6.791.518l-.112,1.391A3.406,3.406,0,0,1,8159.482,1654.614Zm-386.467-8.633a3.4,3.4,0,0,1-3.4-3.269l-.049-1.385a3.4,3.4,0,1,1,6.8-.22l.049,1.335a3.4,3.4,0,0,1-3.268,3.536C7773.106,1645.981,7773.061,1645.981,7773.016,1645.981Zm387.14-6.364h-.029a3.405,3.405,0,0,1-3.375-3.434l.006-1.769a3.4,3.4,0,1,1,6.809,0l-.006,1.829A3.4,3.4,0,0,1,8160.155,1639.617ZM7773,1630.971l-.126,0a3.406,3.406,0,0,1-3.278-3.527l.058-1.39a3.4,3.4,0,1,1,6.8.3l-.054,1.339A3.4,3.4,0,0,1,7773,1630.971Zm386.651-6.794a3.4,3.4,0,0,1-3.393-3.165l-.1-1.332a3.4,3.4,0,0,1,6.788-.537l.105,1.391a3.406,3.406,0,0,1-3.158,3.635C8159.814,1624.174,8159.734,1624.177,8159.653,1624.177ZM7774.134,1616a3.549,3.549,0,0,1-.392-.022,3.4,3.4,0,0,1-2.994-3.771l.163-1.381a3.4,3.4,0,0,1,6.758.826l-.156,1.331A3.406,3.406,0,0,1,7774.134,1616ZM8158,1609.257a3.406,3.406,0,0,1-3.361-2.888l-.207-1.339a3.4,3.4,0,1,1,6.727-1.054l.21,1.36a3.4,3.4,0,0,1-2.847,3.882A3.5,3.5,0,0,1,8158,1609.257Zm-381.585-8.091a3.411,3.411,0,0,1-3.347-4.052l.27-1.365a3.4,3.4,0,0,1,6.675,1.343l-.259,1.315A3.407,3.407,0,0,1,7776.418,1601.165Zm378.778-6.656a3.405,3.405,0,0,1-3.312-2.631l-.311-1.318a3.4,3.4,0,0,1,6.625-1.572l.315,1.342a3.406,3.406,0,0,1-3.318,4.179Zm-375.349-7.96a3.453,3.453,0,0,1-.907-.123,3.405,3.405,0,0,1-2.377-4.187l.376-1.34a3.4,3.4,0,1,1,6.549,1.861l-.36,1.289A3.407,3.407,0,0,1,7779.848,1586.549Zm371.4-6.526a3.406,3.406,0,0,1-3.246-2.383l-.406-1.278a3.4,3.4,0,1,1,6.479-2.091l.423,1.324a3.405,3.405,0,0,1-3.249,4.428Zm-366.845-7.777a3.407,3.407,0,0,1-3.2-4.565l.481-1.31a3.4,3.4,0,0,1,6.385,2.365l-.464,1.264A3.406,3.406,0,0,1,7784.407,1572.246Zm361.783-6.356a3.406,3.406,0,0,1-3.156-2.124l-.511-1.253a3.4,3.4,0,1,1,6.3-2.586l.521,1.276a3.407,3.407,0,0,1-3.152,4.687Zm-356.112-7.569a3.367,3.367,0,0,1-1.405-.306,3.4,3.4,0,0,1-1.691-4.507l.577-1.26a3.4,3.4,0,1,1,6.184,2.849l-.562,1.229A3.405,3.405,0,0,1,7790.078,1558.321Zm349.967-6.114a3.408,3.408,0,0,1-3.052-1.888l-.6-1.2a3.4,3.4,0,1,1,6.074-3.073l.621,1.237a3.406,3.406,0,0,1-3.045,4.921Zm-343.229-7.32a3.406,3.406,0,0,1-2.979-5.048l.68-1.221a3.4,3.4,0,1,1,5.936,3.335l-.651,1.171A3.4,3.4,0,0,1,7796.815,1544.888Zm336.039-5.844a3.4,3.4,0,0,1-2.921-1.652l-.7-1.152a3.4,3.4,0,1,1,5.819-3.533l.713,1.18a3.4,3.4,0,0,1-2.916,5.157Zm-328.278-7.023a3.405,3.405,0,0,1-2.841-5.276l.766-1.155a3.4,3.4,0,0,1,5.668,3.772l-.745,1.125A3.4,3.4,0,0,1,7804.576,1532.021Zm320.087-5.549a3.4,3.4,0,0,1-2.777-1.432l-.782-1.1a3.4,3.4,0,1,1,5.531-3.968l.8,1.12a3.4,3.4,0,0,1-2.771,5.377Zm-311.354-6.677a3.405,3.405,0,0,1-2.689-5.49l.854-1.093a3.4,3.4,0,1,1,5.356,4.2l-.827,1.061A3.4,3.4,0,0,1,7813.31,1519.795Zm302.213-5.228a3.4,3.4,0,0,1-2.618-1.227l-.864-1.033a3.4,3.4,0,0,1,5.21-4.382l.887,1.058a3.4,3.4,0,0,1-2.614,5.583Zm-292.566-6.282a3.405,3.405,0,0,1-2.52-5.692l.932-1.022a3.4,3.4,0,1,1,5.02,4.6l-.908.995A3.4,3.4,0,0,1,7822.956,1508.284Zm282.534-4.885a3.4,3.4,0,0,1-2.445-1.034l-.936-.959a3.4,3.4,0,1,1,4.854-4.774l.971.993a3.4,3.4,0,0,1-2.443,5.774Zm-272.029-5.848a3.4,3.4,0,0,1-2.337-5.881l1.009-.946a3.4,3.4,0,1,1,4.646,4.976l-.981.922A3.394,3.394,0,0,1,7833.461,1497.552Zm261.162-4.518a3.389,3.389,0,0,1-2.244-.846l-1.02-.892a3.4,3.4,0,0,1,4.476-5.132l1.036.907a3.4,3.4,0,0,1-2.248,5.963Zm-249.864-5.371a3.4,3.4,0,0,1-2.143-6.052l1.076-.866a3.4,3.4,0,0,1,4.253,5.318l-1.05.843A3.382,3.382,0,0,1,7844.759,1487.664Zm238.228-4.127a3.389,3.389,0,0,1-2.043-.684l-1.08-.808a3.4,3.4,0,0,1,4.063-5.464l1.107.83a3.4,3.4,0,0,1-2.048,6.126Zm-226.206-4.86a3.4,3.4,0,0,1-1.937-6.206l1.15-.787a3.4,3.4,0,1,1,3.816,5.638l-1.1.751A3.388,3.388,0,0,1,7856.78,1478.677Zm213.87-3.713a3.389,3.389,0,0,1-1.832-.538l-1.133-.719a3.4,3.4,0,1,1,3.625-5.762l1.178.747a3.4,3.4,0,0,1-1.838,6.272Zm-201.2-4.315a3.405,3.405,0,0,1-1.713-6.349l1.2-.693a3.4,3.4,0,1,1,3.375,5.913l-1.155.667A3.391,3.391,0,0,1,7869.454,1470.649Zm188.231-3.28a3.387,3.387,0,0,1-1.606-.4l-1.181-.626a3.4,3.4,0,1,1,3.162-6.03l1.236.656a3.4,3.4,0,0,1-1.611,6.405Zm-174.975-3.74a3.4,3.4,0,0,1-1.479-6.473l1.249-.595a3.4,3.4,0,1,1,2.909,6.156l-1.208.576A3.4,3.4,0,0,1,7882.711,1463.629Zm161.455-2.825a3.393,3.393,0,0,1-1.368-.288l-1.229-.533a3.4,3.4,0,1,1,2.684-6.258l1.284.557a3.4,3.4,0,0,1-1.371,6.521Zm-147.7-3.14a3.4,3.4,0,0,1-1.236-6.577l1.3-.5a3.4,3.4,0,0,1,2.417,6.366l-1.25.48A3.4,3.4,0,0,1,7896.464,1457.664Zm133.709-2.352a3.4,3.4,0,0,1-1.121-.19l-1.269-.437a3.4,3.4,0,0,1,2.186-6.448l1.324.457a3.4,3.4,0,0,1-1.12,6.618Zm-119.515-2.53a3.405,3.405,0,0,1-.978-6.666l1.332-.394a3.4,3.4,0,0,1,1.913,6.534l-1.286.382A3.41,3.41,0,0,1,7910.658,1452.782Zm105.15-1.848a3.4,3.4,0,0,1-.866-.112l-1.3-.336a3.4,3.4,0,1,1,1.678-6.6l1.347.348a3.4,3.4,0,0,1-.859,6.7Zm-90.615-1.911a3.4,3.4,0,0,1-.72-6.732l1.356-.289a3.4,3.4,0,0,1,1.4,6.662l-1.313.28A3.4,3.4,0,0,1,7925.193,1449.023Zm75.954-1.329a3.48,3.48,0,0,1-.61-.055l-1.319-.234a3.4,3.4,0,1,1,1.164-6.708l1.368.243a3.4,3.4,0,0,1-.6,6.755Zm-61.174-1.286a3.4,3.4,0,0,1-.459-6.778l1.379-.185a3.4,3.4,0,0,1,.876,6.753l-1.329.177A3.364,3.364,0,0,1,7939.974,1446.408Zm46.31-.807a3.412,3.412,0,0,1-.347-.017l-1.334-.13a3.4,3.4,0,0,1,.636-6.78l1.384.136a3.4,3.4,0,0,1-.339,6.791Zm-31.368-.654a3.4,3.4,0,0,1-.2-6.8l1.383-.077a3.4,3.4,0,0,1,.358,6.8l-1.342.074C7955.05,1444.944,7954.982,1444.946,7954.915,1444.946Zm16.383-.283h-.086l-1.34-.028a3.4,3.4,0,1,1,.12-6.807l1.39.029a3.4,3.4,0,0,1-.084,6.807Z" transform="translate(-7769.564 -1437.827)"/></g><g transform="translate(7789.227 1457.484)"><path class="a" d="M7970.812,1814.046a3.4,3.4,0,0,1-.043-6.809l1.33-.023a3.4,3.4,0,0,1,.149,6.807l-1.39.025Zm-13.6-.331c-.071,0-.143,0-.217-.007l-1.385-.093a3.4,3.4,0,1,1,.479-6.791l1.334.089a3.4,3.4,0,0,1-.212,6.8Zm28.537-.514a3.4,3.4,0,0,1-.33-6.792l1.323-.137a3.4,3.4,0,0,1,.729,6.77l-1.385.142A3.189,3.189,0,0,1,7985.752,1813.2Zm-43.417-1.066a3.382,3.382,0,0,1-.507-.038l-1.377-.212a3.4,3.4,0,0,1,1.066-6.725l1.315.2a3.4,3.4,0,0,1-.5,6.771Zm58.232-1.051a3.4,3.4,0,0,1-.625-6.751l1.313-.251a3.4,3.4,0,0,1,1.306,6.682l-1.36.26A3.4,3.4,0,0,1,8000.567,1811.083Zm-72.926-1.8a3.4,3.4,0,0,1-.8-.094l-1.35-.329a3.4,3.4,0,0,1,1.638-6.608l1.3.316a3.4,3.4,0,0,1-.79,6.715Zm87.5-1.586a3.4,3.4,0,0,1-.912-6.684l1.287-.364a3.4,3.4,0,1,1,1.875,6.545l-1.335.378A3.4,3.4,0,0,1,8015.145,1807.694Zm-101.9-2.528a3.394,3.394,0,0,1-1.078-.177l-1.321-.445a3.4,3.4,0,1,1,2.209-6.442l1.269.429a3.4,3.4,0,0,1-1.078,6.634Zm116.13-2.112a3.4,3.4,0,0,1-1.2-6.593l1.249-.473a3.4,3.4,0,1,1,2.439,6.357l-1.3.492A3.384,3.384,0,0,1,8029.377,1803.053Zm-130.127-3.241a3.4,3.4,0,0,1-1.352-.281l-1.273-.556a3.4,3.4,0,0,1,2.748-6.23l1.229.539a3.4,3.4,0,0,1-1.353,6.529Zm143.895-2.608a3.405,3.405,0,0,1-1.469-6.477l1.2-.579a3.4,3.4,0,1,1,2.974,6.125l-1.242.6A3.4,3.4,0,0,1,8043.145,1797.2Zm-157.374-3.934a3.388,3.388,0,0,1-1.615-.41l-1.222-.665a3.4,3.4,0,0,1,3.283-5.966l1.173.641a3.4,3.4,0,0,1-1.619,6.4Zm170.584-3.08a3.4,3.4,0,0,1-1.73-6.338l1.148-.681a3.4,3.4,0,0,1,3.492,5.845l-1.186.7A3.386,3.386,0,0,1,8056.354,1790.189Zm-183.444-4.6a3.4,3.4,0,0,1-1.865-.557l-1.161-.771a3.4,3.4,0,1,1,3.784-5.659l1.111.736a3.4,3.4,0,0,1-1.869,6.251Zm196-3.528a3.4,3.4,0,0,1-1.974-6.18l1.082-.775a3.4,3.4,0,0,1,3.989,5.519l-1.128.807A3.385,3.385,0,0,1,8068.914,1782.063Zm-208.153-5.225a3.387,3.387,0,0,1-2.106-.732l-1.08-.858a3.4,3.4,0,1,1,4.244-5.322l1.054.836a3.4,3.4,0,0,1-2.111,6.077Zm219.975-3.95a3.4,3.4,0,0,1-2.2-6.008c.338-.284.671-.57,1-.858a3.4,3.4,0,1,1,4.447,5.156q-.529.457-1.064.908A3.388,3.388,0,0,1,8080.735,1772.888Zm-231.329-5.808a3.389,3.389,0,0,1-2.326-.921l-1.011-.954a3.4,3.4,0,0,1,4.7-4.929l.968.915a3.4,3.4,0,0,1-2.33,5.888Zm242.322-4.345a3.4,3.4,0,0,1-2.415-5.8l.939-.951a3.4,3.4,0,1,1,4.864,4.765l-.974.986A3.394,3.394,0,0,1,8091.729,1762.734Zm-252.8-6.346a3.4,3.4,0,0,1-2.532-1.128l-.922-1.034a3.4,3.4,0,1,1,5.1-4.516l.888,1a3.4,3.4,0,0,1-2.529,5.681Zm262.889-4.713a3.405,3.405,0,0,1-2.611-5.589l.854-1.028a3.4,3.4,0,1,1,5.255,4.328l-.886,1.067A3.4,3.4,0,0,1,8101.82,1751.676Zm-272.41-6.833a3.4,3.4,0,0,1-2.721-1.355l-.826-1.1a3.4,3.4,0,1,1,5.458-4.071l.8,1.074a3.4,3.4,0,0,1-2.716,5.453Zm281.516-5.052a3.4,3.4,0,0,1-2.784-5.359l.762-1.1a3.4,3.4,0,1,1,5.606,3.863l-.793,1.143A3.4,3.4,0,0,1,8110.926,1739.792Zm-290.016-7.261a3.4,3.4,0,0,1-2.885-1.594l-.733-1.176a3.4,3.4,0,1,1,5.794-3.576l.7,1.13a3.406,3.406,0,0,1-2.88,5.216Zm298.075-5.36a3.406,3.406,0,0,1-2.944-5.108l.667-1.163a3.4,3.4,0,1,1,5.918,3.367l-.688,1.2A3.407,3.407,0,0,1,8118.985,1727.171Zm-305.482-7.636a3.4,3.4,0,0,1-3.032-1.853l-.622-1.22a3.4,3.4,0,1,1,6.072-3.081l.608,1.2a3.405,3.405,0,0,1-3.026,4.958Zm312.425-5.637a3.4,3.4,0,0,1-3.075-4.857l.561-1.208a3.4,3.4,0,0,1,6.187,2.844c-.2.424-.391.847-.59,1.268A3.405,3.405,0,0,1,8125.928,1713.9Zm-318.685-7.943a3.406,3.406,0,0,1-3.15-2.113l-.522-1.289a3.4,3.4,0,1,1,6.321-2.531l.5,1.235a3.406,3.406,0,0,1-3.148,4.7Zm324.459-5.883a3.405,3.405,0,0,1-3.2-4.578l.46-1.264a3.4,3.4,0,0,1,6.406,2.305l-.475,1.305A3.405,3.405,0,0,1,8131.7,1700.071Zm-329.527-8.2a3.406,3.406,0,0,1-3.249-2.391l-.406-1.325a3.4,3.4,0,1,1,6.513-1.981l.394,1.279a3.4,3.4,0,0,1-3.251,4.418Zm334.077-6.064a3.406,3.406,0,0,1-3.286-4.3l.345-1.285a3.4,3.4,0,1,1,6.583,1.735l-.359,1.345A3.406,3.406,0,0,1,8136.252,1685.806Zm-337.906-8.406a3.405,3.405,0,0,1-3.322-2.676l-.291-1.363a3.4,3.4,0,1,1,6.663-1.394l.278,1.3a3.407,3.407,0,0,1-3.328,4.133Zm341.2-6.194a3.354,3.354,0,0,1-.613-.056,3.4,3.4,0,0,1-2.739-3.958l.23-1.31a3.4,3.4,0,0,1,6.711,1.157l-.242,1.371A3.407,3.407,0,0,1,8139.55,1671.206Zm-343.766-8.551a3.4,3.4,0,0,1-3.371-2.966l-.175-1.38a3.405,3.405,0,0,1,6.761-.818l.165,1.32a3.4,3.4,0,0,1-2.937,3.816A3.446,3.446,0,0,1,7795.784,1662.655Zm345.789-6.279c-.105,0-.216,0-.323-.015a3.4,3.4,0,0,1-3.07-3.708l.118-1.325a3.4,3.4,0,1,1,6.784.577l-.123,1.387A3.4,3.4,0,0,1,8141.573,1656.377Zm-347.074-8.633a3.4,3.4,0,0,1-3.4-3.259l-.055-1.38a3.4,3.4,0,0,1,6.8-.241l.053,1.33a3.4,3.4,0,0,1-3.256,3.546C7794.6,1647.743,7794.548,1647.743,7794.5,1647.743Zm347.82-6.313h-.031a3.4,3.4,0,0,1-3.373-3.434l0-1.729a3.4,3.4,0,1,1,6.809,0l0,1.789A3.405,3.405,0,0,1,8142.319,1641.43Zm-347.83-8.649-.144,0a3.405,3.405,0,0,1-3.262-3.542l.063-1.385a3.4,3.4,0,0,1,6.8.33l-.06,1.334A3.4,3.4,0,0,1,7794.489,1632.781Zm347.275-6.706a3.4,3.4,0,0,1-3.39-3.135l-.11-1.325a3.4,3.4,0,0,1,6.781-.6l.117,1.388a3.406,3.406,0,0,1-3.125,3.662C8141.947,1626.071,8141.855,1626.075,8141.765,1626.075Zm-346.022-8.207a3.466,3.466,0,0,1-.433-.027,3.4,3.4,0,0,1-2.948-3.806l.182-1.379a3.4,3.4,0,1,1,6.746.917l-.174,1.32A3.406,3.406,0,0,1,7795.742,1617.868Zm344.2-6.646a3.406,3.406,0,0,1-3.354-2.848l-.223-1.312a3.4,3.4,0,1,1,6.705-1.176l.233,1.373a3.4,3.4,0,0,1-2.8,3.916A3.44,3.44,0,0,1,8139.94,1611.222Zm-341.669-8.106a3.406,3.406,0,0,1-3.332-4.124l.3-1.358a3.4,3.4,0,1,1,6.643,1.5l-.286,1.3A3.406,3.406,0,0,1,7798.271,1603.116Zm338.572-6.537a3.405,3.405,0,0,1-3.3-2.559l-.335-1.285a3.4,3.4,0,1,1,6.577-1.757l.354,1.349a3.4,3.4,0,0,1-3.3,4.252Zm-334.781-7.94a3.4,3.4,0,0,1-3.254-4.408l.418-1.335a3.4,3.4,0,1,1,6.487,2.064l-.4,1.277A3.406,3.406,0,0,1,7802.063,1588.639Zm330.428-6.38a3.4,3.4,0,0,1-3.211-2.276l-.448-1.254a3.4,3.4,0,0,1,6.4-2.314l.467,1.31a3.406,3.406,0,0,1-3.212,4.534Zm-325.389-7.733a3.407,3.407,0,0,1-3.153-4.687q.264-.648.533-1.293a3.4,3.4,0,0,1,6.282,2.624l-.507,1.233A3.405,3.405,0,0,1,7807.1,1574.526Zm319.819-6.144a3.406,3.406,0,0,1-3.1-2l-.556-1.211a3.4,3.4,0,0,1,6.179-2.863l.574,1.255a3.406,3.406,0,0,1-3.1,4.815Zm-313.577-7.476a3.4,3.4,0,0,1-3.025-4.957l.637-1.234a3.4,3.4,0,1,1,6.037,3.148l-.616,1.191A3.4,3.4,0,0,1,7813.344,1560.906Zm306.826-5.869a3.4,3.4,0,0,1-2.974-1.743l-.653-1.153a3.4,3.4,0,1,1,5.91-3.38l.685,1.207a3.405,3.405,0,0,1-2.968,5.069Zm-299.433-7.158a3.407,3.407,0,0,1-2.886-5.208q.371-.593.747-1.184a3.4,3.4,0,0,1,5.737,3.666q-.357.559-.708,1.122A3.4,3.4,0,0,1,7820.737,1547.879Zm291.558-5.56a3.4,3.4,0,0,1-2.819-1.493l-.75-1.093a3.4,3.4,0,1,1,5.6-3.879l.788,1.148a3.406,3.406,0,0,1-2.814,5.317Zm-283.074-6.781a3.405,3.405,0,0,1-2.721-5.448q.42-.559.845-1.114a3.4,3.4,0,1,1,5.4,4.145c-.27.351-.535.7-.8,1.057A3.4,3.4,0,0,1,7829.221,1535.538Zm274.133-5.22a3.4,3.4,0,0,1-2.64-1.251l-.85-1.035a3.4,3.4,0,1,1,5.248-4.338l.876,1.066a3.4,3.4,0,0,1-2.635,5.558Zm-264.625-6.347a3.4,3.4,0,0,1-2.532-5.678l.921-1.022a3.4,3.4,0,0,1,5.049,4.57l-.9,1A3.391,3.391,0,0,1,7838.729,1523.972Zm254.688-4.846a3.4,3.4,0,0,1-2.446-1.038l-.932-.958a3.4,3.4,0,1,1,4.858-4.768l.967.992a3.405,3.405,0,0,1-2.447,5.772Zm-244.227-5.864a3.4,3.4,0,0,1-2.334-5.882c.34-.319.679-.636,1.021-.952a3.4,3.4,0,0,1,4.617,5.005q-.488.45-.969.9A3.392,3.392,0,0,1,7849.189,1513.262Zm233.367-4.443a3.391,3.391,0,0,1-2.238-.84l-1-.87a3.4,3.4,0,1,1,4.432-5.169l1.053.911a3.4,3.4,0,0,1-2.241,5.969Zm-222.03-5.331a3.4,3.4,0,0,1-2.116-6.073q.548-.434,1.1-.862a3.4,3.4,0,1,1,4.167,5.383q-.521.405-1.04.816A3.389,3.389,0,0,1,7860.526,1503.488Zm210.331-4.01a3.394,3.394,0,0,1-2-.653l-1.089-.788a3.4,3.4,0,0,1,3.979-5.525l1.119.81a3.405,3.405,0,0,1-2.008,6.156Zm-198.2-4.755a3.405,3.405,0,0,1-1.878-6.246l1.16-.76a3.4,3.4,0,1,1,3.7,5.713l-1.114.729A3.386,3.386,0,0,1,7872.653,1494.722Zm185.742-3.55a3.388,3.388,0,0,1-1.766-.5l-1.141-.687a3.4,3.4,0,1,1,3.481-5.851l1.2.719a3.4,3.4,0,0,1-1.771,6.314Zm-172.912-4.144a3.405,3.405,0,0,1-1.625-6.4l1.216-.653a3.405,3.405,0,0,1,3.205,6.009l-1.176.631A3.387,3.387,0,0,1,7885.483,1487.028Zm159.781-3.061a3.4,3.4,0,0,1-1.5-.352l-1.2-.588a3.4,3.4,0,0,1,2.966-6.13l1.25.612a3.4,3.4,0,0,1-1.51,6.457Zm-146.343-3.5a3.4,3.4,0,0,1-1.361-6.526l1.271-.547a3.4,3.4,0,1,1,2.67,6.263l-1.22.526A3.4,3.4,0,0,1,7898.922,1480.471Zm132.636-2.55a3.39,3.39,0,0,1-1.239-.235l-1.247-.481a3.4,3.4,0,0,1,2.426-6.362l1.3.5a3.4,3.4,0,0,1-1.241,6.575Zm-118.686-2.82a3.4,3.4,0,0,1-1.084-6.631l1.316-.438a3.4,3.4,0,1,1,2.12,6.47l-1.269.421A3.394,3.394,0,0,1,7912.872,1475.1Zm104.517-2.012a3.4,3.4,0,0,1-.961-.138l-1.281-.371a3.4,3.4,0,0,1,1.866-6.548l1.333.385a3.4,3.4,0,0,1-.957,6.672Zm-90.14-2.135a3.405,3.405,0,0,1-.8-6.715l1.349-.32a3.4,3.4,0,0,1,1.548,6.63l-1.3.308A3.407,3.407,0,0,1,7927.249,1470.953Zm75.613-1.452a3.423,3.423,0,0,1-.677-.068l-1.312-.259a3.4,3.4,0,1,1,1.3-6.683l1.36.268a3.4,3.4,0,0,1-.669,6.742Zm-60.928-1.437a3.4,3.4,0,0,1-.511-6.77l1.375-.2a3.4,3.4,0,0,1,.97,6.74l-1.316.194A3.43,3.43,0,0,1,7941.935,1468.064Zm46.144-.881a3.228,3.228,0,0,1-.389-.022l-1.323-.145a3.4,3.4,0,1,1,.707-6.771l1.385.151a3.4,3.4,0,0,1-.38,6.787Zm-31.267-.733a3.4,3.4,0,0,1-.216-6.8l1.384-.085a3.4,3.4,0,1,1,.389,6.8l-1.334.081C7956.96,1466.448,7956.885,1466.449,7956.812,1466.449Zm16.332-.309-.1,0-1.331-.031a3.405,3.405,0,0,1-3.339-3.469,3.448,3.448,0,0,1,3.47-3.339l1.39.032a3.4,3.4,0,0,1-.094,6.808Z" transform="translate(-7791.044 -1459.3)"/></g><g transform="translate(7830.808 1499.143)"><path class="a" d="M7972.243,1776.219l-1.382-.006a3.4,3.4,0,0,1,.03-6.809h.034l1.247.006a3.434,3.434,0,0,1,3.439,3.4A3.374,3.374,0,0,1,7972.243,1776.219Zm13.462-.685a3.4,3.4,0,0,1-.338-6.791q.653-.066,1.305-.139a3.4,3.4,0,1,1,.756,6.766q-.689.077-1.377.147A3.414,3.414,0,0,1,7985.7,1775.535Zm-28.267-.126a3.17,3.17,0,0,1-.382-.022l-1.37-.158a3.4,3.4,0,1,1,.816-6.759l1.309.152a3.4,3.4,0,0,1-.374,6.788Zm42.917-2.2a3.405,3.405,0,0,1-.717-6.733c.431-.092.857-.188,1.284-.285a3.4,3.4,0,0,1,1.509,6.64q-.677.153-1.353.3A3.44,3.44,0,0,1,8000.354,1773.21Zm-57.546-.261a3.394,3.394,0,0,1-.756-.085l-1.347-.313a3.4,3.4,0,1,1,1.573-6.625l1.282.3a3.405,3.405,0,0,1-.752,6.726Zm71.845-3.7a3.4,3.4,0,0,1-1.1-6.628l1.245-.43a3.4,3.4,0,0,1,2.256,6.424l-1.307.451A3.4,3.4,0,0,1,8014.653,1769.253Zm-86.106-.394a3.4,3.4,0,0,1-1.121-.19q-.661-.229-1.315-.467a3.4,3.4,0,1,1,2.319-6.4c.411.148.825.295,1.238.439a3.4,3.4,0,0,1-1.121,6.619Zm99.865-5.152a3.4,3.4,0,0,1-1.448-6.488c.4-.184.788-.372,1.179-.56a3.4,3.4,0,1,1,2.963,6.13c-.416.2-.831.4-1.25.6A3.393,3.393,0,0,1,8028.413,1763.707Zm-113.58-.524a3.389,3.389,0,0,1-1.473-.337q-.63-.3-1.254-.612a3.4,3.4,0,0,1,3.028-6.1q.586.293,1.177.574a3.4,3.4,0,0,1-1.478,6.474Zm126.622-6.53a3.4,3.4,0,0,1-1.785-6.3q.557-.343,1.107-.69a3.4,3.4,0,0,1,3.635,5.756q-.586.371-1.178.734A3.381,3.381,0,0,1,8041.455,1756.653Zm-139.608-.65a3.389,3.389,0,0,1-1.811-.523l-1.167-.743a3.4,3.4,0,0,1,3.678-5.729l1.114.708a3.4,3.4,0,0,1-1.814,6.287Zm151.779-7.82a3.4,3.4,0,0,1-2.1-6.087q.518-.4,1.03-.813a3.4,3.4,0,1,1,4.25,5.318q-.541.432-1.086.858A3.387,3.387,0,0,1,8053.626,1748.182Zm-163.88-.768a3.393,3.393,0,0,1-2.118-.741c-.361-.288-.723-.579-1.081-.871a3.4,3.4,0,1,1,4.3-5.277c.34.276.679.55,1.022.823a3.4,3.4,0,0,1-2.124,6.067Zm175.033-9.009a3.4,3.4,0,0,1-2.382-5.837q.469-.46.934-.925a3.4,3.4,0,0,1,4.813,4.814q-.487.489-.983.975A3.394,3.394,0,0,1,8064.778,1738.406Zm-186.1-.874a3.4,3.4,0,0,1-2.407-1l-.972-.981a3.4,3.4,0,1,1,4.859-4.768l.927.935a3.4,3.4,0,0,1-2.407,5.811Zm196.092-10.085a3.405,3.405,0,0,1-2.635-5.558q.415-.508.823-1.02a3.4,3.4,0,0,1,5.322,4.246q-.432.544-.871,1.082A3.4,3.4,0,0,1,8074.775,1727.447Zm-205.984-.965a3.4,3.4,0,0,1-2.663-1.279q-.431-.541-.859-1.086a3.4,3.4,0,0,1,5.364-4.194q.4.516.814,1.029a3.4,3.4,0,0,1-2.657,5.53Zm214.7-11.04a3.406,3.406,0,0,1-2.861-5.247q.356-.552.705-1.109a3.4,3.4,0,0,1,5.766,3.622c-.246.391-.494.783-.744,1.171A3.4,3.4,0,0,1,8083.491,1715.442Zm-223.3-1.043a3.4,3.4,0,0,1-2.884-1.589q-.366-.584-.729-1.171a3.4,3.4,0,0,1,5.8-3.575l.7,1.114a3.406,3.406,0,0,1-2.878,5.221Zm230.618-11.864a3.407,3.407,0,0,1-3.047-4.919c.194-.391.388-.784.576-1.177a3.4,3.4,0,0,1,6.136,2.952q-.3.629-.613,1.254A3.406,3.406,0,0,1,8090.809,1702.536Zm-237.814-1.1a3.406,3.406,0,0,1-3.066-1.921q-.3-.621-.594-1.244a3.4,3.4,0,0,1,6.157-2.907l.565,1.184a3.406,3.406,0,0,1-3.062,4.889Zm243.641-12.547a3.407,3.407,0,0,1-3.2-4.558l.443-1.247a3.4,3.4,0,1,1,6.428,2.246l-.464,1.306A3.4,3.4,0,0,1,8096.635,1688.887Zm-249.334-1.146a3.4,3.4,0,0,1-3.211-2.277l-.453-1.306a3.4,3.4,0,0,1,6.446-2.192l.429,1.243a3.406,3.406,0,0,1-3.211,4.533Zm253.583-13.074a3.362,3.362,0,0,1-.788-.093,3.406,3.406,0,0,1-2.527-4.1l.3-1.282a3.4,3.4,0,1,1,6.639,1.509l-.312,1.346A3.408,3.408,0,0,1,8100.884,1674.667Zm-257.7-1.177a3.4,3.4,0,0,1-3.316-2.649l-.3-1.349a3.4,3.4,0,0,1,6.653-1.447l.287,1.285a3.409,3.409,0,0,1-3.322,4.161Zm260.317-13.421a3.415,3.415,0,0,1-3.383-3.818q.08-.65.15-1.3a3.4,3.4,0,0,1,6.769.744c-.05.461-.105.922-.161,1.381A3.406,3.406,0,0,1,8103.5,1660.069Zm-262.8-1.2a3.407,3.407,0,0,1-3.38-3.023c-.051-.46-.1-.921-.147-1.381a3.4,3.4,0,0,1,6.774-.685q.066.651.14,1.3a3.4,3.4,0,0,1-3,3.765A3.46,3.46,0,0,1,7840.7,1658.866Zm263.764-13.6h-.031a3.4,3.4,0,0,1-3.374-3.435l.006-1.32v-.279a3.4,3.4,0,1,1,6.808,0l0,.231-.006,1.428A3.406,3.406,0,0,1,8104.467,1645.268Zm-264.6-1.21a3.4,3.4,0,0,1-3.4-3.4l.006-1.383a3.4,3.4,0,0,1,3.4-3.37h.035a3.4,3.4,0,0,1,3.371,3.438l-.006,1.315A3.4,3.4,0,0,1,7839.872,1644.058Zm263.891-13.884a3.4,3.4,0,0,1-3.381-3.052l-.142-1.312a3.4,3.4,0,1,1,6.766-.765l.147,1.372a3.4,3.4,0,0,1-3.033,3.739C8104,1630.168,8103.88,1630.174,8103.763,1630.174Zm-263.085-.925a3.277,3.277,0,0,1-.376-.021,3.4,3.4,0,0,1-3.011-3.756l.158-1.371a3.4,3.4,0,1,1,6.76.807l-.15,1.31A3.406,3.406,0,0,1,7840.678,1629.249Zm260.74-13.718a3.407,3.407,0,0,1-3.325-2.682c-.091-.426-.187-.85-.285-1.275a3.4,3.4,0,0,1,6.635-1.531q.155.678.3,1.359a3.408,3.408,0,0,1-3.33,4.129Zm-258.288-.909a3.363,3.363,0,0,1-.757-.085,3.4,3.4,0,0,1-2.565-4.074l.311-1.345a3.4,3.4,0,1,1,6.625,1.571l-.3,1.283A3.406,3.406,0,0,1,7843.129,1614.621Zm254.309-13.381a3.4,3.4,0,0,1-3.222-2.308l-.431-1.245a3.4,3.4,0,1,1,6.423-2.255l.452,1.3a3.407,3.407,0,0,1-3.222,4.5Zm-250.229-.881a3.406,3.406,0,0,1-3.215-4.527l.463-1.308a3.4,3.4,0,1,1,6.407,2.306l-.441,1.246A3.406,3.406,0,0,1,7847.209,1600.359Zm244.665-12.867a3.4,3.4,0,0,1-3.078-1.943l-.568-1.188a3.4,3.4,0,1,1,6.125-2.972l.593,1.238a3.406,3.406,0,0,1-3.072,4.866Zm-239-.848a3.407,3.407,0,0,1-3.066-4.881c.2-.417.4-.832.608-1.247a3.4,3.4,0,0,1,6.106,3.013l-.578,1.186A3.408,3.408,0,0,1,7852.876,1586.645Zm231.924-12.183a3.4,3.4,0,0,1-2.9-1.613l-.7-1.116a3.4,3.4,0,1,1,5.755-3.635l.732,1.167a3.4,3.4,0,0,1-2.892,5.2Zm-224.752-.806a3.407,3.407,0,0,1-2.882-5.214q.369-.588.745-1.171a3.4,3.4,0,0,1,5.729,3.678c-.236.369-.473.739-.705,1.11A3.4,3.4,0,0,1,7860.048,1573.655Zm216.261-11.352a3.4,3.4,0,0,1-2.682-1.3l-.816-1.03a3.4,3.4,0,0,1,5.315-4.256q.433.539.859,1.084a3.4,3.4,0,0,1-2.676,5.505Zm-207.679-.753a3.4,3.4,0,0,1-2.658-5.527q.431-.541.869-1.079a3.4,3.4,0,1,1,5.276,4.3c-.276.34-.55.681-.824,1.023A3.4,3.4,0,0,1,7868.63,1561.55Zm197.882-10.386a3.394,3.394,0,0,1-2.427-1.017q-.458-.467-.925-.929a3.4,3.4,0,1,1,4.8-4.83q.491.489.978.985a3.4,3.4,0,0,1-2.427,5.791Zm-188-.684a3.4,3.4,0,0,1-2.409-5.809l.979-.972a3.4,3.4,0,0,1,4.774,4.855l-.935.927A3.394,3.394,0,0,1,7878.509,1550.48Zm177.028-9.3a3.39,3.39,0,0,1-2.142-.761q-.51-.415-1.026-.824a3.4,3.4,0,1,1,4.234-5.33q.543.43,1.082.868a3.4,3.4,0,0,1-2.148,6.047Zm-165.98-.6a3.4,3.4,0,0,1-2.127-6.064l1.075-.853a3.4,3.4,0,0,1,4.21,5.351l-1.035.821A3.4,3.4,0,0,1,7889.557,1540.579Zm153.958-8.094a3.39,3.39,0,0,1-1.836-.54q-.555-.356-1.11-.7a3.4,3.4,0,1,1,3.617-5.768q.588.37,1.171.744a3.4,3.4,0,0,1-1.842,6.269Zm-141.879-.513a3.4,3.4,0,0,1-1.821-6.283l1.171-.731a3.4,3.4,0,1,1,3.579,5.792l-1.114.7A3.392,3.392,0,0,1,7901.636,1531.972Zm128.962-6.786a3.4,3.4,0,0,1-1.5-.351q-.589-.291-1.184-.577a3.4,3.4,0,1,1,2.95-6.137c.417.2.834.4,1.248.607a3.4,3.4,0,0,1-1.509,6.458Zm-116-.416a3.4,3.4,0,0,1-1.487-6.467q.623-.3,1.254-.6a3.4,3.4,0,0,1,2.891,6.165q-.59.276-1.175.56A3.381,3.381,0,0,1,7914.6,1524.77Zm102.346-5.384a3.409,3.409,0,0,1-1.155-.2q-.617-.224-1.24-.438a3.4,3.4,0,0,1,2.234-6.432c.44.153.878.308,1.316.466a3.4,3.4,0,0,1-1.156,6.607Zm-88.657-.315a3.405,3.405,0,0,1-1.128-6.617l1.3-.45a3.4,3.4,0,0,1,2.206,6.443l-1.251.432A3.371,3.371,0,0,1,7928.286,1519.071Zm74.434-3.909a3.43,3.43,0,0,1-.788-.093c-.426-.1-.853-.2-1.28-.3a3.4,3.4,0,1,1,1.5-6.64q.677.153,1.352.311a3.405,3.405,0,0,1-.784,6.718Zm-60.187-.212a3.4,3.4,0,0,1-.76-6.723c.453-.1.907-.206,1.359-.3a3.4,3.4,0,0,1,1.439,6.655q-.64.139-1.274.285A3.423,3.423,0,0,1,7942.532,1514.951Zm45.585-2.382a3.317,3.317,0,0,1-.412-.026q-.65-.078-1.3-.15a3.4,3.4,0,1,1,.743-6.768q.691.075,1.377.158a3.4,3.4,0,0,1-.4,6.785Zm-30.967-.108a3.4,3.4,0,0,1-.378-6.788c.459-.052.918-.1,1.378-.148a3.4,3.4,0,1,1,.693,6.773q-.655.067-1.306.141A3.465,3.465,0,0,1,7957.15,1512.461Zm16.162-.839h-.029l-1.319,0a3.4,3.4,0,0,1,0-6.809l1.377,0a3.4,3.4,0,0,1-.029,6.809Z" transform="translate(-7836.467 -1504.809)"/></g></g></svg>