<svg xmlns="http://www.w3.org/2000/svg" width="141" height="141" viewBox="0 0 141 141"><defs><style>.a{fill:#ffd876;}.b{fill:none;stroke:#fff;stroke-linecap:round;stroke-linejoin:round;stroke-width:3px;}.c{fill:#fff;font-size:25px;font-family:Barlow-Medium, Barlow;font-weight:500;}</style></defs><g transform="translate(-574 -881.909)"><path class="a" d="M70.5,0A70.5,70.5,0,1,1,0,70.5,70.5,70.5,0,0,1,70.5,0Z" transform="translate(574 881.909)"/><path class="b" d="M34.69,21.486V10.923A7.923,7.923,0,0,0,26.768,3L16.2,26.768V55.817H45.993a5.282,5.282,0,0,0,5.282-4.489L54.919,27.56a5.282,5.282,0,0,0-5.282-6.074ZM16.2,55.817H8.282A5.282,5.282,0,0,1,3,50.535V32.049a5.282,5.282,0,0,1,5.282-5.282H16.2" transform="translate(615.51 903)"/><text class="c" transform="translate(645 993)"><tspan x="-53.05" y="0">IFP &amp; IWB</tspan></text></g></svg>