<svg xmlns="http://www.w3.org/2000/svg" width="428" height="428.061" viewBox="0 0 428 428.061"><defs><style>.a{fill:#ffd876;}</style></defs><g transform="translate(-7769.565 -1437.826)"><g transform="translate(7904.243 1572.373)"><path class="a" d="M7986.955,1732.134a3.7,3.7,0,0,1-.126-7.394q.715-.025,1.425-.064a3.7,3.7,0,0,1,.4,7.387c-.52.027-1.04.051-1.563.068C7987.042,1732.133,7987,1732.134,7986.955,1732.134Zm-14.873-.927a3.774,3.774,0,0,1-.595-.048q-.773-.125-1.544-.265a3.7,3.7,0,1,1,1.321-7.278c.467.084.933.166,1.4.241a3.7,3.7,0,0,1-.584,7.351Zm31.1-1.405a3.7,3.7,0,0,1-.919-7.28c.462-.118.919-.242,1.377-.368a3.7,3.7,0,0,1,1.977,7.127c-.5.139-1.006.273-1.51.4A3.663,3.663,0,0,1,8003.186,1729.8Zm-46.919-2.954a3.664,3.664,0,0,1-1.364-.262q-.734-.291-1.457-.6a3.7,3.7,0,1,1,2.871-6.814q.655.274,1.318.538a3.7,3.7,0,0,1-1.368,7.136Zm62.272-2.829a3.7,3.7,0,0,1-1.674-7q.631-.321,1.254-.652a3.7,3.7,0,0,1,3.478,6.527q-.691.368-1.389.723A3.7,3.7,0,0,1,8018.539,1724.02Zm-76.771-4.846a3.676,3.676,0,0,1-2.07-.636q-.653-.441-1.295-.9a3.7,3.7,0,0,1,4.275-6.035c.385.271.774.541,1.165.8a3.7,3.7,0,0,1-2.075,6.763Zm90.5-4.106a3.7,3.7,0,0,1-2.341-6.564c.367-.3.729-.6,1.088-.907a3.7,3.7,0,0,1,4.793,5.634q-.595.507-1.206,1.005A3.681,3.681,0,0,1,8032.272,1715.068Zm-103.014-6.5a3.681,3.681,0,0,1-2.681-1.15q-.538-.567-1.065-1.143a3.7,3.7,0,1,1,5.455-4.994q.483.527.972,1.043a3.7,3.7,0,0,1-2.681,6.244Zm114.514-5.184a3.7,3.7,0,0,1-2.9-5.993c.295-.373.588-.748.875-1.127a3.7,3.7,0,0,1,5.886,4.481q-.475.622-.96,1.235A3.692,3.692,0,0,1,8043.772,1703.382Zm-124.463-7.848a3.7,3.7,0,0,1-3.167-1.783q-.4-.667-.8-1.342a3.7,3.7,0,0,1,6.4-3.714q.356.616.725,1.224a3.7,3.7,0,0,1-3.159,5.615Zm133.2-6.031a3.7,3.7,0,0,1-3.317-5.325c.2-.422.409-.849.605-1.278a3.7,3.7,0,0,1,6.715,3.1q-.331.719-.679,1.428A3.7,3.7,0,0,1,8052.51,1689.5Zm-140.121-8.833a3.7,3.7,0,0,1-3.5-2.508q-.253-.74-.49-1.489a3.7,3.7,0,0,1,7.047-2.246c.145.453.291.9.444,1.351a3.7,3.7,0,0,1-3.5,4.892Zm145.666-6.606a3.738,3.738,0,0,1-.862-.1,3.7,3.7,0,0,1-2.737-4.456c.111-.462.217-.926.319-1.39A3.7,3.7,0,1,1,8062,1669.7q-.168.764-.349,1.522A3.7,3.7,0,0,1,8058.055,1674.064Zm-149.212-9.405a3.7,3.7,0,0,1-3.673-3.3q-.085-.774-.153-1.552a3.7,3.7,0,1,1,7.365-.664c.043.475.091.949.141,1.42a3.7,3.7,0,0,1-3.279,4.075A3.62,3.62,0,0,1,7908.843,1664.659Zm151.285-6.86h-.076a3.7,3.7,0,0,1-3.621-3.773c.009-.473.013-.945.013-1.419l0-.308a3.7,3.7,0,0,1,7.4,0v.256c0,.577,0,1.1-.016,1.621A3.7,3.7,0,0,1,8060.128,1657.8Zm-151.311-9.537a3.7,3.7,0,0,1-3.682-4.084c.054-.522.115-1.042.181-1.561a3.7,3.7,0,1,1,7.337.927c-.058.466-.112.935-.161,1.406A3.7,3.7,0,0,1,7908.817,1648.261Zm149.808-7.1a3.7,3.7,0,0,1-3.622-2.971c-.093-.462-.19-.924-.3-1.383a3.7,3.7,0,0,1,7.221-1.611c.112.51.223,1.023.326,1.538a3.7,3.7,0,0,1-3.629,4.427Zm-146.335-8.928a3.7,3.7,0,0,1-3.507-4.874q.249-.74.507-1.474a3.7,3.7,0,1,1,6.975,2.464q-.24.677-.468,1.359A3.7,3.7,0,0,1,7912.29,1632.236Zm141.356-6.7a3.7,3.7,0,0,1-3.384-2.2q-.287-.647-.586-1.287a3.7,3.7,0,0,1,6.7-3.126c.22.472.438.947.649,1.423a3.7,3.7,0,0,1-3.382,5.194Zm-134.5-8.206a3.7,3.7,0,0,1-3.166-5.6c.271-.449.543-.9.821-1.339a3.7,3.7,0,0,1,6.262,3.938c-.253.4-.5.805-.745,1.213A3.7,3.7,0,0,1,7919.147,1617.335Zm126.264-5.968a3.692,3.692,0,0,1-2.984-1.511q-.42-.571-.852-1.134a3.7,3.7,0,0,1,5.874-4.495c.316.414.631.83.939,1.253a3.7,3.7,0,0,1-2.978,5.886Zm-116.355-7.107a3.7,3.7,0,0,1-2.694-6.231q.538-.571,1.086-1.131a3.7,3.7,0,1,1,5.283,5.176q-.5.506-.981,1.022A3.689,3.689,0,0,1,7929.056,1604.26Zm105.264-4.977a3.675,3.675,0,0,1-2.437-.92q-.538-.47-1.08-.93a3.7,3.7,0,0,1,4.776-5.647c.4.336.793.676,1.183,1.02a3.7,3.7,0,0,1-2.441,6.477Zm-92.793-5.677a3.7,3.7,0,0,1-2.09-6.751q.645-.442,1.3-.87a3.7,3.7,0,0,1,4.051,6.188q-.595.389-1.179.79A3.682,3.682,0,0,1,7941.526,1593.606Zm79.379-3.757a3.679,3.679,0,0,1-1.792-.465c-.411-.228-.828-.452-1.245-.672a3.7,3.7,0,1,1,3.444-6.545c.467.245.929.494,1.39.751a3.7,3.7,0,0,1-1.8,6.932Zm-64.92-3.972a3.7,3.7,0,0,1-1.38-7.13c.485-.195.971-.385,1.461-.57a3.7,3.7,0,0,1,2.623,6.915q-.668.253-1.326.518A3.705,3.705,0,0,1,7955.985,1585.877Zm49.791-2.355a3.684,3.684,0,0,1-1.044-.151c-.454-.133-.912-.264-1.369-.389a3.7,3.7,0,1,1,1.949-7.135q.756.207,1.5.428a3.7,3.7,0,0,1-1.04,7.247Zm-34.007-2.068a3.7,3.7,0,0,1-.6-7.348c.512-.085,1.029-.165,1.545-.24a3.7,3.7,0,0,1,1.063,7.32q-.7.1-1.4.218A3.708,3.708,0,0,1,7971.77,1581.455Zm17.871-.837c-.088,0-.175,0-.263-.009-.472-.034-.945-.062-1.42-.087a3.7,3.7,0,1,1,.375-7.385c.522.026,1.041.057,1.562.093a3.7,3.7,0,0,1-.254,7.388Z" transform="translate(-7905.001 -1573.13)"/></g><g transform="translate(7951.287 1618.953)"><path class="a" d="M7980.4,1685.6a3.586,3.586,0,0,1-.522-.038c-.568-.08-1.129-.174-1.688-.282a3.7,3.7,0,1,1,1.412-7.261c.434.085.872.158,1.314.222a3.7,3.7,0,0,1-.516,7.36Zm14.942-1.767a3.7,3.7,0,0,1-1.365-7.137c.415-.163.82-.337,1.222-.52a3.7,3.7,0,1,1,3.077,6.726q-.776.355-1.574.67A3.689,3.689,0,0,1,7995.341,1683.838Zm-29.98-5.075a3.684,3.684,0,0,1-2.417-.9q-.65-.561-1.268-1.156a3.7,3.7,0,0,1,5.122-5.334q.48.459.983.9a3.7,3.7,0,0,1-2.42,6.5Zm42.991-5.088a3.7,3.7,0,0,1-3-5.86q.385-.537.745-1.094a3.7,3.7,0,1,1,6.223,4c-.309.483-.633.958-.968,1.423A3.692,3.692,0,0,1,8008.352,1673.674Zm-51.95-8.788a3.7,3.7,0,0,1-3.545-2.652q-.244-.819-.444-1.658a3.7,3.7,0,0,1,7.193-1.719c.1.433.22.861.344,1.284a3.7,3.7,0,0,1-3.548,4.745Zm57.419-6.8c-.064,0-.127,0-.192,0a3.7,3.7,0,0,1-3.5-3.884q.034-.661.034-1.331a3.751,3.751,0,0,1,3.7-3.759,3.646,3.646,0,0,1,3.7,3.636v.122c0,.574-.016,1.145-.044,1.713A3.7,3.7,0,0,1,8013.821,1658.089Zm-57.453-9.717a3.7,3.7,0,0,1-3.553-4.728q.241-.834.527-1.647a3.7,3.7,0,0,1,6.979,2.45c-.146.413-.279.83-.4,1.253A3.7,3.7,0,0,1,7956.368,1648.371Zm53.577-6.457a3.693,3.693,0,0,1-3.2-1.844q-.335-.576-.7-1.135a3.7,3.7,0,1,1,6.2-4.028q.464.714.893,1.454a3.7,3.7,0,0,1-3.2,5.554Zm-44.677-7.459a3.7,3.7,0,0,1-2.433-6.484c.428-.374.869-.739,1.318-1.092a3.7,3.7,0,0,1,4.57,5.815q-.522.412-1.024.849A3.688,3.688,0,0,1,7965.268,1634.456ZM7998,1630.51a3.681,3.681,0,0,1-1.7-.415q-.591-.306-1.2-.582a3.7,3.7,0,1,1,3.053-6.736q.782.355,1.545.749a3.7,3.7,0,0,1-1.7,6.984Zm-17.732-2.959a3.7,3.7,0,0,1-.531-7.359c.561-.082,1.129-.149,1.7-.2a3.7,3.7,0,1,1,.693,7.364q-.666.063-1.323.158A3.7,3.7,0,0,1,7980.264,1627.551Z" transform="translate(-7952.311 -1619.973)"/></g><g transform="translate(7859.438 1527.626)"><path class="a" d="M7980.047,1776.545c-.042,0-.082,0-.124,0-.5-.015-1.006-.034-1.507-.058a3.7,3.7,0,0,1,.329-7.388c.473.021.944.039,1.418.055a3.7,3.7,0,0,1-.116,7.395Zm14.625-.4a3.7,3.7,0,0,1-.316-7.381c.472-.042.942-.085,1.414-.133a3.7,3.7,0,0,1,.734,7.361q-.751.074-1.5.141C7994.889,1776.139,7994.781,1776.143,7994.672,1776.143Zm-30.643-1.184a3.629,3.629,0,0,1-.611-.051q-.75-.123-1.493-.258a3.7,3.7,0,1,1,1.314-7.278c.462.083.927.163,1.392.24a3.7,3.7,0,0,1-.6,7.347Zm46.554-1.288a3.7,3.7,0,0,1-.812-7.306c.464-.1.926-.212,1.389-.321a3.7,3.7,0,0,1,1.708,7.2q-.732.173-1.466.339A3.747,3.747,0,0,1,8010.583,1773.671Zm-62.225-2.422a3.723,3.723,0,0,1-1.095-.166c-.482-.149-.967-.3-1.445-.458a3.7,3.7,0,1,1,2.272-7.037c.45.144.9.288,1.358.429a3.7,3.7,0,0,1-1.091,7.231Zm77.661-2.159a3.7,3.7,0,0,1-1.292-7.165c.447-.166.89-.333,1.334-.5a3.7,3.7,0,0,1,2.66,6.9q-.7.27-1.41.534A3.711,3.711,0,0,1,8026.02,1769.09Zm-92.707-3.627a3.682,3.682,0,0,1-1.554-.344q-.69-.321-1.372-.648a3.7,3.7,0,1,1,3.2-6.667q.64.306,1.286.605a3.7,3.7,0,0,1-1.561,7.053Zm107.393-2.985a3.7,3.7,0,0,1-1.743-6.961q.624-.333,1.241-.673a3.7,3.7,0,0,1,3.568,6.479c-.441.242-.884.481-1.327.719A3.684,3.684,0,0,1,8040.705,1762.477Zm-121.519-4.762a3.694,3.694,0,0,1-1.992-.583q-.631-.407-1.263-.82a3.7,3.7,0,1,1,4.055-6.185c.4.261.8.519,1.2.776a3.7,3.7,0,0,1-2,6.813Zm135.178-3.747a3.7,3.7,0,0,1-2.162-6.7q.573-.413,1.141-.832a3.7,3.7,0,1,1,4.4,5.945q-.608.45-1.223.892A3.684,3.684,0,0,1,8054.364,1753.968Zm-148.14-5.81a3.678,3.678,0,0,1-2.388-.876l-1.142-.975a3.7,3.7,0,1,1,4.834-5.6l1.086.93a3.7,3.7,0,0,1-2.391,6.52Zm160.546-4.441a3.7,3.7,0,0,1-2.536-6.389q.516-.487,1.025-.98a3.7,3.7,0,0,1,5.142,5.316q-.543.527-1.094,1.045A3.685,3.685,0,0,1,8066.771,1743.717Zm-172.123-6.748a3.69,3.69,0,0,1-2.741-1.214q-.507-.56-1-1.123a3.7,3.7,0,0,1,5.538-4.9q.47.532.948,1.059a3.7,3.7,0,0,1-2.74,6.181Zm183.069-5.06a3.7,3.7,0,0,1-2.869-6.029q.445-.552.888-1.108a3.7,3.7,0,0,1,5.8,4.588q-.47.594-.945,1.18A3.691,3.691,0,0,1,8077.717,1731.909Zm-193.058-7.562a3.7,3.7,0,0,1-3.052-1.6q-.425-.619-.844-1.242a3.7,3.7,0,0,1,6.14-4.123q.4.591.8,1.176a3.7,3.7,0,0,1-3.044,5.792Zm202.342-5.6a3.7,3.7,0,0,1-3.154-5.622c.245-.406.491-.812.734-1.222a3.7,3.7,0,1,1,6.359,3.775q-.384.65-.778,1.294A3.7,3.7,0,0,1,8087,1718.751Zm-210.565-8.236a3.7,3.7,0,0,1-3.3-2.03c-.225-.444-.449-.891-.669-1.338a3.7,3.7,0,1,1,6.633-3.273l.636,1.273a3.7,3.7,0,0,1-3.3,5.368Zm218.016-6.049a3.7,3.7,0,0,1-3.38-5.194c.191-.432.377-.867.563-1.3a3.7,3.7,0,0,1,6.807,2.9q-.3.7-.6,1.4A3.7,3.7,0,0,1,8094.451,1704.466Zm-224.318-8.762a3.7,3.7,0,0,1-3.493-2.483q-.248-.714-.486-1.431a3.7,3.7,0,1,1,7.015-2.342c.15.448.3.9.458,1.342a3.7,3.7,0,0,1-3.493,4.914Zm229.794-6.394a3.7,3.7,0,0,1-3.556-4.718c.131-.453.256-.908.381-1.364a3.7,3.7,0,0,1,7.137,1.946q-.2.729-.408,1.457A3.7,3.7,0,0,1,8099.927,1689.31Zm-234.059-9.134a3.7,3.7,0,0,1-3.619-2.965l-.29-1.472a3.7,3.7,0,1,1,7.263-1.4l.276,1.4a3.7,3.7,0,0,1-3.63,4.433Zm237.443-6.606a3.709,3.709,0,0,1-3.665-4.225l.2-1.417a3.7,3.7,0,0,1,7.331.984l-.207,1.486A3.7,3.7,0,0,1,8103.312,1673.571Zm-239.584-9.352a3.7,3.7,0,0,1-3.685-3.447c-.035-.505-.065-1.011-.092-1.516a3.7,3.7,0,1,1,7.384-.4q.04.7.087,1.407a3.7,3.7,0,0,1-3.438,3.942C7863.9,1664.216,7863.813,1664.219,7863.728,1664.219Zm240.835-6.7h-.044a3.7,3.7,0,0,1-3.654-3.742q.007-.709.007-1.421v-.241a3.7,3.7,0,0,1,7.4,0v.241q0,.755-.01,1.51A3.7,3.7,0,0,1,8104.563,1657.518Zm-240.842-9.4c-.083,0-.163,0-.246-.007a3.7,3.7,0,0,1-3.449-3.931q.05-.753.108-1.505a3.7,3.7,0,1,1,7.374.569c-.037.473-.07.945-.1,1.418A3.7,3.7,0,0,1,7863.721,1648.118Zm239.941-6.915a3.7,3.7,0,0,1-3.665-3.24l-.184-1.419a3.7,3.7,0,0,1,7.33-.987l.191,1.489a3.7,3.7,0,0,1-3.209,4.128A3.916,3.916,0,0,1,8103.662,1641.2Zm-237.831-9.045a3.7,3.7,0,0,1-3.629-4.431l.306-1.469a3.7,3.7,0,1,1,7.233,1.533l-.29,1.4A3.7,3.7,0,0,1,7865.831,1632.157Zm234.8-6.767a3.7,3.7,0,0,1-3.575-2.771q-.177-.682-.364-1.358a3.7,3.7,0,1,1,7.127-1.971q.205.734.4,1.472a3.7,3.7,0,0,1-3.584,4.628Zm-230.574-8.777a3.7,3.7,0,0,1-3.494-4.907q.248-.719.506-1.433a3.7,3.7,0,1,1,6.957,2.508q-.24.668-.475,1.341A3.7,3.7,0,0,1,7870.058,1616.614Zm225.456-6.487a3.7,3.7,0,0,1-3.419-2.284c-.181-.438-.362-.874-.549-1.309a3.7,3.7,0,1,1,6.8-2.9q.293.688.579,1.382a3.7,3.7,0,0,1-3.415,5.113Zm-219.174-8.352a3.7,3.7,0,0,1-3.3-5.368l.681-1.333a3.7,3.7,0,1,1,6.573,3.391l-.656,1.281A3.692,3.692,0,0,1,7876.34,1601.774ZM8088.4,1595.7a3.7,3.7,0,0,1-3.205-1.849c-.234-.406-.474-.81-.713-1.213a3.7,3.7,0,0,1,6.35-3.793q.388.65.77,1.307a3.7,3.7,0,0,1-3.2,5.549Zm-203.853-7.786a3.7,3.7,0,0,1-3.044-5.8q.426-.62.86-1.236a3.7,3.7,0,1,1,6.047,4.257q-.41.583-.815,1.173A3.694,3.694,0,0,1,7884.548,1587.914Zm194.872-5.571a3.692,3.692,0,0,1-2.932-1.439c-.287-.372-.575-.743-.868-1.111a3.7,3.7,0,1,1,5.792-4.6c.313.4.626.793.933,1.192a3.7,3.7,0,0,1-2.925,5.958Zm-184.894-7.072a3.7,3.7,0,0,1-2.744-6.178q.508-.562,1.021-1.117a3.7,3.7,0,0,1,5.423,5.031q-.482.519-.957,1.046A3.689,3.689,0,0,1,7894.526,1575.271Zm174.219-4.977a3.692,3.692,0,0,1-2.6-1.066q-.507-.5-1.018-.994a3.7,3.7,0,0,1,5.136-5.322c.362.348.721.7,1.08,1.053a3.7,3.7,0,0,1-2.6,6.329Zm-162.653-6.229a3.7,3.7,0,0,1-2.391-6.521c.382-.324.769-.647,1.155-.967a3.7,3.7,0,1,1,4.713,5.7q-.548.452-1.09.912A3.68,3.68,0,0,1,7906.092,1564.065Zm150.467-4.3a3.685,3.685,0,0,1-2.227-.748q-.565-.427-1.135-.846a3.7,3.7,0,1,1,4.376-5.961c.41.3.813.6,1.218.907a3.7,3.7,0,0,1-2.232,6.649Zm-137.525-5.268a3.7,3.7,0,0,1-2-6.812q.636-.407,1.279-.809a3.7,3.7,0,1,1,3.905,6.282q-.6.373-1.193.755A3.685,3.685,0,0,1,7919.033,1554.495Zm124.053-3.555a3.673,3.673,0,0,1-1.811-.476q-.623-.349-1.248-.691a3.7,3.7,0,1,1,3.552-6.489c.441.241.881.486,1.322.734a3.7,3.7,0,0,1-1.815,6.922Zm-109.958-4.206a3.7,3.7,0,0,1-1.568-7.05q.684-.318,1.37-.63a3.7,3.7,0,0,1,3.043,6.742q-.645.291-1.282.589A3.683,3.683,0,0,1,7933.128,1546.734Zm95.422-2.742a3.685,3.685,0,0,1-1.362-.261c-.44-.175-.885-.348-1.327-.518a3.7,3.7,0,1,1,2.646-6.907c.473.181.941.365,1.41.551a3.7,3.7,0,0,1-1.366,7.135Zm-80.414-3.065a3.7,3.7,0,0,1-1.1-7.23c.483-.149.965-.3,1.448-.441a3.7,3.7,0,0,1,2.106,7.09q-.681.2-1.356.414A3.715,3.715,0,0,1,7948.136,1540.927Zm65.078-1.868a3.7,3.7,0,0,1-.9-.111q-.687-.17-1.376-.332a3.7,3.7,0,0,1,1.7-7.2c.49.116.984.235,1.473.358a3.7,3.7,0,0,1-.894,7.286Zm-49.421-1.872a3.7,3.7,0,0,1-.609-7.346q.746-.126,1.49-.242a3.7,3.7,0,1,1,1.14,7.309c-.468.073-.937.149-1.4.227A3.734,3.734,0,0,1,7963.793,1537.186Zm33.572-.958a3.841,3.841,0,0,1-.41-.023q-.7-.078-1.41-.146a3.7,3.7,0,1,1,.72-7.362q.754.073,1.5.156a3.7,3.7,0,0,1-.4,7.375Zm-17.554-.659a3.7,3.7,0,0,1-.122-7.394c.5-.017,1-.031,1.506-.042a3.649,3.649,0,0,1,3.778,3.615,3.7,3.7,0,0,1-3.613,3.78q-.712.015-1.418.04Z" transform="translate(-7859.946 -1528.132)"/></g><g transform="translate(7881.31 1549.886)"><path class="a" d="M7990.862,1754.452a3.7,3.7,0,0,1-.244-7.387c.474-.033.948-.068,1.422-.107a3.7,3.7,0,0,1,.607,7.373q-.765.063-1.532.113C7991.031,1754.449,7990.946,1754.452,7990.862,1754.452Zm-14.775-.1c-.1,0-.2,0-.3-.012-.512-.041-1.021-.087-1.534-.136a3.7,3.7,0,0,1,.713-7.362q.708.068,1.417.126a3.7,3.7,0,0,1-.292,7.384Zm30.856-2.33a3.7,3.7,0,0,1-.848-7.3q.694-.164,1.385-.338a3.7,3.7,0,0,1,1.808,7.171c-.5.126-.994.249-1.49.366A3.767,3.767,0,0,1,8006.942,1752.024Zm-46.9-.315a3.681,3.681,0,0,1-.9-.112q-.747-.188-1.486-.386a3.7,3.7,0,1,1,1.91-7.145c.457.122.918.241,1.379.358a3.7,3.7,0,0,1-.9,7.285Zm62.363-4.739a3.7,3.7,0,0,1-1.43-7.11q.65-.271,1.293-.557a3.7,3.7,0,0,1,2.982,6.77c-.47.207-.94.41-1.417.609A3.68,3.68,0,0,1,8022.4,1746.969Zm-77.765-.529a3.68,3.68,0,0,1-1.482-.311q-.706-.31-1.407-.629a3.7,3.7,0,1,1,3.071-6.727c.432.2.867.391,1.3.582a3.7,3.7,0,0,1-1.484,7.086Zm92.164-7.006a3.7,3.7,0,0,1-1.991-6.818c.4-.255.8-.514,1.2-.776a3.7,3.7,0,1,1,4.05,6.188q-.636.416-1.279.824A3.675,3.675,0,0,1,8036.8,1739.435Zm-106.476-.739a3.681,3.681,0,0,1-2.022-.6q-.643-.421-1.283-.851a3.7,3.7,0,1,1,4.144-6.128q.591.4,1.188.79a3.7,3.7,0,0,1-2.026,6.794Zm119.442-9.066a3.7,3.7,0,0,1-2.469-6.453c.354-.316.707-.635,1.055-.958a3.7,3.7,0,1,1,5.016,5.437q-.565.52-1.136,1.031A3.686,3.686,0,0,1,8049.769,1729.63Zm-132.281-.924a3.685,3.685,0,0,1-2.5-.978q-.563-.517-1.12-1.046a3.7,3.7,0,1,1,5.088-5.368q.517.489,1.043.972a3.7,3.7,0,0,1-2.507,6.419Zm143.469-10.875a3.7,3.7,0,0,1-2.88-6.013c.3-.371.591-.745.885-1.12a3.7,3.7,0,1,1,5.833,4.546c-.313.4-.632.8-.951,1.2A3.7,3.7,0,0,1,8060.957,1717.831Zm-154.492-1.077a3.693,3.693,0,0,1-2.919-1.422q-.472-.6-.935-1.216a3.7,3.7,0,0,1,5.9-4.466q.428.568.869,1.13a3.7,3.7,0,0,1-2.912,5.973Zm163.6-12.4a3.7,3.7,0,0,1-3.215-5.521q.347-.616.683-1.237a3.7,3.7,0,1,1,6.5,3.521c-.246.456-.494.908-.75,1.361A3.7,3.7,0,0,1,8070.068,1704.355Zm-172.521-1.192a3.693,3.693,0,0,1-3.249-1.928q-.369-.676-.724-1.358a3.7,3.7,0,1,1,6.551-3.427c.22.418.44.832.667,1.245a3.7,3.7,0,0,1-3.245,5.469Zm179.292-13.608a3.7,3.7,0,0,1-3.479-4.952q.24-.67.472-1.344a3.7,3.7,0,1,1,7,2.393c-.166.487-.338.974-.512,1.458A3.7,3.7,0,0,1,8076.838,1689.554Zm-185.851-1.27a3.7,3.7,0,0,1-3.5-2.5q-.248-.722-.489-1.45a3.7,3.7,0,0,1,7.026-2.313q.223.68.458,1.356a3.7,3.7,0,0,1-3.5,4.9Zm190.074-14.441a3.644,3.644,0,0,1-.667-.061,3.7,3.7,0,0,1-2.978-4.3q.127-.7.244-1.4a3.7,3.7,0,1,1,7.295,1.21q-.125.76-.262,1.514A3.7,3.7,0,0,1,8081.062,1673.844Zm-194.078-1.321a3.7,3.7,0,0,1-3.643-3.092q-.127-.751-.242-1.506a3.7,3.7,0,0,1,7.31-1.126c.074.474.148.947.226,1.418a3.7,3.7,0,0,1-3.04,4.255A3.742,3.742,0,0,1,7886.984,1672.523Zm195.642-14.865h-.056a3.7,3.7,0,0,1-3.643-3.752q.011-.712.011-1.426v-.272a3.7,3.7,0,1,1,7.4,0v.272q0,.768-.01,1.535A3.7,3.7,0,0,1,8082.626,1657.659Zm-196.989-1.412a3.64,3.64,0,0,1-3.7-3.63v-.137c0-.464,0-.928.008-1.391a3.7,3.7,0,0,1,3.7-3.65h.05a3.7,3.7,0,0,1,3.651,3.746q-.01.648-.01,1.3A3.757,3.757,0,0,1,7885.637,1656.247Zm195.86-15.084a3.7,3.7,0,0,1-3.65-3.136c-.072-.471-.147-.938-.227-1.406a3.7,3.7,0,1,1,7.292-1.235q.128.756.245,1.516a3.7,3.7,0,0,1-3.092,4.217A3.808,3.808,0,0,1,8081.5,1641.163Zm-194.551-1.055a3.762,3.762,0,0,1-.6-.049,3.7,3.7,0,0,1-3.055-4.245q.125-.759.26-1.514a3.7,3.7,0,1,1,7.28,1.3q-.124.7-.239,1.4A3.7,3.7,0,0,1,7886.946,1640.108Zm190.77-14.76a3.7,3.7,0,0,1-3.512-2.543q-.222-.675-.454-1.345a3.7,3.7,0,1,1,6.986-2.427c.169.485.332.972.494,1.46a3.7,3.7,0,0,1-3.514,4.856Zm-186.816-1.014a3.7,3.7,0,0,1-3.5-4.9q.249-.731.509-1.457a3.7,3.7,0,1,1,6.959,2.5c-.161.448-.317.9-.472,1.347A3.7,3.7,0,0,1,7890.9,1624.334Zm180.465-13.958a3.7,3.7,0,0,1-3.279-1.982q-.327-.628-.667-1.247a3.7,3.7,0,0,1,6.494-3.541c.243.45.487.9.726,1.354a3.7,3.7,0,0,1-3.274,5.415Zm-173.946-.953a3.7,3.7,0,0,1-3.251-5.458c.246-.452.492-.9.742-1.346a3.7,3.7,0,1,1,6.454,3.611q-.35.623-.689,1.254A3.7,3.7,0,0,1,7897.418,1609.423Zm165.216-12.756a3.691,3.691,0,0,1-2.945-1.458q-.435-.569-.873-1.132a3.7,3.7,0,1,1,5.825-4.556q.469.6.932,1.209a3.7,3.7,0,0,1-2.938,5.938Zm-156.326-.871a3.7,3.7,0,0,1-2.917-5.968q.47-.6.948-1.2a3.7,3.7,0,1,1,5.778,4.618q-.446.558-.887,1.124A3.694,3.694,0,0,1,7906.308,1595.8Zm145.461-11.229a3.685,3.685,0,0,1-2.54-1.01q-.516-.489-1.042-.969a3.7,3.7,0,1,1,5-5.452q.566.521,1.125,1.047a3.7,3.7,0,0,1-2.541,6.385Zm-134.456-.752a3.7,3.7,0,0,1-2.511-6.417c.377-.346.752-.689,1.132-1.029a3.7,3.7,0,0,1,4.94,5.5q-.532.479-1.057.963A3.688,3.688,0,0,1,7917.313,1583.815Zm121.753-9.408a3.684,3.684,0,0,1-2.062-.631c-.394-.265-.789-.528-1.188-.787a3.7,3.7,0,1,1,4.031-6.2q.645.42,1.285.85a3.7,3.7,0,0,1-2.066,6.768Zm-108.943-.608a3.7,3.7,0,0,1-2.031-6.791q.633-.417,1.274-.826a3.7,3.7,0,1,1,3.985,6.232q-.6.385-1.2.779A3.686,3.686,0,0,1,7930.124,1573.8Zm94.737-7.331a3.681,3.681,0,0,1-1.533-.335q-.645-.3-1.3-.579a3.7,3.7,0,0,1,2.958-6.779c.472.207.944.417,1.412.631a3.7,3.7,0,0,1-1.539,7.062Zm-80.466-.442a3.7,3.7,0,0,1-1.5-7.081q.7-.31,1.412-.611a3.7,3.7,0,1,1,2.875,6.814q-.651.275-1.3.56A3.692,3.692,0,0,1,7944.395,1566.027Zm65.147-5.04a3.693,3.693,0,0,1-.958-.126q-.685-.183-1.375-.356a3.7,3.7,0,1,1,1.795-7.175c.5.124,1,.253,1.49.386a3.7,3.7,0,0,1-.952,7.271Zm-49.785-.267a3.7,3.7,0,0,1-.908-7.284q.746-.188,1.491-.366a3.7,3.7,0,0,1,1.713,7.195q-.694.166-1.384.341A3.715,3.715,0,0,1,7959.756,1560.72Zm33.781-2.6c-.119,0-.237-.006-.356-.017q-.705-.069-1.414-.124a3.7,3.7,0,1,1,.583-7.373c.511.041,1.024.085,1.535.134a3.7,3.7,0,0,1-.348,7.379Zm-17.747-.094a3.7,3.7,0,0,1-.305-7.384q.766-.063,1.532-.116a3.7,3.7,0,1,1,.508,7.378q-.711.049-1.421.108Q7975.946,1558.027,7975.791,1558.027Z" transform="translate(-7881.94 -1550.518)"/></g><g transform="translate(7926.723 1595.059)"><path class="a" d="M7984.446,1709.52h-.053q-.786,0-1.568-.022a3.7,3.7,0,1,1,.208-7.393c.45.013.905.019,1.359.019a3.719,3.719,0,0,1,3.724,3.7A3.675,3.675,0,0,1,7984.446,1709.52Zm14.944-2.149a3.7,3.7,0,0,1-1.038-7.247c.451-.132.9-.271,1.344-.416a3.7,3.7,0,0,1,2.287,7.033q-.771.25-1.55.479A3.691,3.691,0,0,1,7999.39,1707.371Zm-31.344-.416a3.7,3.7,0,0,1-1.139-.18q-.773-.251-1.538-.523a3.7,3.7,0,1,1,2.472-6.97c.447.158.893.31,1.343.455a3.7,3.7,0,0,1-1.138,7.218Zm46.341-6.713a3.7,3.7,0,0,1-2.095-6.748c.388-.264.77-.536,1.148-.811a3.7,3.7,0,1,1,4.357,5.977q-.655.477-1.323.935A3.683,3.683,0,0,1,8014.387,1700.242Zm-61.146-.818a3.676,3.676,0,0,1-2.169-.7q-.656-.476-1.3-.971a3.7,3.7,0,1,1,4.513-5.86q.561.432,1.13.846a3.7,3.7,0,0,1-2.175,6.69Zm73.2-10.586a3.7,3.7,0,0,1-2.926-5.957q.431-.561.849-1.132a3.7,3.7,0,1,1,5.98,4.352c-.318.436-.641.868-.973,1.3A3.691,3.691,0,0,1,8026.442,1688.838Zm-84.952-1.139a3.693,3.693,0,0,1-2.99-1.516q-.48-.658-.94-1.329a3.7,3.7,0,0,1,6.1-4.177c.262.386.533.766.807,1.143a3.7,3.7,0,0,1-2.982,5.879Zm92.92-13.43a3.7,3.7,0,0,1-3.484-4.944c.16-.442.31-.885.454-1.332a3.7,3.7,0,0,1,7.039,2.275c-.167.519-.344,1.034-.526,1.546A3.7,3.7,0,0,1,8034.41,1674.27Zm-100.492-1.341a3.7,3.7,0,0,1-3.515-2.556q-.251-.767-.479-1.543a3.7,3.7,0,1,1,7.093-2.093c.134.451.274.9.42,1.348a3.7,3.7,0,0,1-3.519,4.844Zm103.541-14.981h-.106a3.7,3.7,0,0,1-3.592-3.8q.022-.7.022-1.409v-.206a3.7,3.7,0,1,1,7.4,0v.206q0,.814-.023,1.622A3.7,3.7,0,0,1,8037.459,1657.948Zm-106.152-1.464a3.654,3.654,0,0,1-3.7-3.646v-.1q0-.759.019-1.514a3.743,3.743,0,0,1,3.8-3.595,3.7,3.7,0,0,1,3.594,3.8c-.01.436-.017.871-.017,1.309A3.742,3.742,0,0,1,7931.307,1656.484Zm103.979-15.2a3.7,3.7,0,0,1-3.543-2.645q-.2-.677-.421-1.345a3.7,3.7,0,0,1,7.028-2.31q.253.769.483,1.548a3.7,3.7,0,0,1-3.547,4.752Zm-101.428-1.153a3.7,3.7,0,0,1-3.521-4.835c.167-.516.34-1.03.521-1.54a3.7,3.7,0,0,1,6.972,2.472c-.158.444-.308.89-.454,1.341A3.7,3.7,0,0,1,7933.857,1640.135Zm94.261-13.818a3.694,3.694,0,0,1-3.043-1.593c-.269-.389-.541-.774-.821-1.154a3.7,3.7,0,0,1,5.971-4.368c.316.434.626.87.933,1.313a3.7,3.7,0,0,1-3.039,5.8Zm-86.75-.99a3.7,3.7,0,0,1-2.993-5.865q.476-.661.974-1.308a3.7,3.7,0,0,1,5.858,4.518q-.43.555-.84,1.124A3.692,3.692,0,0,1,7941.368,1625.326Zm75.3-11.038a3.684,3.684,0,0,1-2.256-.77q-.554-.426-1.122-.837a3.7,3.7,0,1,1,4.328-6c.442.318.88.643,1.309.975a3.7,3.7,0,0,1-2.259,6.628Zm-63.583-.731a3.7,3.7,0,0,1-2.186-6.683q.647-.475,1.308-.931a3.7,3.7,0,0,1,4.215,6.079q-.584.405-1.16.823A3.674,3.674,0,0,1,7953.089,1613.557Zm49-7.19a3.681,3.681,0,0,1-1.232-.212c-.445-.157-.889-.307-1.338-.451a3.7,3.7,0,1,1,2.258-7.042c.519.166,1.033.339,1.545.521a3.7,3.7,0,0,1-1.232,7.185Zm-34.237-.391a3.7,3.7,0,0,1-1.147-7.214c.511-.167,1.026-.327,1.541-.48a3.7,3.7,0,0,1,2.107,7.09q-.68.2-1.352.42A3.7,3.7,0,0,1,7967.848,1605.976Zm17.907-2.612h-.1q-.631-.016-1.266-.016h-.154a3.7,3.7,0,1,1,0-7.4h.1c.541-.019,1.023,0,1.507.018a3.7,3.7,0,0,1-.093,7.394Z" transform="translate(-7927.609 -1595.944)"/></g><g transform="translate(7813.271 1481.611)"><path class="a" d="M7983.841,1822.334l-1.514-.006a3.7,3.7,0,0,1,.029-7.4h.028l1.369.006a3.735,3.735,0,0,1,3.743,3.7A3.661,3.661,0,0,1,7983.841,1822.334Zm14.838-.66a3.7,3.7,0,0,1-.32-7.383c.481-.043.963-.086,1.442-.135a3.7,3.7,0,1,1,.722,7.361c-.505.05-1.009.1-1.517.141C7998.9,1821.669,7998.787,1821.674,7998.679,1821.674Zm-31.152-.122c-.119,0-.239-.006-.36-.017l-1.513-.152a3.7,3.7,0,0,1,.777-7.357l1.447.147a3.7,3.7,0,0,1-.351,7.378Zm47.333-2.12a3.7,3.7,0,0,1-.684-7.332l1.431-.278a3.7,3.7,0,0,1,1.435,7.256l-1.491.289A3.731,3.731,0,0,1,8014.859,1819.432Zm-63.5-.247a3.7,3.7,0,0,1-.721-.071l-1.484-.3a3.7,3.7,0,1,1,1.49-7.244l1.428.289a3.7,3.7,0,0,1-.712,7.326Zm79.387-3.575a3.7,3.7,0,0,1-1.042-7.248l1.393-.415a3.7,3.7,0,1,1,2.146,7.078l-1.456.434A3.691,3.691,0,0,1,8030.749,1815.611Zm-95.245-.374a3.7,3.7,0,0,1-1.069-.158c-.489-.147-.976-.3-1.464-.45a3.7,3.7,0,0,1,2.21-7.057q.694.216,1.391.427a3.7,3.7,0,0,1-1.068,7.239Zm110.678-5a3.7,3.7,0,0,1-1.387-7.128q.669-.27,1.334-.546a3.7,3.7,0,1,1,2.841,6.829c-.468.194-.935.386-1.4.576A3.7,3.7,0,0,1,8046.182,1810.238Zm-126.081-.5a3.68,3.68,0,0,1-1.411-.282l-1.407-.589a3.7,3.7,0,0,1,2.888-6.809l1.345.564a3.7,3.7,0,0,1-1.415,7.116Zm140.9-6.362a3.7,3.7,0,0,1-1.721-6.974l1.28-.678a3.7,3.7,0,1,1,3.495,6.519l-1.337.709A3.68,3.68,0,0,1,8061,1803.376Zm-155.682-.629a3.673,3.673,0,0,1-1.74-.438l-1.336-.722a3.7,3.7,0,1,1,3.536-6.5l1.287.7a3.7,3.7,0,0,1-1.746,6.96Zm169.757-7.658a3.7,3.7,0,0,1-2.03-6.793c.4-.264.8-.529,1.2-.8a3.7,3.7,0,1,1,4.12,6.143c-.422.282-.843.563-1.27.842A3.68,3.68,0,0,1,8075.077,1795.089Zm-183.772-.75a3.678,3.678,0,0,1-2.052-.624q-.636-.424-1.263-.852a3.7,3.7,0,1,1,4.167-6.111l1.2.812a3.7,3.7,0,0,1-2.055,6.775Zm196.97-8.878a3.7,3.7,0,0,1-2.327-6.574l1.13-.92a3.7,3.7,0,1,1,4.692,5.717l-1.173.956A3.683,3.683,0,0,1,8088.275,1785.461Zm-210.1-.862a3.68,3.68,0,0,1-2.343-.839l-1.167-.966a3.7,3.7,0,1,1,4.735-5.682l1.123.931a3.7,3.7,0,0,1-2.347,6.557Zm222.294-10.008a3.7,3.7,0,0,1-2.589-6.337c.343-.338.687-.679,1.027-1.02a3.7,3.7,0,0,1,5.234,5.224q-.536.539-1.082,1.074A3.687,3.687,0,0,1,8100.471,1774.591Zm-234.405-.964a3.689,3.689,0,0,1-2.612-1.081l-1.071-1.079a3.7,3.7,0,0,1,5.273-5.186l1.022,1.029a3.7,3.7,0,0,1-2.612,6.316Zm245.49-11.045a3.7,3.7,0,0,1-2.843-6.062l.937-1.13a3.7,3.7,0,0,1,5.711,4.7l-.958,1.158A3.694,3.694,0,0,1,8111.556,1762.583Zm-256.472-1.053a3.689,3.689,0,0,1-2.855-1.346l-.958-1.173a3.7,3.7,0,0,1,5.747-4.658l.919,1.128a3.7,3.7,0,0,1-2.853,6.05Zm266.33-11.98a3.7,3.7,0,0,1-3.048-5.786q.408-.6.811-1.2a3.7,3.7,0,0,1,6.148,4.113q-.426.635-.854,1.265A3.7,3.7,0,0,1,8121.414,1749.549Zm-276.081-1.128a3.692,3.692,0,0,1-3.071-1.636q-.425-.632-.842-1.268a3.7,3.7,0,1,1,6.179-4.062q.4.6.8,1.2a3.7,3.7,0,0,1-3.065,5.763Zm284.621-12.809a3.7,3.7,0,0,1-3.24-5.476c.232-.424.463-.849.691-1.276a3.7,3.7,0,0,1,6.523,3.488c-.242.449-.483.9-.728,1.344A3.7,3.7,0,0,1,8129.954,1735.613Zm-293.042-1.188a3.693,3.693,0,0,1-3.258-1.946q-.361-.67-.714-1.344a3.7,3.7,0,1,1,6.549-3.437c.224.427.448.851.677,1.275a3.7,3.7,0,0,1-3.253,5.451Zm300.175-13.522a3.7,3.7,0,0,1-3.4-5.14l.565-1.351a3.7,3.7,0,1,1,6.83,2.835l-.585,1.4A3.7,3.7,0,0,1,8137.087,1720.9Zm-307.182-1.231a3.7,3.7,0,0,1-3.417-2.279c-.192-.465-.386-.934-.575-1.4a3.7,3.7,0,1,1,6.855-2.773l.55,1.335a3.7,3.7,0,0,1-2,4.834A3.658,3.658,0,0,1,7829.906,1719.671Zm312.829-14.116a3.7,3.7,0,0,1-3.529-4.807l.426-1.391a3.7,3.7,0,0,1,7.078,2.146c-.148.488-.3.977-.45,1.462A3.7,3.7,0,0,1,8142.735,1705.555Zm-318.347-1.258a3.7,3.7,0,0,1-3.537-2.62l-.436-1.459a3.7,3.7,0,1,1,7.1-2.088l.415,1.39a3.7,3.7,0,0,1-3.538,4.777Zm322.452-14.563a3.648,3.648,0,0,1-.749-.078,3.7,3.7,0,0,1-2.878-4.365l.29-1.435a3.7,3.7,0,0,1,7.254,1.444l-.3,1.479A3.7,3.7,0,0,1,8146.84,1689.735Zm-326.43-1.286a3.7,3.7,0,0,1-3.622-2.975l-.29-1.493a3.7,3.7,0,0,1,7.266-1.378l.278,1.426a3.7,3.7,0,0,1-2.9,4.35A3.737,3.737,0,0,1,7820.41,1688.449Zm328.949-14.857a3.8,3.8,0,0,1-.393-.021,3.7,3.7,0,0,1-3.29-4.066l.147-1.446a3.7,3.7,0,1,1,7.361.711l-.153,1.511A3.7,3.7,0,0,1,8149.359,1673.592Zm-331.34-1.3a3.7,3.7,0,0,1-3.676-3.331l-.145-1.514a3.7,3.7,0,0,1,7.367-.667l.136,1.447a3.7,3.7,0,0,1-3.313,4.046A3.491,3.491,0,0,1,7818.02,1672.288Zm332.269-15.008h-.033a3.7,3.7,0,0,1-3.666-3.731l.007-1.8a3.7,3.7,0,1,1,7.4,0l-.007,1.867A3.7,3.7,0,0,1,8150.289,1657.28Zm-333.073-1.312a3.7,3.7,0,0,1-3.7-3.7l.006-1.522a3.7,3.7,0,0,1,3.7-3.661h.038a3.7,3.7,0,0,1,3.661,3.735l0,1.449A3.7,3.7,0,0,1,7817.215,1655.968Zm332.394-15.358a3.7,3.7,0,0,1-3.678-3.354l-.139-1.458a3.7,3.7,0,1,1,7.358-.733l.145,1.5a3.7,3.7,0,0,1-3.336,4.026C8149.841,1640.6,8149.724,1640.609,8149.609,1640.609Zm-331.617-.961c-.119,0-.24-.006-.359-.017a3.7,3.7,0,0,1-3.324-4.036l.15-1.513a3.7,3.7,0,0,1,7.355.778l-.145,1.446A3.7,3.7,0,0,1,7817.992,1639.649Zm329.35-15.22a3.7,3.7,0,0,1-3.627-3l-.282-1.436a3.7,3.7,0,0,1,7.254-1.446l.291,1.481a3.7,3.7,0,0,1-3.636,4.4Zm-326.99-.946a3.7,3.7,0,0,1-3.633-4.41l.3-1.49a3.7,3.7,0,0,1,7.247,1.488l-.289,1.425A3.7,3.7,0,0,1,7820.352,1623.483ZM8143.5,1608.55a3.7,3.7,0,0,1-3.546-2.653l-.417-1.391a3.7,3.7,0,1,1,7.075-2.156l.437,1.456a3.7,3.7,0,0,1-3.549,4.744Zm-319.209-.924a3.7,3.7,0,0,1-3.54-4.771l.444-1.451a3.7,3.7,0,1,1,7.063,2.192l-.43,1.4A3.7,3.7,0,0,1,7824.288,1607.626Zm313.815-14.5a3.7,3.7,0,0,1-3.426-2.3l-.554-1.343a3.7,3.7,0,0,1,6.831-2.84l.573,1.392a3.7,3.7,0,0,1-3.423,5.094Zm-308.326-.9a3.7,3.7,0,0,1-3.417-5.107l.588-1.407a3.7,3.7,0,0,1,6.814,2.879l-.564,1.345A3.7,3.7,0,0,1,7829.777,1592.223Zm301.442-13.9a3.7,3.7,0,0,1-3.277-1.978l-.679-1.277a3.7,3.7,0,0,1,6.513-3.505c.239.445.479.893.714,1.34a3.7,3.7,0,0,1-3.27,5.42Zm-294.46-.881a3.7,3.7,0,0,1-3.259-5.44q.359-.676.725-1.345a3.7,3.7,0,0,1,6.491,3.551q-.351.637-.691,1.277A3.694,3.694,0,0,1,7836.759,1577.44Zm286.15-13.181a3.694,3.694,0,0,1-3.092-1.666l-.8-1.2a3.7,3.7,0,1,1,6.136-4.128l.842,1.265a3.7,3.7,0,0,1-3.085,5.733Zm-277.749-.842a3.7,3.7,0,0,1-3.071-5.756l.846-1.254a3.7,3.7,0,1,1,6.121,4.151l-.819,1.215A3.7,3.7,0,0,1,7845.16,1563.417Zm268.1-12.343a3.69,3.69,0,0,1-2.873-1.366l-.923-1.131a3.7,3.7,0,1,1,5.706-4.7l.958,1.171a3.7,3.7,0,0,1-2.868,6.03Zm-258.369-.791a3.7,3.7,0,0,1-2.857-6.045l.965-1.165a3.7,3.7,0,1,1,5.683,4.732l-.93,1.126A3.691,3.691,0,0,1,7854.895,1550.284Zm247.476-11.392a3.689,3.689,0,0,1-2.637-1.1c-.338-.343-.679-.686-1.02-1.026a3.7,3.7,0,1,1,5.218-5.24q.541.538,1.075,1.081a3.7,3.7,0,0,1-2.636,6.291Zm-236.511-.727a3.7,3.7,0,0,1-2.617-6.311l1.072-1.066a3.7,3.7,0,0,1,5.2,5.262l-1.035,1.029A3.685,3.685,0,0,1,7865.859,1538.165Zm224.482-10.339a3.684,3.684,0,0,1-2.368-.858l-1.123-.928a3.7,3.7,0,0,1,4.691-5.718l1.17.967a3.7,3.7,0,0,1-2.371,6.537Zm-212.388-.651a3.7,3.7,0,0,1-2.356-6.549q.587-.486,1.182-.966a3.7,3.7,0,0,1,4.646,5.756c-.376.3-.747.607-1.118.913A3.688,3.688,0,0,1,7877.954,1527.175Zm199.338-9.189a3.672,3.672,0,0,1-2.08-.643q-.6-.408-1.2-.809a3.7,3.7,0,1,1,4.1-6.155c.424.282.849.568,1.268.853a3.7,3.7,0,0,1-2.086,6.754Zm-186.233-.568a3.7,3.7,0,0,1-2.062-6.77l1.26-.838a3.7,3.7,0,0,1,4.07,6.175l-1.209.806A3.7,3.7,0,0,1,7891.059,1517.418Zm172.283-7.949a3.679,3.679,0,0,1-1.767-.451l-1.286-.694a3.7,3.7,0,1,1,3.487-6.521l1.337.721a3.7,3.7,0,0,1-1.771,6.946Zm-158.289-.479a3.7,3.7,0,0,1-1.755-6.955l1.335-.711a3.7,3.7,0,1,1,3.446,6.543l-1.277.68A3.678,3.678,0,0,1,7905.053,1508.989Zm143.569-6.629a3.682,3.682,0,0,1-1.436-.291l-1.352-.566a3.7,3.7,0,1,1,2.825-6.834l1.4.584a3.7,3.7,0,0,1-1.437,7.107Zm-128.82-.382a3.7,3.7,0,0,1-1.422-7.114l1.395-.574a3.7,3.7,0,1,1,2.785,6.852l-1.339.551A3.672,3.672,0,0,1,7919.8,1501.979Zm113.466-5.24a3.686,3.686,0,0,1-1.1-.167l-1.4-.428a3.7,3.7,0,1,1,2.135-7.081l1.455.445a3.7,3.7,0,0,1-1.094,7.23Zm-98.1-.285a3.7,3.7,0,0,1-1.078-7.236c.487-.149.976-.294,1.461-.438a3.7,3.7,0,1,1,2.083,7.1q-.694.2-1.387.415A3.707,3.707,0,0,1,7935.168,1496.454Zm82.273-3.791a3.643,3.643,0,0,1-.75-.076l-1.421-.284a3.7,3.7,0,0,1,1.421-7.259q.748.148,1.492.3a3.7,3.7,0,0,1-.742,7.321Zm-66.43-.191a3.7,3.7,0,0,1-.719-7.326l1.492-.29a3.7,3.7,0,0,1,1.381,7.267l-1.426.276A3.655,3.655,0,0,1,7951.011,1492.472Zm50.288-2.306a3.771,3.771,0,0,1-.393-.02c-.479-.051-.958-.1-1.44-.144a3.7,3.7,0,0,1,.7-7.364c.507.049,1.013.1,1.518.152a3.7,3.7,0,0,1-.384,7.375Zm-34.126-.1a3.7,3.7,0,0,1-.357-7.378l1.507-.142a3.7,3.7,0,1,1,.667,7.367l-1.452.136C7967.415,1490.064,7967.294,1490.07,7967.173,1490.07Zm17.809-.811h-.027l-1.2,0h-.259a3.7,3.7,0,1,1,0-7.4h.229l1.283,0a3.7,3.7,0,0,1-.026,7.4Z" transform="translate(-7813.518 -1481.858)"/></g><g transform="translate(7769.565 1437.826)"><path class="a" d="M7986.229,1865.888a3.7,3.7,0,0,1-.048-7.4l1.459-.023a3.7,3.7,0,1,1,.142,7.394l-1.5.025Zm-14.818-.325c-.071,0-.142,0-.214-.006l-1.5-.09a3.7,3.7,0,1,1,.466-7.381l1.459.087a3.7,3.7,0,0,1-.208,7.391Zm31.1-.505a3.7,3.7,0,0,1-.325-7.381l1.448-.134a3.7,3.7,0,1,1,.714,7.361l-1.5.14C8002.735,1865.054,8002.622,1865.058,8002.513,1865.058Zm-47.334-1.043a3.716,3.716,0,0,1-.5-.034l-1.494-.207a3.7,3.7,0,1,1,1.037-7.323l1.443.2a3.7,3.7,0,0,1-.488,7.364Zm63.508-1.038a3.7,3.7,0,0,1-.611-7.346l1.44-.247a3.7,3.7,0,1,1,1.274,7.284l-1.483.256A3.767,3.767,0,0,1,8018.686,1862.977Zm-79.572-1.765a3.664,3.664,0,0,1-.782-.083l-1.476-.323a3.7,3.7,0,1,1,1.609-7.218l1.421.31a3.7,3.7,0,0,1-.772,7.315Zm95.537-1.567a3.7,3.7,0,0,1-.894-7.286l1.41-.358a3.7,3.7,0,1,1,1.85,7.161l-1.467.372A3.669,3.669,0,0,1,8034.651,1859.645Zm-111.34-2.478a3.7,3.7,0,0,1-1.061-.155l-1.441-.437a3.7,3.7,0,0,1,2.163-7.072l1.4.422a3.7,3.7,0,0,1-1.057,7.242Zm127-2.088a3.7,3.7,0,0,1-1.167-7.208l1.373-.464a3.7,3.7,0,0,1,2.4,7l-1.438.485A3.67,3.67,0,0,1,8050.311,1855.078Zm-142.458-3.186a3.678,3.678,0,0,1-1.325-.247c-.476-.183-.952-.367-1.423-.555a3.7,3.7,0,1,1,2.728-6.875c.45.178.9.353,1.35.527a3.7,3.7,0,0,1-1.329,7.151Zm157.694-2.582a3.7,3.7,0,0,1-1.449-7.1l1.341-.574a3.7,3.7,0,1,1,2.929,6.791l-1.375.59A3.682,3.682,0,0,1,8065.546,1849.31Zm-172.69-3.884a3.675,3.675,0,0,1-1.59-.362l-1.37-.661a3.7,3.7,0,1,1,3.247-6.645l1.31.631a3.7,3.7,0,0,1-1.6,7.036Zm187.429-3.052a3.7,3.7,0,0,1-1.709-6.98l1.289-.675a3.7,3.7,0,1,1,3.455,6.54l-1.332.7A3.7,3.7,0,0,1,8080.285,1842.374Zm-201.87-4.56a3.673,3.673,0,0,1-1.846-.5l-1.309-.763a3.7,3.7,0,1,1,3.747-6.376l1.261.734a3.7,3.7,0,0,1-1.853,6.9Zm216.03-3.5a3.7,3.7,0,0,1-1.953-6.841l1.229-.771a3.7,3.7,0,1,1,3.95,6.254l-1.28.8A3.677,3.677,0,0,1,8094.445,1834.312Zm-229.836-5.208a3.675,3.675,0,0,1-2.087-.648l-1.248-.862a3.7,3.7,0,1,1,4.231-6.066l1.2.828a3.7,3.7,0,0,1-2.094,6.748Zm243.336-3.93a3.7,3.7,0,0,1-2.192-6.678l1.167-.864a3.7,3.7,0,1,1,4.423,5.926l-1.211.9A3.689,3.689,0,0,1,8107.945,1825.175Zm-256.422-5.817a3.694,3.694,0,0,1-2.319-.818l-1.174-.957a3.7,3.7,0,1,1,4.686-5.721l1.128.916a3.7,3.7,0,0,1-2.321,6.579Zm269.178-4.337a3.7,3.7,0,0,1-2.417-6.5l1.1-.958a3.7,3.7,0,0,1,4.862,5.574l-1.135.984A3.677,3.677,0,0,1,8120.7,1815.021Zm-281.468-6.389a3.688,3.688,0,0,1-2.538-1.009l-1.09-1.034a3.7,3.7,0,0,1,5.1-5.353l1.062,1.009a3.7,3.7,0,0,1-2.538,6.388Zm293.4-4.721a3.7,3.7,0,0,1-2.619-6.311l1.022-1.033a3.7,3.7,0,1,1,5.279,5.181l-1.064,1.077A3.688,3.688,0,0,1,8132.636,1803.91Zm-304.832-6.916a3.682,3.682,0,0,1-2.736-1.211l-1.014-1.123a3.7,3.7,0,0,1,5.514-4.93l.972,1.078a3.7,3.7,0,0,1-2.736,6.186Zm315.881-5.083a3.7,3.7,0,0,1-2.809-6.1l.938-1.1a3.7,3.7,0,1,1,5.662,4.756l-.981,1.159A3.7,3.7,0,0,1,8143.686,1791.911Zm-326.373-7.4a3.693,3.693,0,0,1-2.923-1.428l-.927-1.2a3.7,3.7,0,0,1,5.884-4.484l.881,1.145a3.7,3.7,0,0,1-2.916,5.968Zm336.468-5.418a3.7,3.7,0,0,1-2.988-5.874l.856-1.186a3.7,3.7,0,1,1,6.007,4.315l-.881,1.224A3.694,3.694,0,0,1,8153.781,1779.094Zm-345.967-7.83a3.693,3.693,0,0,1-3.09-1.663l-.825-1.257a3.7,3.7,0,0,1,6.2-4.034l.8,1.219a3.7,3.7,0,0,1-3.083,5.735Zm355.043-5.732a3.7,3.7,0,0,1-3.143-5.639l.753-1.238a3.7,3.7,0,0,1,6.333,3.819c-.26.434-.524.868-.791,1.3A3.7,3.7,0,0,1,8162.857,1765.532Zm-363.486-8.208a3.7,3.7,0,0,1-3.239-1.905l-.727-1.325a3.7,3.7,0,0,1,6.5-3.531l.7,1.269a3.7,3.7,0,0,1-3.229,5.492Zm371.487-6.022a3.7,3.7,0,0,1-3.286-5.389l.658-1.3a3.7,3.7,0,1,1,6.608,3.321l-.688,1.355A3.7,3.7,0,0,1,8170.858,1751.3Zm-378.823-8.526a3.7,3.7,0,0,1-3.366-2.163l-.62-1.368a3.7,3.7,0,1,1,6.75-3.026l.6,1.323a3.7,3.7,0,0,1-3.363,5.234Zm385.695-6.287a3.7,3.7,0,0,1-3.412-5.12l.557-1.353a3.7,3.7,0,0,1,6.847,2.8l-.578,1.4A3.7,3.7,0,0,1,8177.73,1736.49Zm-391.876-8.78a3.7,3.7,0,0,1-3.474-2.429l-.515-1.426a3.7,3.7,0,0,1,6.969-2.477l.492,1.363a3.7,3.7,0,0,1-3.473,4.969Zm397.571-6.529a3.658,3.658,0,0,1-1.151-.185,3.7,3.7,0,0,1-2.363-4.666l.452-1.394a3.7,3.7,0,1,1,7.043,2.258l-.467,1.439A3.7,3.7,0,0,1,8183.426,1721.181Zm-402.565-9a3.7,3.7,0,0,1-3.558-2.7l-.4-1.464a3.7,3.7,0,1,1,7.142-1.922l.384,1.4a3.7,3.7,0,0,1-3.564,4.694Zm407.045-6.69a3.7,3.7,0,0,1-3.6-4.565l.342-1.428a3.7,3.7,0,0,1,7.2,1.7l-.347,1.456A3.7,3.7,0,0,1,8187.905,1705.492Zm-410.81-9.177a3.7,3.7,0,0,1-3.625-2.985l-.285-1.485a3.7,3.7,0,0,1,7.267-1.37l.276,1.428a3.7,3.7,0,0,1-2.916,4.343A3.743,3.743,0,0,1,7777.1,1696.315Zm414.05-6.806a3.707,3.707,0,0,1-3.656-4.283l.229-1.443a3.7,3.7,0,1,1,7.309,1.123l-.234,1.487A3.7,3.7,0,0,1,8191.145,1689.51Zm-416.568-9.307a3.7,3.7,0,0,1-3.669-3.272l-.169-1.5a3.7,3.7,0,1,1,7.352-.809l.163,1.451a3.7,3.7,0,0,1-3.244,4.1A3.788,3.788,0,0,1,7774.577,1680.2Zm418.554-6.881c-.105,0-.211,0-.318-.013a3.7,3.7,0,0,1-3.371-4l.114-1.446a3.7,3.7,0,0,1,7.377.563l-.123,1.511A3.7,3.7,0,0,1,8193.131,1673.322Zm-419.816-9.378a3.7,3.7,0,0,1-3.694-3.551l-.053-1.5a3.7,3.7,0,1,1,7.391-.239l.053,1.45a3.7,3.7,0,0,1-3.55,3.841C7773.413,1663.943,7773.363,1663.943,7773.315,1663.943Zm420.546-6.913h-.032a3.7,3.7,0,0,1-3.666-3.73l.005-1.922a3.7,3.7,0,0,1,7.4,0l-.007,1.987A3.7,3.7,0,0,1,8193.861,1657.03Zm-420.561-9.392-.138,0a3.7,3.7,0,0,1-3.562-3.832l.063-1.51a3.7,3.7,0,1,1,7.387.325l-.058,1.455A3.7,3.7,0,0,1,7773.3,1647.638Zm420.016-7.381a3.7,3.7,0,0,1-3.686-3.438l-.109-1.447a3.7,3.7,0,0,1,7.374-.584l.114,1.511a3.7,3.7,0,0,1-3.432,3.949C8193.49,1640.255,8193.4,1640.258,8193.316,1640.258Zm-418.787-8.88a3.846,3.846,0,0,1-.426-.024,3.7,3.7,0,0,1-3.252-4.1l.176-1.5a3.7,3.7,0,0,1,7.341.9l-.17,1.446A3.7,3.7,0,0,1,7774.529,1631.378Zm416.994-7.328a3.7,3.7,0,0,1-3.651-3.138l-.225-1.455a3.7,3.7,0,1,1,7.306-1.146l.229,1.478a3.7,3.7,0,0,1-3.092,4.217A3.793,3.793,0,0,1,8191.523,1624.05Zm-414.513-8.79a3.706,3.706,0,0,1-3.635-4.4l.292-1.482a3.7,3.7,0,1,1,7.25,1.459l-.28,1.428A3.7,3.7,0,0,1,7777.01,1615.26Zm411.464-7.23a3.7,3.7,0,0,1-3.6-2.858l-.337-1.432a3.7,3.7,0,1,1,7.2-1.707l.343,1.458a3.7,3.7,0,0,1-3.6,4.54Zm-407.738-8.648a3.748,3.748,0,0,1-.986-.133,3.7,3.7,0,0,1-2.582-4.548l.408-1.456a3.7,3.7,0,1,1,7.114,2.022l-.392,1.4A3.7,3.7,0,0,1,7780.736,1599.383Zm403.453-7.089a3.7,3.7,0,0,1-3.526-2.588l-.441-1.388a3.7,3.7,0,1,1,7.037-2.271l.459,1.438a3.7,3.7,0,0,1-3.529,4.81Zm-398.5-8.448a3.7,3.7,0,0,1-3.478-4.959l.522-1.423a3.7,3.7,0,0,1,6.936,2.57l-.5,1.373A3.7,3.7,0,0,1,7785.689,1583.845Zm393-6.9a3.7,3.7,0,0,1-3.429-2.307l-.554-1.361a3.7,3.7,0,1,1,6.842-2.809l.565,1.386a3.7,3.7,0,0,1-3.423,5.091Zm-386.842-8.222a3.655,3.655,0,0,1-1.527-.332,3.7,3.7,0,0,1-1.837-4.9l.627-1.369a3.7,3.7,0,1,1,6.717,3.095l-.612,1.334A3.7,3.7,0,0,1,7791.85,1568.719Zm380.166-6.642a3.7,3.7,0,0,1-3.315-2.05l-.65-1.3a3.7,3.7,0,1,1,6.6-3.338l.675,1.343a3.7,3.7,0,0,1-3.308,5.346Zm-372.848-7.951a3.7,3.7,0,0,1-3.235-5.483l.739-1.327a3.7,3.7,0,1,1,6.447,3.623l-.708,1.272A3.7,3.7,0,0,1,7799.167,1554.127Zm365.037-6.348a3.694,3.694,0,0,1-3.173-1.795l-.755-1.252a3.7,3.7,0,1,1,6.321-3.838l.774,1.282a3.7,3.7,0,0,1-3.167,5.6Zm-356.606-7.629a3.7,3.7,0,0,1-3.086-5.732l.832-1.255a3.7,3.7,0,0,1,6.157,4.1l-.81,1.222A3.7,3.7,0,0,1,7807.6,1540.149Zm347.708-6.028a3.693,3.693,0,0,1-3.017-1.555l-.85-1.193a3.7,3.7,0,1,1,6.008-4.31l.868,1.217a3.7,3.7,0,0,1-3.01,5.841Zm-338.221-7.253a3.7,3.7,0,0,1-2.921-5.963l.928-1.187a3.7,3.7,0,1,1,5.819,4.566l-.9,1.152A3.692,3.692,0,0,1,7817.085,1526.868Zm328.292-5.679a3.69,3.69,0,0,1-2.844-1.332l-.939-1.122a3.7,3.7,0,0,1,5.66-4.76l.963,1.149a3.7,3.7,0,0,1-2.84,6.065Zm-317.812-6.824a3.7,3.7,0,0,1-2.737-6.183l1.012-1.11a3.7,3.7,0,1,1,5.453,5l-.987,1.081A3.686,3.686,0,0,1,7827.564,1514.365Zm306.915-5.306a3.692,3.692,0,0,1-2.657-1.124l-1.016-1.042a3.7,3.7,0,1,1,5.272-5.186l1.055,1.079a3.7,3.7,0,0,1-2.654,6.273Zm-295.5-6.352a3.7,3.7,0,0,1-2.539-6.388l1.1-1.027a3.7,3.7,0,1,1,5.047,5.406l-1.067,1A3.685,3.685,0,0,1,7838.976,1502.706Zm283.7-4.907a3.681,3.681,0,0,1-2.437-.919l-1.107-.969a3.7,3.7,0,0,1,4.862-5.575l1.125.985a3.7,3.7,0,0,1-2.442,6.478Zm-271.425-5.834a3.7,3.7,0,0,1-2.328-6.574l1.169-.941a3.7,3.7,0,0,1,4.62,5.777l-1.141.916A3.671,3.671,0,0,1,7851.249,1491.964Zm258.785-4.483a3.681,3.681,0,0,1-2.219-.743l-1.173-.878a3.7,3.7,0,0,1,4.415-5.936l1.2.9a3.7,3.7,0,0,1-2.225,6.655Zm-245.726-5.279a3.7,3.7,0,0,1-2.1-6.741l1.25-.855a3.7,3.7,0,1,1,4.146,6.125l-1.194.816A3.679,3.679,0,0,1,7864.308,1482.2Zm232.325-4.033a3.677,3.677,0,0,1-1.99-.585l-1.231-.78a3.7,3.7,0,1,1,3.938-6.26l1.28.811a3.7,3.7,0,0,1-2,6.814Zm-218.558-4.687a3.7,3.7,0,0,1-1.861-6.9l1.306-.753a3.7,3.7,0,1,1,3.666,6.423l-1.255.724A3.683,3.683,0,0,1,7878.075,1473.482Zm204.474-3.563a3.675,3.675,0,0,1-1.744-.439l-1.283-.68a3.7,3.7,0,1,1,3.435-6.55l1.343.712a3.7,3.7,0,0,1-1.751,6.958Zm-190.073-4.063a3.7,3.7,0,0,1-1.606-7.031l1.357-.646a3.7,3.7,0,0,1,3.16,6.687l-1.312.625A3.693,3.693,0,0,1,7892.476,1465.855Zm175.388-3.068a3.678,3.678,0,0,1-1.486-.313l-1.335-.579a3.7,3.7,0,0,1,2.915-6.8l1.4.606a3.7,3.7,0,0,1-1.489,7.084Zm-160.448-3.411a3.7,3.7,0,0,1-1.343-7.145l1.413-.543a3.7,3.7,0,0,1,2.626,6.915l-1.358.521A3.7,3.7,0,0,1,7907.416,1459.376Zm145.247-2.555a3.7,3.7,0,0,1-1.218-.207l-1.378-.474a3.7,3.7,0,0,1,2.374-7l1.439.5a3.7,3.7,0,0,1-1.217,7.19Zm-129.828-2.749a3.7,3.7,0,0,1-1.062-7.241l1.447-.428a3.7,3.7,0,0,1,2.079,7.1l-1.4.414A3.7,3.7,0,0,1,7922.834,1454.073Zm114.225-2.008a3.7,3.7,0,0,1-.941-.121l-1.411-.365a3.7,3.7,0,1,1,1.823-7.168l1.462.378a3.7,3.7,0,0,1-.933,7.276Zm-98.435-2.075a3.7,3.7,0,0,1-.782-7.313l1.474-.314a3.7,3.7,0,0,1,1.522,7.237l-1.427.3A3.69,3.69,0,0,1,7938.624,1449.99Zm82.509-1.444a3.769,3.769,0,0,1-.663-.06l-1.434-.254a3.7,3.7,0,1,1,1.264-7.287l1.486.264a3.7,3.7,0,0,1-.654,7.337Zm-66.453-1.4a3.7,3.7,0,0,1-.5-7.363l1.5-.2a3.7,3.7,0,0,1,.952,7.336l-1.444.193A3.663,3.663,0,0,1,7954.68,1447.149Zm50.306-.877a3.7,3.7,0,0,1-.376-.019l-1.449-.141a3.7,3.7,0,0,1,.69-7.365l1.5.147a3.7,3.7,0,0,1-.369,7.378Zm-34.075-.711a3.7,3.7,0,0,1-.213-7.39l1.5-.083a3.7,3.7,0,0,1,.39,7.386l-1.458.081C7971.056,1445.559,7970.984,1445.561,7970.91,1445.561Zm17.8-.307h-.093l-1.456-.031a3.7,3.7,0,1,1,.13-7.394l1.51.032a3.7,3.7,0,0,1-.091,7.394Z" transform="translate(-7769.566 -1437.827)"/></g><g transform="translate(7790.923 1459.18)"><path class="a" d="M7986.324,1844.658a3.7,3.7,0,0,1-.047-7.4l1.445-.025a3.7,3.7,0,1,1,.162,7.394l-1.51.027Zm-14.771-.36c-.077,0-.153,0-.234-.008l-1.5-.1a3.7,3.7,0,1,1,.521-7.376l1.449.1a3.7,3.7,0,0,1-.231,7.389Zm31-.558a3.7,3.7,0,0,1-.357-7.378l1.437-.149a3.7,3.7,0,0,1,.792,7.355l-1.5.154A3.482,3.482,0,0,1,8002.554,1843.74Zm-47.163-1.158a3.678,3.678,0,0,1-.551-.041l-1.5-.231a3.7,3.7,0,0,1,1.159-7.3l1.429.22a3.7,3.7,0,0,1-.541,7.356Zm63.258-1.142a3.7,3.7,0,0,1-.68-7.333l1.426-.272a3.7,3.7,0,0,1,1.418,7.259l-1.478.282A3.654,3.654,0,0,1,8018.648,1841.439Zm-79.22-1.96a3.7,3.7,0,0,1-.864-.1l-1.466-.357a3.7,3.7,0,0,1,1.779-7.178l1.409.343a3.7,3.7,0,0,1-.858,7.295Zm95.055-1.722a3.7,3.7,0,0,1-.991-7.261l1.4-.4a3.7,3.7,0,1,1,2.038,7.11l-1.451.41A3.681,3.681,0,0,1,8034.483,1837.757Zm-110.69-2.747a3.686,3.686,0,0,1-1.172-.192l-1.435-.483a3.7,3.7,0,1,1,2.4-7l1.378.466a3.7,3.7,0,0,1-1.171,7.206Zm126.15-2.294a3.7,3.7,0,0,1-1.3-7.162l1.356-.514a3.7,3.7,0,0,1,2.65,6.905l-1.409.534A3.675,3.675,0,0,1,8049.943,1832.717Zm-141.355-3.521a3.7,3.7,0,0,1-1.469-.305l-1.383-.6a3.7,3.7,0,0,1,2.985-6.768l1.335.586a3.7,3.7,0,0,1-1.469,7.092Zm156.312-2.833a3.7,3.7,0,0,1-1.6-7.036l1.306-.629a3.7,3.7,0,0,1,3.23,6.654l-1.35.65A3.69,3.69,0,0,1,8064.9,1826.363Zm-170.954-4.274a3.684,3.684,0,0,1-1.755-.445l-1.327-.723a3.7,3.7,0,0,1,3.566-6.48l1.274.7a3.7,3.7,0,0,1-1.759,6.953Zm185.3-3.346a3.7,3.7,0,0,1-1.881-6.885l1.248-.74a3.7,3.7,0,0,1,3.793,6.349l-1.288.764A3.675,3.675,0,0,1,8079.25,1818.742Zm-199.275-4.995a3.7,3.7,0,0,1-2.026-.605l-1.261-.837a3.7,3.7,0,1,1,4.111-6.147l1.206.8a3.7,3.7,0,0,1-2.03,6.791Zm212.918-3.832a3.7,3.7,0,0,1-2.144-6.713l1.175-.842a3.7,3.7,0,0,1,4.334,6l-1.226.876A3.679,3.679,0,0,1,8092.893,1809.915Zm-226.115-5.676a3.68,3.68,0,0,1-2.288-.8l-1.174-.932a3.7,3.7,0,1,1,4.61-5.781l1.145.908a3.7,3.7,0,0,1-2.293,6.6Zm238.956-4.291a3.7,3.7,0,0,1-2.385-6.526c.367-.308.729-.619,1.093-.932a3.7,3.7,0,1,1,4.83,5.6q-.574.5-1.156.986A3.68,3.68,0,0,1,8105.733,1799.948Zm-251.29-6.31a3.682,3.682,0,0,1-2.527-1l-1.1-1.036a3.7,3.7,0,0,1,5.105-5.354l1.051.994a3.7,3.7,0,0,1-2.53,6.4Zm263.232-4.72a3.7,3.7,0,0,1-2.624-6.306l1.021-1.033a3.7,3.7,0,1,1,5.283,5.176l-1.058,1.071A3.685,3.685,0,0,1,8117.676,1788.918Zm-274.611-6.893a3.684,3.684,0,0,1-2.75-1.225l-1-1.123a3.7,3.7,0,1,1,5.535-4.905l.964,1.082a3.7,3.7,0,0,1-2.747,6.171Zm285.574-5.119a3.7,3.7,0,0,1-2.837-6.071l.928-1.117a3.7,3.7,0,1,1,5.709,4.7l-.963,1.159A3.687,3.687,0,0,1,8128.639,1776.906Zm-295.918-7.422a3.689,3.689,0,0,1-2.955-1.472l-.9-1.2a3.7,3.7,0,1,1,5.929-4.422l.875,1.166a3.7,3.7,0,0,1-2.951,5.924ZM8138.529,1764a3.7,3.7,0,0,1-3.024-5.821l.828-1.19a3.7,3.7,0,1,1,6.09,4.2l-.862,1.241A3.7,3.7,0,0,1,8138.529,1764Zm-315.041-7.888a3.7,3.7,0,0,1-3.135-1.731l-.8-1.278a3.7,3.7,0,1,1,6.294-3.884l.765,1.227a3.7,3.7,0,0,1-3.128,5.666Zm323.8-5.822a3.7,3.7,0,0,1-3.2-5.549l.725-1.264a3.7,3.7,0,1,1,6.429,3.657l-.748,1.307A3.7,3.7,0,0,1,8147.285,1750.286Zm-331.844-8.3a3.7,3.7,0,0,1-3.294-2.013l-.676-1.325a3.7,3.7,0,1,1,6.6-3.347l.661,1.3a3.7,3.7,0,0,1-3.288,5.386Zm339.384-6.124a3.7,3.7,0,0,1-3.34-5.276l.609-1.313a3.7,3.7,0,0,1,6.721,3.09c-.213.46-.425.92-.642,1.377A3.7,3.7,0,0,1,8154.825,1735.867Zm-346.184-8.628a3.7,3.7,0,0,1-3.423-2.3l-.566-1.4a3.7,3.7,0,1,1,6.866-2.75l.543,1.342a3.7,3.7,0,0,1-3.42,5.1Zm352.458-6.391a3.7,3.7,0,0,1-3.473-4.973l.5-1.373a3.7,3.7,0,0,1,6.958,2.5l-.515,1.418A3.7,3.7,0,0,1,8161.1,1720.848Zm-357.964-8.909a3.7,3.7,0,0,1-3.528-2.6l-.442-1.439a3.7,3.7,0,1,1,7.074-2.152l.429,1.389a3.7,3.7,0,0,1-3.532,4.8Zm362.905-6.587a3.7,3.7,0,0,1-3.569-4.674l.374-1.4a3.7,3.7,0,1,1,7.151,1.884l-.39,1.461A3.7,3.7,0,0,1,8166.041,1705.352Zm-367.064-9.132a3.7,3.7,0,0,1-3.609-2.906l-.316-1.481a3.7,3.7,0,1,1,7.238-1.514l.3,1.412a3.7,3.7,0,0,1-3.615,4.49Zm370.647-6.728a3.619,3.619,0,0,1-.666-.061,3.7,3.7,0,0,1-2.977-4.3l.251-1.423a3.7,3.7,0,0,1,7.29,1.257l-.264,1.49A3.7,3.7,0,0,1,8169.624,1689.492Zm-373.431-9.289a3.7,3.7,0,0,1-3.662-3.222l-.189-1.5a3.7,3.7,0,0,1,7.344-.889l.18,1.434a3.7,3.7,0,0,1-3.189,4.145A3.746,3.746,0,0,1,7796.193,1680.2Zm375.629-6.821c-.115,0-.235,0-.353-.016a3.7,3.7,0,0,1-3.334-4.029l.128-1.44a3.7,3.7,0,1,1,7.369.626l-.134,1.506A3.7,3.7,0,0,1,8171.822,1673.383ZM7794.8,1664a3.7,3.7,0,0,1-3.69-3.54l-.06-1.5a3.7,3.7,0,1,1,7.392-.261l.058,1.445a3.7,3.7,0,0,1-3.537,3.852C7794.905,1664,7794.851,1664,7794.8,1664Zm377.835-6.858h-.033a3.7,3.7,0,0,1-3.664-3.73l0-1.878a3.7,3.7,0,1,1,7.4,0l-.006,1.943A3.7,3.7,0,0,1,8172.632,1657.146Zm-377.845-9.4c-.053,0-.1,0-.155,0a3.7,3.7,0,0,1-3.544-3.847l.067-1.5a3.7,3.7,0,0,1,7.388.359l-.064,1.449A3.7,3.7,0,0,1,7794.787,1647.751Zm377.242-7.285a3.7,3.7,0,0,1-3.682-3.406l-.12-1.44a3.7,3.7,0,0,1,7.366-.652l.128,1.508a3.7,3.7,0,0,1-3.4,3.979C8172.229,1640.462,8172.129,1640.466,8172.029,1640.466Zm-375.881-8.915a3.8,3.8,0,0,1-.471-.03,3.7,3.7,0,0,1-3.2-4.135l.2-1.5a3.7,3.7,0,1,1,7.328,1l-.189,1.434A3.7,3.7,0,0,1,7796.148,1631.551Zm373.9-7.219a3.7,3.7,0,0,1-3.644-3.094l-.242-1.425a3.7,3.7,0,1,1,7.284-1.278l.253,1.492a3.7,3.7,0,0,1-3.041,4.254A3.748,3.748,0,0,1,8170.048,1624.332Zm-371.152-8.805a3.741,3.741,0,0,1-.784-.083,3.7,3.7,0,0,1-2.835-4.4l.325-1.476a3.7,3.7,0,1,1,7.216,1.626l-.311,1.411A3.7,3.7,0,0,1,7798.9,1615.527Zm367.789-7.1a3.7,3.7,0,0,1-3.581-2.779l-.363-1.4a3.7,3.7,0,1,1,7.145-1.908l.384,1.465a3.7,3.7,0,0,1-3.584,4.619Zm-363.671-8.625a3.7,3.7,0,0,1-3.535-4.788l.454-1.45a3.7,3.7,0,0,1,7.048,2.242l-.434,1.387A3.7,3.7,0,0,1,7803.014,1599.8Zm358.941-6.93a3.7,3.7,0,0,1-3.488-2.472l-.487-1.363a3.7,3.7,0,0,1,6.957-2.514l.508,1.423a3.7,3.7,0,0,1-3.489,4.925Zm-353.468-8.4a3.7,3.7,0,0,1-3.425-5.091q.286-.7.578-1.405a3.7,3.7,0,0,1,6.825,2.85l-.551,1.34A3.7,3.7,0,0,1,7808.487,1584.469Zm347.417-6.674a3.7,3.7,0,0,1-3.368-2.168l-.6-1.315a3.7,3.7,0,0,1,6.711-3.111l.624,1.364a3.7,3.7,0,0,1-3.363,5.23Zm-340.636-8.121a3.7,3.7,0,0,1-3.286-5.385l.69-1.34a3.7,3.7,0,0,1,6.56,3.42l-.67,1.294A3.7,3.7,0,0,1,7815.269,1569.674Zm333.3-6.375a3.7,3.7,0,0,1-3.229-1.893l-.71-1.253a3.7,3.7,0,1,1,6.42-3.671l.743,1.312a3.7,3.7,0,0,1-3.224,5.506Zm-325.271-7.776a3.7,3.7,0,0,1-3.135-5.657q.4-.644.812-1.286a3.7,3.7,0,0,1,6.232,3.983q-.388.607-.769,1.219A3.7,3.7,0,0,1,7823.3,1555.522Zm316.717-6.04a3.7,3.7,0,0,1-3.062-1.622l-.814-1.187a3.7,3.7,0,1,1,6.078-4.213l.856,1.247a3.7,3.7,0,0,1-3.058,5.776Zm-307.5-7.366a3.7,3.7,0,0,1-2.956-5.919c.306-.4.609-.808.918-1.21a3.7,3.7,0,1,1,5.868,4.5c-.294.382-.582.765-.872,1.148A3.689,3.689,0,0,1,7832.516,1542.117Zm297.788-5.67a3.69,3.69,0,0,1-2.867-1.359l-.923-1.125a3.7,3.7,0,1,1,5.7-4.713l.951,1.158a3.7,3.7,0,0,1-2.862,6.038Zm-287.461-6.894a3.7,3.7,0,0,1-2.749-6.168l1-1.11a3.7,3.7,0,0,1,5.484,4.964l-.982,1.086A3.682,3.682,0,0,1,7842.843,1529.552Zm276.666-5.264a3.692,3.692,0,0,1-2.658-1.128l-1.011-1.04a3.7,3.7,0,1,1,5.277-5.18l1.05,1.078a3.7,3.7,0,0,1-2.658,6.27Zm-265.3-6.37a3.7,3.7,0,0,1-2.536-6.39c.369-.346.737-.691,1.108-1.034a3.7,3.7,0,0,1,5.016,5.437c-.353.326-.705.653-1.052.982A3.687,3.687,0,0,1,7854.208,1517.918Zm253.5-4.826a3.681,3.681,0,0,1-2.431-.913l-1.092-.945a3.7,3.7,0,1,1,4.814-5.615l1.144.99a3.7,3.7,0,0,1-2.436,6.483Zm-241.189-5.791a3.7,3.7,0,0,1-2.3-6.6q.595-.471,1.2-.937a3.7,3.7,0,0,1,4.527,5.848q-.567.44-1.131.886A3.679,3.679,0,0,1,7866.522,1507.3Zm228.48-4.357a3.683,3.683,0,0,1-2.174-.709l-1.184-.856a3.7,3.7,0,0,1,4.323-6l1.216.88a3.7,3.7,0,0,1-2.182,6.687Zm-215.307-5.166a3.7,3.7,0,0,1-2.04-6.785l1.26-.825a3.7,3.7,0,1,1,4.024,6.206l-1.211.791A3.679,3.679,0,0,1,7879.7,1497.779Zm201.771-3.856a3.68,3.68,0,0,1-1.918-.539l-1.239-.746a3.7,3.7,0,1,1,3.781-6.356l1.3.781a3.7,3.7,0,0,1-1.924,6.859Zm-187.834-4.5a3.7,3.7,0,0,1-1.765-6.951l1.321-.709a3.7,3.7,0,0,1,3.48,6.527l-1.277.685A3.674,3.674,0,0,1,7893.633,1489.42ZM8067.2,1486.1a3.684,3.684,0,0,1-1.633-.383l-1.306-.638a3.7,3.7,0,0,1,3.221-6.659l1.357.665a3.7,3.7,0,0,1-1.64,7.015Zm-158.971-3.8a3.7,3.7,0,0,1-1.479-7.089l1.381-.595a3.7,3.7,0,0,1,2.9,6.8l-1.325.572A3.7,3.7,0,0,1,7908.231,1482.3Zm144.082-2.771a3.684,3.684,0,0,1-1.348-.255l-1.354-.522a3.7,3.7,0,0,1,2.636-6.911l1.414.546a3.7,3.7,0,0,1-1.348,7.143Zm-128.928-3.064a3.7,3.7,0,0,1-1.178-7.2l1.43-.475a3.7,3.7,0,1,1,2.3,7.029l-1.378.457A3.676,3.676,0,0,1,7923.386,1476.463Zm113.535-2.186a3.691,3.691,0,0,1-1.044-.15l-1.392-.4a3.7,3.7,0,1,1,2.027-7.113l1.448.419a3.7,3.7,0,0,1-1.04,7.247ZM7939,1471.959a3.7,3.7,0,0,1-.866-7.294l1.466-.348a3.7,3.7,0,0,1,1.682,7.2l-1.41.335A3.7,3.7,0,0,1,7939,1471.959Zm82.139-1.577a3.721,3.721,0,0,1-.735-.073l-1.426-.281a3.7,3.7,0,1,1,1.409-7.26l1.478.291a3.7,3.7,0,0,1-.726,7.324Zm-66.187-1.561a3.7,3.7,0,0,1-.555-7.354l1.494-.222a3.7,3.7,0,0,1,1.053,7.322l-1.429.211A3.736,3.736,0,0,1,7954.955,1468.82Zm50.126-.958a3.514,3.514,0,0,1-.422-.024l-1.437-.157a3.7,3.7,0,1,1,.768-7.355l1.5.164a3.7,3.7,0,0,1-.413,7.372Zm-33.964-.8a3.7,3.7,0,0,1-.235-7.388l1.5-.092a3.7,3.7,0,0,1,.422,7.385l-1.449.088C7971.277,1467.064,7971.2,1467.066,7971.117,1467.066Zm17.74-.335-.1,0-1.446-.034a3.7,3.7,0,0,1-3.627-3.768,3.745,3.745,0,0,1,3.769-3.627l1.51.035a3.7,3.7,0,0,1-.1,7.4Z" transform="translate(-7791.044 -1459.3)"/></g><g transform="translate(7836.092 1504.434)"><path class="a" d="M7983.96,1799.64l-1.5-.007a3.7,3.7,0,0,1,.032-7.4h.037l1.354.007a3.73,3.73,0,0,1,3.736,3.7A3.665,3.665,0,0,1,7983.96,1799.64Zm14.624-.744a3.7,3.7,0,0,1-.368-7.377c.473-.047.947-.1,1.418-.151a3.7,3.7,0,1,1,.822,7.349q-.749.083-1.5.16A3.718,3.718,0,0,1,7998.583,1798.9Zm-30.707-.137a3.447,3.447,0,0,1-.414-.024l-1.488-.172a3.7,3.7,0,1,1,.887-7.343l1.422.165a3.7,3.7,0,0,1-.407,7.373Zm46.62-2.388a3.7,3.7,0,0,1-.779-7.314c.468-.1.931-.2,1.4-.309a3.7,3.7,0,0,1,1.639,7.213q-.736.166-1.47.326A3.745,3.745,0,0,1,8014.5,1796.372Zm-62.512-.283a3.682,3.682,0,0,1-.821-.093l-1.463-.34a3.7,3.7,0,1,1,1.708-7.2l1.392.323a3.7,3.7,0,0,1-.816,7.306Zm78.045-4.016a3.7,3.7,0,0,1-1.193-7.2l1.353-.467a3.7,3.7,0,0,1,2.45,6.979l-1.419.49A3.7,3.7,0,0,1,8030.031,1792.073Zm-93.537-.428a3.7,3.7,0,0,1-1.217-.207c-.479-.166-.953-.335-1.428-.507a3.7,3.7,0,1,1,2.518-6.954c.446.161.9.32,1.346.477a3.7,3.7,0,0,1-1.218,7.191Zm108.483-5.6A3.7,3.7,0,0,1,8043.4,1779q.644-.3,1.281-.609a3.7,3.7,0,1,1,3.219,6.658c-.452.218-.9.434-1.359.647A3.68,3.68,0,0,1,8044.977,1786.048Zm-123.38-.569a3.676,3.676,0,0,1-1.6-.366q-.685-.328-1.363-.665a3.7,3.7,0,0,1,3.29-6.625c.425.212.851.419,1.278.624a3.7,3.7,0,0,1-1.6,7.032Zm137.548-7.094a3.7,3.7,0,0,1-1.939-6.849q.6-.373,1.2-.75a3.7,3.7,0,0,1,3.949,6.253q-.636.4-1.28.8A3.67,3.67,0,0,1,8059.144,1778.385Zm-151.655-.706a3.679,3.679,0,0,1-1.967-.568l-1.268-.807a3.7,3.7,0,0,1,4-6.223l1.209.769a3.7,3.7,0,0,1-1.97,6.83Zm164.877-8.5a3.7,3.7,0,0,1-2.282-6.612q.563-.438,1.119-.883a3.7,3.7,0,1,1,4.617,5.777q-.589.47-1.181.932A3.678,3.678,0,0,1,8072.366,1769.184Zm-178.022-.834a3.686,3.686,0,0,1-2.3-.806q-.589-.47-1.174-.947a3.7,3.7,0,1,1,4.672-5.733c.369.3.737.6,1.11.894a3.7,3.7,0,0,1-2.307,6.591Zm190.137-9.786a3.7,3.7,0,0,1-2.588-6.34q.51-.5,1.015-1a3.7,3.7,0,0,1,5.229,5.229q-.53.531-1.068,1.059A3.684,3.684,0,0,1,8084.48,1758.564Zm-202.154-.95a3.687,3.687,0,0,1-2.614-1.083l-1.056-1.066a3.7,3.7,0,1,1,5.278-5.18l1.007,1.016a3.7,3.7,0,0,1-2.615,6.313Zm213.014-10.955a3.7,3.7,0,0,1-2.863-6.038c.3-.368.6-.737.894-1.108a3.7,3.7,0,0,1,5.782,4.612q-.469.591-.946,1.175A3.691,3.691,0,0,1,8095.34,1746.659Zm-223.759-1.048a3.693,3.693,0,0,1-2.893-1.389q-.468-.588-.933-1.179a3.7,3.7,0,0,1,5.827-4.556q.437.561.884,1.118a3.7,3.7,0,0,1-2.886,6.007Zm233.227-11.992a3.7,3.7,0,0,1-3.108-5.7q.388-.6.767-1.205a3.7,3.7,0,0,1,6.264,3.935c-.268.425-.537.85-.809,1.272A3.7,3.7,0,0,1,8104.808,1733.618Zm-242.57-1.133a3.7,3.7,0,0,1-3.132-1.726q-.4-.634-.792-1.272a3.7,3.7,0,1,1,6.3-3.883l.755,1.21a3.7,3.7,0,0,1-3.126,5.671Zm250.519-12.887a3.7,3.7,0,0,1-3.309-5.344c.211-.425.42-.851.625-1.279a3.7,3.7,0,0,1,6.666,3.207q-.33.683-.666,1.362A3.7,3.7,0,0,1,8112.757,1719.6Zm-258.335-1.2a3.7,3.7,0,0,1-3.331-2.087q-.326-.674-.646-1.352a3.7,3.7,0,0,1,6.689-3.158l.614,1.286a3.7,3.7,0,0,1-3.326,5.311Zm264.665-13.63a3.7,3.7,0,0,1-3.48-4.951l.482-1.354a3.7,3.7,0,1,1,6.982,2.44l-.5,1.419A3.7,3.7,0,0,1,8119.086,1704.771Zm-270.85-1.245a3.7,3.7,0,0,1-3.488-2.474l-.492-1.419a3.7,3.7,0,0,1,7-2.382l.466,1.35a3.7,3.7,0,0,1-3.489,4.924Zm275.466-14.2a3.655,3.655,0,0,1-.856-.1,3.7,3.7,0,0,1-2.745-4.453l.325-1.392a3.7,3.7,0,1,1,7.211,1.64l-.338,1.462A3.7,3.7,0,0,1,8123.7,1689.324Zm-279.935-1.278a3.7,3.7,0,0,1-3.6-2.878l-.328-1.466a3.7,3.7,0,0,1,7.227-1.572l.312,1.4a3.7,3.7,0,0,1-3.608,4.52Zm282.78-14.579a3.708,3.708,0,0,1-3.675-4.148q.085-.706.162-1.412a3.7,3.7,0,0,1,7.353.808c-.054.5-.115,1-.174,1.5A3.7,3.7,0,0,1,8126.547,1673.467Zm-285.478-1.307a3.7,3.7,0,0,1-3.671-3.284c-.055-.5-.109-1-.16-1.5a3.7,3.7,0,0,1,7.359-.744q.072.707.152,1.414a3.7,3.7,0,0,1-3.259,4.09A3.742,3.742,0,0,1,7841.069,1672.16Zm286.524-14.771h-.033a3.7,3.7,0,0,1-3.664-3.731l.006-1.434v-.3a3.7,3.7,0,1,1,7.4,0l0,.25-.007,1.551A3.7,3.7,0,0,1,8127.593,1657.389Zm-287.428-1.315a3.7,3.7,0,0,1-3.7-3.7l.007-1.5a3.7,3.7,0,0,1,3.7-3.661h.038a3.7,3.7,0,0,1,3.661,3.735l-.006,1.429A3.7,3.7,0,0,1,7840.166,1656.074Zm286.664-15.082a3.7,3.7,0,0,1-3.674-3.315l-.155-1.425a3.7,3.7,0,0,1,7.351-.831l.16,1.49a3.7,3.7,0,0,1-3.294,4.061C8127.087,1640.985,8126.956,1640.993,8126.83,1640.993Zm-285.789-1.005a3.519,3.519,0,0,1-.408-.023,3.7,3.7,0,0,1-3.272-4.08l.173-1.49a3.7,3.7,0,1,1,7.342.876l-.162,1.423A3.7,3.7,0,0,1,7841.041,1639.987Zm283.24-14.9a3.7,3.7,0,0,1-3.611-2.914c-.1-.462-.2-.924-.31-1.385a3.7,3.7,0,0,1,7.208-1.663q.168.737.33,1.477a3.7,3.7,0,0,1-3.617,4.485ZM7843.7,1624.1a3.653,3.653,0,0,1-.822-.092,3.7,3.7,0,0,1-2.786-4.426l.337-1.461a3.7,3.7,0,1,1,7.2,1.706l-.323,1.394A3.7,3.7,0,0,1,7843.7,1624.1Zm276.254-14.535a3.7,3.7,0,0,1-3.5-2.507l-.467-1.352a3.7,3.7,0,1,1,6.977-2.449l.491,1.417a3.7,3.7,0,0,1-3.5,4.891Zm-271.822-.958a3.7,3.7,0,0,1-3.493-4.917l.5-1.421a3.7,3.7,0,1,1,6.96,2.505l-.479,1.353A3.7,3.7,0,0,1,7848.137,1608.6Zm265.777-13.977a3.7,3.7,0,0,1-3.342-2.111l-.618-1.291a3.7,3.7,0,1,1,6.653-3.229l.645,1.344a3.7,3.7,0,0,1-3.338,5.286Zm-259.622-.921a3.7,3.7,0,0,1-3.33-5.3c.218-.452.44-.9.66-1.354a3.7,3.7,0,0,1,6.633,3.273l-.628,1.289A3.7,3.7,0,0,1,7854.292,1593.707Zm251.938-13.235a3.7,3.7,0,0,1-3.148-1.752l-.757-1.212a3.7,3.7,0,1,1,6.252-3.949l.795,1.268a3.7,3.7,0,0,1-3.142,5.645Zm-244.146-.876a3.7,3.7,0,0,1-3.131-5.664q.4-.638.81-1.272a3.7,3.7,0,0,1,6.223,4c-.256.4-.514.8-.766,1.206A3.7,3.7,0,0,1,7862.084,1579.6Zm234.922-12.332a3.692,3.692,0,0,1-2.913-1.416l-.888-1.119a3.7,3.7,0,0,1,5.773-4.623c.314.39.624.783.934,1.178a3.7,3.7,0,0,1-2.907,5.98Zm-225.6-.818a3.7,3.7,0,0,1-2.887-6q.467-.588.944-1.172a3.7,3.7,0,1,1,5.731,4.674c-.3.369-.6.74-.894,1.112A3.7,3.7,0,0,1,7871.406,1566.446Zm214.958-11.282a3.687,3.687,0,0,1-2.636-1.1q-.5-.507-1-1.009a3.7,3.7,0,1,1,5.215-5.246q.535.531,1.062,1.07a3.7,3.7,0,0,1-2.636,6.291Zm-204.226-.743a3.7,3.7,0,0,1-2.618-6.31l1.063-1.056a3.7,3.7,0,0,1,5.186,5.274l-1.015,1.007A3.685,3.685,0,0,1,7882.138,1554.421Zm192.3-10.1a3.682,3.682,0,0,1-2.327-.826q-.555-.451-1.114-.9a3.7,3.7,0,1,1,4.6-5.79q.59.467,1.174.943a3.7,3.7,0,0,1-2.333,6.569Zm-180.3-.654a3.7,3.7,0,0,1-2.311-6.587l1.167-.927a3.7,3.7,0,1,1,4.573,5.813l-1.124.892A3.691,3.691,0,0,1,7894.14,1543.665Zm167.243-8.792a3.684,3.684,0,0,1-1.995-.587q-.6-.387-1.206-.766a3.7,3.7,0,1,1,3.93-6.266q.639.4,1.272.808a3.7,3.7,0,0,1-2,6.81Zm-154.122-.557a3.7,3.7,0,0,1-1.978-6.825l1.272-.794a3.7,3.7,0,1,1,3.888,6.291l-1.209.756A3.686,3.686,0,0,1,7907.261,1534.316Zm140.09-7.372a3.692,3.692,0,0,1-1.634-.382q-.64-.316-1.286-.626a3.7,3.7,0,0,1,3.2-6.667c.454.218.907.439,1.355.659a3.7,3.7,0,0,1-1.639,7.015Zm-126.011-.452a3.7,3.7,0,0,1-1.615-7.025c.451-.22.906-.437,1.361-.651a3.7,3.7,0,0,1,3.141,6.7q-.641.3-1.276.609A3.678,3.678,0,0,1,7921.34,1526.493Zm111.178-5.849a3.7,3.7,0,0,1-1.255-.221c-.447-.162-.9-.32-1.347-.476a3.7,3.7,0,0,1,2.428-6.987q.717.249,1.43.506a3.7,3.7,0,0,1-1.255,7.178Zm-96.309-.342a3.7,3.7,0,0,1-1.225-7.188l1.413-.489a3.7,3.7,0,0,1,2.4,7l-1.359.469A3.659,3.659,0,0,1,7936.209,1520.3Zm80.857-4.246a3.734,3.734,0,0,1-.856-.1q-.693-.165-1.39-.322a3.7,3.7,0,1,1,1.63-7.214q.736.166,1.468.338a3.7,3.7,0,0,1-.852,7.3Zm-65.381-.23a3.7,3.7,0,0,1-.825-7.3q.738-.17,1.477-.33a3.7,3.7,0,1,1,1.563,7.229c-.463.1-.924.2-1.384.309A3.725,3.725,0,0,1,7951.685,1515.826Zm49.518-2.587a3.607,3.607,0,0,1-.448-.028q-.706-.085-1.415-.163a3.7,3.7,0,1,1,.806-7.352q.751.082,1.5.172a3.7,3.7,0,0,1-.44,7.37Zm-33.638-.117a3.7,3.7,0,0,1-.412-7.374q.749-.085,1.5-.161a3.7,3.7,0,1,1,.753,7.358c-.475.049-.946.1-1.418.153A3.711,3.711,0,0,1,7967.565,1513.121Zm17.556-.911h-.032l-1.433,0a3.7,3.7,0,0,1,0-7.4l1.5.005a3.7,3.7,0,0,1-.032,7.4Z" transform="translate(-7836.467 -1504.809)"/></g></g></svg>