<svg xmlns="http://www.w3.org/2000/svg" width="141" height="141" viewBox="0 0 141 141"><defs><style>.a{fill:#ffd876;}.b,.e{fill:none;stroke:#fff;}.b{stroke-linecap:round;stroke-linejoin:round;stroke-width:3px;}.c,.d{fill:#fff;}.c{font-size:30px;font-family:Barlow-Bold, Barlow;font-weight:700;}.d{font-size:15px;font-family:Barlow-Light, Barlow;font-weight:300;}</style></defs><g transform="translate(-932 -881.909)"><path class="a" d="M70.5,0A70.5,70.5,0,1,1,0,70.5,70.5,70.5,0,0,1,70.5,0Z" transform="translate(932 881.909)"/><g transform="translate(1 5.243)"><g transform="translate(962.17 899.318)"><path class="b" d="M73.161,34.331A32.831,32.831,0,1,1,40.331,1.5,32.83,32.83,0,0,1,73.161,34.331Z" transform="translate(0 0)"/><path class="b" d="M16.175,20.867,10.5,63.593l23.45-14.07L57.4,63.593,51.726,20.82" transform="translate(6.38 41.088)"/></g><text class="c" transform="translate(1003 933)"><tspan x="-8.4" y="0">2</tspan></text><text class="d" transform="translate(1003 949)"><tspan x="-17.265" y="0">years</tspan></text><path class="e" d="M75.542,42.154l7.574-7.413A3.924,3.924,0,0,0,81.36,28.1L71.04,25.463l2.909-10.215a3.991,3.991,0,0,0-4.886-4.887l-10.211,2.91L56.22,2.948a3.952,3.952,0,0,0-6.642-1.757L42.167,8.824l-7.41-7.633a3.952,3.952,0,0,0-6.642,1.757L25.482,13.271,15.27,10.361a3.991,3.991,0,0,0-4.886,4.887l2.909,10.215L2.974,28.1a3.924,3.924,0,0,0-1.757,6.644l7.574,7.413L1.218,49.567a3.924,3.924,0,0,0,1.757,6.644l10.319,2.634L10.384,69.06a3.991,3.991,0,0,0,4.886,4.887l10.211-2.91L28.114,81.36a3.916,3.916,0,0,0,6.642,1.757l7.411-7.577,7.41,7.577a3.933,3.933,0,0,0,6.642-1.757l2.633-10.323,10.211,2.91a3.991,3.991,0,0,0,4.886-4.887L71.04,58.845,81.36,56.211a3.924,3.924,0,0,0,1.757-6.644l-7.574-7.413Z" transform="translate(959.333 890.333)"/></g></g></svg>