<svg xmlns="http://www.w3.org/2000/svg" width="141" height="141" viewBox="0 0 141 141"><defs><style>.a,.c{fill:#ffd876;}.b,.e{fill:none;}.b,.c{stroke:#fff;stroke-width:2px;}.d{stroke:none;}</style></defs><g transform="translate(-217 -881.909)"><circle class="a" cx="70.5" cy="70.5" r="70.5" transform="translate(217 881.909)"/><g class="b" transform="translate(271.107 920.552)"><circle class="d" cx="13" cy="13" r="13"/><circle class="e" cx="13" cy="13" r="12"/></g><g class="b" transform="translate(260.107 909.552)"><circle class="d" cx="24" cy="24" r="24"/><circle class="e" cx="24" cy="24" r="23"/></g><path class="c" d="M16.351,0a5.435,5.435,0,0,1,5.283,5.4V17.435a5.929,5.929,0,0,1,8.551.759A5.521,5.521,0,0,1,37.7,20.178c5.923-1.082,8.59,2.645,8.59,8.751,0,.331-.024,1.6-.024,1.929.02,7.47-3.744,9.268-4.618,14.914a2.889,2.889,0,0,1-2.857,2.443H18.112a5.786,5.786,0,0,1-5.285-3.431c-1.566-3.482-5.911-11.5-9.32-12.962A5.137,5.137,0,0,1,0,27a5.789,5.789,0,0,1,8.065-5.318,16.383,16.383,0,0,1,3,1.706V5.4A5.523,5.523,0,0,1,16.351,0Zm.042,50.143H39.535a2.893,2.893,0,0,1,2.893,2.893v5.786a2.893,2.893,0,0,1-2.893,2.893H16.393A2.893,2.893,0,0,1,13.5,58.821V53.035A2.893,2.893,0,0,1,16.393,50.143Zm20.25,3.375a2.411,2.411,0,1,0,2.411,2.411A2.411,2.411,0,0,0,36.643,53.517Z" transform="translate(268.608 933.553)"/></g></svg>