<svg xmlns="http://www.w3.org/2000/svg" width="447.334" height="447.399" viewBox="0 0 447.334 447.399"><defs><style>.a{fill:#88e2a6;}</style></defs><g transform="translate(-7769.565 -1437.826)"><g transform="translate(7910.327 1578.451)"><path class="a" d="M7990.657,1739.317a3.865,3.865,0,0,1-.132-7.728c.5-.018.994-.04,1.489-.067a3.866,3.866,0,0,1,.414,7.72c-.543.028-1.087.053-1.634.072C7990.749,1739.316,7990.7,1739.317,7990.657,1739.317Zm-15.545-.969a3.943,3.943,0,0,1-.621-.05c-.539-.087-1.078-.18-1.613-.277a3.866,3.866,0,1,1,1.381-7.607c.487.088.975.173,1.465.252a3.866,3.866,0,0,1-.611,7.683Zm32.509-1.469a3.866,3.866,0,0,1-.96-7.609c.482-.124.96-.252,1.439-.384a3.865,3.865,0,0,1,2.065,7.449c-.524.146-1.052.286-1.578.421A3.822,3.822,0,0,1,8007.621,1736.88Zm-49.038-3.087a3.831,3.831,0,0,1-1.426-.274q-.768-.3-1.523-.624a3.864,3.864,0,1,1,3-7.122q.686.287,1.378.562a3.866,3.866,0,0,1-1.43,7.458Zm65.086-2.957a3.865,3.865,0,0,1-1.75-7.313q.659-.335,1.311-.682a3.865,3.865,0,1,1,3.635,6.822c-.481.256-.964.508-1.451.756A3.87,3.87,0,0,1,8023.669,1730.836Zm-80.24-5.065a3.841,3.841,0,0,1-2.163-.665q-.684-.461-1.354-.936a3.865,3.865,0,0,1,4.47-6.308c.4.284.809.566,1.217.841a3.867,3.867,0,0,1-2.169,7.069Zm94.594-4.292a3.866,3.866,0,0,1-2.446-6.86c.384-.313.761-.628,1.137-.948a3.865,3.865,0,0,1,5.01,5.888c-.415.353-.834.7-1.261,1.051A3.85,3.85,0,0,1,8038.022,1721.48Zm-107.667-6.8a3.85,3.85,0,0,1-2.8-1.2q-.562-.593-1.113-1.194a3.865,3.865,0,0,1,5.7-5.22q.505.551,1.016,1.09a3.864,3.864,0,0,1-2.8,6.526Zm119.687-5.418a3.866,3.866,0,0,1-3.028-6.264c.308-.39.614-.781.915-1.178a3.865,3.865,0,0,1,6.15,4.683q-.5.65-1,1.291A3.862,3.862,0,0,1,8050.042,1709.266Zm-130.086-8.2a3.863,3.863,0,0,1-3.311-1.863q-.42-.7-.831-1.4a3.866,3.866,0,0,1,6.687-3.882q.372.644.757,1.279a3.865,3.865,0,0,1-3.3,5.868Zm139.218-6.3a3.866,3.866,0,0,1-3.468-5.566c.214-.441.428-.887.634-1.335a3.865,3.865,0,0,1,7.018,3.241q-.346.752-.71,1.493A3.864,3.864,0,0,1,8059.174,1694.76Zm-146.451-9.232a3.866,3.866,0,0,1-3.659-2.621q-.265-.773-.512-1.556a3.865,3.865,0,0,1,7.365-2.348c.15.474.3.944.464,1.412a3.868,3.868,0,0,1-3.658,5.113Zm152.247-6.9a3.867,3.867,0,0,1-3.763-4.763q.174-.725.334-1.453a3.864,3.864,0,1,1,7.549,1.658q-.174.8-.363,1.59A3.866,3.866,0,0,1,8064.97,1678.624Zm-155.953-9.83a3.864,3.864,0,0,1-3.838-3.45q-.089-.809-.161-1.622a3.865,3.865,0,1,1,7.7-.694q.067.745.147,1.484a3.864,3.864,0,0,1-3.428,4.259A3.777,3.777,0,0,1,7909.017,1668.794Zm158.119-7.17h-.079a3.865,3.865,0,0,1-3.785-3.943c.009-.494.014-.987.014-1.483l0-.322a3.865,3.865,0,1,1,7.73,0v.268c0,.6,0,1.149-.017,1.694A3.863,3.863,0,0,1,8067.136,1661.624Zm-158.146-9.968a3.872,3.872,0,0,1-3.848-4.268q.083-.818.188-1.632a3.865,3.865,0,1,1,7.669.969c-.061.487-.118.977-.17,1.47A3.864,3.864,0,0,1,7908.99,1651.655Zm156.575-7.418a3.867,3.867,0,0,1-3.786-3.105q-.145-.725-.309-1.446a3.866,3.866,0,0,1,7.547-1.684c.117.533.232,1.069.341,1.608a3.87,3.87,0,0,1-3.793,4.627Zm-152.945-9.331a3.867,3.867,0,0,1-3.666-5.094q.259-.773.53-1.541a3.866,3.866,0,1,1,7.29,2.575q-.252.708-.49,1.421A3.866,3.866,0,0,1,7912.62,1634.906Zm147.742-7a3.866,3.866,0,0,1-3.537-2.3q-.3-.676-.612-1.345a3.865,3.865,0,0,1,7-3.268c.229.494.459.989.679,1.487a3.866,3.866,0,0,1-3.534,5.428Zm-140.575-8.577a3.866,3.866,0,0,1-3.31-5.858q.423-.7.858-1.4a3.866,3.866,0,1,1,6.545,4.116c-.265.42-.522.842-.778,1.268A3.862,3.862,0,0,1,7919.787,1619.332Zm131.967-6.238a3.862,3.862,0,0,1-3.119-1.579q-.438-.6-.89-1.185a3.865,3.865,0,0,1,6.14-4.7c.33.433.659.868.981,1.31a3.864,3.864,0,0,1-3.112,6.152Zm-121.611-7.428a3.865,3.865,0,0,1-2.816-6.513q.563-.6,1.135-1.182a3.866,3.866,0,1,1,5.523,5.409q-.519.529-1.026,1.069A3.858,3.858,0,0,1,7930.143,1605.666Zm110.019-5.2a3.844,3.844,0,0,1-2.548-.962q-.561-.491-1.128-.972a3.865,3.865,0,1,1,4.991-5.9q.624.527,1.236,1.066a3.865,3.865,0,0,1-2.552,6.769Zm-96.984-5.934a3.865,3.865,0,0,1-2.185-7.056q.675-.462,1.36-.91a3.865,3.865,0,0,1,4.233,6.468q-.621.407-1.232.825A3.847,3.847,0,0,1,7943.177,1594.531Zm82.965-3.927a3.848,3.848,0,0,1-1.873-.486c-.43-.238-.865-.472-1.3-.7a3.865,3.865,0,0,1,3.6-6.841q.731.383,1.452.785a3.865,3.865,0,0,1-1.878,7.245Zm-67.853-4.151a3.865,3.865,0,0,1-1.442-7.452q.76-.306,1.526-.6a3.865,3.865,0,1,1,2.742,7.227q-.7.265-1.386.542A3.877,3.877,0,0,1,7958.289,1586.453Zm52.04-2.461a3.848,3.848,0,0,1-1.091-.158c-.475-.139-.953-.275-1.432-.406a3.865,3.865,0,1,1,2.038-7.457q.79.217,1.572.447a3.866,3.866,0,0,1-1.088,7.575Zm-35.543-2.161a3.866,3.866,0,0,1-.625-7.679c.535-.089,1.076-.173,1.615-.251a3.865,3.865,0,0,1,1.111,7.651c-.49.071-.98.146-1.468.228A3.88,3.88,0,0,1,7974.786,1581.831Zm18.678-.875c-.091,0-.182,0-.274-.01-.492-.035-.987-.064-1.484-.09a3.865,3.865,0,1,1,.393-7.719c.546.027,1.089.059,1.632.1a3.866,3.866,0,0,1-.266,7.722Z" transform="translate(-7905.001 -1573.13)"/></g><g transform="translate(7959.497 1627.135)"><path class="a" d="M7981.668,1688.57a3.771,3.771,0,0,1-.545-.04q-.89-.125-1.765-.3a3.866,3.866,0,1,1,1.476-7.589c.454.089.912.165,1.373.232a3.865,3.865,0,0,1-.539,7.692Zm15.617-1.847a3.866,3.866,0,0,1-1.427-7.459c.433-.171.857-.353,1.278-.544a3.865,3.865,0,1,1,3.215,7.03q-.811.371-1.645.7A3.858,3.858,0,0,1,7997.286,1686.723Zm-31.335-5.3a3.848,3.848,0,0,1-2.526-.942q-.68-.586-1.325-1.208a3.865,3.865,0,1,1,5.354-5.575q.5.48,1.027.935a3.866,3.866,0,0,1-2.53,6.789Zm44.933-5.318a3.865,3.865,0,0,1-3.133-6.125q.4-.561.779-1.144a3.865,3.865,0,1,1,6.5,4.176c-.322.505-.661,1-1.012,1.487A3.859,3.859,0,0,1,8010.883,1676.1Zm-54.3-9.185a3.864,3.864,0,0,1-3.706-2.772q-.254-.856-.463-1.733a3.865,3.865,0,0,1,7.518-1.8c.107.452.229.9.359,1.342a3.865,3.865,0,0,1-3.708,4.96Zm60.013-7.1c-.066,0-.133,0-.2-.005a3.866,3.866,0,0,1-3.662-4.06q.036-.691.036-1.391a3.92,3.92,0,0,1,3.866-3.929,3.81,3.81,0,0,1,3.865,3.8v.128q0,.9-.045,1.79A3.866,3.866,0,0,1,8016.6,1659.811Zm-60.049-10.156a3.868,3.868,0,0,1-3.713-4.941q.252-.872.55-1.721a3.865,3.865,0,0,1,7.294,2.561c-.153.431-.291.868-.42,1.309A3.867,3.867,0,0,1,7956.551,1649.654Zm56-6.749a3.859,3.859,0,0,1-3.347-1.927q-.349-.6-.729-1.187a3.865,3.865,0,1,1,6.482-4.21q.486.747.934,1.519a3.866,3.866,0,0,1-3.341,5.8Zm-46.7-7.8a3.865,3.865,0,0,1-2.543-6.776c.447-.391.908-.772,1.377-1.141a3.865,3.865,0,0,1,4.777,6.078q-.546.43-1.071.887A3.854,3.854,0,0,1,7965.854,1635.11Zm34.206-4.124a3.848,3.848,0,0,1-1.774-.433q-.617-.32-1.252-.608a3.865,3.865,0,1,1,3.191-7.04q.817.371,1.615.783a3.867,3.867,0,0,1-1.78,7.3Zm-18.533-3.093a3.866,3.866,0,0,1-.555-7.691c.586-.085,1.18-.156,1.775-.212a3.865,3.865,0,0,1,.725,7.7q-.7.066-1.383.165A3.849,3.849,0,0,1,7981.526,1627.893Z" transform="translate(-7952.311 -1619.973)"/></g><g transform="translate(7863.499 1531.683)"><path class="a" d="M7985.473,1787.767c-.044,0-.086,0-.129,0-.525-.015-1.053-.036-1.576-.06a3.865,3.865,0,0,1,.345-7.722q.741.033,1.481.057a3.865,3.865,0,0,1-.121,7.729Zm15.286-.42a3.865,3.865,0,0,1-.331-7.715c.493-.044.985-.089,1.478-.139a3.866,3.866,0,0,1,.768,7.693q-.785.078-1.572.147C8000.985,1787.343,8000.873,1787.347,8000.759,1787.347Zm-32.027-1.238a3.791,3.791,0,0,1-.639-.053q-.784-.129-1.561-.27a3.865,3.865,0,1,1,1.373-7.607c.483.086.97.17,1.455.251a3.866,3.866,0,0,1-.629,7.679Zm48.656-1.346a3.866,3.866,0,0,1-.849-7.636c.485-.109.968-.221,1.451-.336a3.865,3.865,0,0,1,1.785,7.522q-.765.181-1.531.354A3.923,3.923,0,0,1,8017.388,1784.763Zm-65.035-2.532a3.876,3.876,0,0,1-1.144-.173c-.5-.156-1.011-.316-1.512-.478a3.865,3.865,0,1,1,2.376-7.355c.471.151.943.3,1.42.449a3.865,3.865,0,0,1-1.141,7.558Zm81.17-2.256a3.866,3.866,0,0,1-1.35-7.488c.466-.173.929-.348,1.393-.527a3.865,3.865,0,0,1,2.78,7.213q-.732.283-1.474.558A3.873,3.873,0,0,1,8033.522,1779.975Zm-96.9-3.791a3.856,3.856,0,0,1-1.624-.359q-.721-.335-1.434-.678a3.864,3.864,0,1,1,3.345-6.968q.669.32,1.344.633a3.866,3.866,0,0,1-1.631,7.372Zm112.244-3.12a3.865,3.865,0,0,1-1.821-7.276q.652-.348,1.3-.7a3.865,3.865,0,0,1,3.729,6.771c-.461.254-.924.5-1.387.751A3.851,3.851,0,0,1,8048.871,1773.064Zm-127.008-4.978a3.859,3.859,0,0,1-2.082-.61c-.44-.284-.882-.568-1.319-.856a3.865,3.865,0,1,1,4.237-6.465q.624.409,1.251.811a3.865,3.865,0,0,1-2.087,7.12Zm141.284-3.916a3.864,3.864,0,0,1-2.26-7c.4-.288.8-.578,1.191-.87a3.865,3.865,0,1,1,4.6,6.214q-.636.471-1.277.932A3.852,3.852,0,0,1,8063.147,1764.17Zm-154.832-6.073a3.847,3.847,0,0,1-2.5-.916l-1.192-1.019a3.866,3.866,0,1,1,5.052-5.853l1.136.972a3.865,3.865,0,0,1-2.5,6.815Zm167.8-4.642a3.866,3.866,0,0,1-2.651-6.677q.541-.508,1.072-1.024a3.865,3.865,0,0,1,5.374,5.556q-.568.551-1.143,1.093A3.854,3.854,0,0,1,8076.114,1753.456Zm-179.9-7.053a3.855,3.855,0,0,1-2.865-1.269q-.53-.584-1.051-1.174a3.866,3.866,0,0,1,5.789-5.125q.491.557.99,1.107a3.865,3.865,0,0,1-2.863,6.461Zm191.339-5.288a3.866,3.866,0,0,1-3-6.3q.466-.577.928-1.158a3.865,3.865,0,0,1,6.063,4.8q-.492.621-.987,1.234A3.862,3.862,0,0,1,8087.555,1741.115Zm-201.778-7.9a3.859,3.859,0,0,1-3.189-1.676q-.444-.647-.883-1.3a3.865,3.865,0,0,1,6.418-4.309c.275.411.556.822.835,1.229a3.865,3.865,0,0,1-3.181,6.054Zm211.482-5.849a3.865,3.865,0,0,1-3.3-5.876c.256-.424.514-.849.768-1.277a3.865,3.865,0,1,1,6.646,3.945q-.4.68-.813,1.352A3.862,3.862,0,0,1,8097.259,1727.362Zm-220.078-8.608a3.862,3.862,0,0,1-3.451-2.121q-.353-.7-.7-1.4a3.865,3.865,0,1,1,6.933-3.42l.664,1.33a3.865,3.865,0,0,1-3.445,5.61Zm227.865-6.322a3.865,3.865,0,0,1-3.533-5.428c.2-.451.394-.906.588-1.361a3.866,3.866,0,0,1,7.114,3.028q-.311.732-.632,1.459A3.863,3.863,0,0,1,8105.046,1712.432Zm-234.452-9.158a3.869,3.869,0,0,1-3.651-2.6q-.258-.747-.509-1.5a3.865,3.865,0,1,1,7.332-2.448c.157.469.314.936.479,1.4a3.867,3.867,0,0,1-3.65,5.136Zm240.175-6.683a3.867,3.867,0,0,1-3.717-4.931c.137-.474.268-.949.4-1.426a3.866,3.866,0,0,1,7.459,2.034q-.209.762-.426,1.523A3.87,3.87,0,0,1,8110.769,1696.591Zm-244.632-9.546a3.864,3.864,0,0,1-3.783-3.1l-.3-1.538a3.865,3.865,0,1,1,7.591-1.461l.289,1.465a3.871,3.871,0,0,1-3.793,4.634Zm248.17-6.9a3.875,3.875,0,0,1-3.831-4.416l.206-1.481a3.865,3.865,0,0,1,7.662,1.028l-.216,1.553A3.868,3.868,0,0,1,8114.307,1680.141Zm-250.408-9.774a3.865,3.865,0,0,1-3.851-3.6c-.036-.528-.069-1.057-.1-1.585a3.864,3.864,0,1,1,7.717-.413q.041.736.091,1.471a3.866,3.866,0,0,1-3.594,4.12C7864.077,1670.364,7863.988,1670.367,7863.9,1670.367Zm251.715-7h-.046a3.864,3.864,0,0,1-3.819-3.911q.007-.741.007-1.486v-.251a3.866,3.866,0,0,1,7.731,0v.251q0,.789-.01,1.578A3.865,3.865,0,0,1,8115.613,1663.363Zm-251.722-9.825c-.086,0-.17,0-.257-.007a3.866,3.866,0,0,1-3.605-4.108q.053-.787.113-1.574a3.865,3.865,0,1,1,7.707.595c-.038.495-.073.987-.1,1.482A3.868,3.868,0,0,1,7863.892,1653.538Zm250.78-7.227a3.864,3.864,0,0,1-3.83-3.386l-.192-1.483a3.865,3.865,0,0,1,7.661-1.031l.2,1.556a3.864,3.864,0,0,1-3.354,4.314A4.11,4.11,0,0,1,8114.672,1646.311Zm-248.574-9.454a3.867,3.867,0,0,1-3.793-4.631l.319-1.535a3.864,3.864,0,1,1,7.56,1.6l-.3,1.463A3.863,3.863,0,0,1,7866.1,1636.857Zm245.408-7.073a3.866,3.866,0,0,1-3.737-2.9q-.185-.713-.381-1.42a3.864,3.864,0,1,1,7.449-2.06q.214.767.414,1.538a3.867,3.867,0,0,1-3.745,4.837Zm-240.991-9.173a3.866,3.866,0,0,1-3.651-5.129q.258-.752.528-1.5a3.865,3.865,0,1,1,7.271,2.621q-.25.7-.5,1.4A3.865,3.865,0,0,1,7870.515,1620.611Zm235.641-6.781a3.866,3.866,0,0,1-3.572-2.387c-.189-.457-.379-.914-.574-1.368a3.866,3.866,0,1,1,7.111-3.034c.2.48.406.961.6,1.445a3.866,3.866,0,0,1-3.569,5.344Zm-229.074-8.729a3.866,3.866,0,0,1-3.446-5.611l.712-1.393a3.865,3.865,0,1,1,6.87,3.544l-.687,1.339A3.859,3.859,0,0,1,7877.081,1605.1Zm221.64-6.349a3.863,3.863,0,0,1-3.349-1.933q-.369-.636-.746-1.268a3.865,3.865,0,0,1,6.637-3.965c.271.453.537.908.8,1.367a3.868,3.868,0,0,1-3.346,5.8Zm-213.062-8.138a3.865,3.865,0,0,1-3.182-6.057c.3-.432.6-.863.9-1.292a3.864,3.864,0,1,1,6.319,4.449q-.428.61-.852,1.226A3.862,3.862,0,0,1,7885.659,1590.614Zm203.676-5.822a3.857,3.857,0,0,1-3.063-1.5q-.45-.583-.908-1.161a3.866,3.866,0,0,1,6.055-4.808c.327.413.653.829.975,1.246a3.865,3.865,0,0,1-3.058,6.227Zm-193.246-7.392a3.866,3.866,0,0,1-2.868-6.457q.53-.588,1.067-1.167a3.866,3.866,0,0,1,5.669,5.258c-.337.362-.669.727-1,1.094A3.857,3.857,0,0,1,7896.089,1577.4Zm182.089-5.2a3.858,3.858,0,0,1-2.717-1.114q-.53-.524-1.063-1.039a3.865,3.865,0,0,1,5.367-5.562c.38.364.754.731,1.13,1.1a3.866,3.866,0,0,1-2.717,6.615Zm-170-6.51a3.864,3.864,0,0,1-2.5-6.815c.4-.339.8-.677,1.207-1.011a3.865,3.865,0,1,1,4.926,5.957c-.381.315-.759.633-1.138.953A3.85,3.85,0,0,1,7908.177,1565.688Zm157.264-4.5a3.849,3.849,0,0,1-2.326-.782q-.592-.446-1.187-.885a3.864,3.864,0,1,1,4.573-6.23c.429.313.851.629,1.273.948a3.865,3.865,0,0,1-2.334,6.949Zm-143.737-5.506a3.866,3.866,0,0,1-2.089-7.12c.443-.284.888-.565,1.337-.845a3.866,3.866,0,1,1,4.083,6.566q-.628.389-1.248.789A3.853,3.853,0,0,1,7921.7,1555.686Zm129.656-3.715a3.842,3.842,0,0,1-1.893-.5q-.65-.365-1.3-.722a3.865,3.865,0,1,1,3.712-6.781c.462.252.921.508,1.382.767a3.866,3.866,0,0,1-1.9,7.235Zm-114.926-4.4a3.866,3.866,0,0,1-1.639-7.368c.477-.221.955-.442,1.433-.658a3.866,3.866,0,0,1,3.181,7.047q-.674.3-1.341.615A3.849,3.849,0,0,1,7936.434,1547.574Zm99.733-2.866a3.853,3.853,0,0,1-1.424-.273c-.461-.183-.925-.364-1.388-.542a3.865,3.865,0,0,1,2.766-7.219c.494.189.983.382,1.474.576a3.865,3.865,0,0,1-1.428,7.458Zm-84.048-3.2a3.866,3.866,0,0,1-1.146-7.557c.5-.156,1.008-.31,1.514-.46a3.865,3.865,0,0,1,2.2,7.41q-.712.212-1.417.432A3.888,3.888,0,0,1,7952.119,1541.505Zm68.02-1.953a3.874,3.874,0,0,1-.94-.116q-.719-.178-1.438-.347a3.866,3.866,0,0,1,1.772-7.526c.514.121,1.029.245,1.54.374a3.865,3.865,0,0,1-.934,7.615Zm-51.654-1.957a3.866,3.866,0,0,1-.637-7.678c.52-.088,1.04-.173,1.558-.254a3.866,3.866,0,1,1,1.19,7.639c-.488.076-.979.156-1.465.237A3.9,3.9,0,0,1,7968.484,1537.6Zm35.089-1a4.044,4.044,0,0,1-.429-.024c-.491-.054-.981-.105-1.474-.153a3.865,3.865,0,1,1,.752-7.694c.525.051,1.05.106,1.57.163a3.865,3.865,0,0,1-.42,7.708Zm-18.346-.689a3.865,3.865,0,0,1-.128-7.728c.524-.018,1.048-.032,1.573-.044a3.813,3.813,0,0,1,3.949,3.778,3.864,3.864,0,0,1-3.777,3.95q-.743.016-1.481.042Z" transform="translate(-7859.946 -1528.132)"/></g><g transform="translate(7886.358 1554.949)"><path class="a" d="M7995.783,1763.665a3.865,3.865,0,0,1-.255-7.721c.5-.034.991-.071,1.486-.112a3.866,3.866,0,0,1,.634,7.705q-.8.065-1.6.118C7995.959,1763.662,7995.871,1763.665,7995.783,1763.665Zm-15.443-.1c-.1,0-.211,0-.318-.012-.534-.043-1.067-.09-1.6-.142a3.865,3.865,0,0,1,.745-7.694q.74.072,1.481.132a3.865,3.865,0,0,1-.306,7.717Zm32.25-2.435a3.866,3.866,0,0,1-.887-7.628q.725-.172,1.448-.353a3.865,3.865,0,0,1,1.89,7.495c-.518.132-1.039.26-1.558.382A3.946,3.946,0,0,1,8012.59,1761.127Zm-49.021-.33a3.842,3.842,0,0,1-.946-.117q-.781-.2-1.553-.4a3.865,3.865,0,1,1,2-7.468c.478.128.96.252,1.441.374a3.865,3.865,0,0,1-.938,7.614Zm65.18-4.953a3.866,3.866,0,0,1-1.495-7.431q.68-.284,1.352-.582a3.866,3.866,0,0,1,3.118,7.076c-.491.216-.983.428-1.481.636A3.851,3.851,0,0,1,8028.749,1755.844Zm-81.278-.553a3.849,3.849,0,0,1-1.549-.325q-.738-.324-1.471-.658a3.865,3.865,0,1,1,3.21-7.031q.677.307,1.361.608a3.865,3.865,0,0,1-1.551,7.406Zm96.328-7.322a3.865,3.865,0,0,1-2.08-7.126c.418-.267.84-.537,1.256-.811a3.865,3.865,0,1,1,4.233,6.468q-.665.435-1.336.861A3.842,3.842,0,0,1,8043.8,1747.969Zm-111.286-.772a3.846,3.846,0,0,1-2.113-.631q-.673-.44-1.341-.89a3.866,3.866,0,1,1,4.331-6.405q.617.419,1.241.825a3.865,3.865,0,0,1-2.118,7.1Zm124.838-9.475a3.865,3.865,0,0,1-2.581-6.744c.37-.331.739-.664,1.1-1a3.866,3.866,0,1,1,5.242,5.683q-.591.544-1.187,1.078A3.852,3.852,0,0,1,8057.351,1737.721Zm-138.257-.966a3.85,3.85,0,0,1-2.617-1.022q-.588-.541-1.171-1.094a3.865,3.865,0,1,1,5.318-5.61q.541.511,1.09,1.016a3.866,3.866,0,0,1-2.621,6.709Zm149.951-11.366a3.865,3.865,0,0,1-3.011-6.285c.312-.388.618-.778.925-1.17a3.865,3.865,0,1,1,6.1,4.752c-.327.422-.661.841-.994,1.259A3.862,3.862,0,0,1,8069.044,1725.39Zm-161.471-1.126a3.859,3.859,0,0,1-3.051-1.486q-.493-.632-.978-1.27a3.866,3.866,0,0,1,6.164-4.667q.448.594.908,1.181a3.865,3.865,0,0,1-3.043,6.243Zm170.994-12.959a3.867,3.867,0,0,1-3.36-5.77q.363-.644.714-1.293a3.865,3.865,0,1,1,6.8,3.68c-.257.476-.517.949-.785,1.422A3.865,3.865,0,0,1,8078.567,1711.3Zm-180.315-1.246a3.86,3.86,0,0,1-3.4-2.015q-.386-.706-.757-1.42a3.864,3.864,0,1,1,6.847-3.582c.23.437.46.87.7,1.3a3.866,3.866,0,0,1-3.392,5.716Zm187.392-14.223a3.866,3.866,0,0,1-3.636-5.176q.25-.7.494-1.405a3.864,3.864,0,1,1,7.313,2.5c-.173.509-.354,1.018-.535,1.524A3.864,3.864,0,0,1,8085.644,1695.836Zm-194.247-1.327a3.867,3.867,0,0,1-3.655-2.609q-.259-.755-.511-1.515a3.865,3.865,0,0,1,7.343-2.418q.234.711.478,1.418a3.87,3.87,0,0,1-3.655,5.124Zm198.661-15.093a3.8,3.8,0,0,1-.7-.063,3.865,3.865,0,0,1-3.112-4.494q.133-.729.255-1.464a3.864,3.864,0,1,1,7.625,1.265q-.131.794-.274,1.583A3.865,3.865,0,0,1,8090.058,1679.415Zm-202.845-1.38a3.866,3.866,0,0,1-3.808-3.231q-.132-.786-.252-1.575a3.865,3.865,0,0,1,7.64-1.177c.078.5.155.99.236,1.482a3.865,3.865,0,0,1-3.177,4.447A3.92,3.92,0,0,1,7887.212,1678.035Zm204.48-15.536h-.058a3.866,3.866,0,0,1-3.807-3.921q.011-.744.011-1.491v-.285a3.865,3.865,0,1,1,7.729,0v.285q0,.8-.01,1.6A3.868,3.868,0,0,1,8091.692,1662.5Zm-205.888-1.476a3.8,3.8,0,0,1-3.865-3.793v-.144q0-.728.009-1.454a3.866,3.866,0,0,1,3.863-3.815h.052a3.866,3.866,0,0,1,3.816,3.915q-.01.677-.01,1.354A3.927,3.927,0,0,1,7885.8,1661.023Zm204.708-15.766a3.864,3.864,0,0,1-3.815-3.278c-.075-.492-.154-.98-.237-1.47a3.865,3.865,0,0,1,7.621-1.291q.134.79.256,1.585a3.865,3.865,0,0,1-3.232,4.408A3.974,3.974,0,0,1,8090.513,1645.258Zm-203.34-1.1a3.927,3.927,0,0,1-.627-.051,3.867,3.867,0,0,1-3.193-4.437q.13-.794.271-1.583a3.865,3.865,0,1,1,7.609,1.359q-.13.733-.25,1.466A3.866,3.866,0,0,1,7887.173,1644.155Zm199.388-15.427a3.865,3.865,0,0,1-3.67-2.658q-.232-.706-.475-1.406a3.865,3.865,0,1,1,7.3-2.537c.177.507.347,1.015.516,1.526a3.87,3.87,0,0,1-3.672,5.075Zm-195.256-1.06a3.866,3.866,0,0,1-3.657-5.117q.26-.764.532-1.522a3.865,3.865,0,1,1,7.274,2.616c-.168.469-.332.937-.494,1.408A3.866,3.866,0,0,1,7891.3,1627.668Zm188.618-14.588a3.868,3.868,0,0,1-3.428-2.071c-.227-.438-.46-.871-.7-1.3a3.866,3.866,0,0,1,6.788-3.7c.254.47.509.942.758,1.415a3.868,3.868,0,0,1-3.422,5.66Zm-181.8-1a3.869,3.869,0,0,1-3.4-5.7c.256-.472.514-.941.776-1.407a3.865,3.865,0,1,1,6.746,3.774q-.366.651-.721,1.311A3.864,3.864,0,0,1,7898.118,1612.084Zm172.68-13.333a3.859,3.859,0,0,1-3.079-1.524c-.3-.4-.605-.791-.912-1.184a3.864,3.864,0,1,1,6.087-4.762q.491.627.975,1.264a3.866,3.866,0,0,1-3.072,6.206Zm-163.388-.91a3.865,3.865,0,0,1-3.049-6.238q.491-.631.991-1.255a3.866,3.866,0,0,1,6.04,4.827q-.467.583-.927,1.174A3.861,3.861,0,0,1,7907.41,1597.841Zm152.032-11.736a3.852,3.852,0,0,1-2.655-1.056q-.54-.511-1.089-1.013a3.866,3.866,0,1,1,5.225-5.7q.591.544,1.175,1.094a3.865,3.865,0,0,1-2.656,6.674Zm-140.53-.786a3.866,3.866,0,0,1-2.624-6.707c.394-.362.786-.72,1.183-1.076a3.865,3.865,0,0,1,5.164,5.752q-.557.5-1.1,1.006A3.855,3.855,0,0,1,7918.912,1585.319Zm127.253-9.833a3.851,3.851,0,0,1-2.154-.659c-.411-.277-.825-.552-1.242-.822a3.865,3.865,0,1,1,4.213-6.481q.675.44,1.343.889a3.867,3.867,0,0,1-2.16,7.074Zm-113.864-.635a3.866,3.866,0,0,1-2.123-7.1q.661-.437,1.332-.864a3.866,3.866,0,1,1,4.166,6.513q-.631.4-1.258.814A3.852,3.852,0,0,1,7932.3,1574.851Zm99.017-7.662a3.846,3.846,0,0,1-1.6-.35q-.675-.309-1.357-.6a3.865,3.865,0,0,1,3.093-7.085c.493.216.986.436,1.475.659a3.865,3.865,0,0,1-1.608,7.381Zm-84.1-.461a3.866,3.866,0,0,1-1.565-7.4c.49-.216.98-.429,1.476-.638a3.865,3.865,0,1,1,3,7.122q-.68.287-1.354.585A3.86,3.86,0,0,1,7947.216,1566.728Zm68.09-5.267a3.865,3.865,0,0,1-1-.132q-.715-.192-1.437-.372a3.865,3.865,0,1,1,1.876-7.5c.521.13,1.042.265,1.558.4a3.865,3.865,0,0,1-.995,7.6Zm-52.035-.279a3.866,3.866,0,0,1-.949-7.613q.78-.2,1.559-.383a3.865,3.865,0,0,1,1.791,7.52q-.726.173-1.447.356A3.872,3.872,0,0,1,7963.272,1561.181Zm35.307-2.716c-.124,0-.248-.006-.373-.017q-.737-.072-1.478-.129a3.865,3.865,0,1,1,.61-7.707c.534.043,1.07.089,1.6.14a3.865,3.865,0,0,1-.364,7.713Zm-18.548-.1a3.865,3.865,0,0,1-.319-7.717c.534-.044,1.067-.084,1.6-.121a3.865,3.865,0,1,1,.531,7.712q-.743.051-1.485.113C7980.248,1558.362,7980.139,1558.366,7980.031,1558.366Z" transform="translate(-7881.94 -1550.518)"/></g><g transform="translate(7933.823 1602.162)"><path class="a" d="M7987.014,1714.651h-.056q-.822,0-1.639-.023a3.865,3.865,0,1,1,.218-7.727c.471.013.946.02,1.421.02a3.887,3.887,0,0,1,3.893,3.865A3.841,3.841,0,0,1,7987.014,1714.651Zm15.62-2.246a3.865,3.865,0,0,1-1.085-7.575c.471-.138.938-.283,1.4-.434a3.865,3.865,0,0,1,2.391,7.351q-.806.262-1.621.5A3.846,3.846,0,0,1,8002.634,1712.4Zm-32.761-.434a3.867,3.867,0,0,1-1.19-.188q-.809-.262-1.608-.547a3.865,3.865,0,1,1,2.585-7.285c.467.165.933.324,1.4.476a3.866,3.866,0,0,1-1.188,7.544Zm48.435-7.016a3.865,3.865,0,0,1-2.189-7.053c.405-.276.8-.56,1.2-.848a3.865,3.865,0,1,1,4.554,6.247q-.684.5-1.382.977A3.85,3.85,0,0,1,8018.308,1704.954Zm-63.909-.854a3.84,3.84,0,0,1-2.267-.737q-.686-.5-1.357-1.016a3.865,3.865,0,1,1,4.716-6.125q.587.452,1.182.885a3.865,3.865,0,0,1-2.273,6.992Zm76.509-11.064a3.865,3.865,0,0,1-3.058-6.226q.451-.586.887-1.183a3.866,3.866,0,0,1,6.251,4.549q-.5.683-1.018,1.355A3.855,3.855,0,0,1,8030.907,1693.035Zm-88.79-1.19a3.861,3.861,0,0,1-3.125-1.585q-.5-.687-.981-1.389a3.866,3.866,0,0,1,6.381-4.365c.273.4.557.8.844,1.194a3.865,3.865,0,0,1-3.118,6.144Zm97.118-14.037a3.869,3.869,0,0,1-3.642-5.168q.25-.693.475-1.392a3.866,3.866,0,0,1,7.356,2.378c-.175.543-.359,1.081-.55,1.616A3.866,3.866,0,0,1,8039.235,1677.808Zm-105.032-1.4a3.865,3.865,0,0,1-3.673-2.671q-.264-.8-.5-1.613a3.865,3.865,0,1,1,7.413-2.188c.141.472.286.943.439,1.409a3.868,3.868,0,0,1-3.679,5.063Zm108.219-15.657h-.111a3.868,3.868,0,0,1-3.755-3.975q.023-.733.023-1.473v-.215a3.865,3.865,0,1,1,7.729,0v.215q0,.851-.024,1.7A3.865,3.865,0,0,1,8042.422,1660.749Zm-110.947-1.53a3.819,3.819,0,0,1-3.865-3.811v-.108q0-.793.02-1.583a3.912,3.912,0,0,1,3.972-3.757,3.864,3.864,0,0,1,3.756,3.971c-.011.455-.017.91-.017,1.369A3.912,3.912,0,0,1,7931.475,1659.219Zm108.675-15.883a3.868,3.868,0,0,1-3.7-2.765q-.211-.708-.439-1.406a3.866,3.866,0,0,1,7.345-2.414c.177.536.344,1.075.506,1.618a3.87,3.87,0,0,1-3.708,4.967Zm-106.009-1.206a3.869,3.869,0,0,1-3.681-5.053q.262-.809.544-1.61a3.866,3.866,0,0,1,7.287,2.584c-.165.464-.321.93-.474,1.4A3.868,3.868,0,0,1,7934.141,1642.131Zm98.519-14.443a3.859,3.859,0,0,1-3.181-1.665c-.281-.406-.565-.808-.858-1.206a3.866,3.866,0,0,1,6.24-4.566q.5.68.975,1.372a3.865,3.865,0,0,1-3.176,6.064Zm-90.669-1.035a3.866,3.866,0,0,1-3.129-6.13q.5-.691,1.019-1.367a3.866,3.866,0,0,1,6.122,4.722q-.448.58-.877,1.174A3.86,3.86,0,0,1,7941.99,1626.653Zm78.706-11.536a3.847,3.847,0,0,1-2.357-.8c-.387-.3-.776-.589-1.173-.875a3.865,3.865,0,1,1,4.523-6.267c.462.332.92.672,1.368,1.02a3.865,3.865,0,0,1-2.361,6.927Zm-66.456-.764a3.865,3.865,0,0,1-2.284-6.985q.677-.5,1.367-.973a3.866,3.866,0,0,1,4.405,6.354q-.611.424-1.213.86A3.84,3.84,0,0,1,7954.24,1614.353Zm51.21-7.515a3.844,3.844,0,0,1-1.288-.222c-.466-.164-.93-.321-1.4-.472a3.865,3.865,0,1,1,2.36-7.36q.813.26,1.615.544a3.865,3.865,0,0,1-1.288,7.509Zm-35.784-.409a3.866,3.866,0,0,1-1.2-7.54c.534-.175,1.072-.342,1.61-.5a3.865,3.865,0,0,1,2.2,7.411c-.474.14-.943.287-1.413.44A3.859,3.859,0,0,1,7969.666,1606.429Zm18.716-2.73h-.1c-.439-.012-.879-.017-1.323-.017h-.16a3.865,3.865,0,0,1,0-7.73h.105c.565-.02,1.069.005,1.576.019a3.865,3.865,0,0,1-.1,7.728Z" transform="translate(-7927.609 -1595.944)"/></g><g transform="translate(7815.246 1483.589)"><path class="a" d="M7991.535,1837.715l-1.582-.006a3.865,3.865,0,0,1,.03-7.73h.03l1.431.006a3.9,3.9,0,0,1,3.912,3.865A3.827,3.827,0,0,1,7991.535,1837.715Zm15.508-.69a3.865,3.865,0,0,1-.334-7.716c.5-.045,1.006-.09,1.507-.14a3.865,3.865,0,1,1,.755,7.693c-.528.052-1.055.1-1.585.148C8007.271,1837.02,8007.156,1837.025,8007.043,1837.025Zm-32.56-.127c-.125,0-.25-.006-.376-.017l-1.581-.159a3.866,3.866,0,0,1,.812-7.689l1.512.154a3.865,3.865,0,0,1-.367,7.712Zm49.471-2.216a3.865,3.865,0,0,1-.714-7.663l1.5-.29a3.865,3.865,0,0,1,1.5,7.584l-1.558.3A3.91,3.91,0,0,1,8023.955,1834.683Zm-66.366-.258a3.87,3.87,0,0,1-.753-.074l-1.551-.314a3.865,3.865,0,1,1,1.557-7.571l1.493.3a3.865,3.865,0,0,1-.745,7.657Zm82.973-3.736a3.866,3.866,0,0,1-1.088-7.575l1.456-.434a3.865,3.865,0,1,1,2.243,7.4l-1.522.453A3.841,3.841,0,0,1,8040.562,1830.688Zm-99.547-.391a3.87,3.87,0,0,1-1.118-.166c-.511-.154-1.02-.311-1.53-.471a3.865,3.865,0,1,1,2.31-7.376q.725.226,1.454.446a3.866,3.866,0,0,1-1.116,7.566Zm115.678-5.225a3.866,3.866,0,0,1-1.45-7.45q.7-.282,1.4-.571a3.865,3.865,0,1,1,2.969,7.137c-.489.2-.977.4-1.467.6A3.872,3.872,0,0,1,8056.693,1825.073Zm-131.777-.523a3.847,3.847,0,0,1-1.475-.295l-1.471-.615a3.865,3.865,0,0,1,3.019-7.116l1.405.589a3.865,3.865,0,0,1-1.479,7.438Zm147.266-6.65a3.866,3.866,0,0,1-1.8-7.289l1.338-.709a3.865,3.865,0,1,1,3.652,6.813l-1.4.741A3.847,3.847,0,0,1,8072.182,1817.9Zm-162.715-.658a3.842,3.842,0,0,1-1.819-.458l-1.4-.755a3.865,3.865,0,1,1,3.7-6.789l1.345.727a3.865,3.865,0,0,1-1.825,7.274Zm177.426-8a3.866,3.866,0,0,1-2.121-7.1c.421-.276.841-.553,1.257-.834a3.865,3.865,0,1,1,4.306,6.42c-.441.3-.881.588-1.327.88A3.847,3.847,0,0,1,8086.893,1809.239Zm-192.074-.784a3.846,3.846,0,0,1-2.145-.652q-.664-.443-1.32-.891a3.865,3.865,0,1,1,4.355-6.387l1.258.848a3.866,3.866,0,0,1-2.148,7.081Zm205.869-9.279a3.865,3.865,0,0,1-2.433-6.871l1.181-.961a3.865,3.865,0,1,1,4.9,5.975l-1.227,1A3.848,3.848,0,0,1,8100.688,1799.176Zm-219.589-.9a3.845,3.845,0,0,1-2.449-.877l-1.22-1.01a3.865,3.865,0,1,1,4.949-5.939l1.174.972a3.865,3.865,0,0,1-2.454,6.853Zm232.336-10.46a3.865,3.865,0,0,1-2.707-6.624c.358-.353.718-.71,1.074-1.066a3.865,3.865,0,0,1,5.471,5.461q-.56.563-1.13,1.123A3.856,3.856,0,0,1,8113.435,1787.815Zm-244.995-1.007a3.857,3.857,0,0,1-2.73-1.13l-1.119-1.127a3.865,3.865,0,1,1,5.511-5.42l1.068,1.076a3.865,3.865,0,0,1-2.73,6.6Zm256.58-11.544a3.866,3.866,0,0,1-2.972-6.336l.979-1.181a3.865,3.865,0,1,1,5.969,4.912l-1,1.211A3.861,3.861,0,0,1,8125.02,1775.264Zm-268.059-1.1a3.855,3.855,0,0,1-2.984-1.407l-1-1.227a3.866,3.866,0,0,1,6.006-4.868l.961,1.178a3.866,3.866,0,0,1-2.981,6.323Zm278.361-12.522a3.865,3.865,0,0,1-3.186-6.048q.426-.627.847-1.255a3.866,3.866,0,0,1,6.427,4.3c-.3.443-.593.883-.893,1.322A3.866,3.866,0,0,1,8135.323,1761.642Zm-288.553-1.178a3.859,3.859,0,0,1-3.209-1.71q-.444-.661-.88-1.325a3.864,3.864,0,0,1,6.458-4.246q.415.631.835,1.258a3.867,3.867,0,0,1-3.2,6.023Zm297.479-13.388a3.865,3.865,0,0,1-3.386-5.723q.364-.664.722-1.334a3.866,3.866,0,0,1,6.818,3.645c-.253.469-.5.937-.761,1.4A3.867,3.867,0,0,1,8144.249,1747.076Zm-306.28-1.242a3.86,3.86,0,0,1-3.406-2.034q-.377-.7-.747-1.4a3.865,3.865,0,0,1,6.845-3.592c.234.446.468.89.707,1.332a3.866,3.866,0,0,1-3.4,5.7Zm313.736-14.133a3.866,3.866,0,0,1-3.557-5.373l.591-1.412a3.864,3.864,0,1,1,7.138,2.963l-.611,1.462A3.867,3.867,0,0,1,8151.705,1731.7Zm-321.059-1.287a3.871,3.871,0,0,1-3.571-2.382c-.2-.487-.4-.976-.6-1.466a3.865,3.865,0,0,1,7.165-2.9l.575,1.4a3.87,3.87,0,0,1-3.568,5.35Zm326.961-14.753a3.864,3.864,0,0,1-3.688-5.024l.446-1.454a3.865,3.865,0,0,1,7.4,2.243c-.155.51-.31,1.021-.47,1.528A3.866,3.866,0,0,1,8157.607,1715.661Zm-332.729-1.315a3.87,3.87,0,0,1-3.7-2.738l-.455-1.525a3.865,3.865,0,1,1,7.416-2.183l.434,1.453a3.868,3.868,0,0,1-3.7,4.993Zm337.019-15.221a3.805,3.805,0,0,1-.783-.081,3.864,3.864,0,0,1-3.008-4.562l.3-1.5a3.866,3.866,0,0,1,7.583,1.509l-.313,1.545A3.867,3.867,0,0,1,8161.9,1699.126Zm-341.176-1.344a3.867,3.867,0,0,1-3.786-3.11l-.3-1.561a3.865,3.865,0,0,1,7.595-1.441l.291,1.49a3.867,3.867,0,0,1-3.8,4.621Zm343.81-15.529a3.95,3.95,0,0,1-.411-.022,3.866,3.866,0,0,1-3.438-4.25l.154-1.511a3.865,3.865,0,0,1,7.694.743l-.16,1.58A3.867,3.867,0,0,1,8164.531,1682.253Zm-346.309-1.363a3.863,3.863,0,0,1-3.841-3.482l-.151-1.582a3.866,3.866,0,0,1,7.7-.7l.142,1.512a3.863,3.863,0,0,1-3.462,4.229A3.692,3.692,0,0,1,7818.223,1680.891Zm347.28-15.686h-.034a3.866,3.866,0,0,1-3.832-3.9l.008-1.882a3.865,3.865,0,1,1,7.73,0l-.007,1.951A3.864,3.864,0,0,1,8165.5,1665.205Zm-348.12-1.372a3.865,3.865,0,0,1-3.865-3.865l.006-1.591a3.865,3.865,0,0,1,3.863-3.827h.04a3.864,3.864,0,0,1,3.826,3.9l0,1.514A3.866,3.866,0,0,1,7817.383,1663.833Zm347.409-16.052a3.866,3.866,0,0,1-3.844-3.506l-.146-1.524a3.865,3.865,0,1,1,7.691-.767l.152,1.57a3.865,3.865,0,0,1-3.488,4.208C8165.035,1647.775,8164.913,1647.781,8164.792,1647.781Zm-346.6-1c-.124,0-.251-.006-.375-.017a3.863,3.863,0,0,1-3.475-4.219l.158-1.581a3.865,3.865,0,0,1,7.688.813l-.151,1.511A3.865,3.865,0,0,1,7818.194,1646.777Zm344.229-15.908a3.868,3.868,0,0,1-3.791-3.134l-.295-1.5a3.865,3.865,0,0,1,7.582-1.511l.3,1.548a3.867,3.867,0,0,1-3.8,4.6Zm-341.763-.988a3.87,3.87,0,0,1-3.8-4.609l.313-1.557a3.866,3.866,0,0,1,7.574,1.555l-.3,1.489A3.866,3.866,0,0,1,7820.661,1629.881Zm337.744-15.608a3.867,3.867,0,0,1-3.707-2.773l-.436-1.454a3.865,3.865,0,1,1,7.395-2.253l.457,1.521a3.865,3.865,0,0,1-3.709,4.958Zm-333.629-.965a3.866,3.866,0,0,1-3.7-4.987l.464-1.516a3.865,3.865,0,1,1,7.382,2.292l-.449,1.467A3.867,3.867,0,0,1,7824.775,1613.308Zm327.991-15.154a3.866,3.866,0,0,1-3.581-2.407l-.579-1.4a3.866,3.866,0,0,1,7.139-2.969l.6,1.455a3.865,3.865,0,0,1-3.579,5.324Zm-322.254-.945a3.867,3.867,0,0,1-3.572-5.338l.614-1.471a3.866,3.866,0,0,1,7.122,3.009l-.589,1.406A3.863,3.863,0,0,1,7830.512,1597.208Zm315.059-14.53a3.866,3.866,0,0,1-3.425-2.067l-.71-1.334a3.865,3.865,0,1,1,6.807-3.664c.25.466.5.933.747,1.4a3.867,3.867,0,0,1-3.418,5.664Zm-307.762-.921a3.868,3.868,0,0,1-3.406-5.687c.25-.471.5-.938.757-1.406a3.866,3.866,0,0,1,6.784,3.711q-.366.666-.722,1.334A3.861,3.861,0,0,1,7837.809,1581.758Zm299.077-13.776a3.861,3.861,0,0,1-3.231-1.741l-.837-1.259a3.865,3.865,0,1,1,6.414-4.314l.88,1.322a3.867,3.867,0,0,1-3.225,5.992Zm-290.3-.88a3.867,3.867,0,0,1-3.209-6.016l.884-1.311a3.865,3.865,0,1,1,6.4,4.339l-.855,1.27A3.864,3.864,0,0,1,7846.59,1567.1Zm280.215-12.9a3.858,3.858,0,0,1-3-1.428l-.964-1.182a3.864,3.864,0,1,1,5.963-4.916l1,1.223a3.865,3.865,0,0,1-3,6.3Zm-270.041-.826a3.865,3.865,0,0,1-2.986-6.318l1.009-1.218a3.865,3.865,0,1,1,5.939,4.947l-.973,1.177A3.858,3.858,0,0,1,7856.764,1553.375Zm258.655-11.906a3.855,3.855,0,0,1-2.755-1.155q-.53-.538-1.066-1.073a3.865,3.865,0,1,1,5.454-5.477q.565.563,1.123,1.129a3.865,3.865,0,0,1-2.755,6.575Zm-247.195-.76a3.865,3.865,0,0,1-2.735-6.6l1.121-1.114a3.865,3.865,0,0,1,5.431,5.5l-1.082,1.076A3.851,3.851,0,0,1,7868.224,1540.709Zm234.623-10.806a3.85,3.85,0,0,1-2.475-.9l-1.173-.97a3.865,3.865,0,0,1,4.9-5.976l1.223,1.01a3.866,3.866,0,0,1-2.479,6.833Zm-221.982-.681a3.865,3.865,0,0,1-2.462-6.845q.614-.508,1.235-1.009a3.865,3.865,0,0,1,4.856,6.016c-.393.316-.781.634-1.169.954A3.854,3.854,0,0,1,7880.865,1529.222Zm208.343-9.6a3.838,3.838,0,0,1-2.174-.673q-.623-.426-1.255-.845a3.865,3.865,0,1,1,4.285-6.433c.444.3.887.593,1.325.892a3.865,3.865,0,0,1-2.181,7.059Zm-194.646-.594a3.865,3.865,0,0,1-2.155-7.076l1.316-.876a3.865,3.865,0,0,1,4.254,6.454l-1.264.842A3.861,3.861,0,0,1,7894.562,1519.024Zm180.066-8.308a3.844,3.844,0,0,1-1.847-.472l-1.344-.726a3.865,3.865,0,1,1,3.645-6.816l1.4.753a3.866,3.866,0,0,1-1.852,7.26Zm-165.44-.5a3.865,3.865,0,0,1-1.834-7.269l1.4-.743a3.865,3.865,0,1,1,3.6,6.839l-1.335.711A3.843,3.843,0,0,1,7909.188,1510.215Zm150.055-6.928a3.849,3.849,0,0,1-1.5-.3l-1.413-.591a3.864,3.864,0,1,1,2.952-7.142l1.463.61a3.866,3.866,0,0,1-1.5,7.428Zm-134.639-.4a3.866,3.866,0,0,1-1.486-7.435l1.458-.6a3.865,3.865,0,1,1,2.911,7.161l-1.4.576A3.834,3.834,0,0,1,7924.6,1502.888Zm118.591-5.476a3.854,3.854,0,0,1-1.145-.175l-1.462-.447a3.865,3.865,0,1,1,2.231-7.4l1.52.466a3.865,3.865,0,0,1-1.144,7.557Zm-102.532-.3a3.866,3.866,0,0,1-1.127-7.563c.509-.156,1.021-.308,1.528-.457a3.865,3.865,0,1,1,2.177,7.418q-.726.214-1.449.433A3.874,3.874,0,0,1,7940.664,1497.113Zm85.99-3.962a3.821,3.821,0,0,1-.783-.08l-1.485-.3a3.866,3.866,0,0,1,1.485-7.587q.781.155,1.559.313a3.866,3.866,0,0,1-.776,7.651Zm-69.431-.2a3.866,3.866,0,0,1-.751-7.656l1.559-.3a3.866,3.866,0,0,1,1.444,7.6l-1.49.289A3.811,3.811,0,0,1,7957.223,1492.952Zm52.56-2.41a3.916,3.916,0,0,1-.411-.021c-.5-.053-1-.1-1.5-.151a3.865,3.865,0,0,1,.73-7.7c.53.051,1.059.1,1.587.159a3.865,3.865,0,0,1-.4,7.708Zm-35.667-.1a3.865,3.865,0,0,1-.374-7.712l1.575-.149a3.865,3.865,0,1,1,.7,7.7l-1.518.142C7974.368,1490.435,7974.241,1490.441,7974.115,1490.441Zm18.613-.848h-.028l-1.255,0h-.27a3.865,3.865,0,1,1,0-7.73h.239l1.341,0a3.865,3.865,0,0,1-.027,7.731Z" transform="translate(-7813.518 -1481.858)"/></g><g transform="translate(7769.565 1437.826)"><path class="a" d="M7996.018,1885.226a3.865,3.865,0,0,1-.05-7.73l1.525-.024a3.865,3.865,0,1,1,.147,7.728l-1.569.026Zm-15.488-.34c-.074,0-.148,0-.224-.006l-1.57-.094a3.865,3.865,0,1,1,.486-7.715l1.525.091a3.865,3.865,0,0,1-.218,7.724Zm32.506-.528a3.865,3.865,0,0,1-.339-7.715l1.513-.14a3.865,3.865,0,1,1,.746,7.694l-1.571.146C8013.269,1884.354,8013.151,1884.358,8013.036,1884.358Zm-49.472-1.09a3.871,3.871,0,0,1-.521-.035l-1.561-.216a3.865,3.865,0,1,1,1.083-7.654l1.508.209a3.865,3.865,0,0,1-.509,7.7Zm66.376-1.085a3.866,3.866,0,0,1-.639-7.677l1.5-.258a3.864,3.864,0,1,1,1.332,7.613l-1.55.268A3.927,3.927,0,0,1,8029.94,1882.183Zm-83.167-1.845a3.828,3.828,0,0,1-.817-.087l-1.543-.338a3.865,3.865,0,1,1,1.682-7.544l1.485.324a3.866,3.866,0,0,1-.807,7.645Zm99.853-1.638a3.865,3.865,0,0,1-.934-7.615l1.473-.374a3.865,3.865,0,1,1,1.933,7.484l-1.533.389A3.843,3.843,0,0,1,8046.626,1878.7Zm-116.37-2.59a3.871,3.871,0,0,1-1.109-.162l-1.506-.456a3.865,3.865,0,0,1,2.26-7.392l1.459.441a3.865,3.865,0,0,1-1.1,7.569Zm132.737-2.182a3.866,3.866,0,0,1-1.22-7.534l1.435-.485a3.866,3.866,0,0,1,2.507,7.314l-1.5.507A3.836,3.836,0,0,1,8062.994,1873.928ZM7914.1,1870.6a3.846,3.846,0,0,1-1.385-.259c-.5-.191-1-.384-1.487-.58a3.865,3.865,0,1,1,2.85-7.186q.705.279,1.411.551a3.866,3.866,0,0,1-1.388,7.474Zm164.818-2.7a3.866,3.866,0,0,1-1.515-7.423l1.4-.6a3.865,3.865,0,1,1,3.061,7.1l-1.437.616A3.848,3.848,0,0,1,8078.917,1867.9Zm-180.492-4.059a3.842,3.842,0,0,1-1.662-.378l-1.432-.691a3.865,3.865,0,1,1,3.394-6.945l1.369.66a3.866,3.866,0,0,1-1.669,7.354Zm195.9-3.19a3.866,3.866,0,0,1-1.786-7.3l1.347-.706a3.865,3.865,0,1,1,3.611,6.836l-1.392.73A3.866,3.866,0,0,1,8094.322,1860.649Zm-210.989-4.766a3.84,3.84,0,0,1-1.93-.519l-1.368-.8a3.865,3.865,0,1,1,3.916-6.664l1.318.767a3.866,3.866,0,0,1-1.936,7.213Zm225.789-3.659a3.865,3.865,0,0,1-2.041-7.15l1.284-.805a3.865,3.865,0,1,1,4.128,6.536l-1.337.837A3.846,3.846,0,0,1,8109.122,1852.224Zm-240.22-5.443a3.842,3.842,0,0,1-2.181-.678l-1.3-.9a3.865,3.865,0,1,1,4.422-6.34l1.25.866a3.865,3.865,0,0,1-2.188,7.053Zm254.329-4.108a3.865,3.865,0,0,1-2.291-6.98l1.22-.9a3.865,3.865,0,1,1,4.623,6.194l-1.266.939A3.858,3.858,0,0,1,8123.231,1842.673Zm-268.006-6.08a3.86,3.86,0,0,1-2.424-.854l-1.227-1a3.864,3.864,0,1,1,4.9-5.979l1.179.957a3.866,3.866,0,0,1-2.426,6.876Zm281.338-4.532a3.865,3.865,0,0,1-2.526-6.792l1.153-1a3.865,3.865,0,0,1,5.082,5.826l-1.186,1.028A3.842,3.842,0,0,1,8136.563,1832.061Zm-294.184-6.678a3.856,3.856,0,0,1-2.653-1.055l-1.14-1.081a3.865,3.865,0,0,1,5.335-5.595l1.11,1.054a3.865,3.865,0,0,1-2.652,6.677Zm306.659-4.935a3.866,3.866,0,0,1-2.736-6.6l1.068-1.08a3.865,3.865,0,1,1,5.517,5.415l-1.112,1.126A3.856,3.856,0,0,1,8149.038,1820.448Zm-318.6-7.229a3.847,3.847,0,0,1-2.859-1.266l-1.06-1.173a3.865,3.865,0,0,1,5.763-5.153l1.016,1.127a3.865,3.865,0,0,1-2.859,6.465Zm330.151-5.313a3.866,3.866,0,0,1-2.936-6.38l.981-1.155a3.864,3.864,0,1,1,5.918,4.971l-1.025,1.212A3.864,3.864,0,0,1,8160.587,1807.907Zm-341.117-7.733a3.86,3.86,0,0,1-3.055-1.492l-.969-1.255a3.866,3.866,0,0,1,6.149-4.686l.921,1.2a3.864,3.864,0,0,1-3.047,6.238Zm351.668-5.663a3.865,3.865,0,0,1-3.123-6.139l.9-1.24a3.865,3.865,0,0,1,6.278,4.51l-.921,1.28A3.861,3.861,0,0,1,8171.138,1794.511Zm-361.6-8.183a3.86,3.86,0,0,1-3.23-1.738l-.862-1.314a3.865,3.865,0,0,1,6.479-4.217l.835,1.274a3.866,3.866,0,0,1-3.222,5.994Zm371.082-5.991a3.866,3.866,0,0,1-3.285-5.894l.788-1.294a3.865,3.865,0,0,1,6.619,3.992c-.272.453-.548.908-.827,1.359A3.864,3.864,0,0,1,8180.625,1780.337Zm-379.907-8.579a3.868,3.868,0,0,1-3.385-1.991l-.76-1.384a3.865,3.865,0,0,1,6.793-3.691l.728,1.326a3.866,3.866,0,0,1-3.375,5.74Zm388.269-6.294a3.865,3.865,0,0,1-3.434-5.632l.688-1.355a3.865,3.865,0,1,1,6.906,3.471l-.719,1.417A3.864,3.864,0,0,1,8188.987,1765.464Zm-395.936-8.911a3.864,3.864,0,0,1-3.519-2.26l-.647-1.43a3.866,3.866,0,1,1,7.055-3.163l.626,1.382a3.867,3.867,0,0,1-3.515,5.471Zm403.119-6.571a3.866,3.866,0,0,1-3.566-5.351l.583-1.415a3.865,3.865,0,0,1,7.156,2.925l-.6,1.461A3.863,3.863,0,0,1,8196.17,1749.982Zm-409.579-9.176a3.866,3.866,0,0,1-3.63-2.539l-.538-1.49a3.865,3.865,0,0,1,7.284-2.589l.514,1.425a3.867,3.867,0,0,1-3.63,5.193Zm415.532-6.824a3.819,3.819,0,0,1-1.2-.193,3.865,3.865,0,0,1-2.471-4.876l.473-1.457a3.865,3.865,0,1,1,7.361,2.36l-.488,1.5A3.866,3.866,0,0,1,8202.123,1733.982Zm-420.752-9.4a3.863,3.863,0,0,1-3.719-2.826l-.421-1.53a3.865,3.865,0,1,1,7.464-2.009l.4,1.459a3.869,3.869,0,0,1-3.725,4.906Zm425.434-6.993a3.868,3.868,0,0,1-3.762-4.771l.357-1.493a3.866,3.866,0,0,1,7.523,1.781l-.363,1.521A3.869,3.869,0,0,1,8206.8,1717.584Zm-429.369-9.592a3.868,3.868,0,0,1-3.789-3.12l-.3-1.552a3.865,3.865,0,0,1,7.6-1.432l.289,1.492a3.865,3.865,0,0,1-3.047,4.539A3.921,3.921,0,0,1,7777.436,1707.992Zm432.755-7.113a3.874,3.874,0,0,1-3.821-4.476l.24-1.508a3.864,3.864,0,1,1,7.639,1.174l-.245,1.555A3.866,3.866,0,0,1,8210.19,1700.879Zm-435.387-9.727a3.867,3.867,0,0,1-3.835-3.419l-.177-1.564a3.865,3.865,0,0,1,7.684-.845l.17,1.516a3.864,3.864,0,0,1-3.391,4.286A3.933,3.933,0,0,1,7774.8,1691.152Zm437.462-7.192c-.109,0-.221-.005-.332-.014a3.866,3.866,0,0,1-3.523-4.18l.119-1.511a3.867,3.867,0,0,1,7.711.588l-.128,1.579A3.867,3.867,0,0,1,8212.266,1683.96Zm-438.781-9.8a3.865,3.865,0,0,1-3.861-3.712l-.055-1.572a3.865,3.865,0,1,1,7.725-.25l.056,1.515a3.866,3.866,0,0,1-3.71,4.015C7773.587,1674.158,7773.535,1674.158,7773.484,1674.158Zm439.545-7.225H8213a3.866,3.866,0,0,1-3.832-3.9l.006-2.009a3.865,3.865,0,1,1,7.73,0l-.006,2.077A3.863,3.863,0,0,1,8213.029,1666.933Zm-439.56-9.816-.144,0a3.868,3.868,0,0,1-3.723-4l.066-1.578a3.864,3.864,0,1,1,7.721.34l-.06,1.52A3.866,3.866,0,0,1,7773.469,1657.116Zm438.99-7.714a3.864,3.864,0,0,1-3.852-3.594l-.113-1.512a3.866,3.866,0,0,1,7.707-.61l.119,1.58a3.868,3.868,0,0,1-3.586,4.127C8212.642,1649.4,8212.551,1649.4,8212.459,1649.4Zm-437.706-9.281a4,4,0,0,1-.445-.025,3.865,3.865,0,0,1-3.4-4.281l.185-1.569a3.865,3.865,0,0,1,7.673.938l-.177,1.511A3.868,3.868,0,0,1,7774.753,1640.121Zm435.833-7.659a3.866,3.866,0,0,1-3.816-3.279l-.234-1.521a3.865,3.865,0,1,1,7.636-1.2l.238,1.544a3.864,3.864,0,0,1-3.231,4.408A3.965,3.965,0,0,1,8210.586,1632.463Zm-433.239-9.187a3.873,3.873,0,0,1-3.8-4.6l.306-1.549a3.865,3.865,0,0,1,7.578,1.525l-.293,1.492A3.869,3.869,0,0,1,7777.347,1623.276Zm430.052-7.557a3.868,3.868,0,0,1-3.76-2.987l-.353-1.5a3.866,3.866,0,0,1,7.522-1.784l.357,1.523a3.867,3.867,0,0,1-3.768,4.745Zm-426.157-9.038a3.924,3.924,0,0,1-1.03-.139,3.865,3.865,0,0,1-2.7-4.754l.427-1.521a3.865,3.865,0,1,1,7.436,2.113l-.41,1.463A3.867,3.867,0,0,1,7781.241,1606.681Zm421.679-7.409a3.868,3.868,0,0,1-3.685-2.705l-.461-1.451a3.864,3.864,0,1,1,7.355-2.374l.479,1.5a3.866,3.866,0,0,1-3.689,5.027Zm-416.5-8.83a3.868,3.868,0,0,1-3.634-5.183l.546-1.487a3.865,3.865,0,0,1,7.249,2.686l-.527,1.435A3.866,3.866,0,0,1,7786.418,1590.442Zm410.756-7.216a3.868,3.868,0,0,1-3.584-2.411l-.578-1.423a3.865,3.865,0,1,1,7.15-2.936l.59,1.449a3.868,3.868,0,0,1-3.578,5.321Zm-404.317-8.593a3.822,3.822,0,0,1-1.6-.347,3.865,3.865,0,0,1-1.92-5.118l.655-1.431a3.865,3.865,0,1,1,7.021,3.234l-.639,1.395A3.865,3.865,0,0,1,7792.856,1574.633Zm397.34-6.942a3.869,3.869,0,0,1-3.465-2.143l-.68-1.359a3.865,3.865,0,1,1,6.9-3.489l.705,1.4a3.868,3.868,0,0,1-3.458,5.588Zm-389.692-8.31a3.867,3.867,0,0,1-3.381-5.731l.772-1.386a3.865,3.865,0,1,1,6.738,3.786l-.739,1.329A3.864,3.864,0,0,1,7800.5,1559.38Zm381.528-6.635a3.86,3.86,0,0,1-3.316-1.876l-.79-1.308a3.865,3.865,0,1,1,6.607-4.011l.81,1.34a3.866,3.866,0,0,1-3.311,5.855Zm-372.716-7.974a3.866,3.866,0,0,1-3.225-5.991l.869-1.312a3.865,3.865,0,0,1,6.435,4.283l-.846,1.277A3.861,3.861,0,0,1,7809.317,1544.772Zm363.416-6.3a3.859,3.859,0,0,1-3.153-1.625l-.888-1.247a3.864,3.864,0,1,1,6.28-4.5l.907,1.272a3.865,3.865,0,0,1-3.146,6.1Zm-353.5-7.581a3.866,3.866,0,0,1-3.054-6.233l.971-1.241a3.865,3.865,0,1,1,6.082,4.772l-.939,1.2A3.86,3.86,0,0,1,7819.232,1530.89Zm343.122-5.936a3.855,3.855,0,0,1-2.972-1.393l-.982-1.172a3.865,3.865,0,0,1,5.916-4.975l1.006,1.2a3.865,3.865,0,0,1-2.968,6.339Zm-332.169-7.133a3.866,3.866,0,0,1-2.861-6.463l1.058-1.16a3.866,3.866,0,1,1,5.7,5.224l-1.032,1.13A3.852,3.852,0,0,1,7830.185,1517.822Zm320.78-5.546a3.859,3.859,0,0,1-2.777-1.174l-1.062-1.089a3.864,3.864,0,1,1,5.51-5.42l1.1,1.128a3.865,3.865,0,0,1-2.774,6.556Zm-308.854-6.639a3.865,3.865,0,0,1-2.653-6.677l1.145-1.074a3.865,3.865,0,1,1,5.274,5.65l-1.114,1.047A3.854,3.854,0,0,1,7842.111,1505.637Zm296.515-5.129a3.848,3.848,0,0,1-2.548-.96l-1.157-1.013a3.866,3.866,0,0,1,5.082-5.827l1.176,1.03a3.865,3.865,0,0,1-2.553,6.77Zm-283.687-6.1a3.866,3.866,0,0,1-2.433-6.871l1.222-.983a3.865,3.865,0,0,1,4.829,6.037l-1.192.957A3.836,3.836,0,0,1,7854.939,1494.41Zm270.475-4.685a3.848,3.848,0,0,1-2.319-.776l-1.226-.918a3.866,3.866,0,0,1,4.614-6.2l1.257.943a3.865,3.865,0,0,1-2.325,6.955Zm-256.826-5.518a3.865,3.865,0,0,1-2.2-7.046l1.306-.894a3.865,3.865,0,1,1,4.333,6.4l-1.248.853A3.844,3.844,0,0,1,7868.588,1484.207Zm242.82-4.216a3.847,3.847,0,0,1-2.08-.611l-1.287-.816a3.865,3.865,0,1,1,4.116-6.543l1.338.848a3.866,3.866,0,0,1-2.087,7.121Zm-228.431-4.9a3.866,3.866,0,0,1-1.945-7.208l1.365-.787a3.865,3.865,0,1,1,3.832,6.713l-1.312.757A3.852,3.852,0,0,1,7882.977,1475.092Zm213.711-3.724a3.842,3.842,0,0,1-1.823-.459l-1.341-.711a3.865,3.865,0,1,1,3.59-6.846l1.4.744a3.866,3.866,0,0,1-1.83,7.272Zm-198.66-4.247a3.866,3.866,0,0,1-1.679-7.349l1.418-.675a3.865,3.865,0,0,1,3.3,6.989l-1.372.654A3.859,3.859,0,0,1,7898.028,1467.122Zm183.311-3.207a3.845,3.845,0,0,1-1.553-.327l-1.4-.6a3.865,3.865,0,0,1,3.047-7.1l1.458.633a3.865,3.865,0,0,1-1.557,7.4Zm-167.7-3.565a3.865,3.865,0,0,1-1.4-7.468l1.477-.567a3.865,3.865,0,0,1,2.745,7.227l-1.419.545A3.867,3.867,0,0,1,7913.644,1460.349Zm151.808-2.67a3.869,3.869,0,0,1-1.273-.216l-1.44-.5a3.865,3.865,0,0,1,2.481-7.321l1.5.518a3.865,3.865,0,0,1-1.272,7.514Zm-135.693-2.873a3.866,3.866,0,0,1-1.109-7.568l1.512-.448a3.865,3.865,0,0,1,2.173,7.419l-1.461.433A3.863,3.863,0,0,1,7929.758,1454.807Zm119.384-2.1a3.867,3.867,0,0,1-.983-.127l-1.475-.381a3.865,3.865,0,1,1,1.906-7.492l1.528.4a3.865,3.865,0,0,1-.976,7.6Zm-102.881-2.169a3.865,3.865,0,0,1-.817-7.643l1.541-.328a3.865,3.865,0,0,1,1.591,7.564l-1.492.318A3.858,3.858,0,0,1,7946.262,1450.539Zm86.236-1.509a3.937,3.937,0,0,1-.693-.062l-1.5-.266a3.865,3.865,0,1,1,1.321-7.616l1.553.275a3.865,3.865,0,0,1-.684,7.669Zm-69.455-1.46a3.866,3.866,0,0,1-.521-7.7l1.566-.21a3.866,3.866,0,0,1,1,7.667l-1.51.2A3.819,3.819,0,0,1,7963.042,1447.57Zm52.578-.917a3.88,3.88,0,0,1-.393-.02l-1.515-.148a3.866,3.866,0,0,1,.722-7.7l1.571.154a3.865,3.865,0,0,1-.385,7.711Zm-35.614-.743a3.865,3.865,0,0,1-.223-7.724l1.57-.087a3.865,3.865,0,0,1,.408,7.72l-1.523.084C7980.159,1445.908,7980.083,1445.91,7980.006,1445.91Zm18.6-.321h-.1l-1.521-.032a3.865,3.865,0,1,1,.136-7.728l1.578.033a3.865,3.865,0,0,1-.095,7.728Z" transform="translate(-7769.566 -1437.827)"/></g><g transform="translate(7791.888 1460.145)"><path class="a" d="M7995.146,1862.066a3.865,3.865,0,0,1-.049-7.731l1.511-.026a3.865,3.865,0,0,1,.169,7.728l-1.578.028Zm-15.437-.376c-.081,0-.161,0-.246-.008l-1.573-.106a3.864,3.864,0,1,1,.545-7.71l1.515.1a3.866,3.866,0,0,1-.241,7.723Zm32.4-.583a3.865,3.865,0,0,1-.374-7.711l1.5-.156a3.866,3.866,0,0,1,.828,7.687l-1.572.161A3.646,3.646,0,0,1,8012.109,1861.107Zm-49.293-1.211a3.834,3.834,0,0,1-.576-.043l-1.563-.241a3.865,3.865,0,0,1,1.211-7.635l1.493.231a3.865,3.865,0,0,1-.565,7.688Zm66.115-1.193a3.866,3.866,0,0,1-.71-7.665l1.49-.285a3.865,3.865,0,0,1,1.482,7.587l-1.544.3A3.827,3.827,0,0,1,8028.931,1858.7Zm-82.8-2.048a3.864,3.864,0,0,1-.9-.107l-1.532-.373a3.865,3.865,0,0,1,1.859-7.5l1.473.359a3.865,3.865,0,0,1-.9,7.624Zm99.349-1.8a3.865,3.865,0,0,1-1.036-7.589l1.46-.414a3.865,3.865,0,1,1,2.129,7.431l-1.516.429A3.854,3.854,0,0,1,8045.481,1854.854Zm-115.691-2.871a3.851,3.851,0,0,1-1.224-.2l-1.5-.505a3.866,3.866,0,1,1,2.509-7.314l1.44.487a3.866,3.866,0,0,1-1.224,7.532Zm131.85-2.4a3.866,3.866,0,0,1-1.356-7.485l1.417-.537a3.865,3.865,0,1,1,2.77,7.217l-1.473.558A3.843,3.843,0,0,1,8061.64,1849.586Zm-147.741-3.68a3.858,3.858,0,0,1-1.535-.319l-1.446-.632a3.866,3.866,0,0,1,3.12-7.074l1.4.612a3.865,3.865,0,0,1-1.536,7.412Zm163.373-2.961a3.866,3.866,0,0,1-1.667-7.354l1.365-.657a3.865,3.865,0,0,1,3.376,6.954l-1.411.68A3.858,3.858,0,0,1,8077.271,1842.945Zm-178.677-4.467a3.851,3.851,0,0,1-1.834-.465l-1.387-.756a3.866,3.866,0,0,1,3.728-6.773l1.332.728a3.865,3.865,0,0,1-1.838,7.267Zm193.675-3.5a3.866,3.866,0,0,1-1.965-7.2l1.3-.773a3.865,3.865,0,0,1,3.965,6.636l-1.347.8A3.839,3.839,0,0,1,8092.27,1834.98Zm-208.277-5.22a3.858,3.858,0,0,1-2.118-.633l-1.318-.875a3.865,3.865,0,1,1,4.3-6.425l1.261.836a3.865,3.865,0,0,1-2.122,7.1Zm222.536-4.005a3.865,3.865,0,0,1-2.24-7.016l1.228-.88a3.866,3.866,0,0,1,4.529,6.266l-1.281.916A3.845,3.845,0,0,1,8106.529,1825.754Zm-236.33-5.933a3.848,3.848,0,0,1-2.392-.831l-1.227-.974a3.865,3.865,0,0,1,4.819-6.043l1.2.949a3.864,3.864,0,0,1-2.4,6.9Zm249.751-4.485a3.866,3.866,0,0,1-2.493-6.821c.384-.322.762-.647,1.142-.974a3.865,3.865,0,1,1,5.049,5.854q-.6.519-1.208,1.031A3.847,3.847,0,0,1,8119.95,1815.337Zm-262.643-6.595a3.847,3.847,0,0,1-2.641-1.046l-1.148-1.083a3.866,3.866,0,0,1,5.335-5.6l1.1,1.039a3.865,3.865,0,0,1-2.645,6.685Zm275.125-4.933a3.865,3.865,0,0,1-2.742-6.59l1.066-1.08a3.865,3.865,0,1,1,5.523,5.41l-1.105,1.119A3.854,3.854,0,0,1,8132.432,1803.809Zm-287.017-7.2a3.851,3.851,0,0,1-2.875-1.281l-1.048-1.173a3.865,3.865,0,1,1,5.786-5.127l1.008,1.131a3.865,3.865,0,0,1-2.871,6.45Zm298.475-5.35a3.866,3.866,0,0,1-2.964-6.345l.97-1.167a3.865,3.865,0,1,1,5.966,4.914l-1.006,1.212A3.856,3.856,0,0,1,8143.89,1791.254ZM7834.6,1783.5a3.858,3.858,0,0,1-3.089-1.538l-.938-1.25a3.865,3.865,0,1,1,6.2-4.622l.915,1.219a3.864,3.864,0,0,1-3.084,6.191Zm319.624-5.736a3.864,3.864,0,0,1-3.161-6.084l.865-1.244a3.865,3.865,0,1,1,6.366,4.386l-.9,1.3A3.863,3.863,0,0,1,8154.228,1777.761Zm-329.273-8.244a3.863,3.863,0,0,1-3.276-1.81l-.832-1.336a3.865,3.865,0,1,1,6.578-4.059l.8,1.282a3.867,3.867,0,0,1-3.269,5.922Zm338.424-6.085a3.868,3.868,0,0,1-3.343-5.8l.757-1.321a3.865,3.865,0,1,1,6.719,3.823l-.782,1.366A3.867,3.867,0,0,1,8163.378,1763.431Zm-346.835-8.67a3.865,3.865,0,0,1-3.442-2.1l-.707-1.385a3.866,3.866,0,0,1,6.895-3.5l.691,1.358a3.867,3.867,0,0,1-3.437,5.629Zm354.716-6.4a3.865,3.865,0,0,1-3.491-5.515l.636-1.372a3.866,3.866,0,0,1,7.024,3.229c-.223.481-.444.961-.67,1.439A3.868,3.868,0,0,1,8171.26,1748.361Zm-361.823-9.018a3.867,3.867,0,0,1-3.577-2.4l-.593-1.463a3.865,3.865,0,1,1,7.177-2.874l.567,1.4a3.867,3.867,0,0,1-3.574,5.334Zm368.38-6.68a3.866,3.866,0,0,1-3.629-5.2l.522-1.435a3.865,3.865,0,0,1,7.273,2.617l-.539,1.482A3.866,3.866,0,0,1,8177.817,1732.663Zm-374.135-9.311a3.866,3.866,0,0,1-3.688-2.715l-.462-1.5a3.864,3.864,0,1,1,7.395-2.249l.448,1.452a3.867,3.867,0,0,1-3.692,5.016Zm379.3-6.884a3.868,3.868,0,0,1-3.731-4.885l.392-1.459a3.865,3.865,0,1,1,7.474,1.969l-.408,1.527A3.868,3.868,0,0,1,8182.982,1716.467Zm-383.647-9.544a3.864,3.864,0,0,1-3.771-3.038l-.331-1.548a3.864,3.864,0,1,1,7.565-1.583l.317,1.476a3.869,3.869,0,0,1-3.779,4.693Zm387.392-7.032a3.8,3.8,0,0,1-.7-.063,3.865,3.865,0,0,1-3.11-4.494l.262-1.487a3.866,3.866,0,0,1,7.619,1.314l-.275,1.557A3.868,3.868,0,0,1,8186.727,1699.891Zm-390.3-9.708a3.865,3.865,0,0,1-3.827-3.368l-.2-1.568a3.866,3.866,0,0,1,7.676-.929l.187,1.5a3.864,3.864,0,0,1-3.333,4.332A3.948,3.948,0,0,1,7796.426,1690.183Zm392.6-7.129c-.121,0-.246-.005-.368-.016a3.865,3.865,0,0,1-3.485-4.211l.134-1.5a3.865,3.865,0,1,1,7.7.655l-.141,1.574A3.864,3.864,0,0,1,8189.024,1683.054Zm-394.057-9.8a3.863,3.863,0,0,1-3.858-3.7l-.062-1.566a3.865,3.865,0,0,1,7.726-.273l.06,1.51a3.867,3.867,0,0,1-3.7,4.026C7795.08,1673.252,7795.022,1673.252,7794.967,1673.252Zm394.9-7.168h-.035a3.864,3.864,0,0,1-3.829-3.9l0-1.963a3.865,3.865,0,0,1,7.731,0l-.006,2.031A3.867,3.867,0,0,1,8189.871,1666.084Zm-394.914-9.819c-.055,0-.108,0-.163,0a3.867,3.867,0,0,1-3.7-4.021l.071-1.572a3.865,3.865,0,0,1,7.722.375l-.068,1.514A3.865,3.865,0,0,1,7794.957,1656.265Zm394.284-7.614a3.865,3.865,0,0,1-3.848-3.56l-.125-1.5a3.865,3.865,0,0,1,7.7-.682l.133,1.576a3.867,3.867,0,0,1-3.548,4.158C8189.449,1648.646,8189.345,1648.65,8189.241,1648.65Zm-392.862-9.317a3.915,3.915,0,0,1-.491-.031,3.866,3.866,0,0,1-3.348-4.322l.207-1.566a3.865,3.865,0,1,1,7.659,1.041l-.2,1.5A3.867,3.867,0,0,1,7796.379,1639.333Zm390.791-7.545a3.866,3.866,0,0,1-3.808-3.233l-.253-1.489a3.864,3.864,0,1,1,7.612-1.336l.265,1.559a3.87,3.87,0,0,1-3.816,4.5Zm-387.919-9.2a3.867,3.867,0,0,1-3.783-4.682l.34-1.542a3.866,3.866,0,1,1,7.542,1.7l-.325,1.475A3.868,3.868,0,0,1,7799.25,1622.584Zm384.4-7.422a3.868,3.868,0,0,1-3.743-2.9l-.38-1.459A3.865,3.865,0,1,1,8187,1608.8l.4,1.531a3.865,3.865,0,0,1-3.746,4.828Zm-380.1-9.015a3.865,3.865,0,0,1-3.695-5l.474-1.515a3.865,3.865,0,0,1,7.367,2.344l-.454,1.45A3.866,3.866,0,0,1,7803.555,1606.147Zm375.157-7.243a3.866,3.866,0,0,1-3.646-2.583l-.509-1.424a3.866,3.866,0,0,1,7.271-2.627l.53,1.487a3.867,3.867,0,0,1-3.646,5.148Zm-369.437-8.78a3.868,3.868,0,0,1-3.579-5.321q.3-.736.6-1.469a3.865,3.865,0,0,1,7.133,2.979l-.575,1.4A3.867,3.867,0,0,1,7809.275,1590.124Zm363.112-6.976a3.866,3.866,0,0,1-3.521-2.266l-.631-1.375a3.865,3.865,0,0,1,7.014-3.251l.652,1.425a3.867,3.867,0,0,1-3.515,5.467Zm-356.024-8.488a3.865,3.865,0,0,1-3.435-5.628l.723-1.4a3.865,3.865,0,0,1,6.855,3.574l-.7,1.352A3.862,3.862,0,0,1,7816.363,1574.66Zm348.36-6.663a3.865,3.865,0,0,1-3.376-1.979l-.742-1.31a3.865,3.865,0,1,1,6.71-3.837l.777,1.371a3.866,3.866,0,0,1-3.37,5.755Zm-339.965-8.128a3.867,3.867,0,0,1-3.277-5.913q.421-.673.849-1.344a3.865,3.865,0,0,1,6.514,4.162c-.271.423-.538.848-.8,1.274A3.865,3.865,0,0,1,7824.758,1559.869Zm331.024-6.313a3.863,3.863,0,0,1-3.2-1.7l-.851-1.241a3.865,3.865,0,1,1,6.353-4.4l.9,1.3a3.868,3.868,0,0,1-3.2,6.036Zm-321.393-7.7a3.866,3.866,0,0,1-3.089-6.186c.319-.423.637-.845.959-1.265a3.865,3.865,0,1,1,6.132,4.706c-.306.4-.608.8-.911,1.2A3.856,3.856,0,0,1,7834.39,1545.858Zm311.241-5.926a3.855,3.855,0,0,1-3-1.421l-.965-1.175a3.865,3.865,0,1,1,5.958-4.926l.994,1.211a3.865,3.865,0,0,1-2.991,6.311Zm-300.447-7.206a3.865,3.865,0,0,1-2.874-6.447l1.045-1.16a3.866,3.866,0,0,1,5.732,5.188l-1.026,1.135A3.85,3.85,0,0,1,7845.184,1532.726Zm289.165-5.5a3.857,3.857,0,0,1-2.778-1.179l-1.057-1.087a3.864,3.864,0,1,1,5.516-5.414l1.1,1.126a3.866,3.866,0,0,1-2.778,6.553Zm-277.287-6.658a3.865,3.865,0,0,1-2.65-6.679c.386-.362.771-.722,1.159-1.081a3.866,3.866,0,0,1,5.242,5.683c-.369.341-.737.683-1.1,1.026A3.851,3.851,0,0,1,7857.062,1520.566Zm264.957-5.044a3.85,3.85,0,0,1-2.541-.954l-1.141-.988a3.865,3.865,0,1,1,5.032-5.869l1.2,1.034a3.865,3.865,0,0,1-2.545,6.776Zm-252.085-6.053a3.865,3.865,0,0,1-2.4-6.9q.622-.493,1.25-.979a3.865,3.865,0,1,1,4.731,6.112c-.4.307-.79.615-1.181.926A3.847,3.847,0,0,1,7869.933,1509.469Zm238.8-4.553a3.852,3.852,0,0,1-2.273-.741l-1.237-.9a3.866,3.866,0,0,1,4.519-6.273l1.27.92a3.866,3.866,0,0,1-2.279,6.99Zm-225.034-5.4a3.866,3.866,0,0,1-2.132-7.091l1.317-.862a3.865,3.865,0,1,1,4.206,6.486l-1.266.827A3.841,3.841,0,0,1,7883.7,1499.517Zm210.885-4.031a3.845,3.845,0,0,1-2-.563l-1.295-.78a3.865,3.865,0,1,1,3.952-6.643l1.358.817a3.865,3.865,0,0,1-2.01,7.169Zm-196.319-4.705a3.866,3.866,0,0,1-1.845-7.265l1.381-.741a3.866,3.866,0,0,1,3.639,6.822l-1.335.716A3.845,3.845,0,0,1,7898.268,1490.781Zm181.41-3.475a3.854,3.854,0,0,1-1.707-.4l-1.365-.667a3.865,3.865,0,0,1,3.367-6.959l1.419.7a3.865,3.865,0,0,1-1.714,7.331Zm-166.152-3.969a3.866,3.866,0,0,1-1.546-7.41l1.443-.621a3.865,3.865,0,1,1,3.032,7.111l-1.385.6A3.869,3.869,0,0,1,7913.525,1483.337Zm150.591-2.9a3.848,3.848,0,0,1-1.408-.267l-1.416-.546a3.865,3.865,0,0,1,2.754-7.223l1.478.571a3.866,3.866,0,0,1-1.409,7.465Zm-134.752-3.2a3.865,3.865,0,0,1-1.23-7.529l1.494-.5a3.865,3.865,0,1,1,2.408,7.346l-1.44.478A3.85,3.85,0,0,1,7929.364,1477.239Zm118.665-2.284a3.863,3.863,0,0,1-1.091-.157l-1.454-.421a3.865,3.865,0,1,1,2.119-7.434l1.513.438a3.866,3.866,0,0,1-1.087,7.575Zm-102.342-2.424a3.866,3.866,0,0,1-.9-7.623l1.531-.364a3.865,3.865,0,1,1,1.758,7.528l-1.474.35A3.868,3.868,0,0,1,7945.687,1472.531Zm85.849-1.648a3.88,3.88,0,0,1-.768-.077l-1.49-.294a3.865,3.865,0,1,1,1.473-7.588l1.544.3a3.865,3.865,0,0,1-.759,7.655Zm-69.176-1.632a3.866,3.866,0,0,1-.58-7.687l1.561-.232a3.866,3.866,0,0,1,1.1,7.653l-1.494.22A3.9,3.9,0,0,1,7962.36,1469.251Zm52.39-1a3.655,3.655,0,0,1-.441-.025l-1.5-.164a3.865,3.865,0,0,1,.8-7.688l1.573.171a3.865,3.865,0,0,1-.432,7.706Zm-35.5-.833a3.865,3.865,0,0,1-.246-7.722l1.572-.1a3.866,3.866,0,1,1,.441,7.719l-1.515.092C7979.42,1467.415,7979.334,1467.417,7979.252,1467.417Zm18.542-.35-.108,0-1.512-.035a3.867,3.867,0,0,1-3.791-3.938,3.915,3.915,0,0,1,3.939-3.791l1.578.036a3.865,3.865,0,0,1-.106,7.729Z" transform="translate(-7791.044 -1459.3)"/></g><g transform="translate(7839.098 1507.443)"><path class="a" d="M7990.623,1812.959l-1.568-.007a3.865,3.865,0,0,1,.034-7.731h.038l1.416.008a3.9,3.9,0,0,1,3.9,3.865A3.831,3.831,0,0,1,7990.623,1812.959Zm15.284-.777a3.865,3.865,0,0,1-.384-7.71c.494-.05.989-.1,1.482-.158a3.865,3.865,0,1,1,.858,7.682q-.782.087-1.563.167A3.887,3.887,0,0,1,8005.907,1812.182Zm-32.093-.144a3.581,3.581,0,0,1-.433-.025l-1.556-.18a3.865,3.865,0,1,1,.927-7.674l1.486.173a3.865,3.865,0,0,1-.425,7.706Zm48.726-2.5a3.866,3.866,0,0,1-.813-7.644c.489-.1.973-.213,1.457-.323a3.866,3.866,0,0,1,1.714,7.539c-.513.115-1.025.23-1.536.341A3.928,3.928,0,0,1,8022.54,1809.543Zm-65.336-.3a3.855,3.855,0,0,1-.858-.1l-1.528-.355a3.865,3.865,0,1,1,1.785-7.521l1.455.338a3.866,3.866,0,0,1-.854,7.636Zm81.571-4.2a3.866,3.866,0,0,1-1.246-7.525l1.413-.488a3.865,3.865,0,0,1,2.561,7.294l-1.483.512A3.865,3.865,0,0,1,8038.775,1805.05Zm-97.763-.448a3.873,3.873,0,0,1-1.272-.216c-.5-.174-1-.35-1.492-.53a3.865,3.865,0,1,1,2.632-7.268c.466.168.937.334,1.406.5a3.866,3.866,0,0,1-1.273,7.516Zm113.384-5.849a3.866,3.866,0,0,1-1.645-7.366q.672-.313,1.339-.636a3.865,3.865,0,1,1,3.364,6.959c-.473.228-.944.453-1.421.677A3.846,3.846,0,0,1,8054.4,1798.753Zm-128.954-.595a3.841,3.841,0,0,1-1.672-.383q-.716-.343-1.425-.7a3.865,3.865,0,0,1,3.438-6.924c.443.221.889.438,1.336.652a3.866,3.866,0,0,1-1.678,7.35Zm143.762-7.414a3.865,3.865,0,0,1-2.027-7.158c.422-.26.84-.521,1.258-.784a3.865,3.865,0,0,1,4.127,6.535q-.665.421-1.338.834A3.834,3.834,0,0,1,8069.2,1790.744Zm-158.506-.738a3.844,3.844,0,0,1-2.056-.594l-1.325-.844a3.865,3.865,0,0,1,4.176-6.5l1.265.8a3.866,3.866,0,0,1-2.06,7.138Zm172.325-8.879a3.865,3.865,0,0,1-2.385-6.911q.587-.458,1.169-.923a3.865,3.865,0,1,1,4.826,6.038q-.615.491-1.233.974A3.843,3.843,0,0,1,8083.023,1781.127Zm-186.064-.872a3.853,3.853,0,0,1-2.405-.842q-.615-.491-1.228-.99a3.865,3.865,0,1,1,4.883-5.992c.387.313.771.625,1.161.934a3.865,3.865,0,0,1-2.411,6.889Zm198.727-10.228a3.866,3.866,0,0,1-2.705-6.627q.533-.522,1.061-1.05a3.864,3.864,0,1,1,5.464,5.466q-.552.555-1.116,1.107A3.851,3.851,0,0,1,8095.686,1770.027Zm-211.287-.993a3.853,3.853,0,0,1-2.732-1.132l-1.1-1.114a3.865,3.865,0,1,1,5.517-5.414l1.053,1.062a3.865,3.865,0,0,1-2.733,6.6Zm222.637-11.45a3.866,3.866,0,0,1-2.992-6.311q.472-.577.935-1.158a3.865,3.865,0,0,1,6.043,4.821q-.491.617-.989,1.228A3.857,3.857,0,0,1,8107.035,1757.584Zm-233.867-1.1a3.86,3.86,0,0,1-3.023-1.452q-.489-.614-.976-1.233a3.866,3.866,0,0,1,6.091-4.762q.457.586.924,1.168a3.866,3.866,0,0,1-3.016,6.279Zm243.763-12.534a3.867,3.867,0,0,1-3.248-5.958q.406-.627.8-1.26a3.866,3.866,0,0,1,6.547,4.113c-.28.444-.562.889-.845,1.329A3.865,3.865,0,0,1,8116.931,1743.955Zm-253.528-1.184a3.862,3.862,0,0,1-3.272-1.8q-.416-.663-.829-1.329a3.866,3.866,0,0,1,6.581-4.059l.789,1.265a3.868,3.868,0,0,1-3.269,5.927Zm261.837-13.47a3.867,3.867,0,0,1-3.459-5.585q.331-.666.654-1.337a3.865,3.865,0,1,1,6.966,3.352q-.344.714-.7,1.424A3.869,3.869,0,0,1,8125.239,1729.3Zm-270.007-1.25a3.864,3.864,0,0,1-3.48-2.181q-.341-.7-.676-1.413a3.866,3.866,0,0,1,6.992-3.3l.641,1.344a3.867,3.867,0,0,1-3.477,5.551Zm276.621-14.246a3.821,3.821,0,0,1-1.309-.229,3.864,3.864,0,0,1-2.328-4.945l.5-1.416a3.865,3.865,0,1,1,7.3,2.55l-.526,1.483A3.866,3.866,0,0,1,8131.854,1713.8Zm-283.086-1.3a3.864,3.864,0,0,1-3.646-2.586l-.514-1.483a3.866,3.866,0,0,1,7.319-2.489l.487,1.411a3.867,3.867,0,0,1-3.647,5.147Zm287.91-14.844a3.824,3.824,0,0,1-.895-.1,3.867,3.867,0,0,1-2.869-4.654l.34-1.455a3.865,3.865,0,1,1,7.537,1.714l-.354,1.528A3.871,3.871,0,0,1,8136.678,1697.66Zm-292.581-1.336a3.865,3.865,0,0,1-3.766-3.008l-.343-1.532a3.865,3.865,0,0,1,7.554-1.643l.325,1.459a3.87,3.87,0,0,1-3.771,4.724Zm295.555-15.238a3.875,3.875,0,0,1-3.841-4.335q.089-.738.17-1.476a3.865,3.865,0,0,1,7.685.845c-.057.524-.12,1.047-.182,1.568A3.867,3.867,0,0,1,8139.651,1681.086Zm-298.374-1.365a3.868,3.868,0,0,1-3.838-3.432c-.058-.522-.114-1.046-.167-1.568a3.865,3.865,0,0,1,7.691-.777c.05.493.1.985.158,1.478a3.871,3.871,0,0,1-3.845,4.3Zm299.468-15.438h-.034a3.865,3.865,0,0,1-3.83-3.9l.007-1.5v-.317a3.864,3.864,0,1,1,7.729,0l0,.262-.008,1.622A3.867,3.867,0,0,1,8140.745,1664.282Zm-300.412-1.374a3.864,3.864,0,0,1-3.865-3.865l.007-1.571a3.866,3.866,0,0,1,3.862-3.826h.041a3.865,3.865,0,0,1,3.826,3.9l-.006,1.494A3.865,3.865,0,0,1,7840.333,1662.908Zm299.614-15.763a3.864,3.864,0,0,1-3.84-3.465l-.161-1.49a3.866,3.866,0,0,1,7.683-.869l.167,1.558a3.864,3.864,0,0,1-3.443,4.245C8140.216,1647.137,8140.079,1647.145,8139.947,1647.145Zm-298.7-1.051a3.668,3.668,0,0,1-.426-.024,3.866,3.866,0,0,1-3.42-4.264l.181-1.557a3.864,3.864,0,1,1,7.674.916l-.169,1.487A3.868,3.868,0,0,1,7841.248,1646.094Zm296.036-15.575a3.867,3.867,0,0,1-3.774-3.045c-.1-.483-.214-.966-.324-1.448a3.866,3.866,0,0,1,7.533-1.738q.176.771.346,1.543a3.869,3.869,0,0,1-3.78,4.688Zm-293.252-1.032a3.867,3.867,0,0,1-3.771-4.723l.354-1.527a3.865,3.865,0,1,1,7.521,1.783l-.338,1.457A3.866,3.866,0,0,1,7844.032,1629.487Zm288.734-15.192a3.865,3.865,0,0,1-3.659-2.62l-.488-1.414a3.864,3.864,0,1,1,7.292-2.56l.513,1.481a3.867,3.867,0,0,1-3.657,5.112Zm-284.1-1a3.867,3.867,0,0,1-3.65-5.139l.525-1.485a3.866,3.866,0,1,1,7.274,2.618l-.5,1.415A3.866,3.866,0,0,1,7848.665,1613.294Zm277.783-14.609a3.863,3.863,0,0,1-3.493-2.206l-.646-1.349a3.865,3.865,0,1,1,6.954-3.375l.674,1.405a3.867,3.867,0,0,1-3.489,5.525Zm-271.35-.962a3.867,3.867,0,0,1-3.48-5.542c.227-.473.459-.945.689-1.416a3.866,3.866,0,0,1,6.934,3.42l-.657,1.347A3.869,3.869,0,0,1,7855.1,1597.723Zm263.318-13.833a3.865,3.865,0,0,1-3.29-1.831l-.791-1.267a3.864,3.864,0,1,1,6.533-4.127l.832,1.325a3.865,3.865,0,0,1-3.284,5.9Zm-255.175-.916a3.868,3.868,0,0,1-3.272-5.92q.419-.667.846-1.329a3.865,3.865,0,0,1,6.5,4.176c-.269.419-.537.839-.8,1.261A3.864,3.864,0,0,1,7863.242,1582.975Zm245.534-12.889a3.859,3.859,0,0,1-3.044-1.48l-.928-1.169a3.865,3.865,0,0,1,6.034-4.832c.329.408.652.818.977,1.231a3.866,3.866,0,0,1-3.039,6.25Zm-235.792-.855a3.865,3.865,0,0,1-3.018-6.275q.489-.614.987-1.225a3.865,3.865,0,1,1,5.99,4.885q-.47.579-.935,1.162A3.862,3.862,0,0,1,7872.984,1569.23Zm224.669-11.792a3.854,3.854,0,0,1-2.755-1.155q-.52-.53-1.05-1.055a3.866,3.866,0,0,1,5.45-5.484q.558.555,1.109,1.118a3.864,3.864,0,0,1-2.755,6.575Zm-213.451-.776a3.865,3.865,0,0,1-2.736-6.6l1.111-1.1a3.866,3.866,0,0,1,5.421,5.512l-1.062,1.053A3.851,3.851,0,0,1,7884.2,1556.662Zm200.991-10.558a3.846,3.846,0,0,1-2.433-.864q-.58-.471-1.165-.935a3.865,3.865,0,1,1,4.808-6.052q.617.488,1.228.985a3.864,3.864,0,0,1-2.437,6.865Zm-188.448-.684a3.864,3.864,0,0,1-2.415-6.884l1.221-.969a3.865,3.865,0,0,1,4.779,6.076l-1.175.932A3.855,3.855,0,0,1,7896.745,1545.421Zm174.8-9.19a3.847,3.847,0,0,1-2.084-.613q-.63-.4-1.261-.8a3.865,3.865,0,1,1,4.106-6.549q.669.419,1.33.845a3.865,3.865,0,0,1-2.092,7.117Zm-161.083-.582a3.866,3.866,0,0,1-2.068-7.134l1.33-.83a3.865,3.865,0,1,1,4.063,6.576l-1.265.79A3.852,3.852,0,0,1,7910.46,1535.649Zm146.418-7.7a3.858,3.858,0,0,1-1.708-.4q-.668-.33-1.344-.655a3.865,3.865,0,1,1,3.349-6.968c.474.228.947.458,1.417.689a3.866,3.866,0,0,1-1.714,7.332Zm-131.7-.472a3.865,3.865,0,0,1-1.688-7.343c.471-.23.946-.456,1.423-.681a3.866,3.866,0,0,1,3.283,7q-.669.313-1.334.636A3.842,3.842,0,0,1,7925.175,1527.473Zm116.2-6.113a3.872,3.872,0,0,1-1.312-.231c-.467-.169-.937-.335-1.408-.5a3.865,3.865,0,0,1,2.537-7.3c.5.174,1,.349,1.5.529a3.866,3.866,0,0,1-1.312,7.5ZM7940.716,1521a3.866,3.866,0,0,1-1.281-7.513l1.477-.511a3.866,3.866,0,0,1,2.5,7.315l-1.42.49A3.825,3.825,0,0,1,7940.716,1521Zm84.51-4.438a3.911,3.911,0,0,1-.9-.1q-.724-.173-1.452-.337a3.865,3.865,0,1,1,1.7-7.54q.769.174,1.534.354a3.866,3.866,0,0,1-.89,7.628Zm-68.335-.24a3.865,3.865,0,0,1-.862-7.633c.514-.118,1.029-.234,1.543-.345a3.865,3.865,0,0,1,1.634,7.556q-.727.157-1.447.323A3.878,3.878,0,0,1,7956.891,1516.324Zm51.755-2.7a3.758,3.758,0,0,1-.468-.029q-.738-.089-1.479-.171a3.865,3.865,0,1,1,.843-7.684q.785.085,1.564.18a3.866,3.866,0,0,1-.46,7.7Zm-35.158-.123a3.866,3.866,0,0,1-.43-7.707q.782-.089,1.565-.168a3.865,3.865,0,1,1,.787,7.69c-.5.051-.989.1-1.482.16A3.885,3.885,0,0,1,7973.487,1513.5Zm18.349-.952h-.033l-1.5-.005a3.865,3.865,0,0,1,0-7.73l1.564.005a3.865,3.865,0,0,1-.034,7.73Z" transform="translate(-7836.468 -1504.809)"/></g></g></svg>