<svg xmlns="http://www.w3.org/2000/svg" width="316.974" height="317.02" viewBox="0 0 316.974 317.02"><defs><style>.a{fill:#88e2a6;}</style></defs><g transform="translate(-7769.565 -1437.826)"><g transform="translate(7869.307 1537.471)"><path class="a" d="M7965.7,1690.887a2.739,2.739,0,0,1-.093-5.476c.353-.012.7-.028,1.055-.047a2.739,2.739,0,0,1,.293,5.47c-.385.02-.77.038-1.158.051Zm-11.015-.686a2.8,2.8,0,0,1-.44-.035c-.381-.062-.764-.127-1.143-.2a2.739,2.739,0,1,1,.978-5.39c.346.063.691.123,1.038.178a2.739,2.739,0,0,1-.433,5.444Zm23.035-1.041a2.739,2.739,0,0,1-.681-5.392c.342-.088.681-.179,1.02-.272a2.739,2.739,0,0,1,1.464,5.278c-.371.1-.745.2-1.118.3A2.71,2.71,0,0,1,7977.715,1689.161Zm-34.748-2.187a2.712,2.712,0,0,1-1.01-.194q-.543-.216-1.079-.442a2.738,2.738,0,1,1,2.126-5.047c.323.135.649.269.976.4a2.739,2.739,0,0,1-1.013,5.285Zm46.119-2.095a2.739,2.739,0,0,1-1.24-5.182q.467-.237.929-.483a2.739,2.739,0,0,1,2.575,4.834q-.512.273-1.028.535A2.741,2.741,0,0,1,7989.086,1684.878Zm-56.857-3.589a2.723,2.723,0,0,1-1.533-.471q-.484-.327-.959-.663a2.739,2.739,0,1,1,3.167-4.469c.285.2.573.4.863.6a2.74,2.74,0,0,1-1.537,5.009Zm67.027-3.041a2.739,2.739,0,0,1-1.733-4.861c.272-.222.54-.445.806-.672a2.739,2.739,0,1,1,3.549,4.172q-.44.375-.893.744A2.725,2.725,0,0,1,7999.257,1678.249Zm-76.291-4.816a2.726,2.726,0,0,1-1.985-.852q-.4-.42-.789-.846a2.739,2.739,0,1,1,4.04-3.7q.358.39.72.772a2.738,2.738,0,0,1-1.985,4.624Zm84.808-3.839a2.74,2.74,0,0,1-2.146-4.439c.218-.276.436-.554.648-.835a2.739,2.739,0,0,1,4.359,3.319q-.352.461-.711.915A2.732,2.732,0,0,1,8007.774,1669.594Zm-92.176-5.812a2.736,2.736,0,0,1-2.346-1.32q-.3-.494-.589-.994a2.739,2.739,0,0,1,4.738-2.751q.264.456.537.907a2.739,2.739,0,0,1-2.339,4.158Zm98.647-4.466a2.739,2.739,0,0,1-2.458-3.944c.151-.313.3-.629.449-.946a2.739,2.739,0,0,1,4.973,2.3q-.245.532-.5,1.057A2.739,2.739,0,0,1,8014.245,1659.315Zm-103.773-6.542a2.739,2.739,0,0,1-2.593-1.857q-.187-.548-.363-1.1a2.739,2.739,0,0,1,5.219-1.664c.107.336.215.669.329,1a2.741,2.741,0,0,1-2.592,3.623Zm107.88-4.892a2.74,2.74,0,0,1-2.667-3.375c.083-.342.161-.685.237-1.03a2.739,2.739,0,1,1,5.35,1.175q-.125.566-.258,1.127A2.739,2.739,0,0,1,8018.352,1647.881Zm-110.506-6.965a2.739,2.739,0,0,1-2.72-2.444q-.062-.573-.113-1.149a2.738,2.738,0,1,1,5.454-.492c.032.352.068.7.1,1.052a2.738,2.738,0,0,1-2.429,3.018A2.7,2.7,0,0,1,7907.846,1640.916Zm112.041-5.081h-.056a2.738,2.738,0,0,1-2.682-2.794c.006-.35.01-.7.01-1.051v-.228a2.739,2.739,0,1,1,5.478,0v.19c0,.427,0,.814-.012,1.2A2.738,2.738,0,0,1,8019.887,1635.835Zm-112.06-7.063a2.743,2.743,0,0,1-2.727-3.024q.06-.58.134-1.156a2.738,2.738,0,1,1,5.433.686c-.042.345-.083.692-.119,1.041A2.739,2.739,0,0,1,7907.827,1628.772Zm110.946-5.256a2.74,2.74,0,0,1-2.682-2.2c-.069-.342-.141-.684-.219-1.024a2.74,2.74,0,0,1,5.348-1.193c.083.378.165.758.241,1.139a2.742,2.742,0,0,1-2.687,3.279ZM7910.4,1616.9a2.74,2.74,0,0,1-2.6-3.609q.184-.548.375-1.092a2.739,2.739,0,1,1,5.165,1.825q-.177.5-.347,1.007A2.741,2.741,0,0,1,7910.4,1616.9Zm104.688-4.958a2.739,2.739,0,0,1-2.506-1.632q-.212-.479-.434-.953a2.738,2.738,0,1,1,4.963-2.315c.163.35.325.7.481,1.054a2.74,2.74,0,0,1-2.5,3.846Zm-99.609-6.077a2.74,2.74,0,0,1-2.345-4.151c.2-.332.4-.663.608-.991a2.739,2.739,0,0,1,4.638,2.916c-.187.3-.371.6-.552.9A2.737,2.737,0,0,1,7915.478,1605.868Zm93.51-4.42a2.735,2.735,0,0,1-2.21-1.119q-.311-.423-.631-.839a2.739,2.739,0,0,1,4.351-3.329q.352.46.7.928a2.738,2.738,0,0,1-2.2,4.359Zm-86.172-5.264a2.739,2.739,0,0,1-2-4.615q.4-.423.8-.838a2.739,2.739,0,1,1,3.913,3.833q-.367.375-.727.757A2.732,2.732,0,0,1,7922.815,1596.185Zm77.958-3.686a2.722,2.722,0,0,1-1.805-.681q-.4-.348-.8-.689a2.739,2.739,0,1,1,3.537-4.182c.294.249.588.5.876.756a2.739,2.739,0,0,1-1.808,4.8Zm-68.722-4.2a2.738,2.738,0,0,1-1.548-5q.478-.327.963-.645a2.739,2.739,0,0,1,3,4.583q-.44.288-.873.585A2.727,2.727,0,0,1,7932.051,1588.294Zm58.788-2.782a2.726,2.726,0,0,1-1.328-.344c-.3-.169-.613-.334-.922-.5a2.739,2.739,0,1,1,2.551-4.847q.519.272,1.029.556a2.739,2.739,0,0,1-1.331,5.134Zm-48.08-2.941a2.739,2.739,0,0,1-1.022-5.28c.359-.144.719-.285,1.082-.422a2.739,2.739,0,1,1,1.942,5.121q-.494.188-.982.384A2.743,2.743,0,0,1,7942.759,1582.571Zm36.875-1.744a2.725,2.725,0,0,1-.773-.112c-.336-.1-.676-.2-1.014-.288a2.739,2.739,0,1,1,1.443-5.284c.373.1.745.208,1.114.317a2.739,2.739,0,0,1-.77,5.367Zm-25.186-1.531a2.739,2.739,0,0,1-.442-5.442c.379-.063.762-.122,1.144-.178a2.739,2.739,0,0,1,.788,5.421c-.348.05-.7.1-1.04.161A2.733,2.733,0,0,1,7954.449,1579.3Zm13.236-.62c-.065,0-.129,0-.195-.007q-.524-.037-1.052-.064a2.738,2.738,0,1,1,.278-5.47c.387.019.771.042,1.156.069a2.739,2.739,0,0,1-.187,5.472Z" transform="translate(-7905.001 -1573.13)"/></g><g transform="translate(7904.147 1571.968)"><path class="a" d="M7973.113,1668.579a2.653,2.653,0,0,1-.386-.028c-.42-.059-.836-.129-1.25-.209a2.739,2.739,0,1,1,1.045-5.377c.322.063.646.117.974.164a2.739,2.739,0,0,1-.382,5.451Zm11.066-1.309a2.739,2.739,0,0,1-1.011-5.285c.307-.121.607-.25.905-.385a2.739,2.739,0,0,1,2.278,4.981q-.575.263-1.166.5A2.733,2.733,0,0,1,7984.179,1667.271Zm-22.2-3.759a2.729,2.729,0,0,1-1.79-.667q-.481-.415-.939-.856a2.738,2.738,0,0,1,3.793-3.95c.238.227.479.448.728.663a2.739,2.739,0,0,1-1.792,4.81Zm31.838-3.768a2.738,2.738,0,0,1-2.22-4.34q.285-.4.552-.811a2.738,2.738,0,1,1,4.609,2.959q-.343.537-.717,1.054A2.733,2.733,0,0,1,7993.814,1659.743Zm-38.473-6.508a2.737,2.737,0,0,1-2.625-1.964q-.181-.607-.329-1.228a2.739,2.739,0,0,1,5.327-1.274c.077.321.163.638.254.951a2.739,2.739,0,0,1-2.627,3.514Zm42.524-5.034c-.047,0-.095,0-.143,0a2.74,2.74,0,0,1-2.595-2.877q.025-.49.025-.985a2.778,2.778,0,0,1,2.74-2.784,2.7,2.7,0,0,1,2.739,2.693v.09c0,.425-.012.848-.033,1.268A2.739,2.739,0,0,1,7997.865,1648.2Zm-42.549-7.2a2.742,2.742,0,0,1-2.632-3.5q.179-.618.39-1.219a2.739,2.739,0,0,1,5.169,1.815q-.163.458-.3.928A2.74,2.74,0,0,1,7955.316,1641Zm39.679-4.782a2.735,2.735,0,0,1-2.372-1.365q-.248-.426-.517-.841a2.739,2.739,0,1,1,4.594-2.983q.344.529.661,1.077a2.739,2.739,0,0,1-2.367,4.113Zm-33.088-5.524a2.739,2.739,0,0,1-1.8-4.8c.317-.276.645-.547.977-.808a2.739,2.739,0,0,1,3.385,4.307q-.387.305-.759.629A2.732,2.732,0,0,1,7961.907,1630.7Zm24.238-2.922a2.726,2.726,0,0,1-1.257-.307q-.439-.227-.888-.431a2.739,2.739,0,1,1,2.261-4.989q.579.263,1.145.554a2.74,2.74,0,0,1-1.261,5.172Zm-13.132-2.192a2.739,2.739,0,0,1-.393-5.45c.416-.061.836-.111,1.258-.15a2.739,2.739,0,0,1,.513,5.453q-.493.046-.98.117A2.765,2.765,0,0,1,7973.012,1625.585Z" transform="translate(-7952.311 -1619.972)"/></g><g transform="translate(7836.125 1504.331)"><path class="a" d="M7948.891,1712.1l-.092,0c-.372-.011-.745-.026-1.115-.043a2.739,2.739,0,0,1,.244-5.472q.524.023,1.05.04a2.739,2.739,0,0,1-.086,5.476Zm10.831-.3a2.738,2.738,0,0,1-.234-5.467c.35-.031.7-.063,1.047-.1a2.739,2.739,0,0,1,.544,5.451q-.558.055-1.115.1C7959.883,1711.8,7959.8,1711.807,7959.722,1711.807Zm-22.693-.877a2.7,2.7,0,0,1-.453-.038q-.555-.091-1.106-.191a2.739,2.739,0,1,1,.974-5.39c.342.061.686.121,1.03.178a2.739,2.739,0,0,1-.446,5.441Zm34.478-.954a2.739,2.739,0,0,1-.6-5.411c.344-.078.685-.157,1.029-.238a2.739,2.739,0,0,1,1.265,5.33q-.543.128-1.086.251A2.766,2.766,0,0,1,7971.506,1709.977Zm-46.083-1.794a2.762,2.762,0,0,1-.811-.123c-.357-.111-.716-.224-1.07-.339a2.738,2.738,0,1,1,1.683-5.212c.333.107.668.214,1.006.318a2.739,2.739,0,0,1-.808,5.356Zm57.516-1.6a2.739,2.739,0,0,1-.957-5.306c.331-.123.659-.246.988-.373a2.739,2.739,0,0,1,1.97,5.111q-.519.2-1.044.4A2.748,2.748,0,0,1,7982.939,1706.584Zm-68.659-2.686a2.724,2.724,0,0,1-1.15-.255q-.511-.237-1.016-.48a2.738,2.738,0,1,1,2.37-4.937q.474.227.952.448a2.739,2.739,0,0,1-1.155,5.224Zm79.535-2.211a2.739,2.739,0,0,1-1.291-5.155q.461-.246.919-.5a2.739,2.739,0,0,1,2.643,4.8c-.327.179-.655.356-.983.532A2.731,2.731,0,0,1,7993.815,1701.687Zm-90-3.527a2.737,2.737,0,0,1-1.476-.432q-.467-.3-.935-.607a2.739,2.739,0,1,1,3-4.581c.294.193.589.385.886.575a2.739,2.739,0,0,1-1.479,5.045Zm100.112-2.775a2.738,2.738,0,0,1-1.6-4.962q.424-.306.845-.616a2.739,2.739,0,1,1,3.258,4.4q-.45.334-.905.661A2.729,2.729,0,0,1,8003.931,1695.384Zm-109.712-4.3a2.722,2.722,0,0,1-1.768-.649l-.846-.722a2.739,2.739,0,0,1,3.58-4.147l.8.689a2.738,2.738,0,0,1-1.771,4.829Zm118.9-3.289a2.739,2.739,0,0,1-1.878-4.732q.382-.36.759-.725a2.738,2.738,0,1,1,3.808,3.937q-.4.39-.81.774A2.73,2.73,0,0,1,8013.119,1687.793Zm-127.473-5a2.734,2.734,0,0,1-2.03-.9q-.376-.415-.745-.832a2.739,2.739,0,0,1,4.1-3.631q.348.394.7.784a2.74,2.74,0,0,1-2.029,4.578Zm135.58-3.747a2.74,2.74,0,0,1-2.125-4.465q.33-.409.658-.82a2.739,2.739,0,0,1,4.3,3.4q-.349.44-.7.874A2.735,2.735,0,0,1,8021.225,1679.048Zm-142.977-5.6a2.737,2.737,0,0,1-2.261-1.188q-.315-.459-.625-.92a2.739,2.739,0,0,1,4.547-3.053c.2.292.394.583.592.871a2.739,2.739,0,0,1-2.254,4.29ZM8028.1,1669.3a2.739,2.739,0,0,1-2.336-4.164c.182-.3.364-.6.545-.905a2.738,2.738,0,1,1,4.709,2.8q-.284.481-.577.958A2.738,2.738,0,0,1,8028.1,1669.3Zm-155.943-6.1a2.739,2.739,0,0,1-2.446-1.5q-.25-.493-.5-.991a2.739,2.739,0,1,1,4.913-2.424l.471.943a2.739,2.739,0,0,1-2.441,3.975Zm161.461-4.48a2.738,2.738,0,0,1-2.5-3.846c.141-.32.278-.642.416-.965a2.739,2.739,0,0,1,5.041,2.145q-.22.519-.447,1.034A2.738,2.738,0,0,1,8033.619,1658.724Zm-166.128-6.489a2.743,2.743,0,0,1-2.587-1.839q-.184-.529-.36-1.06a2.738,2.738,0,1,1,5.195-1.734c.112.332.223.663.34.994a2.74,2.74,0,0,1-2.587,3.639Zm170.184-4.735a2.74,2.74,0,0,1-2.633-3.494c.1-.336.189-.672.282-1.01a2.739,2.739,0,0,1,5.285,1.441q-.149.54-.3,1.079A2.74,2.74,0,0,1,8037.674,1647.5Zm-173.343-6.764a2.738,2.738,0,0,1-2.68-2.2l-.215-1.09a2.739,2.739,0,0,1,5.379-1.035l.2,1.038a2.743,2.743,0,0,1-2.688,3.283Zm175.85-4.892a2.684,2.684,0,0,1-.392-.029,2.739,2.739,0,0,1-2.323-3.1l.146-1.05a2.739,2.739,0,0,1,5.429.729l-.153,1.1A2.74,2.74,0,0,1,8040.181,1635.843Zm-177.435-6.926a2.739,2.739,0,0,1-2.729-2.553c-.026-.374-.048-.749-.067-1.123a2.738,2.738,0,1,1,5.468-.293c.02.348.04.7.064,1.042a2.739,2.739,0,0,1-2.547,2.92C7862.873,1628.915,7862.81,1628.917,7862.746,1628.917Zm178.362-4.963h-.033a2.738,2.738,0,0,1-2.707-2.771q.005-.525.005-1.052v-.178a2.739,2.739,0,0,1,5.479,0v.178q0,.559-.007,1.118A2.739,2.739,0,0,1,8041.107,1623.954Zm-178.366-6.962c-.062,0-.121,0-.183-.005a2.738,2.738,0,0,1-2.554-2.911q.036-.558.08-1.115a2.738,2.738,0,1,1,5.46.421c-.027.35-.052.7-.073,1.05A2.742,2.742,0,0,1,7862.741,1616.993Zm177.7-5.121a2.737,2.737,0,0,1-2.714-2.4l-.136-1.051a2.739,2.739,0,0,1,5.429-.731l.142,1.1a2.739,2.739,0,0,1-2.377,3.057A2.929,2.929,0,0,1,8040.44,1611.871Zm-176.136-6.7a2.741,2.741,0,0,1-2.687-3.282l.226-1.088a2.738,2.738,0,1,1,5.357,1.136l-.215,1.037A2.737,2.737,0,0,1,7864.3,1605.173Zm173.892-5.011a2.739,2.739,0,0,1-2.647-2.052q-.131-.5-.27-1.006a2.738,2.738,0,1,1,5.278-1.46q.152.543.293,1.09a2.741,2.741,0,0,1-2.654,3.428Zm-170.762-6.5a2.74,2.74,0,0,1-2.588-3.634q.184-.532.375-1.061a2.739,2.739,0,1,1,5.153,1.858q-.178.494-.352.993A2.738,2.738,0,0,1,7867.434,1593.661Zm166.972-4.8a2.739,2.739,0,0,1-2.532-1.692c-.134-.324-.269-.647-.407-.969a2.739,2.739,0,1,1,5.039-2.149q.216.51.429,1.023a2.74,2.74,0,0,1-2.529,3.787Zm-162.319-6.186a2.74,2.74,0,0,1-2.442-3.976l.5-.987a2.739,2.739,0,1,1,4.868,2.511l-.486.949A2.734,2.734,0,0,1,7872.087,1582.671Zm157.051-4.5a2.739,2.739,0,0,1-2.374-1.37c-.174-.3-.351-.6-.528-.9a2.739,2.739,0,0,1,4.7-2.809q.289.481.57.968a2.741,2.741,0,0,1-2.371,4.109Zm-150.972-5.766a2.739,2.739,0,0,1-2.254-4.292q.315-.459.637-.915a2.738,2.738,0,1,1,4.479,3.153q-.3.432-.6.869A2.735,2.735,0,0,1,7878.166,1572.406Zm144.321-4.126a2.733,2.733,0,0,1-2.171-1.066q-.319-.413-.643-.823a2.739,2.739,0,1,1,4.29-3.407q.349.439.69.883a2.738,2.738,0,0,1-2.166,4.412Zm-136.931-5.238a2.74,2.74,0,0,1-2.033-4.576q.376-.416.757-.827a2.739,2.739,0,0,1,4.016,3.726q-.357.385-.709.775A2.73,2.73,0,0,1,7885.556,1563.043Zm129.026-3.686a2.736,2.736,0,0,1-1.926-.79q-.375-.371-.753-.736a2.739,2.739,0,0,1,3.8-3.941q.4.387.8.78a2.739,2.739,0,0,1-1.924,4.688Zm-120.46-4.613a2.738,2.738,0,0,1-1.771-4.829c.282-.24.569-.479.855-.716a2.739,2.739,0,1,1,3.491,4.221q-.406.335-.808.675A2.724,2.724,0,0,1,7894.121,1554.744Zm111.435-3.187a2.729,2.729,0,0,1-1.649-.554q-.419-.316-.841-.627a2.738,2.738,0,1,1,3.241-4.415c.3.221.6.445.9.671a2.739,2.739,0,0,1-1.653,4.924Zm-101.851-3.9a2.74,2.74,0,0,1-1.479-5.045q.471-.3.947-.6a2.739,2.739,0,1,1,2.893,4.652q-.445.276-.884.559A2.728,2.728,0,0,1,7903.705,1547.656Zm91.873-2.632a2.718,2.718,0,0,1-1.341-.353q-.461-.258-.924-.512a2.739,2.739,0,1,1,2.63-4.805q.491.268.979.543a2.74,2.74,0,0,1-1.344,5.127Zm-81.434-3.115a2.74,2.74,0,0,1-1.162-5.221c.338-.157.676-.313,1.015-.466a2.739,2.739,0,0,1,2.253,4.993c-.318.144-.634.289-.95.436A2.723,2.723,0,0,1,7914.144,1541.908Zm70.668-2.031a2.733,2.733,0,0,1-1.009-.194c-.327-.13-.656-.258-.983-.384a2.739,2.739,0,1,1,1.959-5.116c.351.134.7.271,1.044.408a2.739,2.739,0,0,1-1.012,5.285Zm-59.554-2.27a2.739,2.739,0,0,1-.813-5.354c.359-.11.715-.219,1.073-.326a2.739,2.739,0,0,1,1.56,5.251q-.5.151-1,.306A2.748,2.748,0,0,1,7925.258,1537.608Zm48.2-1.384a2.748,2.748,0,0,1-.666-.083c-.339-.084-.679-.167-1.019-.246a2.739,2.739,0,0,1,1.256-5.333c.363.086.729.174,1.091.265a2.739,2.739,0,0,1-.662,5.4Zm-36.6-1.387a2.739,2.739,0,0,1-.451-5.44q.553-.094,1.1-.18a2.739,2.739,0,1,1,.844,5.413c-.347.054-.694.111-1.038.168A2.766,2.766,0,0,1,7936.854,1534.837Zm24.864-.709a2.826,2.826,0,0,1-.3-.017q-.521-.058-1.044-.108a2.739,2.739,0,1,1,.533-5.452q.56.054,1.113.116a2.739,2.739,0,0,1-.3,5.461Zm-13-.488a2.739,2.739,0,0,1-.091-5.476c.372-.013.743-.023,1.116-.031a2.7,2.7,0,0,1,2.8,2.677,2.739,2.739,0,0,1-2.676,2.8q-.527.011-1.051.029Z" transform="translate(-7859.945 -1528.132)"/></g><g transform="translate(7852.322 1520.818)"><path class="a" d="M7962.606,1701.55a2.739,2.739,0,0,1-.181-5.471c.352-.024.7-.05,1.053-.079a2.739,2.739,0,0,1,.45,5.46q-.567.047-1.135.084C7962.731,1701.548,7962.669,1701.55,7962.606,1701.55Zm-10.943-.073c-.074,0-.149,0-.225-.009-.379-.03-.757-.064-1.136-.1a2.739,2.739,0,0,1,.528-5.452q.524.051,1.049.094a2.739,2.739,0,0,1-.217,5.468Zm22.852-1.726a2.739,2.739,0,0,1-.628-5.4q.514-.122,1.026-.25a2.738,2.738,0,1,1,1.339,5.311c-.367.094-.736.184-1.1.271A2.783,2.783,0,0,1,7974.516,1699.752Zm-34.735-.234a2.724,2.724,0,0,1-.67-.083q-.553-.139-1.1-.286a2.739,2.739,0,1,1,1.415-5.292c.338.09.68.179,1.021.265a2.739,2.739,0,0,1-.666,5.4Zm46.186-3.51a2.739,2.739,0,0,1-1.059-5.266q.482-.2.958-.412a2.739,2.739,0,0,1,2.209,5.014c-.348.153-.7.3-1.05.451A2.722,2.722,0,0,1,7985.966,1696.009Zm-57.592-.392a2.723,2.723,0,0,1-1.1-.231q-.524-.229-1.042-.466a2.738,2.738,0,1,1,2.275-4.982c.319.145.642.289.964.431a2.739,2.739,0,0,1-1.1,5.248Zm68.256-5.188a2.739,2.739,0,0,1-1.474-5.049c.3-.189.6-.381.891-.574a2.739,2.739,0,1,1,3,4.583q-.472.308-.947.61A2.721,2.721,0,0,1,7996.63,1690.428Zm-78.855-.547a2.726,2.726,0,0,1-1.5-.447q-.476-.312-.95-.63a2.739,2.739,0,1,1,3.069-4.539q.437.3.879.585a2.739,2.739,0,0,1-1.5,5.031Zm88.458-6.714a2.739,2.739,0,0,1-1.829-4.779c.262-.234.524-.47.781-.71a2.739,2.739,0,0,1,3.715,4.027q-.419.385-.841.764A2.729,2.729,0,0,1,8006.232,1683.167Zm-97.966-.684a2.73,2.73,0,0,1-1.854-.724q-.417-.383-.83-.775a2.739,2.739,0,1,1,3.768-3.975q.383.362.772.72a2.739,2.739,0,0,1-1.856,4.754Zm106.252-8.054a2.739,2.739,0,0,1-2.133-4.453c.221-.275.438-.551.656-.829a2.739,2.739,0,1,1,4.32,3.367c-.231.3-.468.6-.7.892A2.736,2.736,0,0,1,8014.519,1674.429Zm-114.416-.8a2.736,2.736,0,0,1-2.162-1.053q-.349-.448-.692-.9a2.739,2.739,0,0,1,4.368-3.307q.318.421.643.837a2.739,2.739,0,0,1-2.156,4.424Zm121.164-9.183a2.74,2.74,0,0,1-2.381-4.089q.258-.456.506-.916a2.738,2.738,0,1,1,4.816,2.607c-.182.337-.366.673-.556,1.008A2.738,2.738,0,0,1,8021.266,1664.449Zm-127.769-.883a2.735,2.735,0,0,1-2.406-1.428q-.273-.5-.537-1.006a2.738,2.738,0,1,1,4.852-2.538c.164.309.327.616.494.922a2.74,2.74,0,0,1-2.4,4.051Zm132.783-10.078a2.74,2.74,0,0,1-2.576-3.667q.178-.5.35-1a2.738,2.738,0,1,1,5.182,1.773c-.123.361-.25.721-.379,1.08A2.739,2.739,0,0,1,8026.28,1653.488Zm-137.64-.941a2.74,2.74,0,0,1-2.59-1.849q-.183-.535-.362-1.074a2.739,2.739,0,0,1,5.2-1.713q.166.5.339,1a2.742,2.742,0,0,1-2.59,3.63Zm140.768-10.695a2.689,2.689,0,0,1-.494-.045,2.738,2.738,0,0,1-2.205-3.184q.094-.517.181-1.038a2.738,2.738,0,1,1,5.4.9q-.093.563-.194,1.122A2.739,2.739,0,0,1,8029.408,1641.852Zm-143.733-.978a2.739,2.739,0,0,1-2.7-2.29q-.093-.556-.179-1.116a2.738,2.738,0,0,1,5.413-.834c.055.351.11.7.167,1.05a2.74,2.74,0,0,1-2.7,3.189Zm144.891-11.009h-.041a2.739,2.739,0,0,1-2.7-2.778q.007-.527.008-1.056v-.2a2.739,2.739,0,1,1,5.477,0v.2q0,.569-.007,1.137A2.741,2.741,0,0,1,8030.566,1629.866Zm-145.889-1.046a2.7,2.7,0,0,1-2.738-2.688v-.1c0-.344,0-.687.006-1.03a2.74,2.74,0,0,1,2.738-2.7h.037a2.74,2.74,0,0,1,2.7,2.774q-.007.48-.007.959A2.783,2.783,0,0,1,7884.678,1628.82Zm145.053-11.171a2.738,2.738,0,0,1-2.7-2.323c-.053-.349-.108-.695-.168-1.042a2.739,2.739,0,0,1,5.4-.915q.094.56.181,1.123a2.738,2.738,0,0,1-2.289,3.123A2.842,2.842,0,0,1,8029.73,1617.649Zm-144.083-.781a2.788,2.788,0,0,1-.445-.036,2.74,2.74,0,0,1-2.262-3.144q.092-.562.192-1.122a2.738,2.738,0,1,1,5.392.963q-.092.519-.177,1.039A2.74,2.74,0,0,1,7885.647,1616.868Zm141.282-10.931a2.738,2.738,0,0,1-2.6-1.883q-.165-.5-.336-1a2.739,2.739,0,1,1,5.174-1.8c.125.359.245.72.365,1.081a2.742,2.742,0,0,1-2.6,3.6Zm-138.355-.751a2.74,2.74,0,0,1-2.591-3.626q.185-.541.377-1.079a2.739,2.739,0,1,1,5.154,1.854c-.12.332-.235.664-.35,1A2.738,2.738,0,0,1,7888.575,1605.185Zm133.651-10.337a2.74,2.74,0,0,1-2.428-1.468q-.242-.465-.494-.923a2.739,2.739,0,0,1,4.81-2.623c.18.333.361.667.537,1a2.74,2.74,0,0,1-2.425,4.011Zm-128.823-.706a2.742,2.742,0,0,1-2.408-4.042c.182-.334.364-.667.55-1a2.738,2.738,0,1,1,4.78,2.674q-.259.461-.51.928A2.738,2.738,0,0,1,7893.4,1594.142Zm122.357-9.447a2.733,2.733,0,0,1-2.181-1.08q-.322-.422-.647-.839a2.738,2.738,0,1,1,4.314-3.374q.348.444.69.9a2.739,2.739,0,0,1-2.177,4.4Zm-115.774-.645a2.739,2.739,0,0,1-2.16-4.42q.349-.448.7-.89a2.739,2.739,0,1,1,4.279,3.42q-.33.413-.657.832A2.736,2.736,0,0,1,7899.986,1584.05Zm107.728-8.316a2.73,2.73,0,0,1-1.881-.748q-.382-.362-.771-.718a2.739,2.739,0,1,1,3.7-4.038q.419.386.833.775a2.739,2.739,0,0,1-1.882,4.729Zm-99.577-.557a2.74,2.74,0,0,1-1.859-4.752c.279-.256.557-.51.838-.762a2.739,2.739,0,0,1,3.659,4.075q-.394.355-.782.713A2.733,2.733,0,0,1,7908.137,1575.177Zm90.17-6.967a2.728,2.728,0,0,1-1.527-.467c-.292-.2-.584-.391-.88-.583a2.739,2.739,0,1,1,2.985-4.592q.478.311.952.63a2.74,2.74,0,0,1-1.53,5.012Zm-80.683-.45a2.739,2.739,0,0,1-1.5-5.029q.469-.309.943-.612a2.739,2.739,0,0,1,2.952,4.615q-.448.285-.892.577A2.731,2.731,0,0,1,7917.624,1567.76Zm70.162-5.429a2.725,2.725,0,0,1-1.135-.248q-.478-.219-.961-.429a2.739,2.739,0,0,1,2.191-5.02q.524.23,1.045.467a2.739,2.739,0,0,1-1.14,5.23Zm-59.593-.327a2.739,2.739,0,0,1-1.109-5.244c.347-.153.695-.3,1.046-.452a2.739,2.739,0,1,1,2.129,5.047q-.483.2-.959.415A2.735,2.735,0,0,1,7928.193,1562Zm48.248-3.732a2.732,2.732,0,0,1-.709-.094c-.338-.091-.677-.178-1.019-.264a2.739,2.739,0,1,1,1.33-5.313c.369.092.738.188,1.1.286a2.739,2.739,0,0,1-.705,5.385Zm-36.871-.2a2.74,2.74,0,0,1-.672-5.395q.552-.139,1.1-.271a2.739,2.739,0,0,1,1.269,5.328q-.514.123-1.025.253A2.747,2.747,0,0,1,7939.57,1558.073Zm25.018-1.925c-.088,0-.175,0-.264-.012q-.522-.051-1.047-.092a2.739,2.739,0,0,1,.432-5.461q.568.045,1.137.1a2.739,2.739,0,0,1-.258,5.465Zm-13.143-.07a2.739,2.739,0,0,1-.226-5.468q.567-.046,1.135-.086a2.739,2.739,0,1,1,.376,5.464q-.527.036-1.053.08C7951.6,1556.076,7951.521,1556.079,7951.445,1556.079Z" transform="translate(-7881.939 -1550.518)"/></g><g transform="translate(7885.956 1554.272)"><path class="a" d="M7969.7,1680.058h-.039q-.582,0-1.162-.016a2.739,2.739,0,1,1,.155-5.475c.333.01.67.014,1.007.014a2.754,2.754,0,0,1,2.758,2.739A2.722,2.722,0,0,1,7969.7,1680.058Zm11.068-1.591a2.739,2.739,0,0,1-.769-5.367c.334-.1.665-.2,1-.308a2.739,2.739,0,0,1,1.694,5.209q-.571.185-1.148.355A2.732,2.732,0,0,1,7980.77,1678.466Zm-23.214-.308a2.737,2.737,0,0,1-.843-.133q-.573-.186-1.139-.387a2.738,2.738,0,1,1,1.831-5.162c.331.117.661.23.995.337a2.739,2.739,0,0,1-.843,5.345Zm34.32-4.972a2.739,2.739,0,0,1-1.551-5c.287-.2.57-.4.85-.6a2.739,2.739,0,1,1,3.227,4.427q-.485.354-.979.692A2.727,2.727,0,0,1,7991.876,1673.187Zm-45.284-.605a2.723,2.723,0,0,1-1.607-.522q-.486-.352-.962-.719a2.739,2.739,0,1,1,3.342-4.34c.277.214.557.422.837.627a2.738,2.738,0,0,1-1.61,4.955Zm54.212-7.84a2.739,2.739,0,0,1-2.167-4.411q.319-.415.628-.838a2.739,2.739,0,0,1,4.429,3.223c-.236.323-.475.643-.721.96A2.733,2.733,0,0,1,8000.8,1664.741Zm-62.915-.843a2.735,2.735,0,0,1-2.214-1.123q-.356-.487-.7-.984a2.739,2.739,0,0,1,4.521-3.093c.194.286.4.567.6.846a2.738,2.738,0,0,1-2.208,4.354Zm68.816-9.946a2.741,2.741,0,0,1-2.58-3.662c.119-.327.229-.655.335-.986a2.739,2.739,0,0,1,5.213,1.685c-.124.384-.255.766-.389,1.145A2.741,2.741,0,0,1,8006.705,1653.951Zm-74.424-.993a2.739,2.739,0,0,1-2.6-1.893q-.186-.568-.355-1.143a2.738,2.738,0,1,1,5.253-1.55c.1.334.2.668.311,1a2.74,2.74,0,0,1-2.606,3.587Zm76.682-11.095h-.079a2.74,2.74,0,0,1-2.66-2.817q.015-.519.016-1.044v-.152a2.739,2.739,0,1,1,5.477,0V1638q0,.6-.017,1.2A2.739,2.739,0,0,1,8008.963,1641.864Zm-78.616-1.084a2.706,2.706,0,0,1-2.738-2.7V1638q0-.562.014-1.121a2.772,2.772,0,0,1,2.814-2.662,2.738,2.738,0,0,1,2.661,2.814c-.007.322-.012.645-.012.97A2.771,2.771,0,0,1,7930.347,1640.78Zm77.006-11.255a2.74,2.74,0,0,1-2.624-1.959q-.149-.5-.312-1a2.74,2.74,0,0,1,5.205-1.711q.188.569.358,1.147a2.741,2.741,0,0,1-2.627,3.519Zm-75.117-.854a2.741,2.741,0,0,1-2.608-3.581c.125-.382.252-.763.386-1.141a2.739,2.739,0,0,1,5.164,1.831c-.117.329-.228.659-.336.993A2.741,2.741,0,0,1,7932.236,1628.671Zm69.809-10.234a2.736,2.736,0,0,1-2.254-1.18c-.2-.288-.4-.573-.608-.854a2.739,2.739,0,0,1,4.422-3.235c.234.321.463.644.691.972a2.739,2.739,0,0,1-2.25,4.3Zm-64.247-.733a2.739,2.739,0,0,1-2.216-4.344q.352-.489.722-.969a2.739,2.739,0,0,1,4.338,3.346q-.318.411-.622.832A2.735,2.735,0,0,1,7937.8,1617.7Zm55.77-8.175a2.728,2.728,0,0,1-1.67-.57c-.274-.21-.55-.417-.831-.62a2.738,2.738,0,1,1,3.2-4.441c.328.236.652.477.97.722a2.738,2.738,0,0,1-1.673,4.909Zm-47.089-.541a2.739,2.739,0,0,1-1.619-4.95q.48-.351.969-.689a2.739,2.739,0,0,1,3.122,4.5q-.433.3-.859.609A2.72,2.72,0,0,1,7946.479,1608.988Zm36.286-5.325a2.725,2.725,0,0,1-.913-.157c-.33-.116-.659-.228-.991-.334a2.739,2.739,0,1,1,1.672-5.216c.385.123.765.251,1.145.386a2.739,2.739,0,0,1-.913,5.321Zm-25.356-.29a2.739,2.739,0,0,1-.85-5.343c.378-.124.76-.242,1.141-.356a2.739,2.739,0,0,1,1.561,5.251c-.336.1-.669.2-1,.311A2.734,2.734,0,0,1,7957.409,1603.374Zm13.262-1.935h-.071q-.467-.012-.937-.012h-.114a2.739,2.739,0,0,1,0-5.478h.075c.4-.014.758,0,1.116.013a2.738,2.738,0,0,1-.068,5.476Z" transform="translate(-7927.609 -1595.944)"/></g><g transform="translate(7801.934 1470.253)"><path class="a" d="M7939.658,1734.013l-1.121,0a2.739,2.739,0,0,1,.021-5.478h.021l1.014,0a2.766,2.766,0,0,1,2.772,2.739A2.711,2.711,0,0,1,7939.658,1734.013Zm10.989-.489a2.739,2.739,0,0,1-.237-5.468c.357-.032.712-.064,1.067-.1a2.739,2.739,0,1,1,.535,5.451q-.56.055-1.123.1C7950.808,1733.52,7950.727,1733.524,7950.647,1733.524Zm-23.072-.09c-.088,0-.176,0-.266-.012l-1.121-.113a2.739,2.739,0,0,1,.576-5.448l1.072.109a2.739,2.739,0,0,1-.261,5.464Zm35.055-1.57a2.739,2.739,0,0,1-.506-5.43l1.06-.206a2.739,2.739,0,0,1,1.063,5.374l-1.1.214A2.767,2.767,0,0,1,7962.63,1731.864Zm-47.026-.183a2.743,2.743,0,0,1-.534-.052l-1.1-.222a2.739,2.739,0,0,1,1.1-5.365l1.058.214a2.739,2.739,0,0,1-.528,5.426Zm58.793-2.647a2.739,2.739,0,0,1-.771-5.368l1.032-.307a2.739,2.739,0,1,1,1.59,5.242l-1.078.321A2.74,2.74,0,0,1,7974.4,1729.034Zm-70.538-.277a2.751,2.751,0,0,1-.792-.117c-.362-.109-.722-.22-1.084-.334a2.739,2.739,0,0,1,1.637-5.227q.513.16,1.03.316a2.739,2.739,0,0,1-.791,5.361Zm81.968-3.7a2.739,2.739,0,0,1-1.027-5.279q.5-.2.989-.4a2.739,2.739,0,1,1,2.1,5.057q-.519.215-1.04.426A2.741,2.741,0,0,1,7985.827,1725.055Zm-93.375-.371a2.721,2.721,0,0,1-1.045-.209l-1.042-.436A2.739,2.739,0,0,1,7892.5,1719l1,.417a2.739,2.739,0,0,1-1.048,5.27Zm104.35-4.712a2.739,2.739,0,0,1-1.275-5.165l.948-.5a2.739,2.739,0,1,1,2.588,4.828l-.99.525A2.725,2.725,0,0,1,7996.8,1719.972Zm-115.3-.466a2.722,2.722,0,0,1-1.289-.324l-.989-.535a2.738,2.738,0,1,1,2.618-4.81l.953.515a2.739,2.739,0,0,1-1.292,5.155Zm125.72-5.671a2.739,2.739,0,0,1-1.5-5.031c.3-.2.6-.392.891-.591a2.739,2.739,0,0,1,3.051,4.549c-.312.209-.625.417-.94.624A2.726,2.726,0,0,1,8007.226,1713.835Zm-136.1-.555a2.726,2.726,0,0,1-1.521-.462q-.469-.314-.935-.631a2.739,2.739,0,1,1,3.086-4.526l.891.6a2.74,2.74,0,0,1-1.522,5.018ZM8017,1706.7a2.739,2.739,0,0,1-1.724-4.869l.837-.681a2.739,2.739,0,1,1,3.475,4.234l-.869.708A2.727,2.727,0,0,1,8017,1706.7Zm-155.6-.638a2.724,2.724,0,0,1-1.735-.621l-.865-.716a2.739,2.739,0,1,1,3.507-4.208l.831.689a2.739,2.739,0,0,1-1.738,4.856Zm164.63-7.412a2.739,2.739,0,0,1-1.918-4.693c.254-.25.509-.5.761-.755a2.739,2.739,0,0,1,3.877,3.869q-.4.4-.8.8A2.73,2.73,0,0,1,8026.034,1698.654Zm-173.6-.714a2.731,2.731,0,0,1-1.934-.8l-.794-.8a2.739,2.739,0,0,1,3.906-3.841l.756.762a2.739,2.739,0,0,1-1.934,4.678Zm181.808-8.18a2.74,2.74,0,0,1-2.106-4.49l.694-.837a2.739,2.739,0,0,1,4.23,3.48l-.71.858A2.736,2.736,0,0,1,8034.243,1689.761Zm-189.941-.78a2.732,2.732,0,0,1-2.115-1l-.709-.869a2.739,2.739,0,0,1,4.256-3.45l.68.835a2.739,2.739,0,0,1-2.112,4.481Zm197.243-8.873a2.739,2.739,0,0,1-2.258-4.285q.3-.444.6-.89a2.739,2.739,0,1,1,4.553,3.046q-.315.47-.632.937A2.74,2.74,0,0,1,8041.544,1680.108Zm-204.465-.835a2.734,2.734,0,0,1-2.273-1.211q-.315-.468-.624-.939a2.738,2.738,0,1,1,4.577-3.008q.293.447.591.891a2.74,2.74,0,0,1-2.271,4.268Zm210.789-9.486a2.739,2.739,0,0,1-2.4-4.056c.172-.314.343-.629.512-.945a2.739,2.739,0,0,1,4.832,2.583c-.18.333-.358.664-.539.995A2.742,2.742,0,0,1,8047.868,1669.787Zm-217.025-.88a2.735,2.735,0,0,1-2.413-1.441q-.268-.5-.529-.995a2.739,2.739,0,1,1,4.851-2.545c.166.316.332.63.5.944a2.739,2.739,0,0,1-2.41,4.037Zm222.309-10.014a2.74,2.74,0,0,1-2.521-3.807l.419-1a2.738,2.738,0,1,1,5.058,2.1l-.433,1.036A2.74,2.74,0,0,1,8053.152,1658.893Zm-227.5-.912a2.742,2.742,0,0,1-2.53-1.688c-.143-.345-.286-.692-.426-1.039a2.738,2.738,0,0,1,5.077-2.054l.407.989a2.742,2.742,0,0,1-2.527,3.791Zm231.679-10.454a2.738,2.738,0,0,1-2.613-3.56l.315-1.03a2.739,2.739,0,0,1,5.243,1.589c-.11.362-.22.723-.333,1.083A2.739,2.739,0,0,1,8057.334,1647.527Zm-235.766-.931a2.742,2.742,0,0,1-2.619-1.941l-.323-1.08a2.739,2.739,0,1,1,5.255-1.547l.307,1.03a2.74,2.74,0,0,1-2.62,3.538Zm238.807-10.785a2.707,2.707,0,0,1-.555-.057,2.738,2.738,0,0,1-2.131-3.233l.215-1.063a2.739,2.739,0,0,1,5.372,1.069l-.222,1.1A2.74,2.74,0,0,1,8060.375,1635.81Zm-241.752-.952a2.739,2.739,0,0,1-2.682-2.2l-.215-1.106a2.739,2.739,0,0,1,5.381-1.021l.207,1.056a2.74,2.74,0,0,1-2.69,3.274Zm243.618-11a2.821,2.821,0,0,1-.291-.015,2.738,2.738,0,0,1-2.436-3.011l.109-1.071a2.739,2.739,0,1,1,5.452.527l-.113,1.119A2.741,2.741,0,0,1,8062.24,1623.855Zm-245.388-.965a2.737,2.737,0,0,1-2.723-2.467l-.107-1.121a2.739,2.739,0,0,1,5.456-.494l.1,1.071a2.737,2.737,0,0,1-2.454,3A2.568,2.568,0,0,1,7816.852,1622.889Zm246.077-11.115h-.025a2.74,2.74,0,0,1-2.715-2.763l.006-1.334a2.738,2.738,0,1,1,5.477,0l-.005,1.382A2.737,2.737,0,0,1,8062.929,1611.775Zm-246.673-.972a2.739,2.739,0,0,1-2.738-2.739l0-1.128a2.739,2.739,0,0,1,2.737-2.711h.028a2.737,2.737,0,0,1,2.711,2.766l0,1.073A2.739,2.739,0,0,1,7816.256,1610.8Zm246.169-11.374a2.74,2.74,0,0,1-2.724-2.484l-.1-1.08a2.739,2.739,0,1,1,5.45-.543l.107,1.113a2.739,2.739,0,0,1-2.471,2.982C8062.6,1599.424,8062.511,1599.428,8062.425,1599.428Zm-245.594-.712c-.088,0-.178,0-.266-.012a2.738,2.738,0,0,1-2.462-2.989l.112-1.12a2.739,2.739,0,0,1,5.447.576l-.107,1.071A2.74,2.74,0,0,1,7816.832,1598.717Zm243.915-11.272a2.741,2.741,0,0,1-2.687-2.22l-.208-1.063a2.739,2.739,0,1,1,5.372-1.071l.215,1.1a2.741,2.741,0,0,1-2.692,3.258Zm-242.168-.7a2.742,2.742,0,0,1-2.69-3.266l.222-1.1a2.739,2.739,0,0,1,5.366,1.1l-.213,1.055A2.74,2.74,0,0,1,7818.579,1586.744Zm239.32-11.059a2.742,2.742,0,0,1-2.627-1.965l-.308-1.03a2.738,2.738,0,1,1,5.239-1.6l.324,1.078a2.738,2.738,0,0,1-2.628,3.513Zm-236.4-.684a2.739,2.739,0,0,1-2.622-3.533l.329-1.074a2.739,2.739,0,1,1,5.231,1.624l-.318,1.039A2.74,2.74,0,0,1,7821.494,1575Zm232.409-10.738a2.738,2.738,0,0,1-2.537-1.706l-.41-.995a2.739,2.739,0,0,1,5.059-2.1l.424,1.031a2.739,2.739,0,0,1-2.536,3.773Zm-228.345-.67a2.74,2.74,0,0,1-2.531-3.782l.436-1.042a2.739,2.739,0,0,1,5.046,2.132l-.417,1A2.738,2.738,0,0,1,7825.559,1563.593Zm223.246-10.3a2.739,2.739,0,0,1-2.427-1.465l-.5-.946a2.738,2.738,0,1,1,4.823-2.6c.177.33.355.661.529.993a2.74,2.74,0,0,1-2.423,4.014Zm-218.075-.652a2.741,2.741,0,0,1-2.414-4.029c.177-.334.357-.665.537-1a2.739,2.739,0,0,1,4.807,2.63q-.259.471-.512.946A2.735,2.735,0,0,1,7830.73,1552.645Zm211.92-9.762a2.734,2.734,0,0,1-2.289-1.234l-.593-.892a2.738,2.738,0,1,1,4.544-3.057l.624.937a2.74,2.74,0,0,1-2.286,4.245Zm-205.7-.624a2.741,2.741,0,0,1-2.275-4.263l.626-.929a2.739,2.739,0,0,1,4.534,3.075l-.607.9A2.737,2.737,0,0,1,7836.952,1542.26Zm198.556-9.141a2.736,2.736,0,0,1-2.128-1.012l-.683-.837a2.738,2.738,0,1,1,4.226-3.483l.709.867a2.739,2.739,0,0,1-2.124,4.466Zm-191.347-.586a2.738,2.738,0,0,1-2.116-4.477l.715-.863a2.738,2.738,0,1,1,4.208,3.5l-.689.834A2.734,2.734,0,0,1,7844.161,1532.534Zm183.28-8.437a2.73,2.73,0,0,1-1.953-.818q-.376-.381-.756-.76a2.739,2.739,0,0,1,3.866-3.881q.4.4.795.8a2.739,2.739,0,0,1-1.952,4.659Zm-175.159-.538a2.739,2.739,0,0,1-1.937-4.674l.793-.789a2.739,2.739,0,0,1,3.849,3.9l-.766.762A2.729,2.729,0,0,1,7852.281,1523.559Zm166.25-7.657a2.727,2.727,0,0,1-1.753-.635l-.832-.687a2.739,2.739,0,0,1,3.475-4.235l.866.716a2.739,2.739,0,0,1-1.756,4.841Zm-157.293-.482a2.739,2.739,0,0,1-1.745-4.85q.435-.36.875-.715a2.739,2.739,0,0,1,3.441,4.263c-.278.224-.553.449-.828.676A2.731,2.731,0,0,1,7861.238,1515.419Zm147.629-6.806a2.72,2.72,0,0,1-1.541-.476q-.442-.3-.89-.6a2.739,2.739,0,0,1,3.037-4.559q.472.314.939.632a2.739,2.739,0,0,1-1.545,5Zm-137.924-.421a2.739,2.739,0,0,1-1.526-5.014l.932-.621a2.739,2.739,0,0,1,3.014,4.573l-.9.6A2.736,2.736,0,0,1,7870.944,1508.193Zm127.593-5.887a2.727,2.727,0,0,1-1.309-.334l-.952-.514a2.738,2.738,0,1,1,2.583-4.83l.99.534a2.739,2.739,0,0,1-1.312,5.144Zm-117.229-.355a2.739,2.739,0,0,1-1.3-5.151l.989-.526a2.738,2.738,0,1,1,2.552,4.846l-.946.5A2.724,2.724,0,0,1,7881.308,1501.951Zm106.327-4.909a2.725,2.725,0,0,1-1.063-.216l-1-.419a2.738,2.738,0,1,1,2.093-5.061l1.036.432a2.739,2.739,0,0,1-1.064,5.263Zm-95.4-.283a2.739,2.739,0,0,1-1.052-5.269l1.033-.425a2.739,2.739,0,1,1,2.062,5.074l-.992.408A2.72,2.72,0,0,1,7892.231,1496.759Zm84.033-3.88a2.729,2.729,0,0,1-.812-.124l-1.036-.317a2.739,2.739,0,1,1,1.581-5.244l1.078.33a2.739,2.739,0,0,1-.811,5.355Zm-72.652-.211a2.739,2.739,0,0,1-.8-5.359c.361-.11.723-.218,1.083-.324a2.739,2.739,0,1,1,1.542,5.256c-.342.1-.686.2-1.026.307A2.749,2.749,0,0,1,7903.611,1492.668Zm60.932-2.807a2.685,2.685,0,0,1-.555-.057l-1.054-.211a2.739,2.739,0,0,1,1.054-5.376c.369.073.736.146,1.1.222a2.739,2.739,0,0,1-.549,5.422Zm-49.2-.141a2.739,2.739,0,0,1-.532-5.425l1.1-.215a2.739,2.739,0,1,1,1.023,5.382l-1.056.2A2.7,2.7,0,0,1,7915.345,1489.719Zm37.242-1.708a2.773,2.773,0,0,1-.291-.015q-.532-.056-1.066-.107a2.739,2.739,0,0,1,.518-5.453c.376.036.75.073,1.125.113a2.739,2.739,0,0,1-.285,5.462Zm-25.273-.072a2.739,2.739,0,0,1-.264-5.464l1.116-.105a2.739,2.739,0,0,1,.494,5.456l-1.076.1A2.692,2.692,0,0,1,7927.313,1487.939Zm13.189-.6h-.02l-.89,0h-.191a2.739,2.739,0,1,1,0-5.478h.17l.95,0a2.739,2.739,0,0,1-.02,5.478Z" transform="translate(-7813.518 -1481.858)"/></g><g transform="translate(7769.565 1437.826)"><path class="a" d="M7930.025,1754.847a2.739,2.739,0,0,1-.035-5.478l1.081-.017a2.739,2.739,0,1,1,.1,5.476l-1.113.018Zm-10.974-.241c-.053,0-.1,0-.159,0l-1.113-.067a2.739,2.739,0,1,1,.345-5.467l1.081.065a2.739,2.739,0,0,1-.155,5.474Zm23.034-.374a2.739,2.739,0,0,1-.241-5.466l1.072-.1a2.739,2.739,0,1,1,.528,5.452l-1.113.1C7942.25,1754.229,7942.166,1754.232,7942.085,1754.232Zm-35.056-.772a2.762,2.762,0,0,1-.369-.025l-1.106-.153a2.739,2.739,0,1,1,.768-5.423l1.068.148a2.739,2.739,0,0,1-.361,5.453Zm47.034-.769a2.739,2.739,0,0,1-.453-5.44l1.065-.183a2.738,2.738,0,1,1,.944,5.395l-1.1.19A2.778,2.778,0,0,1,7954.063,1752.69Zm-58.931-1.307a2.72,2.72,0,0,1-.58-.062l-1.093-.239a2.738,2.738,0,1,1,1.191-5.346l1.052.23a2.739,2.739,0,0,1-.571,5.417Zm70.754-1.161a2.739,2.739,0,0,1-.662-5.4l1.044-.265a2.738,2.738,0,1,1,1.369,5.3l-1.086.276A2.724,2.724,0,0,1,7965.886,1750.223Zm-82.458-1.835a2.747,2.747,0,0,1-.786-.115l-1.067-.323a2.738,2.738,0,1,1,1.6-5.238l1.035.312a2.739,2.739,0,0,1-.783,5.363Zm94.055-1.547a2.739,2.739,0,0,1-.864-5.338l1.017-.344a2.739,2.739,0,1,1,1.776,5.182l-1.065.359A2.723,2.723,0,0,1,7977.483,1746.841Zm-105.5-2.359a2.72,2.72,0,0,1-.981-.183c-.352-.135-.705-.272-1.054-.411a2.739,2.739,0,1,1,2.021-5.092q.5.2,1,.39a2.739,2.739,0,0,1-.984,5.3Zm116.788-1.912a2.739,2.739,0,0,1-1.074-5.26l.993-.425a2.739,2.739,0,1,1,2.17,5.029l-1.019.437A2.72,2.72,0,0,1,7988.768,1742.569Zm-127.894-2.877a2.719,2.719,0,0,1-1.177-.268l-1.015-.49a2.739,2.739,0,0,1,2.4-4.921l.97.468a2.739,2.739,0,0,1-1.182,5.211Zm138.809-2.26a2.739,2.739,0,0,1-1.265-5.169l.954-.5a2.739,2.739,0,1,1,2.558,4.844l-.985.517A2.744,2.744,0,0,1,7999.682,1737.432Zm-149.5-3.378a2.717,2.717,0,0,1-1.367-.368l-.969-.565a2.738,2.738,0,1,1,2.774-4.722l.934.544a2.739,2.739,0,0,1-1.373,5.111Zm159.991-2.593a2.739,2.739,0,0,1-1.445-5.066l.91-.571a2.739,2.739,0,1,1,2.925,4.632l-.947.593A2.726,2.726,0,0,1,8010.169,1731.462Zm-170.215-3.857a2.721,2.721,0,0,1-1.545-.48l-.924-.639a2.739,2.739,0,1,1,3.134-4.492l.886.614a2.738,2.738,0,0,1-1.551,5Zm180.213-2.911a2.738,2.738,0,0,1-1.623-4.946l.864-.64a2.738,2.738,0,1,1,3.275,4.389l-.9.665A2.731,2.731,0,0,1,8020.167,1724.694Zm-189.9-4.308a2.736,2.736,0,0,1-1.718-.605l-.869-.709a2.738,2.738,0,1,1,3.47-4.237l.835.678a2.739,2.739,0,0,1-1.719,4.872Zm199.352-3.212a2.739,2.739,0,0,1-1.79-4.813l.817-.71a2.739,2.739,0,1,1,3.6,4.128l-.84.728A2.726,2.726,0,0,1,8029.614,1717.175Zm-208.455-4.732a2.731,2.731,0,0,1-1.879-.747l-.808-.766a2.739,2.739,0,0,1,3.78-3.964l.786.747a2.738,2.738,0,0,1-1.88,4.731Zm217.294-3.5a2.74,2.74,0,0,1-1.939-4.674l.757-.765a2.739,2.739,0,0,1,3.91,3.837l-.788.8A2.733,2.733,0,0,1,8038.453,1708.946Zm-225.756-5.122a2.726,2.726,0,0,1-2.026-.9l-.751-.831a2.739,2.739,0,0,1,4.083-3.651l.72.8a2.738,2.738,0,0,1-2.026,4.581Zm233.939-3.764a2.739,2.739,0,0,1-2.08-4.521l.695-.818a2.738,2.738,0,1,1,4.193,3.523l-.727.859A2.738,2.738,0,0,1,8046.637,1700.06Zm-241.709-5.479a2.737,2.737,0,0,1-2.166-1.058l-.686-.89a2.739,2.739,0,1,1,4.357-3.321l.653.848a2.739,2.739,0,0,1-2.159,4.42Zm249.186-4.013a2.739,2.739,0,0,1-2.213-4.35l.634-.879a2.739,2.739,0,0,1,4.449,3.2l-.653.906A2.735,2.735,0,0,1,8054.113,1690.567Zm-256.221-5.8a2.736,2.736,0,0,1-2.289-1.231l-.61-.931a2.739,2.739,0,0,1,4.59-2.988l.592.9a2.739,2.739,0,0,1-2.283,4.247Zm262.942-4.245a2.739,2.739,0,0,1-2.327-4.176l.558-.917a2.738,2.738,0,0,1,4.69,2.829c-.193.321-.389.643-.586.963A2.738,2.738,0,0,1,8060.834,1680.524Zm-269.2-6.079a2.74,2.74,0,0,1-2.4-1.411l-.539-.981a2.74,2.74,0,0,1,4.815-2.615l.515.94a2.74,2.74,0,0,1-2.393,4.067Zm275.122-4.46a2.739,2.739,0,0,1-2.433-3.991l.487-.96a2.739,2.739,0,0,1,4.894,2.46l-.511,1A2.737,2.737,0,0,1,8066.76,1669.985Zm-280.554-6.314a2.74,2.74,0,0,1-2.494-1.6l-.458-1.013a2.739,2.739,0,1,1,5-2.241l.444.979a2.74,2.74,0,0,1-2.49,3.877Zm285.644-4.656a2.739,2.739,0,0,1-2.527-3.792l.413-1a2.739,2.739,0,0,1,5.071,2.072l-.428,1.036A2.738,2.738,0,0,1,8071.85,1659.015Zm-290.221-6.5a2.739,2.739,0,0,1-2.573-1.8l-.381-1.056a2.739,2.739,0,0,1,5.162-1.835l.364,1.01a2.74,2.74,0,0,1-2.572,3.68Zm294.438-4.836a2.711,2.711,0,0,1-.852-.137,2.739,2.739,0,0,1-1.75-3.455l.334-1.032a2.739,2.739,0,1,1,5.217,1.672l-.346,1.066A2.74,2.74,0,0,1,8076.067,1647.677Zm-298.137-6.664a2.737,2.737,0,0,1-2.635-2l-.3-1.084a2.738,2.738,0,1,1,5.289-1.423l.284,1.034a2.741,2.741,0,0,1-2.639,3.476Zm301.455-4.955a2.741,2.741,0,0,1-2.665-3.381l.253-1.058a2.739,2.739,0,0,1,5.331,1.262l-.257,1.078A2.743,2.743,0,0,1,8079.385,1636.058Zm-304.244-6.8a2.741,2.741,0,0,1-2.685-2.211l-.211-1.1a2.738,2.738,0,1,1,5.381-1.015l.205,1.058a2.74,2.74,0,0,1-2.69,3.268Zm306.643-5.04a2.746,2.746,0,0,1-2.707-3.172l.17-1.069a2.738,2.738,0,1,1,5.413.832l-.173,1.1A2.74,2.74,0,0,1,8081.784,1624.222Zm-308.507-6.892a2.74,2.74,0,0,1-2.718-2.423l-.125-1.109a2.739,2.739,0,1,1,5.444-.6l.121,1.074a2.738,2.738,0,0,1-2.4,3.037A2.777,2.777,0,0,1,7773.277,1617.329Zm309.979-5.1c-.078,0-.157,0-.236-.01a2.739,2.739,0,0,1-2.5-2.962l.084-1.071a2.739,2.739,0,0,1,5.463.417l-.09,1.119A2.74,2.74,0,0,1,8083.256,1612.233Zm-310.914-6.946a2.738,2.738,0,0,1-2.735-2.63l-.04-1.114a2.738,2.738,0,1,1,5.474-.177l.039,1.074a2.739,2.739,0,0,1-2.629,2.845C7772.415,1605.287,7772.377,1605.287,7772.342,1605.287Zm311.455-5.12h-.024a2.738,2.738,0,0,1-2.715-2.762l0-1.424a2.739,2.739,0,1,1,5.478,0l0,1.471A2.737,2.737,0,0,1,8083.8,1600.167Zm-311.466-6.956h-.1a2.74,2.74,0,0,1-2.637-2.838l.046-1.118a2.738,2.738,0,1,1,5.471.241l-.042,1.077A2.741,2.741,0,0,1,7772.331,1593.212Zm311.062-5.466a2.738,2.738,0,0,1-2.729-2.547l-.081-1.072a2.739,2.739,0,0,1,5.461-.432l.084,1.119a2.74,2.74,0,0,1-2.542,2.924C8083.522,1587.744,8083.458,1587.746,8083.393,1587.746Zm-310.151-6.576a2.834,2.834,0,0,1-.315-.018,2.738,2.738,0,0,1-2.408-3.033l.13-1.111a2.739,2.739,0,0,1,5.438.664l-.126,1.071A2.739,2.739,0,0,1,7773.241,1581.169Zm308.824-5.427a2.74,2.74,0,0,1-2.7-2.324l-.166-1.077a2.738,2.738,0,1,1,5.411-.849l.169,1.094a2.738,2.738,0,0,1-2.29,3.123A2.8,2.8,0,0,1,8082.065,1575.743Zm-306.987-6.51a2.744,2.744,0,0,1-2.692-3.26l.217-1.1a2.739,2.739,0,0,1,5.37,1.08l-.208,1.057A2.741,2.741,0,0,1,7775.079,1569.233Zm304.728-5.355a2.741,2.741,0,0,1-2.665-2.117l-.249-1.06a2.739,2.739,0,1,1,5.33-1.264l.253,1.08a2.74,2.74,0,0,1-2.67,3.362Zm-301.969-6.4a2.773,2.773,0,0,1-.729-.1,2.739,2.739,0,0,1-1.912-3.369l.3-1.078a2.738,2.738,0,1,1,5.268,1.5l-.29,1.037A2.74,2.74,0,0,1,7777.838,1557.474Zm298.8-5.25a2.741,2.741,0,0,1-2.611-1.917l-.327-1.028a2.738,2.738,0,1,1,5.211-1.682l.34,1.065a2.739,2.739,0,0,1-2.614,3.562Zm-295.126-6.257a2.74,2.74,0,0,1-2.576-3.673l.387-1.054a2.739,2.739,0,1,1,5.136,1.9l-.373,1.017A2.74,2.74,0,0,1,7781.507,1545.967Zm291.056-5.113a2.741,2.741,0,0,1-2.54-1.709l-.411-1.008a2.739,2.739,0,1,1,5.067-2.08l.418,1.027a2.741,2.741,0,0,1-2.535,3.771Zm-286.494-6.089a2.705,2.705,0,0,1-1.131-.246,2.738,2.738,0,0,1-1.361-3.626l.464-1.014a2.739,2.739,0,1,1,4.975,2.292l-.453.988A2.739,2.739,0,0,1,7786.069,1534.765Zm281.549-4.919a2.743,2.743,0,0,1-2.455-1.518l-.481-.963a2.738,2.738,0,1,1,4.886-2.472l.5.995a2.74,2.74,0,0,1-2.449,3.959Zm-276.129-5.889a2.741,2.741,0,0,1-2.4-4.061l.547-.982a2.739,2.739,0,1,1,4.775,2.683l-.524.942A2.74,2.74,0,0,1,7791.488,1523.958Zm270.344-4.7a2.737,2.737,0,0,1-2.35-1.329l-.56-.927a2.738,2.738,0,1,1,4.682-2.842l.574.949a2.739,2.739,0,0,1-2.346,4.149Zm-264.1-5.65a2.739,2.739,0,0,1-2.286-4.245l.616-.929a2.739,2.739,0,0,1,4.56,3.035l-.6.905A2.737,2.737,0,0,1,7797.733,1513.606Zm257.51-4.464a2.735,2.735,0,0,1-2.235-1.152l-.629-.884a2.738,2.738,0,1,1,4.449-3.192l.643.9a2.739,2.739,0,0,1-2.229,4.326Zm-250.485-5.372a2.739,2.739,0,0,1-2.164-4.417l.688-.879a2.739,2.739,0,1,1,4.31,3.381l-.666.853A2.737,2.737,0,0,1,7804.758,1503.77Zm243.131-4.206a2.732,2.732,0,0,1-2.107-.987l-.7-.831a2.739,2.739,0,0,1,4.192-3.525l.713.851a2.739,2.739,0,0,1-2.1,4.492Zm-235.37-5.054a2.74,2.74,0,0,1-2.028-4.579l.749-.822a2.739,2.739,0,1,1,4.039,3.7l-.731.8A2.729,2.729,0,0,1,7812.52,1494.51Zm227.3-3.93a2.733,2.733,0,0,1-1.968-.832l-.753-.772a2.738,2.738,0,1,1,3.9-3.841l.781.8a2.739,2.739,0,0,1-1.965,4.646Zm-218.849-4.7a2.739,2.739,0,0,1-1.879-4.731l.811-.761a2.738,2.738,0,1,1,3.737,4l-.79.741A2.729,2.729,0,0,1,7820.97,1485.876Zm210.106-3.634a2.725,2.725,0,0,1-1.805-.681l-.82-.718a2.739,2.739,0,0,1,3.6-4.129l.834.73a2.739,2.739,0,0,1-1.809,4.8Zm-201.017-4.321a2.739,2.739,0,0,1-1.724-4.869l.866-.7a2.739,2.739,0,0,1,3.422,4.278l-.845.678A2.717,2.717,0,0,1,7830.059,1477.921Zm191.655-3.32a2.728,2.728,0,0,1-1.644-.55l-.868-.65a2.739,2.739,0,1,1,3.27-4.4l.89.668a2.739,2.739,0,0,1-1.647,4.928Zm-181.983-3.91a2.738,2.738,0,0,1-1.558-4.992l.925-.633a2.739,2.739,0,1,1,3.07,4.536l-.883.6A2.727,2.727,0,0,1,7839.73,1470.691Zm172.059-2.987a2.723,2.723,0,0,1-1.473-.433l-.912-.578a2.738,2.738,0,1,1,2.916-4.636l.948.6a2.739,2.739,0,0,1-1.479,5.046Zm-161.863-3.472a2.74,2.74,0,0,1-1.378-5.107l.967-.557a2.738,2.738,0,1,1,2.715,4.757l-.929.536A2.73,2.73,0,0,1,7849.926,1464.232Zm151.433-2.639a2.722,2.722,0,0,1-1.292-.325l-.95-.5a2.739,2.739,0,1,1,2.543-4.851l.995.527a2.739,2.739,0,0,1-1.3,5.153Zm-140.767-3.009a2.739,2.739,0,0,1-1.19-5.208l1.005-.479a2.739,2.739,0,0,1,2.341,4.953l-.973.463A2.737,2.737,0,0,1,7860.592,1458.585Zm129.891-2.273a2.725,2.725,0,0,1-1.1-.232l-.989-.429a2.739,2.739,0,0,1,2.159-5.034l1.033.449a2.739,2.739,0,0,1-1.1,5.247Zm-118.827-2.526a2.739,2.739,0,0,1-.995-5.292l1.046-.4a2.739,2.739,0,0,1,1.945,5.121l-1.005.386A2.738,2.738,0,0,1,7871.657,1453.786Zm107.568-1.892a2.744,2.744,0,0,1-.9-.153l-1.021-.351a2.739,2.739,0,0,1,1.758-5.187l1.066.367a2.739,2.739,0,0,1-.9,5.324Zm-96.15-2.035a2.74,2.74,0,0,1-.786-5.363l1.072-.317a2.739,2.739,0,0,1,1.539,5.257l-1.035.307A2.741,2.741,0,0,1,7883.075,1449.858Zm84.594-1.487a2.735,2.735,0,0,1-.7-.09l-1.045-.27a2.739,2.739,0,1,1,1.35-5.308l1.083.28a2.739,2.739,0,0,1-.691,5.389Zm-72.9-1.537a2.739,2.739,0,0,1-.579-5.416l1.092-.233a2.739,2.739,0,0,1,1.127,5.36l-1.057.225A2.721,2.721,0,0,1,7894.769,1446.834Zm61.106-1.069a2.794,2.794,0,0,1-.491-.044l-1.062-.188a2.739,2.739,0,1,1,.936-5.4l1.1.2a2.739,2.739,0,0,1-.484,5.434Zm-49.215-1.035a2.739,2.739,0,0,1-.37-5.453l1.11-.149a2.739,2.739,0,0,1,.7,5.433l-1.069.143A2.7,2.7,0,0,1,7906.66,1444.731Zm37.256-.65a2.747,2.747,0,0,1-.279-.014l-1.074-.1a2.739,2.739,0,0,1,.512-5.454l1.114.109a2.739,2.739,0,0,1-.273,5.464Zm-25.236-.527a2.739,2.739,0,0,1-.157-5.473l1.112-.062a2.739,2.739,0,0,1,.289,5.47l-1.08.06C7918.788,1443.553,7918.735,1443.554,7918.68,1443.554Zm13.18-.227h-.068l-1.078-.023a2.738,2.738,0,1,1,.1-5.476l1.118.024a2.739,2.739,0,0,1-.068,5.476Z" transform="translate(-7769.565 -1437.827)"/></g><g transform="translate(7785.382 1453.641)"><path class="a" d="M7935.667,1744.694a2.739,2.739,0,0,1-.035-5.478l1.07-.018a2.739,2.739,0,1,1,.12,5.476l-1.119.02Zm-10.939-.267c-.057,0-.114,0-.173-.006l-1.115-.075a2.738,2.738,0,1,1,.386-5.463l1.073.071a2.739,2.739,0,0,1-.171,5.473Zm22.958-.413a2.738,2.738,0,0,1-.265-5.464l1.064-.111a2.739,2.739,0,0,1,.586,5.447l-1.115.114A2.588,2.588,0,0,1,7947.687,1744.014Zm-34.929-.858a2.728,2.728,0,0,1-.408-.03l-1.108-.171a2.739,2.739,0,0,1,.858-5.41l1.059.163a2.739,2.739,0,0,1-.4,5.448Zm46.848-.846a2.739,2.739,0,0,1-.5-5.431l1.056-.2a2.739,2.739,0,0,1,1.05,5.376l-1.094.209A2.7,2.7,0,0,1,7959.606,1742.31Zm-58.669-1.451a2.745,2.745,0,0,1-.64-.076l-1.085-.264a2.739,2.739,0,0,1,1.317-5.316l1.043.254a2.739,2.739,0,0,1-.635,5.4Zm70.4-1.276a2.739,2.739,0,0,1-.734-5.378l1.035-.293a2.739,2.739,0,1,1,1.509,5.266l-1.075.3A2.724,2.724,0,0,1,7971.334,1739.583Zm-81.977-2.034a2.725,2.725,0,0,1-.868-.142l-1.062-.358a2.739,2.739,0,1,1,1.777-5.182l1.02.345a2.739,2.739,0,0,1-.867,5.337Zm93.427-1.7a2.739,2.739,0,0,1-.961-5.3l1-.381a2.739,2.739,0,0,1,1.963,5.114l-1.043.4A2.719,2.719,0,0,1,7982.784,1735.85Zm-104.687-2.608a2.74,2.74,0,0,1-1.088-.226l-1.024-.448a2.739,2.739,0,0,1,2.211-5.013l.989.434a2.739,2.739,0,0,1-1.088,5.252Zm115.764-2.1a2.74,2.74,0,0,1-1.182-5.211l.967-.466a2.739,2.739,0,1,1,2.392,4.928l-1,.481A2.727,2.727,0,0,1,7993.86,1731.145Zm-126.607-3.165a2.728,2.728,0,0,1-1.3-.33l-.983-.536a2.739,2.739,0,0,1,2.641-4.8l.944.516a2.739,2.739,0,0,1-1.3,5.149Zm137.235-2.478a2.739,2.739,0,0,1-1.393-5.1l.924-.548a2.739,2.739,0,0,1,2.809,4.7l-.954.566A2.722,2.722,0,0,1,8004.488,1725.5Zm-147.583-3.7a2.736,2.736,0,0,1-1.5-.448l-.934-.62a2.738,2.738,0,1,1,3.044-4.553l.894.592a2.739,2.739,0,0,1-1.5,5.029Zm157.686-2.838a2.739,2.739,0,0,1-1.587-4.972l.87-.624a2.739,2.739,0,1,1,3.209,4.44l-.908.649A2.724,2.724,0,0,1,8014.591,1718.964Zm-167.46-4.2a2.726,2.726,0,0,1-1.694-.589l-.869-.69a2.738,2.738,0,1,1,3.414-4.282l.848.672a2.738,2.738,0,0,1-1.7,4.888Zm176.97-3.178a2.74,2.74,0,0,1-1.766-4.833c.272-.228.54-.459.809-.69a2.739,2.739,0,1,1,3.578,4.148q-.426.368-.856.73A2.725,2.725,0,0,1,8024.1,1711.582Zm-186.1-4.673a2.727,2.727,0,0,1-1.872-.741l-.813-.767a2.739,2.739,0,0,1,3.781-3.965l.778.736a2.739,2.739,0,0,1-1.874,4.737Zm194.949-3.5a2.739,2.739,0,0,1-1.943-4.67l.756-.765a2.739,2.739,0,1,1,3.913,3.833l-.783.793A2.729,2.729,0,0,1,8032.946,1703.414Zm-203.376-5.105a2.728,2.728,0,0,1-2.036-.907l-.742-.832a2.739,2.739,0,1,1,4.1-3.633l.714.8a2.739,2.739,0,0,1-2.035,4.57Zm211.495-3.791a2.739,2.739,0,0,1-2.1-4.5l.687-.827a2.739,2.739,0,1,1,4.228,3.482l-.713.859A2.731,2.731,0,0,1,8041.064,1694.517Zm-219.155-5.5a2.731,2.731,0,0,1-2.188-1.09l-.665-.886a2.739,2.739,0,1,1,4.391-3.275l.648.864a2.738,2.738,0,0,1-2.186,4.387Zm226.48-4.064a2.738,2.738,0,0,1-2.24-4.311l.614-.881a2.738,2.738,0,1,1,4.51,3.108l-.638.919A2.737,2.737,0,0,1,8048.39,1684.956Zm-233.318-5.841a2.736,2.736,0,0,1-2.321-1.282l-.589-.946a2.739,2.739,0,1,1,4.661-2.876l.566.909a2.741,2.741,0,0,1-2.317,4.2Zm239.8-4.312a2.741,2.741,0,0,1-2.369-4.11l.537-.936a2.739,2.739,0,1,1,4.761,2.708l-.554.968A2.739,2.739,0,0,1,8054.874,1674.8Zm-245.762-6.144a2.739,2.739,0,0,1-2.439-1.491l-.5-.982a2.739,2.739,0,0,1,4.886-2.479l.49.962a2.74,2.74,0,0,1-2.436,3.989Zm251.346-4.535a2.739,2.739,0,0,1-2.474-3.907l.452-.972a2.739,2.739,0,0,1,4.977,2.288c-.158.341-.315.681-.475,1.02A2.741,2.741,0,0,1,8060.458,1664.124Zm-256.382-6.39a2.742,2.742,0,0,1-2.535-1.7l-.419-1.037a2.739,2.739,0,1,1,5.085-2.036l.4.993a2.74,2.74,0,0,1-2.533,3.78ZM8065.1,1653a2.739,2.739,0,0,1-2.571-3.683l.37-1.017a2.738,2.738,0,1,1,5.153,1.854l-.381,1.05A2.74,2.74,0,0,1,8065.1,1653ZM7800,1646.4a2.738,2.738,0,0,1-2.613-1.924l-.328-1.066a2.738,2.738,0,1,1,5.239-1.594l.317,1.029A2.74,2.74,0,0,1,7800,1646.4Zm268.766-4.878a2.773,2.773,0,0,1-.725-.1,2.739,2.739,0,0,1-1.919-3.364l.277-1.034a2.738,2.738,0,1,1,5.3,1.4l-.289,1.082A2.74,2.74,0,0,1,8068.765,1641.525Zm-271.847-6.763a2.739,2.739,0,0,1-2.673-2.153l-.234-1.1a2.738,2.738,0,1,1,5.36-1.121l.225,1.046a2.741,2.741,0,0,1-2.678,3.325Zm274.5-4.983a2.682,2.682,0,0,1-.494-.045,2.739,2.739,0,0,1-2.2-3.184l.186-1.054a2.74,2.74,0,0,1,5.4.931l-.2,1.1A2.741,2.741,0,0,1,8071.418,1629.779Zm-276.561-6.879a2.739,2.739,0,0,1-2.712-2.386l-.14-1.111a2.739,2.739,0,0,1,5.438-.658l.133,1.062a2.738,2.738,0,0,1-2.362,3.07A2.785,2.785,0,0,1,7794.857,1622.9Zm278.189-5.051c-.085,0-.174,0-.261-.012a2.738,2.738,0,0,1-2.469-2.984l.095-1.066a2.739,2.739,0,1,1,5.458.464l-.1,1.116A2.738,2.738,0,0,1,8073.046,1617.849Zm-279.223-6.946a2.737,2.737,0,0,1-2.733-2.622l-.044-1.11a2.739,2.739,0,1,1,5.474-.194l.043,1.07a2.74,2.74,0,0,1-2.62,2.853C7793.9,1610.9,7793.863,1610.9,7793.823,1610.9Zm279.823-5.079h-.024a2.738,2.738,0,0,1-2.714-2.762l0-1.391a2.739,2.739,0,0,1,5.478,0l0,1.439A2.74,2.74,0,0,1,8073.646,1605.824Zm-279.83-6.958-.115,0a2.739,2.739,0,0,1-2.625-2.849l.05-1.114a2.739,2.739,0,1,1,5.471.266l-.048,1.073A2.739,2.739,0,0,1,7793.816,1598.866Zm279.384-5.4a2.738,2.738,0,0,1-2.727-2.522l-.089-1.066a2.738,2.738,0,1,1,5.455-.483l.095,1.116a2.741,2.741,0,0,1-2.515,2.946C8073.347,1593.468,8073.273,1593.471,8073.2,1593.471Zm-278.375-6.6a2.815,2.815,0,0,1-.349-.022,2.739,2.739,0,0,1-2.372-3.062l.146-1.109a2.739,2.739,0,1,1,5.427.738l-.141,1.062A2.739,2.739,0,0,1,7794.824,1586.868Zm276.908-5.347a2.74,2.74,0,0,1-2.7-2.291l-.179-1.055a2.738,2.738,0,1,1,5.395-.946l.188,1.1a2.739,2.739,0,0,1-2.252,3.151A2.781,2.781,0,0,1,8071.732,1581.522ZM7796.858,1575a2.74,2.74,0,0,1-2.68-3.318l.241-1.093a2.739,2.739,0,1,1,5.344,1.2l-.23,1.045A2.741,2.741,0,0,1,7796.858,1575Zm272.383-5.259a2.74,2.74,0,0,1-2.652-2.058l-.269-1.034a2.738,2.738,0,1,1,5.291-1.413l.284,1.085a2.739,2.739,0,0,1-2.654,3.421Zm-269.333-6.388a2.738,2.738,0,0,1-2.618-3.546l.336-1.074a2.739,2.739,0,0,1,5.219,1.661l-.321,1.027A2.738,2.738,0,0,1,7799.909,1563.354Zm265.83-5.132a2.739,2.739,0,0,1-2.583-1.831l-.361-1.009a2.739,2.739,0,0,1,5.152-1.862l.376,1.054a2.74,2.74,0,0,1-2.584,3.647ZM7803.962,1552a2.741,2.741,0,0,1-2.537-3.771q.212-.521.429-1.041a2.739,2.739,0,0,1,5.054,2.11l-.408.992A2.74,2.74,0,0,1,7803.962,1552Zm257.295-4.943a2.738,2.738,0,0,1-2.494-1.606l-.447-.974a2.739,2.739,0,0,1,4.97-2.3l.462,1.01a2.74,2.74,0,0,1-2.491,3.874Zm-252.272-6.014a2.739,2.739,0,0,1-2.434-3.988l.511-.993a2.739,2.739,0,0,1,4.858,2.533l-.5.958A2.737,2.737,0,0,1,7808.985,1541.042Zm246.842-4.722a2.737,2.737,0,0,1-2.392-1.4l-.526-.928a2.738,2.738,0,1,1,4.754-2.719l.551.971a2.74,2.74,0,0,1-2.388,4.078Zm-240.895-5.759a2.741,2.741,0,0,1-2.321-4.19q.3-.477.6-.952a2.739,2.739,0,0,1,4.616,2.949q-.288.45-.569.9A2.739,2.739,0,0,1,7814.932,1530.562Zm234.559-4.473a2.736,2.736,0,0,1-2.268-1.2l-.6-.88a2.739,2.739,0,1,1,4.5-3.12l.634.923a2.74,2.74,0,0,1-2.265,4.277Zm-227.734-5.455a2.74,2.74,0,0,1-2.189-4.383c.226-.3.451-.6.68-.9a2.739,2.739,0,0,1,4.346,3.335c-.218.283-.431.566-.646.85A2.732,2.732,0,0,1,7821.757,1520.634Zm220.541-4.2a2.733,2.733,0,0,1-2.124-1.007l-.684-.833a2.739,2.739,0,0,1,4.223-3.49l.7.858a2.738,2.738,0,0,1-2.12,4.472Zm-212.892-5.106a2.739,2.739,0,0,1-2.036-4.568l.741-.822a2.739,2.739,0,0,1,4.062,3.676l-.728.8A2.727,2.727,0,0,1,7829.406,1511.329Zm204.9-3.9a2.734,2.734,0,0,1-1.969-.835l-.749-.77a2.738,2.738,0,1,1,3.909-3.836l.777.8a2.739,2.739,0,0,1-1.968,4.644Zm-196.48-4.718a2.739,2.739,0,0,1-1.878-4.732c.274-.256.546-.512.821-.766a2.739,2.739,0,0,1,3.715,4.027c-.261.242-.522.484-.78.727A2.729,2.729,0,0,1,7837.823,1502.712Zm187.744-3.574a2.725,2.725,0,0,1-1.8-.676l-.809-.7a2.739,2.739,0,1,1,3.565-4.159l.847.733a2.739,2.739,0,0,1-1.8,4.8Zm-178.624-4.289a2.739,2.739,0,0,1-1.7-4.886q.441-.349.886-.694a2.739,2.739,0,1,1,3.353,4.331q-.42.326-.837.656A2.726,2.726,0,0,1,7846.943,1494.849Zm169.211-3.227a2.728,2.728,0,0,1-1.61-.525l-.876-.634a2.739,2.739,0,0,1,3.2-4.445l.9.652a2.739,2.739,0,0,1-1.616,4.953ZM7856.7,1487.8a2.739,2.739,0,0,1-1.511-5.025l.933-.611a2.739,2.739,0,1,1,2.98,4.6l-.9.586A2.723,2.723,0,0,1,7856.7,1487.8Zm149.43-2.856a2.727,2.727,0,0,1-1.421-.4l-.917-.553a2.739,2.739,0,1,1,2.8-4.707l.962.579a2.739,2.739,0,0,1-1.424,5.08Zm-139.109-3.334a2.739,2.739,0,0,1-1.307-5.148l.979-.525a2.739,2.739,0,0,1,2.578,4.834l-.946.507A2.719,2.719,0,0,1,7867.021,1481.607Zm128.545-2.463a2.727,2.727,0,0,1-1.209-.284l-.967-.473a2.739,2.739,0,0,1,2.386-4.931l1.005.493a2.739,2.739,0,0,1-1.214,5.195Zm-117.733-2.812a2.739,2.739,0,0,1-1.1-5.25l1.022-.44a2.739,2.739,0,0,1,2.148,5.039l-.981.424A2.739,2.739,0,0,1,7877.832,1476.332Zm106.707-2.052a2.729,2.729,0,0,1-1-.189l-1-.387a2.739,2.739,0,0,1,1.952-5.118l1.048.4a2.739,2.739,0,0,1-1,5.29Zm-95.483-2.269a2.739,2.739,0,0,1-.872-5.335l1.059-.352a2.739,2.739,0,1,1,1.706,5.205l-1.021.339A2.724,2.724,0,0,1,7889.055,1472.011Zm84.084-1.619a2.728,2.728,0,0,1-.773-.111l-1.031-.3a2.739,2.739,0,0,1,1.5-5.268l1.073.31a2.739,2.739,0,0,1-.771,5.367Zm-72.518-1.718a2.739,2.739,0,0,1-.642-5.4l1.086-.258a2.739,2.739,0,0,1,1.245,5.334l-1.044.248A2.739,2.739,0,0,1,7900.622,1468.675Zm60.832-1.168a2.754,2.754,0,0,1-.544-.054l-1.056-.208a2.739,2.739,0,0,1,1.043-5.377l1.094.216a2.739,2.739,0,0,1-.537,5.424Zm-49.018-1.156a2.739,2.739,0,0,1-.411-5.447l1.106-.164a2.739,2.739,0,0,1,.78,5.423l-1.058.156A2.757,2.757,0,0,1,7912.436,1466.351Zm37.123-.709a2.6,2.6,0,0,1-.312-.018l-1.064-.116a2.738,2.738,0,0,1,.568-5.447l1.115.121a2.739,2.739,0,0,1-.306,5.46Zm-25.153-.59a2.739,2.739,0,0,1-.174-5.472l1.114-.068a2.739,2.739,0,0,1,.312,5.469l-1.073.065C7924.524,1465.05,7924.463,1465.052,7924.405,1465.052Zm13.138-.248h-.077l-1.071-.025a2.739,2.739,0,0,1-2.686-2.791,2.773,2.773,0,0,1,2.791-2.686l1.118.026a2.739,2.739,0,0,1-.075,5.477Z" transform="translate(-7791.044 -1459.3)"/></g><g transform="translate(7818.835 1487.156)"><path class="a" d="M7945.7,1723.159l-1.112-.005a2.739,2.739,0,0,1,.024-5.478h.028l1,.005a2.762,2.762,0,0,1,2.767,2.739A2.714,2.714,0,0,1,7945.7,1723.159Zm10.83-.551a2.738,2.738,0,0,1-.272-5.463c.35-.035.7-.073,1.05-.112a2.738,2.738,0,1,1,.609,5.443q-.554.062-1.108.119C7956.714,1722.6,7956.622,1722.609,7956.529,1722.609Zm-22.741-.1a2.527,2.527,0,0,1-.306-.018l-1.1-.127a2.739,2.739,0,1,1,.657-5.438l1.053.122a2.739,2.739,0,0,1-.3,5.461Zm34.527-1.768a2.74,2.74,0,0,1-.577-5.417c.347-.074.689-.151,1.033-.229a2.739,2.739,0,0,1,1.214,5.342q-.545.123-1.088.242A2.784,2.784,0,0,1,7968.315,1720.739Zm-46.3-.21a2.732,2.732,0,0,1-.608-.069l-1.083-.252a2.739,2.739,0,0,1,1.266-5.33l1.031.239a2.74,2.74,0,0,1-.6,5.411Zm57.8-2.974a2.739,2.739,0,0,1-.883-5.332l1-.346a2.739,2.739,0,0,1,1.814,5.168l-1.051.363A2.744,2.744,0,0,1,7979.819,1717.555Zm-69.273-.317a2.735,2.735,0,0,1-.9-.153c-.354-.123-.706-.248-1.058-.376a2.738,2.738,0,1,1,1.865-5.15c.33.119.664.237,1,.353a2.739,2.739,0,0,1-.9,5.325Zm80.342-4.145a2.739,2.739,0,0,1-1.165-5.219q.477-.222.948-.451a2.739,2.739,0,1,1,2.384,4.931q-.5.242-1.006.479A2.729,2.729,0,0,1,7990.888,1713.093Zm-91.375-.422a2.721,2.721,0,0,1-1.185-.271q-.508-.243-1.01-.493a2.739,2.739,0,0,1,2.436-4.906c.314.157.63.31.947.462a2.739,2.739,0,0,1-1.188,5.208Zm101.867-5.254a2.739,2.739,0,0,1-1.436-5.072q.448-.276.891-.555a2.739,2.739,0,0,1,2.925,4.631q-.472.3-.948.591A2.719,2.719,0,0,1,8001.38,1707.418Zm-112.314-.523a2.723,2.723,0,0,1-1.457-.421l-.939-.6a2.738,2.738,0,0,1,2.959-4.609l.9.569a2.739,2.739,0,0,1-1.459,5.058Zm122.107-6.292a2.739,2.739,0,0,1-1.69-4.9q.416-.324.829-.654a2.739,2.739,0,1,1,3.419,4.279q-.436.348-.874.69A2.725,2.725,0,0,1,8011.173,1700.6Zm-131.843-.618a2.731,2.731,0,0,1-1.7-.6c-.291-.232-.582-.466-.87-.7a2.739,2.739,0,1,1,3.46-4.246c.273.222.546.443.822.662a2.739,2.739,0,0,1-1.708,4.881Zm140.814-7.248a2.739,2.739,0,0,1-1.916-4.7q.377-.37.751-.744a2.738,2.738,0,0,1,3.872,3.873q-.392.393-.791.784A2.729,2.729,0,0,1,8020.144,1692.738Zm-149.714-.7a2.731,2.731,0,0,1-1.937-.8l-.782-.79a2.738,2.738,0,1,1,3.909-3.836l.746.753a2.739,2.739,0,0,1-1.937,4.675Zm157.757-8.113a2.74,2.74,0,0,1-2.121-4.472c.223-.272.442-.546.662-.82a2.739,2.739,0,0,1,4.282,3.416q-.347.437-.7.87A2.734,2.734,0,0,1,8028.187,1683.922Zm-165.715-.776a2.736,2.736,0,0,1-2.143-1.029q-.346-.435-.69-.873a2.739,2.739,0,0,1,4.315-3.374q.324.415.655.828a2.739,2.739,0,0,1-2.137,4.449Zm172.727-8.881a2.74,2.74,0,0,1-2.3-4.221q.288-.444.568-.893a2.739,2.739,0,0,1,4.639,2.914c-.2.314-.4.63-.6.942A2.739,2.739,0,0,1,8035.2,1674.264Zm-179.646-.839a2.738,2.738,0,0,1-2.319-1.278q-.3-.47-.587-.942a2.739,2.739,0,1,1,4.663-2.876l.559.9a2.74,2.74,0,0,1-2.315,4.2Zm185.533-9.544a2.74,2.74,0,0,1-2.45-3.958q.234-.472.463-.947a2.739,2.739,0,0,1,4.937,2.375q-.245.506-.493,1.009A2.742,2.742,0,0,1,8041.085,1663.88Zm-191.322-.886a2.739,2.739,0,0,1-2.467-1.546q-.242-.5-.479-1a2.739,2.739,0,0,1,4.954-2.339l.455.952a2.74,2.74,0,0,1-2.463,3.933Zm196.009-10.095a2.709,2.709,0,0,1-.927-.163,2.738,2.738,0,0,1-1.65-3.5l.357-1a2.739,2.739,0,1,1,5.171,1.807l-.374,1.051A2.739,2.739,0,0,1,8045.773,1652.9Zm-200.59-.922a2.736,2.736,0,0,1-2.583-1.832l-.365-1.051a2.739,2.739,0,0,1,5.187-1.764l.345,1a2.739,2.739,0,0,1-2.583,3.647Zm204.008-10.518a2.71,2.71,0,0,1-.634-.074,2.741,2.741,0,0,1-2.033-3.3l.241-1.031a2.738,2.738,0,1,1,5.34,1.214l-.25,1.083A2.742,2.742,0,0,1,8049.191,1641.46Zm-207.319-.947a2.738,2.738,0,0,1-2.668-2.131l-.243-1.086a2.739,2.739,0,0,1,5.353-1.164l.23,1.034a2.742,2.742,0,0,1-2.672,3.347Zm209.426-10.8a2.747,2.747,0,0,1-2.722-3.072q.064-.522.12-1.046a2.739,2.739,0,0,1,5.445.6c-.04.371-.085.742-.129,1.111A2.74,2.74,0,0,1,8051.3,1629.716Zm-211.423-.968a2.74,2.74,0,0,1-2.719-2.432c-.041-.37-.081-.741-.118-1.111a2.739,2.739,0,1,1,5.45-.551q.053.523.113,1.047a2.739,2.739,0,0,1-2.414,3.029A2.807,2.807,0,0,1,7839.875,1628.748Zm212.2-10.939h-.024a2.738,2.738,0,0,1-2.714-2.763l0-1.062v-.224a2.738,2.738,0,1,1,5.477,0l0,.185,0,1.149A2.741,2.741,0,0,1,8052.073,1617.809Zm-212.867-.973a2.739,2.739,0,0,1-2.739-2.739l.005-1.113a2.738,2.738,0,0,1,2.737-2.712h.028a2.739,2.739,0,0,1,2.711,2.766l0,1.058A2.738,2.738,0,0,1,7839.206,1616.835Zm212.3-11.17a2.738,2.738,0,0,1-2.72-2.455l-.115-1.056a2.739,2.739,0,1,1,5.443-.616l.119,1.1a2.739,2.739,0,0,1-2.44,3.008C8051.7,1605.66,8051.6,1605.666,8051.507,1605.666Zm-211.653-.744a2.6,2.6,0,0,1-.3-.017,2.739,2.739,0,0,1-2.423-3.021l.129-1.1a2.738,2.738,0,1,1,5.437.649l-.12,1.054A2.741,2.741,0,0,1,7839.854,1604.921Zm209.766-11.036a2.741,2.741,0,0,1-2.675-2.158c-.074-.343-.151-.684-.229-1.026a2.739,2.739,0,0,1,5.338-1.232q.125.546.245,1.094a2.742,2.742,0,0,1-2.679,3.321Zm-207.794-.731a2.7,2.7,0,0,1-.608-.068,2.737,2.737,0,0,1-2.063-3.278l.25-1.082a2.739,2.739,0,1,1,5.33,1.264l-.239,1.033A2.741,2.741,0,0,1,7841.827,1593.153Zm204.593-10.765a2.739,2.739,0,0,1-2.592-1.857l-.346-1a2.738,2.738,0,1,1,5.167-1.814l.363,1.049a2.741,2.741,0,0,1-2.592,3.623Zm-201.31-.709a2.741,2.741,0,0,1-2.586-3.642l.373-1.052a2.739,2.739,0,1,1,5.155,1.855l-.355,1A2.74,2.74,0,0,1,7845.109,1581.679Zm196.833-10.351a2.737,2.737,0,0,1-2.475-1.564l-.458-.956a2.738,2.738,0,1,1,4.927-2.391l.478,1a2.74,2.74,0,0,1-2.472,3.915Zm-192.274-.682a2.74,2.74,0,0,1-2.466-3.927c.161-.335.326-.669.489-1a2.739,2.739,0,0,1,4.913,2.424l-.465.954A2.743,2.743,0,0,1,7849.668,1570.646Zm186.583-9.8a2.74,2.74,0,0,1-2.332-1.3l-.561-.9a2.738,2.738,0,1,1,4.63-2.924l.589.939a2.739,2.739,0,0,1-2.327,4.181Zm-180.813-.649a2.741,2.741,0,0,1-2.319-4.195q.3-.473.6-.942a2.739,2.739,0,0,1,4.609,2.959c-.189.3-.38.594-.567.893A2.738,2.738,0,0,1,7855.438,1560.2Zm173.982-9.133a2.734,2.734,0,0,1-2.157-1.049l-.657-.828a2.739,2.739,0,0,1,4.275-3.424c.233.289.462.58.692.872a2.74,2.74,0,0,1-2.153,4.429Zm-167.079-.606a2.739,2.739,0,0,1-2.138-4.447q.346-.435.7-.868a2.738,2.738,0,1,1,4.245,3.461q-.333.41-.662.824A2.738,2.738,0,0,1,7862.342,1550.457Zm159.2-8.356a2.73,2.73,0,0,1-1.952-.818q-.368-.376-.744-.748a2.739,2.739,0,1,1,3.862-3.885q.4.393.786.792a2.738,2.738,0,0,1-1.952,4.659Zm-151.249-.55a2.739,2.739,0,0,1-1.938-4.673l.788-.782a2.739,2.739,0,0,1,3.841,3.906l-.752.746A2.73,2.73,0,0,1,7870.291,1541.551Zm142.419-7.481a2.726,2.726,0,0,1-1.724-.612q-.411-.334-.825-.663a2.738,2.738,0,1,1,3.406-4.288q.437.346.87.7a2.738,2.738,0,0,1-1.727,4.865Zm-133.531-.485a2.738,2.738,0,0,1-1.711-4.878l.865-.686a2.739,2.739,0,1,1,3.387,4.305l-.833.661A2.734,2.734,0,0,1,7879.179,1533.586Zm123.859-6.512a2.729,2.729,0,0,1-1.478-.434q-.446-.286-.893-.567a2.739,2.739,0,1,1,2.91-4.64q.473.3.942.6a2.738,2.738,0,0,1-1.482,5.043Zm-114.142-.412a2.739,2.739,0,0,1-1.464-5.055l.942-.588a2.739,2.739,0,1,1,2.879,4.66l-.9.56A2.731,2.731,0,0,1,7888.9,1526.662Zm103.75-5.459a2.732,2.732,0,0,1-1.21-.283q-.474-.234-.953-.464a2.739,2.739,0,0,1,2.373-4.937c.336.161.672.325,1,.488a2.739,2.739,0,0,1-1.214,5.2Zm-93.323-.334a2.739,2.739,0,0,1-1.2-5.2c.333-.163.671-.323,1.008-.482a2.739,2.739,0,0,1,2.327,4.96q-.475.222-.945.451A2.724,2.724,0,0,1,7899.323,1520.868Zm82.338-4.332a2.744,2.744,0,0,1-.93-.164c-.331-.12-.665-.237-1-.353a2.739,2.739,0,0,1,1.8-5.175c.354.123.706.248,1.059.375a2.739,2.739,0,0,1-.929,5.316Zm-71.326-.254a2.74,2.74,0,0,1-.908-5.324l1.047-.362a2.739,2.739,0,0,1,1.774,5.183l-1.007.348A2.707,2.707,0,0,1,7910.335,1516.283Zm59.882-3.145a2.772,2.772,0,0,1-.634-.074q-.513-.122-1.029-.239a2.738,2.738,0,1,1,1.207-5.342q.545.123,1.088.25a2.74,2.74,0,0,1-.631,5.4Zm-48.421-.17a2.739,2.739,0,0,1-.611-5.408q.546-.126,1.094-.244a2.739,2.739,0,1,1,1.157,5.354q-.514.112-1.025.229A2.753,2.753,0,0,1,7921.8,1512.968Zm36.673-1.916a2.7,2.7,0,0,1-.332-.02q-.523-.063-1.048-.121a2.739,2.739,0,1,1,.6-5.444q.556.06,1.108.127a2.739,2.739,0,0,1-.326,5.458Zm-24.913-.087a2.739,2.739,0,0,1-.3-5.461q.554-.063,1.109-.119a2.739,2.739,0,0,1,.558,5.449c-.352.036-.7.074-1.051.113A2.739,2.739,0,0,1,7933.557,1510.965Zm13-.675h-.024l-1.061,0a2.739,2.739,0,0,1,0-5.478l1.108,0a2.739,2.739,0,0,1-.024,5.478Z" transform="translate(-7836.467 -1504.809)"/></g></g></svg>