<svg xmlns="http://www.w3.org/2000/svg" width="29.263" height="23.783" viewBox="0 0 29.263 23.783"><defs><style>.a{fill:#abd3d1;}</style></defs><path class="a" d="M29.205,6.2a12.193,12.193,0,0,1-3.444.945A6.045,6.045,0,0,0,28.4,3.826,12.391,12.391,0,0,1,24.586,5.27,6,6,0,0,0,14.209,9.364a6.139,6.139,0,0,0,.155,1.37A16.99,16.99,0,0,1,2,4.485,5.879,5.879,0,0,0,1.188,7.5,6,6,0,0,0,3.855,12.5a5.979,5.979,0,0,1-2.716-.751v.074A6,6,0,0,0,5.95,17.7a6.054,6.054,0,0,1-2.7.1,6.019,6.019,0,0,0,5.613,4.166,12.031,12.031,0,0,1-7.44,2.566A12.733,12.733,0,0,1,0,24.459a17.063,17.063,0,0,0,9.214,2.693c11.039,0,17.068-9.139,17.068-17.052,0-.255,0-.512-.018-.768a12.114,12.114,0,0,0,3-3.107L29.205,6.2Z" transform="translate(0 -3.369)"/></svg>