<svg xmlns="http://www.w3.org/2000/svg" width="33.38" height="23.329" viewBox="0 0 33.38 23.329"><defs><style>.a{fill:#abd3d1;}</style></defs><path class="a" d="M32.69,9.026a4.184,4.184,0,0,0-2.905-2.905c-2.6-.7-13.073-.7-13.073-.7s-10.445-.014-13.073.7A4.184,4.184,0,0,0,.734,9.026,43.476,43.476,0,0,0,.007,17.1a43.476,43.476,0,0,0,.726,8.046,4.184,4.184,0,0,0,2.905,2.905c2.6.7,13.073.7,13.073.7s10.444,0,13.073-.7a4.184,4.184,0,0,0,2.905-2.905,43.477,43.477,0,0,0,.7-8.046A43.476,43.476,0,0,0,32.69,9.026ZM13.37,22.1V12.091L22.086,17.1Z" transform="translate(-0.007 -5.424)"/></svg>