<svg xmlns="http://www.w3.org/2000/svg" width="40" height="40" viewBox="0 0 40 40"><defs><style>.a{fill:#fff;}</style></defs><g transform="translate(-3.375 -3.375)"><path class="a" d="M38.437,29.586a2.329,2.329,0,0,1,.317-1.173,3.238,3.238,0,0,1,.2-.3,15.58,15.58,0,0,0,2.654-8.683c.029-8.865-7.452-16.058-16.7-16.058A16.587,16.587,0,0,0,8.533,16.154a15.452,15.452,0,0,0-.356,3.288A16.311,16.311,0,0,0,24.62,35.7a19.8,19.8,0,0,0,4.538-.74c1.087-.3,2.163-.692,2.442-.8A2.542,2.542,0,0,1,32.495,34a2.5,2.5,0,0,1,.971.192l5.452,1.933a1.3,1.3,0,0,0,.375.1.765.765,0,0,0,.769-.769,1.235,1.235,0,0,0-.048-.26Z" transform="translate(1.765)"/><path class="a" d="M29.385,33c-.346.1-.788.2-1.269.308a17.746,17.746,0,0,1-3.269.433A16.311,16.311,0,0,1,8.4,17.479a18.179,18.179,0,0,1,.144-2.058c.058-.413.125-.827.221-1.231.1-.433.212-.865.337-1.288l-.769.683a14.309,14.309,0,0,0-4.962,10.76A14.15,14.15,0,0,0,5.76,32.229c.221.337.346.6.308.769S4.923,38.96,4.923,38.96a.771.771,0,0,0,.26.74.783.783,0,0,0,.49.173.69.69,0,0,0,.279-.058l5.394-2.125a1.5,1.5,0,0,1,.548-.106,1.518,1.518,0,0,1,.606.125,16.183,16.183,0,0,0,5.837,1.154,15.1,15.1,0,0,0,11.548-5.3s.308-.423.663-.923C30.192,32.768,29.788,32.893,29.385,33Z" transform="translate(0 3.501)"/></g></svg>