<svg xmlns="http://www.w3.org/2000/svg" width="23.329" height="23.329" viewBox="0 0 23.329 23.329"><defs><style>.a{fill:#abd3d1;}</style></defs><path class="a" d="M21.981,1.928H6.489A3.93,3.93,0,0,0,2.571,5.847V21.339a3.93,3.93,0,0,0,3.919,3.919H21.981A3.93,3.93,0,0,0,25.9,21.339V5.847a3.93,3.93,0,0,0-3.919-3.919ZM11.319,20.883H8.4V10.676h2.916V20.883ZM9.861,9.218A1.458,1.458,0,1,1,11.319,7.76,1.458,1.458,0,0,1,9.861,9.218ZM21.526,20.883H18.609V15.051a1.458,1.458,0,1,0-2.916,0v5.832H12.777V10.676h2.916v1.811c.6-.826,1.521-1.811,2.552-1.811a3.477,3.477,0,0,1,3.281,3.645Z" transform="translate(-2.571 -1.928)"/></svg>