<svg xmlns="http://www.w3.org/2000/svg" xmlns:xlink="http://www.w3.org/1999/xlink" width="200" height="200" viewBox="0 0 200 200"><defs><style>.a{fill:#fff;stroke:#707070;}.b{clip-path:url(#a);}.c{fill:#88e2a6;}</style><clipPath id="a"><circle class="a" cx="100" cy="100" r="100" transform="translate(967 2143.667)"/></clipPath></defs><g class="b" transform="translate(-967 -2143.667)"><g transform="translate(963.987 2138.726)"><circle class="c" cx="4.97" cy="4.97" r="4.97"/><circle class="c" cx="4.97" cy="4.97" r="4.97" transform="translate(21.633 0)"/><circle class="c" cx="4.97" cy="4.97" r="4.97" transform="translate(43.265 0)"/><circle class="c" cx="4.97" cy="4.97" r="4.97" transform="translate(64.898 0)"/><circle class="c" cx="4.97" cy="4.97" r="4.97" transform="translate(86.53 0)"/><circle class="c" cx="4.97" cy="4.97" r="4.97" transform="translate(108.163 0)"/><circle class="c" cx="4.97" cy="4.97" r="4.97" transform="translate(129.795 0)"/><circle class="c" cx="4.97" cy="4.97" r="4.97" transform="translate(151.428 0)"/><circle class="c" cx="4.97" cy="4.97" r="4.97" transform="translate(173.06 0)"/><circle class="c" cx="4.97" cy="4.97" r="4.97" transform="translate(194.693 0)"/><circle class="c" cx="4.97" cy="4.97" r="4.97" transform="translate(0 21.633)"/><circle class="c" cx="4.97" cy="4.97" r="4.97" transform="translate(21.633 21.633)"/><circle class="c" cx="4.97" cy="4.97" r="4.97" transform="translate(43.265 21.633)"/><circle class="c" cx="4.97" cy="4.97" r="4.97" transform="translate(64.898 21.633)"/><circle class="c" cx="4.97" cy="4.97" r="4.97" transform="translate(86.53 21.633)"/><circle class="c" cx="4.97" cy="4.97" r="4.97" transform="translate(108.163 21.633)"/><circle class="c" cx="4.97" cy="4.97" r="4.97" transform="translate(129.795 21.633)"/><circle class="c" cx="4.97" cy="4.97" r="4.97" transform="translate(151.428 21.633)"/><circle class="c" cx="4.97" cy="4.97" r="4.97" transform="translate(173.06 21.633)"/><circle class="c" cx="4.97" cy="4.97" r="4.97" transform="translate(194.693 21.633)"/><circle class="c" cx="4.97" cy="4.97" r="4.97" transform="translate(0 43.265)"/><circle class="c" cx="4.97" cy="4.97" r="4.97" transform="translate(21.633 43.265)"/><circle class="c" cx="4.97" cy="4.97" r="4.97" transform="translate(43.265 43.265)"/><circle class="c" cx="4.97" cy="4.97" r="4.97" transform="translate(64.898 43.265)"/><circle class="c" cx="4.97" cy="4.97" r="4.97" transform="translate(86.53 43.265)"/><circle class="c" cx="4.97" cy="4.97" r="4.97" transform="translate(108.163 43.265)"/><circle class="c" cx="4.97" cy="4.97" r="4.97" transform="translate(129.795 43.265)"/><circle class="c" cx="4.97" cy="4.97" r="4.97" transform="translate(151.428 43.265)"/><circle class="c" cx="4.97" cy="4.97" r="4.97" transform="translate(173.06 43.265)"/><circle class="c" cx="4.97" cy="4.97" r="4.97" transform="translate(194.693 43.265)"/><circle class="c" cx="4.97" cy="4.97" r="4.97" transform="translate(0 64.898)"/><circle class="c" cx="4.97" cy="4.97" r="4.97" transform="translate(21.633 64.898)"/><circle class="c" cx="4.97" cy="4.97" r="4.97" transform="translate(43.265 64.898)"/><circle class="c" cx="4.97" cy="4.97" r="4.97" transform="translate(64.898 64.898)"/><circle class="c" cx="4.97" cy="4.97" r="4.97" transform="translate(86.53 64.898)"/><circle class="c" cx="4.97" cy="4.97" r="4.97" transform="translate(108.163 64.898)"/><circle class="c" cx="4.97" cy="4.97" r="4.97" transform="translate(129.795 64.898)"/><circle class="c" cx="4.97" cy="4.97" r="4.97" transform="translate(151.428 64.898)"/><circle class="c" cx="4.97" cy="4.97" r="4.97" transform="translate(173.06 64.898)"/><circle class="c" cx="4.97" cy="4.97" r="4.97" transform="translate(194.693 64.898)"/><circle class="c" cx="4.97" cy="4.97" r="4.97" transform="translate(0 86.53)"/><circle class="c" cx="4.97" cy="4.97" r="4.97" transform="translate(21.633 86.53)"/><circle class="c" cx="4.97" cy="4.97" r="4.97" transform="translate(43.265 86.53)"/><circle class="c" cx="4.97" cy="4.97" r="4.97" transform="translate(64.898 86.53)"/><circle class="c" cx="4.97" cy="4.97" r="4.97" transform="translate(86.53 86.53)"/><circle class="c" cx="4.97" cy="4.97" r="4.97" transform="translate(108.163 86.53)"/><circle class="c" cx="4.97" cy="4.97" r="4.97" transform="translate(129.795 86.53)"/><circle class="c" cx="4.97" cy="4.97" r="4.97" transform="translate(151.428 86.53)"/><circle class="c" cx="4.97" cy="4.97" r="4.97" transform="translate(173.06 86.53)"/><circle class="c" cx="4.97" cy="4.97" r="4.97" transform="translate(194.693 86.53)"/><circle class="c" cx="4.97" cy="4.97" r="4.97" transform="translate(0 108.163)"/><circle class="c" cx="4.97" cy="4.97" r="4.97" transform="translate(21.633 108.163)"/><circle class="c" cx="4.97" cy="4.97" r="4.97" transform="translate(43.265 108.163)"/><circle class="c" cx="4.97" cy="4.97" r="4.97" transform="translate(64.898 108.163)"/><circle class="c" cx="4.97" cy="4.97" r="4.97" transform="translate(86.53 108.163)"/><circle class="c" cx="4.97" cy="4.97" r="4.97" transform="translate(108.163 108.163)"/><circle class="c" cx="4.97" cy="4.97" r="4.97" transform="translate(129.795 108.163)"/><circle class="c" cx="4.97" cy="4.97" r="4.97" transform="translate(151.428 108.163)"/><circle class="c" cx="4.97" cy="4.97" r="4.97" transform="translate(173.06 108.163)"/><circle class="c" cx="4.97" cy="4.97" r="4.97" transform="translate(194.693 108.163)"/><circle class="c" cx="4.97" cy="4.97" r="4.97" transform="translate(0 129.795)"/><circle class="c" cx="4.97" cy="4.97" r="4.97" transform="translate(21.633 129.795)"/><circle class="c" cx="4.97" cy="4.97" r="4.97" transform="translate(43.265 129.795)"/><circle class="c" cx="4.97" cy="4.97" r="4.97" transform="translate(64.898 129.795)"/><circle class="c" cx="4.97" cy="4.97" r="4.97" transform="translate(86.53 129.795)"/><circle class="c" cx="4.97" cy="4.97" r="4.97" transform="translate(108.163 129.795)"/><circle class="c" cx="4.97" cy="4.97" r="4.97" transform="translate(129.795 129.795)"/><circle class="c" cx="4.97" cy="4.97" r="4.97" transform="translate(151.428 129.795)"/><circle class="c" cx="4.97" cy="4.97" r="4.97" transform="translate(173.06 129.795)"/><circle class="c" cx="4.97" cy="4.97" r="4.97" transform="translate(194.693 129.795)"/><circle class="c" cx="4.97" cy="4.97" r="4.97" transform="translate(0 151.428)"/><circle class="c" cx="4.97" cy="4.97" r="4.97" transform="translate(21.633 151.428)"/><circle class="c" cx="4.97" cy="4.97" r="4.97" transform="translate(43.265 151.428)"/><circle class="c" cx="4.97" cy="4.97" r="4.97" transform="translate(64.898 151.428)"/><circle class="c" cx="4.97" cy="4.97" r="4.97" transform="translate(86.53 151.428)"/><circle class="c" cx="4.97" cy="4.97" r="4.97" transform="translate(108.163 151.428)"/><circle class="c" cx="4.97" cy="4.97" r="4.97" transform="translate(129.795 151.428)"/><circle class="c" cx="4.97" cy="4.97" r="4.97" transform="translate(151.428 151.428)"/><circle class="c" cx="4.97" cy="4.97" r="4.97" transform="translate(173.06 151.428)"/><circle class="c" cx="4.97" cy="4.97" r="4.97" transform="translate(194.693 151.428)"/><circle class="c" cx="4.97" cy="4.97" r="4.97" transform="translate(0 173.06)"/><circle class="c" cx="4.97" cy="4.97" r="4.97" transform="translate(21.633 173.06)"/><circle class="c" cx="4.97" cy="4.97" r="4.97" transform="translate(43.265 173.06)"/><circle class="c" cx="4.97" cy="4.97" r="4.97" transform="translate(64.898 173.06)"/><circle class="c" cx="4.97" cy="4.97" r="4.97" transform="translate(86.53 173.06)"/><circle class="c" cx="4.97" cy="4.97" r="4.97" transform="translate(108.163 173.06)"/><circle class="c" cx="4.97" cy="4.97" r="4.97" transform="translate(129.795 173.06)"/><circle class="c" cx="4.97" cy="4.97" r="4.97" transform="translate(151.428 173.06)"/><circle class="c" cx="4.97" cy="4.97" r="4.97" transform="translate(173.06 173.06)"/><circle class="c" cx="4.97" cy="4.97" r="4.97" transform="translate(194.693 173.06)"/><circle class="c" cx="4.97" cy="4.97" r="4.97" transform="translate(0 194.693)"/><circle class="c" cx="4.97" cy="4.97" r="4.97" transform="translate(21.633 194.693)"/><circle class="c" cx="4.97" cy="4.97" r="4.97" transform="translate(43.265 194.693)"/><circle class="c" cx="4.97" cy="4.97" r="4.97" transform="translate(64.898 194.693)"/><circle class="c" cx="4.97" cy="4.97" r="4.97" transform="translate(86.53 194.693)"/><circle class="c" cx="4.97" cy="4.97" r="4.97" transform="translate(108.163 194.693)"/><circle class="c" cx="4.97" cy="4.97" r="4.97" transform="translate(129.795 194.693)"/><circle class="c" cx="4.97" cy="4.97" r="4.97" transform="translate(151.428 194.693)"/><circle class="c" cx="4.97" cy="4.97" r="4.97" transform="translate(173.06 194.693)"/><circle class="c" cx="4.97" cy="4.97" r="4.97" transform="translate(194.693 194.693)"/></g></g></svg>