<svg xmlns="http://www.w3.org/2000/svg" width="34" height="32.816" viewBox="0 0 34 32.816"><defs><style>.a{fill:#88e2a6;}</style></defs><path class="a" d="M-11.626-104.885a7.119,7.119,0,0,1-5.86-2.472,8.487,8.487,0,0,1-2.014-5.494,8.85,8.85,0,0,1,2.014-5.585A7.006,7.006,0,0,1-11.626-121q4.761,0,6.592,3.479a9.379,9.379,0,0,1,.916,6.959,4.244,4.244,0,0,1-.092.824,4.243,4.243,0,0,0-.092.824,32.842,32.842,0,0,1-2.106,7.691,41.3,41.3,0,0,1-3.571,6.959,19.4,19.4,0,0,1-7.508,6.043,1.2,1.2,0,0,1-1.373-.549,1.737,1.737,0,0,1-.092-1.648,1.674,1.674,0,0,1,1.1-1.282,2.678,2.678,0,0,0,1.282-.916,15.476,15.476,0,0,0,3.846-5.494,29.051,29.051,0,0,0,1.831-6.776Zm18.312,0a7.119,7.119,0,0,1-5.86-2.472,8.487,8.487,0,0,1-2.014-5.494,8.85,8.85,0,0,1,2.014-5.585A7.006,7.006,0,0,1,6.687-121q4.761,0,6.592,3.479a9.379,9.379,0,0,1,.916,6.959,4.244,4.244,0,0,1-.092.824,4.243,4.243,0,0,0-.092.824,32.842,32.842,0,0,1-2.106,7.691,41.3,41.3,0,0,1-3.571,6.959A19.4,19.4,0,0,1,.827-88.221,1.2,1.2,0,0,1-.547-88.77a1.737,1.737,0,0,1-.092-1.648A1.674,1.674,0,0,1,.461-91.7a2.678,2.678,0,0,0,1.282-.916A15.476,15.476,0,0,0,5.588-98.11a29.052,29.052,0,0,0,1.831-6.776Z" transform="translate(19.5 121)"/></svg>