<svg xmlns="http://www.w3.org/2000/svg" width="141" height="141" viewBox="0 0 141 141"><defs><style>.a{fill:#ffd876;}.b{fill:#fff;}</style></defs><g transform="translate(-574 -881.909)"><circle class="a" cx="70.5" cy="70.5" r="70.5" transform="translate(574 881.909)"/><g transform="translate(2197.236 -13.58)"><path class="b" d="M-1526.3,926.64l-5.536-3.129a8.169,8.169,0,0,0-6.355-.741,8.28,8.28,0,0,0-5.026,4.114l-.686,1.289-.1.189a.017.017,0,0,0,0,.014l-1.928,3.622a.167.167,0,0,0-.018.041.158.158,0,0,0-.023.037l-.156.295A20.256,20.256,0,0,0-1561.774,925a20.306,20.306,0,0,0-20.286,20.286,20.309,20.309,0,0,0,18.321,20.189l-11.556,21.726a1.48,1.48,0,0,0,.1,1.551l.267,10.953v.046l.207,8.348a1.482,1.482,0,0,0,.778,1.27,1.533,1.533,0,0,0,.7.175,1.491,1.491,0,0,0,.782-.221l16.052-9.986a.223.223,0,0,0,.055,0,1.482,1.482,0,0,0,1.312-.792l29.315-55.123a.167.167,0,0,0,.018-.041.163.163,0,0,0,.023-.037l1.919-3.608c0-.009.009-.014.014-.023l.1-.193.686-1.289A8.7,8.7,0,0,0-1526.3,926.64Zm-14.3,1.634a5.34,5.34,0,0,1,3.24-2.655,5.219,5.219,0,0,1,4.064.479l5.536,3.125a5.71,5.71,0,0,1,2.2,7.561l-15.053-8.5Zm13.549,11.321-.534,1.012-15.053-8.5.538-1.013Zm-52.708,5.688a18,18,0,0,1,17.985-17.985,17.972,17.972,0,0,1,14.455,7.294,18.078,18.078,0,0,1,1.786,2.968,17.877,17.877,0,0,1,1.744,7.722A18.012,18.012,0,0,1-1559.1,963.07a18.325,18.325,0,0,1-2.674.2c-.262,0-.525,0-.787-.018A18,18,0,0,1-1579.759,945.283Zm7.865,56.978.06.037h0c.911.5,1.836.966,2.766,1.417l-2.757,1.712Zm5.822-.41c-1.45-.681-2.931-1.39-4.335-2.158l-1.031-.571c-.179-.1-.364-.2-.543-.3l-.239-9.853,4.354-2.048,1.247,6.245a1.494,1.494,0,0,0,.755,1.017,1.487,1.487,0,0,0,1.266.064l5.61-2.315.773,5.035Zm10.336-8.3-.608-3.935a1.474,1.474,0,0,0-.736-1.068,1.485,1.485,0,0,0-1.293-.078l-5.688,2.347-1.27-6.337a1.463,1.463,0,0,0-.787-1.031,1.478,1.478,0,0,0-1.3-.018l-3.346,1.574,10.359-19.481a20.309,20.309,0,0,0,18.914-20.24,20.144,20.144,0,0,0-2.743-10.175l.156-.294,15.049,8.5Z" transform="translate(0 0)"/><path class="b" d="M-1544.143,967.478V964.9a1.953,1.953,0,0,0,1.559-1.91V961.94a1.944,1.944,0,0,0-1.054-1.721v-2.246a9.319,9.319,0,0,0,4.041-7.7,9.362,9.362,0,0,0-9.351-9.352,9.362,9.362,0,0,0-9.351,9.352,9.319,9.319,0,0,0,4.041,7.7v2.246a1.945,1.945,0,0,0-1.054,1.721v1.052a1.952,1.952,0,0,0,1.559,1.91v2.577a2.125,2.125,0,0,0,2.123,2.123h5.365A2.126,2.126,0,0,0-1544.143,967.478Zm-7.745-2.633h5.879v2.633a.257.257,0,0,1-.257.257h-5.365a.257.257,0,0,1-.256-.257Zm-.953-8.176a7.441,7.441,0,0,1-3.594-6.4,7.493,7.493,0,0,1,7.485-7.485,7.494,7.494,0,0,1,7.485,7.485,7.44,7.44,0,0,1-3.594,6.4.938.938,0,0,0-.447.8v2.525h-3.507a4.388,4.388,0,0,1,1.612-3.491.935.935,0,0,0,.2-1.3.927.927,0,0,0-.61-.374.925.925,0,0,0-.693.167,6.311,6.311,0,0,0-2.38,5h-1.515v-2.525A.937.937,0,0,0-1552.84,956.669Zm7.336,5.187v1.122h-6.889v-1.122Z" transform="translate(-12.826 -9.978)"/><path class="b" d="M-1546.273,965.672a.926.926,0,0,0,.615-.366l1.04-1.395,1.028,1.161a.964.964,0,0,0,1.395,0l.928-1.041.834,1.236a.955.955,0,0,0,1.3.253.924.924,0,0,0,.393-.6.927.927,0,0,0-.143-.7l-1.507-2.232a.927.927,0,0,0-.716-.409.918.918,0,0,0-.754.31l-1.027,1.152-1.093-1.233a.894.894,0,0,0-.738-.313.928.928,0,0,0-.709.374l-1.726,2.315a.925.925,0,0,0-.175.693.925.925,0,0,0,.365.612.927.927,0,0,0,.557.186A.9.9,0,0,0-1546.273,965.672Z" transform="translate(-18.742 -21.085)"/></g></g></svg>