<svg xmlns="http://www.w3.org/2000/svg" width="630.198" height="630.29" viewBox="0 0 630.198 630.29"><defs><style>.a{fill:#88e2a6;}</style></defs><g transform="translate(-7769.565 -1437.826)"><g transform="translate(7967.869 1635.937)"><path class="a" d="M8025.672,1807.252a5.445,5.445,0,0,1-.186-10.888q1.053-.037,2.1-.094a5.446,5.446,0,0,1,.583,10.876c-.765.039-1.531.075-2.3.1C8025.8,1807.25,8025.736,1807.252,8025.672,1807.252Zm-21.9-1.365a5.542,5.542,0,0,1-.875-.07q-1.14-.184-2.273-.391a5.446,5.446,0,1,1,1.945-10.716c.687.124,1.373.244,2.063.354a5.446,5.446,0,0,1-.86,10.823Zm45.8-2.069a5.446,5.446,0,0,1-1.353-10.719c.68-.174,1.353-.356,2.027-.542a5.445,5.445,0,0,1,2.91,10.494c-.738.2-1.481.4-2.223.593A5.392,5.392,0,0,1,8049.571,1803.818Zm-69.084-4.349a5.4,5.4,0,0,1-2.01-.386q-1.081-.428-2.146-.879a5.444,5.444,0,1,1,4.228-10.034q.965.4,1.941.792a5.446,5.446,0,0,1-2.014,10.507Zm91.691-4.165a5.445,5.445,0,0,1-2.465-10.3q.929-.472,1.846-.961a5.445,5.445,0,1,1,5.121,9.611c-.679.361-1.358.716-2.045,1.065A5.447,5.447,0,0,1,8072.178,1795.3Zm-113.041-7.135a5.411,5.411,0,0,1-3.048-.937q-.962-.65-1.907-1.319a5.445,5.445,0,0,1,6.3-8.886c.566.4,1.14.8,1.715,1.184a5.448,5.448,0,0,1-3.056,9.958Zm133.262-6.046a5.446,5.446,0,0,1-3.446-9.665c.541-.441,1.072-.884,1.6-1.336a5.445,5.445,0,0,1,7.057,8.3q-.876.746-1.775,1.48A5.423,5.423,0,0,1,8092.4,1782.123Zm-151.68-9.574a5.421,5.421,0,0,1-3.947-1.694q-.792-.835-1.568-1.682a5.445,5.445,0,1,1,8.031-7.353q.712.776,1.431,1.536a5.443,5.443,0,0,1-3.946,9.194Zm168.613-7.633a5.447,5.447,0,0,1-4.267-8.825c.434-.549.865-1.1,1.289-1.659a5.446,5.446,0,0,1,8.665,6.6q-.7.916-1.412,1.818A5.438,5.438,0,0,1,8109.333,1764.916Zm-183.264-11.555a5.441,5.441,0,0,1-4.663-2.625q-.593-.982-1.171-1.975a5.446,5.446,0,0,1,9.419-5.469q.526.907,1.067,1.8a5.446,5.446,0,0,1-4.652,8.267Zm196.128-8.88a5.445,5.445,0,0,1-4.885-7.841c.3-.622.6-1.25.893-1.881a5.445,5.445,0,0,1,9.887,4.567q-.488,1.059-1,2.1A5.445,5.445,0,0,1,8122.2,1744.481Zm-206.318-13.006a5.445,5.445,0,0,1-5.154-3.693q-.374-1.089-.722-2.192a5.445,5.445,0,0,1,10.376-3.308c.213.668.429,1.33.654,1.99a5.449,5.449,0,0,1-5.154,7.2Zm214.483-9.727a5.447,5.447,0,0,1-5.3-6.711c.164-.681.319-1.363.471-2.047a5.445,5.445,0,1,1,10.636,2.335q-.246,1.125-.513,2.24A5.445,5.445,0,0,1,8130.362,1721.748Zm-219.7-13.849a5.444,5.444,0,0,1-5.407-4.86q-.126-1.14-.227-2.286a5.445,5.445,0,1,1,10.846-.978c.063.7.133,1.4.207,2.091a5.444,5.444,0,0,1-4.829,6A5.319,5.319,0,0,1,7910.658,1707.9Zm222.757-10.1h-.112a5.443,5.443,0,0,1-5.332-5.555c.013-.7.019-1.391.019-2.089l0-.454a5.445,5.445,0,1,1,10.891,0v.378c0,.85,0,1.618-.023,2.387A5.443,5.443,0,0,1,8133.415,1697.8Zm-222.794-14.043a5.454,5.454,0,0,1-5.421-6.013q.119-1.153.266-2.3a5.445,5.445,0,1,1,10.8,1.365c-.085.687-.166,1.376-.238,2.07A5.446,5.446,0,0,1,7910.621,1683.755Zm220.581-10.45a5.448,5.448,0,0,1-5.334-4.375q-.2-1.021-.435-2.037a5.447,5.447,0,0,1,10.632-2.372c.165.751.328,1.506.48,2.265a5.452,5.452,0,0,1-5.344,6.518Zm-215.468-13.145a5.447,5.447,0,0,1-5.164-7.176q.366-1.089.747-2.171a5.446,5.446,0,1,1,10.27,3.628q-.354,1-.689,2A5.449,5.449,0,0,1,7915.734,1660.16Zm208.138-9.858a5.447,5.447,0,0,1-4.983-3.245q-.422-.953-.862-1.894a5.445,5.445,0,0,1,9.869-4.6c.323.7.646,1.394.956,2.1a5.448,5.448,0,0,1-4.979,7.647Zm-198.04-12.083a5.447,5.447,0,0,1-4.663-8.252q.6-.991,1.21-1.971a5.446,5.446,0,1,1,9.22,5.8c-.372.591-.735,1.186-1.1,1.786A5.44,5.44,0,0,1,7925.832,1638.219Zm185.913-8.788a5.44,5.44,0,0,1-4.395-2.224q-.618-.841-1.253-1.669a5.445,5.445,0,0,1,8.648-6.618q.7.914,1.384,1.845a5.444,5.444,0,0,1-4.385,8.667Zm-171.325-10.465a5.445,5.445,0,0,1-3.967-9.175q.791-.841,1.6-1.666a5.445,5.445,0,1,1,7.78,7.621q-.729.745-1.445,1.505A5.434,5.434,0,0,1,7940.419,1618.966Zm154.993-7.328a5.413,5.413,0,0,1-3.589-1.354q-.791-.692-1.59-1.369a5.445,5.445,0,1,1,7.032-8.315q.879.742,1.741,1.5a5.445,5.445,0,0,1-3.595,9.536Zm-136.631-8.359a5.445,5.445,0,0,1-3.077-9.94q.951-.65,1.916-1.281a5.445,5.445,0,0,1,5.964,9.112q-.875.573-1.735,1.163A5.423,5.423,0,0,1,7958.782,1603.279Zm116.88-5.532a5.415,5.415,0,0,1-2.638-.685c-.605-.335-1.22-.665-1.834-.99a5.445,5.445,0,1,1,5.072-9.637q1.03.54,2.045,1.106a5.445,5.445,0,0,1-2.646,10.207Zm-95.59-5.848a5.445,5.445,0,0,1-2.031-10.5c.714-.287,1.429-.567,2.15-.839a5.445,5.445,0,1,1,3.862,10.182q-.983.373-1.952.763A5.458,5.458,0,0,1,7980.072,1591.9Zm73.313-3.467a5.429,5.429,0,0,1-1.537-.223c-.668-.2-1.343-.388-2.016-.572a5.445,5.445,0,1,1,2.87-10.505q1.113.305,2.215.63a5.446,5.446,0,0,1-1.532,10.671Zm-50.072-3.044a5.446,5.446,0,0,1-.88-10.819c.754-.125,1.516-.243,2.275-.353a5.446,5.446,0,0,1,1.565,10.778q-1.037.15-2.067.321A5.477,5.477,0,0,1,8003.313,1585.388Zm26.313-1.233c-.129,0-.257,0-.387-.013-.694-.05-1.392-.091-2.091-.127a5.444,5.444,0,1,1,.553-10.875c.769.038,1.533.084,2.3.136a5.446,5.446,0,0,1-.374,10.879Z" transform="translate(-7905.001 -1573.13)"/></g><g transform="translate(8037.138 1704.522)"><path class="a" d="M7993.669,1716.611a5.31,5.31,0,0,1-.769-.056c-.836-.117-1.663-.257-2.486-.416a5.446,5.446,0,1,1,2.079-10.691c.64.126,1.284.233,1.935.327a5.445,5.445,0,0,1-.759,10.836Zm22-2.6a5.446,5.446,0,0,1-2.01-10.508c.61-.24,1.208-.5,1.8-.766a5.445,5.445,0,1,1,4.53,9.9q-1.143.523-2.317.987A5.434,5.434,0,0,1,8015.67,1714.009Zm-44.145-7.473a5.422,5.422,0,0,1-3.559-1.327q-.958-.825-1.867-1.7a5.444,5.444,0,0,1,7.542-7.854q.708.676,1.447,1.318a5.446,5.446,0,0,1-3.563,9.564Zm63.3-7.492a5.444,5.444,0,0,1-4.413-8.629q.567-.791,1.1-1.612a5.444,5.444,0,1,1,9.163,5.883c-.454.712-.932,1.41-1.426,2.1A5.436,5.436,0,0,1,8034.827,1699.044Zm-76.492-12.939a5.442,5.442,0,0,1-5.22-3.9q-.359-1.206-.653-2.441a5.445,5.445,0,0,1,10.592-2.532c.151.637.323,1.268.506,1.89a5.445,5.445,0,0,1-5.225,6.987Zm84.546-10.009c-.094,0-.187,0-.283-.007a5.446,5.446,0,0,1-5.158-5.719q.05-.973.05-1.959a5.523,5.523,0,0,1,5.446-5.535,5.368,5.368,0,0,1,5.445,5.354v.18q0,1.267-.064,2.521A5.446,5.446,0,0,1,8042.88,1676.1Zm-84.6-14.308a5.449,5.449,0,0,1-5.231-6.961q.354-1.228.775-2.425a5.446,5.446,0,0,1,10.276,3.608c-.216.608-.41,1.223-.592,1.845A5.448,5.448,0,0,1,7958.285,1661.788Zm78.889-9.507a5.437,5.437,0,0,1-4.715-2.715q-.492-.848-1.027-1.672a5.445,5.445,0,1,1,9.133-5.931q.684,1.052,1.315,2.141a5.447,5.447,0,0,1-4.706,8.177Zm-65.784-10.983a5.445,5.445,0,0,1-3.582-9.547c.63-.55,1.279-1.088,1.94-1.608a5.445,5.445,0,0,1,6.729,8.563q-.769.606-1.509,1.249A5.43,5.43,0,0,1,7971.389,1641.3Zm48.189-5.81a5.42,5.42,0,0,1-2.5-.611q-.87-.45-1.765-.857a5.445,5.445,0,1,1,4.5-9.918q1.151.523,2.275,1.1a5.447,5.447,0,0,1-2.507,10.283Zm-26.109-4.357a5.446,5.446,0,0,1-.781-10.835c.826-.12,1.662-.22,2.5-.3a5.445,5.445,0,1,1,1.021,10.842q-.98.092-1.948.233A5.43,5.43,0,0,1,7993.469,1631.131Z" transform="translate(-7952.311 -1619.973)"/></g><g transform="translate(7901.897 1570.05)"><path class="a" d="M8036.786,1893.9c-.062,0-.121,0-.182,0-.74-.022-1.482-.051-2.22-.085a5.445,5.445,0,0,1,.484-10.879q1.044.046,2.088.08a5.445,5.445,0,0,1-.171,10.888Zm21.535-.592a5.445,5.445,0,0,1-.467-10.869c.7-.062,1.388-.126,2.082-.2a5.446,5.446,0,0,1,1.081,10.838q-1.106.109-2.215.208C8058.64,1893.3,8058.481,1893.311,8058.321,1893.311Zm-45.12-1.744a5.357,5.357,0,0,1-.9-.075q-1.1-.182-2.2-.38a5.445,5.445,0,1,1,1.936-10.716q1.021.182,2.05.354a5.446,5.446,0,0,1-.887,10.818Zm68.547-1.9a5.446,5.446,0,0,1-1.2-10.757q1.024-.231,2.044-.473a5.445,5.445,0,0,1,2.515,10.6q-1.077.255-2.157.5A5.522,5.522,0,0,1,8081.748,1889.671Zm-91.621-3.567a5.467,5.467,0,0,1-1.611-.244c-.71-.219-1.424-.445-2.129-.674a5.444,5.444,0,1,1,3.347-10.362c.663.212,1.329.425,2,.632a5.445,5.445,0,0,1-1.606,10.648Zm114.352-3.179a5.447,5.447,0,0,1-1.9-10.55c.657-.244,1.31-.49,1.963-.742a5.445,5.445,0,0,1,3.917,10.161q-1.033.4-2.076.786A5.46,5.46,0,0,1,8104.479,1882.925Zm-136.5-5.341a5.426,5.426,0,0,1-2.288-.506q-1.015-.472-2.021-.955a5.444,5.444,0,1,1,4.713-9.816q.942.45,1.893.891a5.446,5.446,0,0,1-2.3,10.385Zm158.128-4.4a5.445,5.445,0,0,1-2.566-10.25q.918-.49,1.827-.991a5.445,5.445,0,0,1,5.254,9.539q-.974.536-1.954,1.059A5.42,5.42,0,0,1,8126.1,1873.188Zm-178.928-7.012a5.435,5.435,0,0,1-2.933-.859q-.932-.6-1.859-1.207a5.445,5.445,0,1,1,5.97-9.107c.586.384,1.172.765,1.763,1.142a5.445,5.445,0,0,1-2.94,10.031Zm199.04-5.517a5.444,5.444,0,0,1-3.184-9.865c.562-.406,1.123-.814,1.679-1.226a5.445,5.445,0,1,1,6.478,8.754q-.9.663-1.8,1.314A5.422,5.422,0,0,1,8146.214,1860.659Zm-218.126-8.555a5.419,5.419,0,0,1-3.516-1.29l-1.681-1.435a5.446,5.446,0,0,1,7.117-8.245l1.6,1.369a5.444,5.444,0,0,1-3.521,9.6Zm236.394-6.539a5.446,5.446,0,0,1-3.735-9.407q.76-.716,1.51-1.442a5.445,5.445,0,0,1,7.571,7.827q-.8.776-1.61,1.539A5.426,5.426,0,0,1,8164.481,1845.565Zm-253.439-9.936a5.431,5.431,0,0,1-4.036-1.788q-.747-.823-1.48-1.653a5.446,5.446,0,0,1,8.155-7.22q.691.784,1.4,1.559a5.446,5.446,0,0,1-4.034,9.1Zm269.557-7.45a5.446,5.446,0,0,1-4.225-8.877q.656-.813,1.307-1.631a5.446,5.446,0,0,1,8.543,6.756q-.693.874-1.392,1.738A5.438,5.438,0,0,1,8180.6,1828.179Zm-284.264-11.134a5.438,5.438,0,0,1-4.493-2.362q-.625-.912-1.243-1.829a5.445,5.445,0,0,1,9.041-6.071c.389.58.783,1.158,1.177,1.732a5.445,5.445,0,0,1-4.481,8.529Zm297.934-8.241a5.445,5.445,0,0,1-4.645-8.278c.361-.6.724-1.2,1.082-1.8a5.444,5.444,0,1,1,9.363,5.558q-.565.957-1.146,1.9A5.44,5.44,0,0,1,8194.269,1808.8Zm-310.042-12.126a5.443,5.443,0,0,1-4.863-2.989q-.5-.981-.985-1.97a5.445,5.445,0,1,1,9.767-4.819l.936,1.874a5.445,5.445,0,0,1-4.854,7.9Zm321.013-8.907a5.446,5.446,0,0,1-4.978-7.647c.282-.635.555-1.277.828-1.918a5.446,5.446,0,0,1,10.022,4.265q-.438,1.032-.89,2.056A5.443,5.443,0,0,1,8205.239,1787.772Zm-330.293-12.9a5.45,5.45,0,0,1-5.144-3.656q-.365-1.052-.717-2.107a5.445,5.445,0,1,1,10.329-3.448c.222.661.443,1.319.674,1.975a5.448,5.448,0,0,1-5.143,7.236Zm338.354-9.415a5.448,5.448,0,0,1-5.235-6.946c.192-.668.377-1.337.561-2.009a5.446,5.446,0,0,1,10.509,2.865q-.3,1.074-.6,2.145A5.45,5.45,0,0,1,8213.3,1765.455Zm-344.634-13.448a5.443,5.443,0,0,1-5.329-4.366l-.428-2.167a5.445,5.445,0,1,1,10.693-2.059l.407,2.065a5.453,5.453,0,0,1-5.344,6.528Zm349.618-9.727a5.459,5.459,0,0,1-5.4-6.222l.29-2.087a5.446,5.446,0,0,1,10.795,1.448l-.3,2.187A5.448,5.448,0,0,1,8218.285,1742.28Zm-352.771-13.769a5.446,5.446,0,0,1-5.426-5.075q-.076-1.116-.135-2.233a5.444,5.444,0,1,1,10.872-.582q.057,1.037.128,2.072a5.446,5.446,0,0,1-5.063,5.8C7865.766,1728.506,7865.641,1728.511,7865.515,1728.511Zm354.612-9.867h-.065a5.444,5.444,0,0,1-5.381-5.51q.012-1.044.011-2.093v-.354a5.446,5.446,0,0,1,10.892,0v.354q0,1.112-.014,2.223A5.445,5.445,0,0,1,8220.127,1718.643ZM7865.5,1704.8c-.121,0-.239,0-.361-.01a5.446,5.446,0,0,1-5.079-5.788q.073-1.109.159-2.217a5.445,5.445,0,1,1,10.857.838c-.054.7-.1,1.391-.146,2.088A5.45,5.45,0,0,1,7865.5,1704.8Zm353.3-10.182a5.444,5.444,0,0,1-5.4-4.77l-.271-2.089a5.445,5.445,0,0,1,10.793-1.453l.282,2.192a5.445,5.445,0,0,1-4.726,6.078A5.756,5.756,0,0,1,8218.8,1694.621ZM7868.612,1681.3a5.448,5.448,0,0,1-5.344-6.525l.45-2.162a5.444,5.444,0,1,1,10.65,2.258l-.427,2.061A5.444,5.444,0,0,1,7868.612,1681.3Zm345.728-9.964a5.446,5.446,0,0,1-5.265-4.079q-.261-1-.536-2a5.444,5.444,0,1,1,10.494-2.9q.3,1.081.583,2.167a5.449,5.449,0,0,1-5.276,6.814Zm-339.5-12.923a5.446,5.446,0,0,1-5.145-7.226q.365-1.059.745-2.11a5.444,5.444,0,1,1,10.243,3.693q-.353.984-.7,1.975A5.444,5.444,0,0,1,7874.835,1658.416Zm331.968-9.552a5.447,5.447,0,0,1-5.033-3.363c-.267-.644-.534-1.287-.809-1.927a5.446,5.446,0,1,1,10.018-4.274q.431,1.014.853,2.035a5.447,5.447,0,0,1-5.028,7.529Zm-322.718-12.3a5.447,5.447,0,0,1-4.854-7.9l1-1.963a5.445,5.445,0,1,1,9.679,4.993l-.967,1.886A5.438,5.438,0,0,1,7884.085,1636.566Zm312.244-8.945a5.445,5.445,0,0,1-4.719-2.723q-.519-.9-1.051-1.786a5.446,5.446,0,0,1,9.351-5.586q.571.957,1.132,1.925a5.449,5.449,0,0,1-4.713,8.17Zm-300.158-11.464a5.446,5.446,0,0,1-4.482-8.533q.628-.914,1.268-1.82a5.444,5.444,0,1,1,8.9,6.268q-.6.859-1.2,1.728A5.439,5.439,0,0,1,7896.171,1616.156Zm286.936-8.2a5.435,5.435,0,0,1-4.316-2.119c-.423-.548-.848-1.094-1.279-1.636a5.446,5.446,0,0,1,8.529-6.773c.461.583.921,1.168,1.373,1.755a5.445,5.445,0,0,1-4.307,8.772Zm-272.243-10.413a5.446,5.446,0,0,1-4.04-9.1q.747-.828,1.5-1.644a5.446,5.446,0,0,1,7.985,7.407q-.71.764-1.41,1.54A5.43,5.43,0,0,1,7910.863,1597.541Zm256.524-7.328a5.435,5.435,0,0,1-3.827-1.57q-.747-.738-1.5-1.464a5.445,5.445,0,0,1,7.562-7.836c.534.512,1.062,1.029,1.591,1.55a5.446,5.446,0,0,1-3.827,9.32Zm-239.5-9.172a5.444,5.444,0,0,1-3.521-9.6q.845-.716,1.7-1.424a5.445,5.445,0,1,1,6.939,8.392q-.806.666-1.6,1.343A5.423,5.423,0,0,1,7927.893,1581.041Zm221.552-6.335a5.427,5.427,0,0,1-3.278-1.1q-.833-.628-1.671-1.246a5.444,5.444,0,1,1,6.443-8.777c.6.44,1.2.885,1.793,1.335a5.445,5.445,0,0,1-3.287,9.79Zm-202.5-7.756a5.447,5.447,0,0,1-2.942-10.031c.625-.4,1.251-.8,1.884-1.191a5.446,5.446,0,1,1,5.751,9.249q-.883.549-1.758,1.111A5.427,5.427,0,0,1,7946.948,1566.949Zm182.658-5.234a5.414,5.414,0,0,1-2.666-.7q-.916-.514-1.837-1.018a5.446,5.446,0,1,1,5.229-9.554c.65.355,1.3.716,1.946,1.08a5.446,5.446,0,0,1-2.673,10.192Zm-161.905-6.193a5.446,5.446,0,0,1-2.309-10.38q1.006-.467,2.018-.927a5.446,5.446,0,0,1,4.48,9.927q-.949.428-1.888.867A5.426,5.426,0,0,1,7967.7,1555.522Zm140.5-4.037a5.427,5.427,0,0,1-2.006-.385c-.649-.258-1.3-.513-1.955-.763a5.445,5.445,0,1,1,3.9-10.17c.7.267,1.386.538,2.076.811a5.445,5.445,0,0,1-2.011,10.507Zm-118.405-4.513a5.446,5.446,0,0,1-1.616-10.646c.712-.22,1.421-.437,2.133-.649a5.445,5.445,0,0,1,3.1,10.44c-.669.2-1.333.4-2,.609A5.472,5.472,0,0,1,7989.8,1546.972Zm95.824-2.751a5.458,5.458,0,0,1-1.325-.164q-1.012-.25-2.025-.489a5.446,5.446,0,1,1,2.5-10.6c.723.171,1.449.345,2.169.527a5.445,5.445,0,0,1-1.315,10.728Zm-72.77-2.757a5.446,5.446,0,0,1-.9-10.816q1.1-.186,2.2-.357a5.446,5.446,0,1,1,1.677,10.762c-.688.107-1.379.219-2.063.334A5.5,5.5,0,0,1,8012.854,1541.464Zm49.433-1.41a5.639,5.639,0,0,1-.6-.034q-1.039-.115-2.076-.215a5.446,5.446,0,1,1,1.06-10.839q1.11.108,2.212.23a5.446,5.446,0,0,1-.592,10.858Zm-25.846-.971a5.445,5.445,0,0,1-.18-10.888c.738-.025,1.476-.046,2.217-.061a5.373,5.373,0,0,1,5.563,5.322,5.445,5.445,0,0,1-5.321,5.565q-1.047.022-2.088.059Z" transform="translate(-7859.946 -1528.132)"/></g><g transform="translate(7934.101 1602.827)"><path class="a" d="M8042.32,1850.8a5.445,5.445,0,0,1-.359-10.877c.7-.048,1.4-.1,2.094-.158a5.446,5.446,0,0,1,.894,10.855q-1.126.092-2.256.167C8042.569,1850.792,8042.444,1850.8,8042.32,1850.8Zm-21.756-.145c-.147,0-.3,0-.447-.017-.753-.06-1.5-.128-2.258-.2a5.445,5.445,0,0,1,1.05-10.839q1.042.1,2.086.186a5.445,5.445,0,0,1-.431,10.872Zm45.434-3.431a5.446,5.446,0,0,1-1.249-10.746q1.021-.242,2.039-.5a5.444,5.444,0,1,1,2.662,10.558c-.729.186-1.463.366-2.194.539A5.552,5.552,0,0,1,8066,1847.221Zm-69.06-.464a5.409,5.409,0,0,1-1.332-.165q-1.1-.276-2.188-.568a5.445,5.445,0,1,1,2.813-10.52c.673.18,1.353.355,2.03.527a5.445,5.445,0,0,1-1.322,10.726Zm91.824-6.978a5.446,5.446,0,0,1-2.105-10.469q.958-.4,1.9-.82a5.446,5.446,0,0,1,4.392,9.968c-.691.3-1.385.6-2.087.9A5.424,5.424,0,0,1,8088.762,1839.779Zm-114.5-.779a5.42,5.42,0,0,1-2.182-.458q-1.04-.456-2.072-.927a5.444,5.444,0,1,1,4.522-9.905c.636.288,1.276.575,1.917.857a5.445,5.445,0,0,1-2.186,10.433Zm135.705-10.315a5.445,5.445,0,0,1-2.931-10.039c.59-.376,1.184-.757,1.771-1.142a5.445,5.445,0,1,1,5.964,9.112q-.937.612-1.883,1.214A5.412,5.412,0,0,1,8109.964,1828.685Zm-156.778-1.088a5.419,5.419,0,0,1-2.978-.889q-.948-.619-1.889-1.253a5.446,5.446,0,1,1,6.1-9.024q.87.591,1.749,1.162a5.446,5.446,0,0,1-2.983,10Zm175.87-13.349a5.445,5.445,0,0,1-3.636-9.5c.521-.466,1.041-.935,1.553-1.411a5.446,5.446,0,1,1,7.385,8.006q-.832.766-1.672,1.518A5.427,5.427,0,0,1,8129.056,1814.248Zm-194.774-1.36a5.424,5.424,0,0,1-3.687-1.439q-.829-.762-1.649-1.541a5.445,5.445,0,1,1,7.491-7.9q.762.72,1.536,1.432a5.446,5.446,0,0,1-3.691,9.451Zm211.248-16.012a5.444,5.444,0,0,1-4.241-8.854c.439-.546.871-1.1,1.3-1.649a5.445,5.445,0,1,1,8.589,6.694c-.461.594-.931,1.184-1.4,1.773A5.441,5.441,0,0,1,8145.53,1796.875Zm-227.479-1.586a5.438,5.438,0,0,1-4.3-2.094q-.694-.89-1.377-1.79a5.446,5.446,0,0,1,8.684-6.575q.631.837,1.279,1.663a5.445,5.445,0,0,1-4.288,8.8Zm240.894-18.257a5.447,5.447,0,0,1-4.733-8.129q.511-.907,1.006-1.821a5.445,5.445,0,1,1,9.576,5.184c-.362.671-.728,1.337-1.105,2A5.445,5.445,0,0,1,8158.945,1777.032Zm-254.025-1.756a5.437,5.437,0,0,1-4.783-2.839q-.543-.995-1.066-2a5.443,5.443,0,1,1,9.646-5.047c.324.615.648,1.226.981,1.833a5.447,5.447,0,0,1-4.778,8.053Zm264-20.037a5.446,5.446,0,0,1-5.122-7.292q.353-.986.7-1.98a5.444,5.444,0,1,1,10.3,3.524c-.244.718-.5,1.434-.754,2.147A5.444,5.444,0,0,1,8168.915,1755.24Zm-273.652-1.87a5.447,5.447,0,0,1-5.149-3.675q-.366-1.063-.72-2.135a5.445,5.445,0,0,1,10.345-3.406q.33,1,.674,2a5.452,5.452,0,0,1-5.149,7.218Zm279.871-21.263a5.347,5.347,0,0,1-.982-.089,5.444,5.444,0,0,1-4.384-6.331q.188-1.027.359-2.063a5.444,5.444,0,1,1,10.741,1.782c-.123.745-.25,1.489-.386,2.23A5.445,5.445,0,0,1,8175.133,1732.107Zm-285.766-1.944a5.446,5.446,0,0,1-5.364-4.552q-.186-1.107-.355-2.218a5.445,5.445,0,0,1,10.763-1.657c.109.7.219,1.394.333,2.088a5.445,5.445,0,0,1-4.476,6.265A5.523,5.523,0,0,1,7889.368,1730.162Zm288.068-21.887h-.082a5.447,5.447,0,0,1-5.363-5.524q.016-1.048.016-2.1v-.4a5.445,5.445,0,1,1,10.89,0v.4q0,1.131-.015,2.26A5.449,5.449,0,0,1,8177.436,1708.276Zm-290.052-2.079a5.36,5.36,0,0,1-5.444-5.344v-.2c0-.683,0-1.366.013-2.048a5.446,5.446,0,0,1,5.442-5.375h.073a5.448,5.448,0,0,1,5.376,5.515q-.015.954-.015,1.908A5.532,5.532,0,0,1,7887.384,1706.2Zm288.39-22.21a5.444,5.444,0,0,1-5.375-4.618c-.105-.693-.217-1.381-.334-2.071a5.445,5.445,0,0,1,10.736-1.818q.189,1.113.36,2.233a5.445,5.445,0,0,1-4.553,6.21A5.6,5.6,0,0,1,8175.774,1683.986Zm-286.462-1.554a5.534,5.534,0,0,1-.884-.072,5.448,5.448,0,0,1-4.5-6.25q.183-1.118.383-2.23a5.445,5.445,0,1,1,10.72,1.915q-.183,1.032-.353,2.066A5.447,5.447,0,0,1,7889.312,1682.433Zm280.895-21.733a5.445,5.445,0,0,1-5.171-3.744q-.327-.995-.669-1.981a5.445,5.445,0,1,1,10.287-3.574c.249.715.488,1.431.727,2.149a5.451,5.451,0,0,1-5.174,7.15Zm-275.074-1.493a5.447,5.447,0,0,1-5.151-7.208q.366-1.076.75-2.145a5.445,5.445,0,1,1,10.247,3.685c-.237.66-.467,1.321-.7,1.984A5.446,5.446,0,0,1,7895.132,1659.207Zm265.723-20.552a5.449,5.449,0,0,1-4.829-2.918c-.32-.617-.648-1.227-.981-1.836a5.446,5.446,0,0,1,9.563-5.214c.358.662.717,1.327,1.068,1.994a5.449,5.449,0,0,1-4.82,7.974Zm-256.124-1.4a5.451,5.451,0,0,1-4.787-8.037c.361-.665.724-1.325,1.093-1.983a5.444,5.444,0,1,1,9.5,5.316q-.516.918-1.015,1.846A5.443,5.443,0,0,1,7904.731,1637.251ZM8148,1618.468a5.436,5.436,0,0,1-4.337-2.146q-.64-.839-1.285-1.667a5.444,5.444,0,1,1,8.576-6.709q.691.883,1.373,1.78a5.446,5.446,0,0,1-4.327,8.743Zm-230.179-1.283a5.446,5.446,0,0,1-4.295-8.788q.693-.889,1.4-1.769a5.446,5.446,0,0,1,8.509,6.8q-.658.821-1.307,1.655A5.438,5.438,0,0,1,7917.821,1617.186ZM8132,1600.652a5.427,5.427,0,0,1-3.74-1.488q-.76-.721-1.534-1.428a5.446,5.446,0,1,1,7.36-8.028q.833.766,1.655,1.542a5.445,5.445,0,0,1-3.741,9.4Zm-197.977-1.107a5.446,5.446,0,0,1-3.7-9.448c.555-.51,1.107-1.015,1.667-1.516a5.445,5.445,0,0,1,7.274,8.1q-.784.7-1.556,1.417A5.432,5.432,0,0,1,7934.025,1599.545Zm179.272-13.852a5.426,5.426,0,0,1-3.035-.928c-.579-.39-1.162-.778-1.749-1.158a5.445,5.445,0,1,1,5.935-9.131q.951.619,1.893,1.252a5.447,5.447,0,0,1-3.043,9.965Zm-160.41-.895a5.446,5.446,0,0,1-2.99-10q.932-.615,1.876-1.217a5.446,5.446,0,0,1,5.868,9.176q-.889.567-1.772,1.147A5.426,5.426,0,0,1,7952.887,1584.8ZM8092.381,1574a5.415,5.415,0,0,1-2.257-.494q-.951-.435-1.912-.852a5.445,5.445,0,0,1,4.356-9.981q1.043.457,2.078.928a5.445,5.445,0,0,1-2.266,10.4Zm-118.481-.65a5.446,5.446,0,0,1-2.2-10.427q1.034-.456,2.079-.9a5.445,5.445,0,1,1,4.232,10.034q-.958.4-1.907.824A5.437,5.437,0,0,1,7973.9,1573.354Zm95.925-7.421a5.441,5.441,0,0,1-1.411-.186q-1.008-.27-2.024-.524a5.445,5.445,0,1,1,2.643-10.564c.733.183,1.468.373,2.194.568a5.446,5.446,0,0,1-1.4,10.706Zm-73.306-.394a5.447,5.447,0,0,1-1.337-10.725q1.1-.277,2.2-.539a5.445,5.445,0,0,1,2.523,10.594q-1.022.244-2.038.5A5.46,5.46,0,0,1,7996.519,1565.54Zm49.74-3.826c-.175,0-.349-.009-.525-.025q-1.039-.1-2.082-.182a5.445,5.445,0,1,1,.859-10.857q1.129.09,2.261.2a5.445,5.445,0,0,1-.513,10.865Zm-26.131-.139a5.445,5.445,0,0,1-.449-10.872q1.128-.092,2.256-.171a5.445,5.445,0,1,1,.748,10.864q-1.047.072-2.093.159C8020.435,1561.569,8020.281,1561.575,8020.128,1561.575Z" transform="translate(-7881.94 -1550.518)"/></g><g transform="translate(8000.969 1669.34)"><path class="a" d="M8011.3,1763.176h-.078q-1.157,0-2.309-.032a5.445,5.445,0,1,1,.307-10.886c.663.019,1.333.028,2,.028a5.476,5.476,0,0,1,5.483,5.445A5.411,5.411,0,0,1,8011.3,1763.176Zm22-3.164a5.445,5.445,0,0,1-1.528-10.671c.664-.195,1.321-.4,1.979-.612a5.445,5.445,0,0,1,3.368,10.356q-1.135.369-2.283.706A5.43,5.43,0,0,1,8033.3,1760.012Zm-46.152-.612a5.453,5.453,0,0,1-1.678-.265q-1.138-.37-2.265-.77a5.444,5.444,0,1,1,3.641-10.262c.658.233,1.314.457,1.977.67a5.446,5.446,0,0,1-1.675,10.627Zm68.233-9.885a5.445,5.445,0,0,1-3.084-9.936c.571-.389,1.134-.789,1.69-1.195a5.446,5.446,0,1,1,6.416,8.8q-.964.7-1.947,1.376A5.425,5.425,0,0,1,8055.383,1749.516Zm-90.033-1.2a5.414,5.414,0,0,1-3.194-1.038q-.965-.7-1.912-1.431a5.445,5.445,0,1,1,6.645-8.629q.826.637,1.664,1.246a5.444,5.444,0,0,1-3.2,9.851Zm107.784-15.588a5.445,5.445,0,0,1-4.308-8.77q.634-.826,1.249-1.666a5.445,5.445,0,1,1,8.806,6.409c-.469.641-.944,1.278-1.433,1.909A5.433,5.433,0,0,1,8073.134,1732.724Zm-125.086-1.677a5.438,5.438,0,0,1-4.4-2.233q-.708-.968-1.384-1.956a5.446,5.446,0,0,1,8.989-6.15c.386.568.785,1.128,1.188,1.682a5.445,5.445,0,0,1-4.392,8.656Zm136.818-19.775a5.45,5.45,0,0,1-5.13-7.28c.235-.65.456-1.3.668-1.961a5.446,5.446,0,0,1,10.364,3.35c-.246.764-.507,1.523-.774,2.277A5.449,5.449,0,0,1,8084.867,1711.272ZM7936.9,1709.3a5.446,5.446,0,0,1-5.175-3.763q-.371-1.129-.706-2.272a5.445,5.445,0,1,1,10.444-3.082c.2.665.4,1.328.618,1.985a5.449,5.449,0,0,1-5.182,7.132Zm152.457-22.058-.157,0a5.448,5.448,0,0,1-5.289-5.6q.032-1.033.032-2.075v-.3a5.445,5.445,0,1,1,10.89,0v.3q0,1.2-.035,2.388A5.445,5.445,0,0,1,8089.356,1687.241Zm-156.3-2.155a5.38,5.38,0,0,1-5.445-5.369v-.152q0-1.117.028-2.23a5.511,5.511,0,0,1,5.595-5.293,5.444,5.444,0,0,1,5.292,5.595c-.016.641-.024,1.282-.024,1.928A5.51,5.51,0,0,1,7933.054,1685.085Zm153.1-22.376a5.45,5.45,0,0,1-5.218-3.895q-.3-1-.619-1.981a5.446,5.446,0,0,1,10.348-3.4c.249.754.484,1.514.712,2.28a5.451,5.451,0,0,1-5.223,7Zm-149.345-1.7a5.45,5.45,0,0,1-5.185-7.119q.369-1.14.767-2.268a5.446,5.446,0,0,1,10.266,3.64c-.232.653-.453,1.311-.668,1.974A5.449,5.449,0,0,1,7936.81,1661.011Zm138.792-20.346a5.439,5.439,0,0,1-4.481-2.346c-.4-.572-.8-1.139-1.209-1.7a5.446,5.446,0,0,1,8.791-6.432q.7.957,1.373,1.932a5.445,5.445,0,0,1-4.474,8.544Zm-127.733-1.458a5.445,5.445,0,0,1-4.407-8.636q.7-.973,1.435-1.926a5.446,5.446,0,0,1,8.625,6.652q-.633.817-1.236,1.654A5.436,5.436,0,0,1,7947.869,1639.207Zm110.88-16.252a5.423,5.423,0,0,1-3.321-1.133q-.816-.628-1.651-1.233a5.444,5.444,0,1,1,6.372-8.829c.65.468,1.3.947,1.928,1.436a5.445,5.445,0,0,1-3.327,9.759Zm-93.622-1.076a5.444,5.444,0,0,1-3.218-9.841q.954-.7,1.926-1.37a5.446,5.446,0,0,1,6.206,8.951q-.86.6-1.708,1.212A5.411,5.411,0,0,1,7965.126,1621.878Zm72.144-10.587a5.416,5.416,0,0,1-1.814-.312c-.656-.231-1.31-.452-1.971-.665a5.445,5.445,0,1,1,3.325-10.369q1.146.367,2.274.767a5.445,5.445,0,0,1-1.814,10.579Zm-50.412-.576a5.446,5.446,0,0,1-1.689-10.623q1.129-.369,2.269-.707a5.446,5.446,0,0,1,3.1,10.44q-1,.3-1.99.619A5.437,5.437,0,0,1,7986.858,1610.715Zm26.367-3.846h-.142c-.619-.016-1.239-.024-1.864-.024l-.227,0a5.445,5.445,0,1,1,0-10.891h.149c.8-.028,1.507.007,2.22.026a5.445,5.445,0,0,1-.137,10.888Z" transform="translate(-7927.609 -1595.944)"/></g><g transform="translate(7833.919 1502.297)"><path class="a" d="M8064.306,1983.185l-2.229-.009a5.445,5.445,0,0,1,.043-10.89h.042l2.016.009a5.5,5.5,0,0,1,5.511,5.445A5.391,5.391,0,0,1,8064.306,1983.185Zm21.848-.972a5.446,5.446,0,0,1-.471-10.87c.709-.063,1.418-.127,2.123-.2a5.445,5.445,0,1,1,1.063,10.838c-.744.073-1.486.143-2.233.208C8086.475,1982.206,8086.313,1982.213,8086.154,1982.213Zm-45.869-.179c-.176,0-.352-.009-.53-.024l-2.228-.224a5.446,5.446,0,0,1,1.144-10.832l2.131.217a5.445,5.445,0,0,1-.517,10.864Zm69.694-3.122a5.445,5.445,0,0,1-1.007-10.8l2.106-.409a5.446,5.446,0,0,1,2.113,10.684l-2.2.425A5.491,5.491,0,0,1,8109.979,1978.912Zm-93.5-.363a5.45,5.45,0,0,1-1.062-.1l-2.186-.442a5.445,5.445,0,1,1,2.193-10.667l2.1.425a5.445,5.445,0,0,1-1.049,10.788Zm116.892-5.264a5.446,5.446,0,0,1-1.533-10.672l2.051-.611a5.445,5.445,0,1,1,3.16,10.422l-2.144.638A5.422,5.422,0,0,1,8133.375,1973.285Zm-140.241-.55a5.447,5.447,0,0,1-1.574-.233c-.72-.217-1.437-.438-2.156-.663a5.445,5.445,0,1,1,3.255-10.391q1.021.318,2.048.628a5.446,5.446,0,0,1-1.572,10.659Zm162.966-7.36a5.446,5.446,0,0,1-2.042-10.5q.984-.4,1.965-.8a5.445,5.445,0,1,1,4.183,10.055c-.688.285-1.376.568-2.067.848A5.454,5.454,0,0,1,8156.1,1965.375Zm-185.646-.737a5.42,5.42,0,0,1-2.078-.416l-2.071-.867a5.445,5.445,0,0,1,4.253-10.025l1.979.83a5.445,5.445,0,0,1-2.083,10.478Zm207.466-9.368a5.446,5.446,0,0,1-2.534-10.268l1.885-1a5.445,5.445,0,1,1,5.146,9.6l-1.969,1.044A5.42,5.42,0,0,1,8177.919,1955.27Zm-229.23-.927a5.413,5.413,0,0,1-2.562-.644l-1.967-1.063a5.445,5.445,0,1,1,5.206-9.564l1.895,1.023a5.445,5.445,0,0,1-2.571,10.248Zm249.956-11.276a5.447,5.447,0,0,1-2.988-10c.593-.389,1.185-.779,1.771-1.174a5.445,5.445,0,1,1,6.066,9.044c-.621.416-1.241.829-1.869,1.24A5.419,5.419,0,0,1,8198.645,1943.068Zm-270.591-1.1a5.416,5.416,0,0,1-3.021-.918q-.936-.624-1.859-1.255a5.445,5.445,0,1,1,6.135-9l1.772,1.195a5.447,5.447,0,0,1-3.026,9.976Zm290.025-13.072a5.445,5.445,0,0,1-3.427-9.68l1.664-1.354a5.445,5.445,0,1,1,6.908,8.418l-1.728,1.407A5.422,5.422,0,0,1,8218.078,1928.892Zm-309.354-1.268a5.42,5.42,0,0,1-3.45-1.236l-1.719-1.423a5.445,5.445,0,1,1,6.972-8.366l1.653,1.37a5.445,5.445,0,0,1-3.456,9.655Zm327.312-14.737a5.445,5.445,0,0,1-3.812-9.332q.757-.747,1.513-1.5a5.445,5.445,0,0,1,7.707,7.693q-.79.793-1.593,1.582A5.431,5.431,0,0,1,8236.036,1912.887Zm-345.145-1.419a5.433,5.433,0,0,1-3.846-1.591l-1.577-1.589a5.445,5.445,0,0,1,7.764-7.636l1.5,1.516a5.445,5.445,0,0,1-3.846,9.3Zm361.466-16.263a5.446,5.446,0,0,1-4.187-8.926l1.38-1.664a5.445,5.445,0,0,1,8.409,6.92l-1.411,1.706A5.438,5.438,0,0,1,8252.357,1895.2Zm-377.637-1.55a5.431,5.431,0,0,1-4.2-1.983l-1.411-1.728a5.446,5.446,0,0,1,8.462-6.858l1.354,1.661a5.446,5.446,0,0,1-4.2,8.908Zm392.152-17.641a5.445,5.445,0,0,1-4.488-8.52q.6-.883,1.193-1.769a5.446,5.446,0,0,1,9.054,6.056q-.627.935-1.258,1.862A5.447,5.447,0,0,1,8266.872,1876.014Zm-406.509-1.66a5.436,5.436,0,0,1-4.521-2.409q-.625-.931-1.24-1.867a5.444,5.444,0,0,1,9.1-5.981q.584.889,1.177,1.772a5.447,5.447,0,0,1-4.514,8.485Zm419.084-18.86a5.445,5.445,0,0,1-4.771-8.063c.342-.624.683-1.25,1.018-1.879a5.446,5.446,0,0,1,9.6,5.135c-.356.661-.711,1.32-1.071,1.978A5.448,5.448,0,0,1,8279.447,1855.493Zm-431.483-1.75a5.438,5.438,0,0,1-4.8-2.865q-.532-.986-1.052-1.978a5.445,5.445,0,1,1,9.644-5.06c.33.628.659,1.253,1,1.877a5.446,5.446,0,0,1-4.79,8.027Zm441.987-19.91a5.447,5.447,0,0,1-5.011-7.569l.833-1.99a5.444,5.444,0,1,1,10.056,4.174l-.861,2.06A5.448,5.448,0,0,1,8289.951,1833.834Zm-452.3-1.813a5.453,5.453,0,0,1-5.03-3.356c-.283-.685-.568-1.375-.847-2.065a5.444,5.444,0,1,1,10.094-4.083l.81,1.966a5.452,5.452,0,0,1-5.026,7.537Zm460.619-20.784a5.444,5.444,0,0,1-5.2-7.078l.628-2.048a5.445,5.445,0,0,1,10.422,3.16c-.219.719-.437,1.438-.662,2.152A5.447,5.447,0,0,1,8298.267,1811.237Zm-468.744-1.852a5.451,5.451,0,0,1-5.207-3.858l-.642-2.148a5.445,5.445,0,1,1,10.447-3.075l.611,2.047a5.45,5.45,0,0,1-5.21,7.034Zm474.788-21.443a5.373,5.373,0,0,1-1.1-.114,5.443,5.443,0,0,1-4.237-6.428l.427-2.113a5.446,5.446,0,0,1,10.682,2.126l-.441,2.177A5.448,5.448,0,0,1,8304.311,1787.942Zm-480.644-1.893a5.447,5.447,0,0,1-5.333-4.381l-.427-2.2a5.445,5.445,0,0,1,10.7-2.03l.409,2.1a5.446,5.446,0,0,1-5.349,6.51Zm484.354-21.877a5.52,5.52,0,0,1-.578-.031,5.445,5.445,0,0,1-4.844-5.987l.217-2.129a5.445,5.445,0,1,1,10.839,1.047l-.226,2.226A5.448,5.448,0,0,1,8308.021,1764.172Zm-487.875-1.919a5.443,5.443,0,0,1-5.412-4.905l-.213-2.229a5.446,5.446,0,0,1,10.848-.982l.2,2.13a5.441,5.441,0,0,1-4.878,5.958A5.183,5.183,0,0,1,7820.146,1762.253Zm489.243-22.1h-.048a5.447,5.447,0,0,1-5.4-5.494l.011-2.652a5.445,5.445,0,1,1,10.89,0l-.01,2.748A5.444,5.444,0,0,1,8309.389,1740.155Zm-490.426-1.933a5.445,5.445,0,0,1-5.444-5.445l.009-2.242a5.445,5.445,0,0,1,5.442-5.391h.056a5.443,5.443,0,0,1,5.391,5.5l-.007,2.133A5.446,5.446,0,0,1,7818.962,1738.222Zm489.425-22.614a5.448,5.448,0,0,1-5.415-4.939l-.205-2.147a5.444,5.444,0,1,1,10.835-1.08l.214,2.212a5.445,5.445,0,0,1-4.913,5.928C8308.729,1715.6,8308.558,1715.608,8308.388,1715.608Zm-488.282-1.415c-.175,0-.354-.009-.529-.025a5.442,5.442,0,0,1-4.895-5.943l.222-2.227a5.445,5.445,0,0,1,10.83,1.145l-.213,2.129A5.446,5.446,0,0,1,7820.106,1714.193Zm484.945-22.411a5.449,5.449,0,0,1-5.341-4.415l-.415-2.114a5.445,5.445,0,0,1,10.681-2.129l.429,2.181a5.449,5.449,0,0,1-5.354,6.477Zm-481.47-1.392a5.453,5.453,0,0,1-5.35-6.494l.44-2.193a5.446,5.446,0,0,1,10.67,2.19l-.425,2.1A5.447,5.447,0,0,1,7823.581,1690.39Zm475.808-21.988a5.449,5.449,0,0,1-5.222-3.906l-.613-2.048a5.445,5.445,0,1,1,10.417-3.174l.644,2.143a5.445,5.445,0,0,1-5.226,6.986Zm-470.012-1.36a5.446,5.446,0,0,1-5.213-7.025l.654-2.136a5.445,5.445,0,1,1,10.4,3.228l-.633,2.066A5.449,5.449,0,0,1,7829.376,1667.042Zm462.07-21.349a5.445,5.445,0,0,1-5.045-3.391l-.815-1.978a5.446,5.446,0,0,1,10.058-4.182l.844,2.05a5.446,5.446,0,0,1-5.041,7.5Zm-453.988-1.331a5.448,5.448,0,0,1-5.032-7.52l.865-2.072a5.446,5.446,0,0,1,10.033,4.239l-.83,1.981A5.444,5.444,0,0,1,7837.458,1644.362Zm443.851-20.469a5.447,5.447,0,0,1-4.825-2.912l-1-1.88a5.445,5.445,0,1,1,9.589-5.161c.353.656.705,1.315,1.052,1.974a5.448,5.448,0,0,1-4.815,7.98Zm-433.571-1.3a5.449,5.449,0,0,1-4.8-8.011q.529-.995,1.067-1.981a5.447,5.447,0,0,1,9.557,5.229q-.516.938-1.018,1.88A5.439,5.439,0,0,1,7847.739,1622.6Zm421.335-19.408a5.439,5.439,0,0,1-4.553-2.453l-1.18-1.773a5.445,5.445,0,1,1,9.035-6.078l1.24,1.863a5.448,5.448,0,0,1-4.543,8.441Zm-408.965-1.24a5.448,5.448,0,0,1-4.521-8.475l1.245-1.846a5.445,5.445,0,1,1,9.013,6.113l-1.205,1.789A5.443,5.443,0,0,1,7860.109,1601.948Zm394.763-18.174a5.434,5.434,0,0,1-4.23-2.012l-1.358-1.665a5.444,5.444,0,1,1,8.4-6.926l1.41,1.724a5.446,5.446,0,0,1-4.223,8.879Zm-380.43-1.164a5.444,5.444,0,0,1-4.207-8.9l1.421-1.715a5.444,5.444,0,1,1,8.367,6.968l-1.37,1.658A5.433,5.433,0,0,1,7874.442,1582.61Zm364.39-16.773a5.431,5.431,0,0,1-3.882-1.627q-.747-.758-1.5-1.511a5.445,5.445,0,1,1,7.684-7.716q.8.792,1.582,1.591a5.445,5.445,0,0,1-3.882,9.263Zm-348.245-1.071a5.445,5.445,0,0,1-3.854-9.292l1.579-1.57a5.445,5.445,0,0,1,7.651,7.749l-1.523,1.515A5.425,5.425,0,0,1,7890.587,1564.766Zm330.534-15.223a5.423,5.423,0,0,1-3.486-1.263l-1.653-1.366a5.445,5.445,0,0,1,6.908-8.419l1.723,1.423a5.446,5.446,0,0,1-3.491,9.626Zm-312.726-.959a5.444,5.444,0,0,1-3.469-9.643q.864-.716,1.74-1.422a5.446,5.446,0,0,1,6.841,8.475c-.554.445-1.1.893-1.646,1.344A5.429,5.429,0,0,1,7908.4,1548.584Zm293.511-13.531a5.406,5.406,0,0,1-3.062-.948q-.877-.6-1.768-1.19a5.445,5.445,0,1,1,6.036-9.063c.625.416,1.25.836,1.866,1.256a5.445,5.445,0,0,1-3.072,9.945Zm-274.214-.836a5.445,5.445,0,0,1-3.036-9.968l1.854-1.234a5.445,5.445,0,0,1,5.993,9.093l-1.781,1.186A5.438,5.438,0,0,1,7927.692,1534.217Zm253.675-11.7a5.418,5.418,0,0,1-2.6-.665l-1.894-1.022a5.444,5.444,0,1,1,5.135-9.6l1.969,1.061a5.446,5.446,0,0,1-2.608,10.227Zm-233.069-.706a5.445,5.445,0,0,1-2.584-10.24l1.966-1.047a5.444,5.444,0,1,1,5.074,9.634l-1.881,1A5.416,5.416,0,0,1,7948.3,1521.807Zm211.395-9.76a5.42,5.42,0,0,1-2.113-.429l-1.991-.833a5.444,5.444,0,1,1,4.159-10.062l2.062.86a5.446,5.446,0,0,1-2.116,10.464Zm-189.678-.562a5.446,5.446,0,0,1-2.094-10.475l2.054-.845a5.445,5.445,0,1,1,4.1,10.088l-1.972.811A5.408,5.408,0,0,1,7970.014,1511.484Zm167.07-7.715a5.422,5.422,0,0,1-1.613-.246l-2.061-.63a5.445,5.445,0,1,1,3.144-10.427l2.142.656a5.445,5.445,0,0,1-1.611,10.646Zm-144.445-.42a5.446,5.446,0,0,1-1.588-10.655c.717-.22,1.438-.434,2.152-.644a5.445,5.445,0,1,1,3.067,10.45q-1.022.3-2.042.611A5.46,5.46,0,0,1,7992.639,1503.349Zm121.142-5.582a5.374,5.374,0,0,1-1.1-.113l-2.093-.419a5.446,5.446,0,0,1,2.093-10.688q1.1.217,2.2.441a5.446,5.446,0,0,1-1.093,10.779Zm-97.813-.281a5.446,5.446,0,0,1-1.059-10.787l2.2-.427a5.446,5.446,0,0,1,2.034,10.7l-2.1.407A5.383,5.383,0,0,1,8015.967,1497.487Zm74.045-3.4a5.589,5.589,0,0,1-.579-.029c-.706-.075-1.411-.145-2.12-.212a5.446,5.446,0,0,1,1.029-10.843c.747.072,1.491.145,2.235.224a5.445,5.445,0,0,1-.565,10.86Zm-50.248-.142a5.445,5.445,0,0,1-.526-10.864l2.219-.209a5.446,5.446,0,1,1,.981,10.847l-2.139.2C8040.121,1493.941,8039.943,1493.949,8039.764,1493.949Zm26.222-1.194h-.04l-1.768-.006h-.381a5.445,5.445,0,1,1,0-10.891l.337,0,1.89.006a5.446,5.446,0,0,1-.038,10.891Z" transform="translate(-7813.518 -1481.858)"/></g><g transform="translate(7769.565 1437.826)"><path class="a" d="M8088.588,2068.117a5.445,5.445,0,0,1-.071-10.89l2.148-.034a5.445,5.445,0,1,1,.208,10.887l-2.211.037Zm-21.819-.479c-.1,0-.209,0-.315-.009l-2.212-.133a5.445,5.445,0,1,1,.686-10.869l2.148.128a5.446,5.446,0,0,1-.307,10.882Zm45.795-.744a5.445,5.445,0,0,1-.479-10.868l2.132-.2a5.445,5.445,0,1,1,1.051,10.839l-2.213.206C8112.891,2066.888,8112.725,2066.894,8112.563,2066.894Zm-69.7-1.536a5.45,5.45,0,0,1-.733-.05l-2.2-.3a5.445,5.445,0,1,1,1.526-10.782l2.124.294a5.445,5.445,0,0,1-.718,10.842Zm93.511-1.529a5.446,5.446,0,0,1-.9-10.816l2.12-.363a5.444,5.444,0,1,1,1.876,10.725l-2.184.378A5.536,5.536,0,0,1,8136.378,2063.83Zm-117.165-2.6a5.4,5.4,0,0,1-1.151-.123l-2.174-.476a5.445,5.445,0,1,1,2.37-10.628l2.092.457a5.446,5.446,0,0,1-1.137,10.771Zm140.672-2.307a5.445,5.445,0,0,1-1.315-10.728l2.075-.527a5.445,5.445,0,1,1,2.724,10.543l-2.16.548A5.407,5.407,0,0,1,8159.885,2058.923Zm-163.94-3.649a5.454,5.454,0,0,1-1.562-.228l-2.122-.643a5.445,5.445,0,0,1,3.185-10.413l2.056.621a5.445,5.445,0,0,1-1.556,10.663Zm187-3.075a5.446,5.446,0,0,1-1.718-10.614l2.021-.684a5.446,5.446,0,0,1,3.531,10.3l-2.118.715A5.4,5.4,0,0,1,8182.942,2052.2Zm-209.76-4.691a5.415,5.415,0,0,1-1.951-.364c-.7-.269-1.4-.541-2.1-.817a5.445,5.445,0,1,1,4.016-10.124q.993.393,1.987.776a5.446,5.446,0,0,1-1.956,10.529Zm232.193-3.8a5.446,5.446,0,0,1-2.134-10.457l1.975-.845a5.445,5.445,0,1,1,4.313,10l-2.024.868A5.421,5.421,0,0,1,8205.376,2043.706Zm-254.274-5.719a5.413,5.413,0,0,1-2.341-.533l-2.017-.973a5.445,5.445,0,1,1,4.78-9.784l1.929.93a5.446,5.446,0,0,1-2.352,10.36Zm275.977-4.493a5.446,5.446,0,0,1-2.517-10.277l1.9-.994a5.446,5.446,0,1,1,5.087,9.63l-1.961,1.028A5.444,5.444,0,0,1,8227.078,2033.494Zm-297.239-6.715a5.409,5.409,0,0,1-2.719-.731l-1.927-1.123a5.445,5.445,0,1,1,5.517-9.388l1.856,1.081a5.446,5.446,0,0,1-2.728,10.161Zm318.089-5.155a5.445,5.445,0,0,1-2.875-10.072l1.809-1.135a5.446,5.446,0,1,1,5.816,9.208l-1.884,1.179A5.417,5.417,0,0,1,8247.928,2021.623Zm-338.418-7.668a5.411,5.411,0,0,1-3.072-.955l-1.837-1.27a5.445,5.445,0,1,1,6.23-8.931l1.762,1.22a5.445,5.445,0,0,1-3.083,9.936Zm358.295-5.787a5.445,5.445,0,0,1-3.228-9.833l1.719-1.272a5.444,5.444,0,1,1,6.513,8.726l-1.783,1.322A5.434,5.434,0,0,1,8267.8,2008.169Zm-377.563-8.565a5.44,5.44,0,0,1-3.415-1.2l-1.729-1.409a5.444,5.444,0,1,1,6.9-8.423l1.661,1.348a5.446,5.446,0,0,1-3.417,9.687Zm396.345-6.385a5.446,5.446,0,0,1-3.559-9.568l1.625-1.411a5.446,5.446,0,0,1,7.159,8.208l-1.671,1.448A5.414,5.414,0,0,1,8286.586,1993.218Zm-414.441-9.407a5.431,5.431,0,0,1-3.737-1.486l-1.605-1.523a5.445,5.445,0,0,1,7.516-7.882l1.563,1.485a5.445,5.445,0,0,1-3.736,9.406Zm432.017-6.952a5.446,5.446,0,0,1-3.855-9.292l1.5-1.521a5.445,5.445,0,1,1,7.772,7.628l-1.566,1.586A5.432,5.432,0,0,1,8304.161,1976.859Zm-448.843-10.184a5.421,5.421,0,0,1-4.028-1.783l-1.492-1.653a5.445,5.445,0,0,1,8.118-7.259l1.431,1.587a5.445,5.445,0,0,1-4.028,9.108Zm465.113-7.485a5.447,5.447,0,0,1-4.136-8.987l1.382-1.627a5.444,5.444,0,1,1,8.337,7l-1.444,1.707A5.442,5.442,0,0,1,8320.432,1959.191ZM7839.87,1948.3a5.439,5.439,0,0,1-4.3-2.1l-1.364-1.769a5.446,5.446,0,0,1,8.663-6.6l1.3,1.685a5.444,5.444,0,0,1-4.293,8.788Zm495.425-7.978a5.445,5.445,0,0,1-4.4-8.649l1.261-1.747a5.445,5.445,0,1,1,8.845,6.353l-1.3,1.8A5.44,5.44,0,0,1,8335.295,1940.318Zm-509.411-11.529a5.438,5.438,0,0,1-4.551-2.448l-1.214-1.851a5.445,5.445,0,0,1,9.127-5.94l1.177,1.795a5.446,5.446,0,0,1-4.539,8.444Zm522.775-8.44a5.447,5.447,0,0,1-4.628-8.3l1.109-1.823a5.444,5.444,0,1,1,9.324,5.624c-.383.639-.772,1.279-1.165,1.914A5.443,5.443,0,0,1,8348.659,1920.35Zm-535.207-12.085a5.45,5.45,0,0,1-4.77-2.805l-1.07-1.95a5.446,5.446,0,0,1,9.57-5.2l1.024,1.868a5.446,5.446,0,0,1-4.755,8.087Zm546.988-8.867a5.445,5.445,0,0,1-4.838-7.934l.969-1.909a5.445,5.445,0,0,1,9.729,4.891l-1.014,2A5.442,5.442,0,0,1,8360.44,1899.4Zm-557.789-12.554a5.444,5.444,0,0,1-4.957-3.185l-.912-2.015a5.446,5.446,0,0,1,9.938-4.455l.882,1.948a5.447,5.447,0,0,1-4.951,7.707Zm567.908-9.257a5.446,5.446,0,0,1-5.023-7.539l.82-1.993a5.446,5.446,0,0,1,10.082,4.12l-.852,2.059A5.443,5.443,0,0,1,8370.56,1877.587Zm-577.01-12.927a5.446,5.446,0,0,1-5.114-3.577l-.758-2.1a5.445,5.445,0,0,1,10.262-3.647l.725,2.007a5.448,5.448,0,0,1-5.114,7.316Zm585.4-9.614a5.379,5.379,0,0,1-1.694-.272,5.444,5.444,0,0,1-3.479-6.87l.665-2.053a5.446,5.446,0,1,1,10.371,3.325l-.687,2.119A5.448,5.448,0,0,1,8378.945,1855.046ZM7786.2,1841.8a5.442,5.442,0,0,1-5.239-3.981l-.594-2.155a5.445,5.445,0,1,1,10.516-2.83l.565,2.055a5.45,5.45,0,0,1-5.248,6.911Zm599.345-9.851a5.448,5.448,0,0,1-5.3-6.722l.5-2.1a5.446,5.446,0,0,1,10.6,2.51l-.512,2.143A5.451,5.451,0,0,1,8385.541,1831.945Zm-604.889-13.513a5.45,5.45,0,0,1-5.338-4.4l-.42-2.186a5.444,5.444,0,0,1,10.7-2.018l.406,2.1a5.445,5.445,0,0,1-4.293,6.394A5.515,5.515,0,0,1,7780.652,1818.432Zm609.659-10.021a5.458,5.458,0,0,1-5.384-6.306l.338-2.125a5.444,5.444,0,1,1,10.763,1.653l-.346,2.19A5.447,5.447,0,0,1,8390.312,1808.412Zm-613.367-13.7a5.448,5.448,0,0,1-5.4-4.817l-.249-2.2a5.445,5.445,0,0,1,10.825-1.191l.24,2.136a5.444,5.444,0,0,1-4.777,6.038A5.558,5.558,0,0,1,7776.944,1794.708Zm616.29-10.132c-.154,0-.311-.007-.467-.019a5.447,5.447,0,0,1-4.964-5.889l.168-2.129a5.447,5.447,0,0,1,10.863.829l-.181,2.224A5.448,5.448,0,0,1,8393.234,1784.576Zm-618.148-13.809a5.445,5.445,0,0,1-5.439-5.229l-.077-2.215a5.444,5.444,0,1,1,10.883-.352l.078,2.135a5.445,5.445,0,0,1-5.227,5.656C7775.23,1770.767,7775.157,1770.767,7775.086,1770.767Zm619.225-10.179h-.047a5.445,5.445,0,0,1-5.4-5.492l.008-2.83a5.445,5.445,0,1,1,10.891,0l-.009,2.926A5.442,5.442,0,0,1,8394.311,1760.588Zm-619.246-13.829-.2,0a5.449,5.449,0,0,1-5.244-5.642l.093-2.223a5.444,5.444,0,1,1,10.877.479l-.085,2.142A5.447,5.447,0,0,1,7775.064,1746.759Zm618.443-10.867a5.445,5.445,0,0,1-5.427-5.063l-.16-2.13a5.446,5.446,0,0,1,10.857-.86l.169,2.226a5.449,5.449,0,0,1-5.053,5.814C8393.765,1735.887,8393.638,1735.892,8393.508,1735.892Zm-616.634-13.075a5.642,5.642,0,0,1-.627-.035,5.445,5.445,0,0,1-4.788-6.031l.26-2.21a5.445,5.445,0,0,1,10.81,1.321l-.25,2.129A5.448,5.448,0,0,1,7776.874,1722.817Zm613.994-10.79a5.446,5.446,0,0,1-5.376-4.62l-.331-2.142a5.445,5.445,0,1,1,10.758-1.687l.336,2.176a5.445,5.445,0,0,1-4.553,6.21A5.586,5.586,0,0,1,8390.868,1712.027Zm-610.341-12.942a5.456,5.456,0,0,1-5.353-6.481l.431-2.183a5.445,5.445,0,0,1,10.676,2.148l-.413,2.1A5.45,5.45,0,0,1,7780.527,1699.085Zm605.852-10.646a5.447,5.447,0,0,1-5.3-4.208l-.5-2.108a5.445,5.445,0,0,1,10.6-2.514l.5,2.146a5.448,5.448,0,0,1-5.308,6.684Zm-600.365-12.733a5.517,5.517,0,0,1-1.451-.2,5.446,5.446,0,0,1-3.8-6.7l.6-2.143a5.445,5.445,0,1,1,10.475,2.977l-.577,2.062A5.449,5.449,0,0,1,7786.014,1675.706Zm594.056-10.438a5.448,5.448,0,0,1-5.191-3.811l-.649-2.044a5.444,5.444,0,1,1,10.362-3.344l.676,2.117a5.447,5.447,0,0,1-5.2,7.082Zm-586.763-12.44a5.449,5.449,0,0,1-5.12-7.3l.77-2.1a5.445,5.445,0,0,1,10.212,3.783l-.742,2.022A5.446,5.446,0,0,1,7793.307,1652.828Zm578.668-10.166a5.448,5.448,0,0,1-5.049-3.4l-.816-2a5.445,5.445,0,1,1,10.074-4.136l.832,2.041a5.449,5.449,0,0,1-5.041,7.5Zm-569.6-12.106a5.385,5.385,0,0,1-2.248-.489,5.444,5.444,0,0,1-2.705-7.21l.923-2.016a5.445,5.445,0,1,1,9.891,4.557l-.9,1.965A5.445,5.445,0,0,1,7802.377,1630.557Zm559.768-9.779a5.451,5.451,0,0,1-4.881-3.019l-.958-1.915a5.444,5.444,0,1,1,9.716-4.915l.993,1.978a5.448,5.448,0,0,1-4.87,7.872Zm-548.992-11.708a5.448,5.448,0,0,1-4.764-8.074l1.088-1.953a5.445,5.445,0,1,1,9.493,5.334l-1.042,1.872A5.443,5.443,0,0,1,7813.152,1609.07Zm537.491-9.347a5.439,5.439,0,0,1-4.672-2.643l-1.112-1.843a5.444,5.444,0,1,1,9.308-5.651l1.141,1.887a5.446,5.446,0,0,1-4.664,8.249Zm-525.077-11.233a5.447,5.447,0,0,1-4.544-8.439l1.225-1.848a5.445,5.445,0,0,1,9.065,6.034l-1.192,1.8A5.44,5.44,0,0,1,7825.566,1588.489Zm511.975-8.876a5.437,5.437,0,0,1-4.442-2.29l-1.251-1.757a5.444,5.444,0,1,1,8.847-6.346l1.278,1.792a5.445,5.445,0,0,1-4.432,8.6Zm-498.006-10.68a5.447,5.447,0,0,1-4.3-8.781l1.367-1.748a5.445,5.445,0,1,1,8.567,6.722l-1.323,1.7A5.437,5.437,0,0,1,7839.535,1568.934Zm483.386-8.362a5.432,5.432,0,0,1-4.187-1.962l-1.383-1.652a5.445,5.445,0,0,1,8.334-7.009l1.418,1.692a5.445,5.445,0,0,1-4.182,8.93Zm-467.956-10.048a5.446,5.446,0,0,1-4.03-9.1l1.49-1.634a5.446,5.446,0,1,1,8.029,7.359l-1.454,1.591A5.427,5.427,0,0,1,7854.965,1550.523Zm451.91-7.813a5.435,5.435,0,0,1-3.912-1.655l-1.5-1.534a5.444,5.444,0,1,1,7.763-7.636l1.554,1.589a5.446,5.446,0,0,1-3.908,9.236Zm-435.108-9.353a5.445,5.445,0,0,1-3.737-9.406l1.613-1.513a5.444,5.444,0,1,1,7.431,7.959l-1.57,1.474A5.428,5.428,0,0,1,7871.767,1533.357Zm417.726-7.226a5.42,5.42,0,0,1-3.589-1.353l-1.631-1.427a5.446,5.446,0,0,1,7.159-8.208l1.657,1.451a5.446,5.446,0,0,1-3.6,9.538Zm-399.654-8.59a5.446,5.446,0,0,1-3.428-9.68l1.722-1.385a5.446,5.446,0,0,1,6.8,8.506l-1.68,1.349A5.4,5.4,0,0,1,7889.838,1517.541Zm381.042-6.6a5.42,5.42,0,0,1-3.268-1.094l-1.728-1.293a5.446,5.446,0,0,1,6.5-8.74l1.771,1.328a5.445,5.445,0,0,1-3.275,9.8Zm-361.813-7.773a5.445,5.445,0,0,1-3.1-9.926l1.84-1.259a5.445,5.445,0,1,1,6.1,9.018l-1.758,1.2A5.418,5.418,0,0,1,7909.066,1503.167Zm342.082-5.939a5.418,5.418,0,0,1-2.93-.861l-1.812-1.149a5.444,5.444,0,1,1,5.8-9.217l1.885,1.195a5.446,5.446,0,0,1-2.94,10.033Zm-321.811-6.9a5.446,5.446,0,0,1-2.74-10.154l1.923-1.108a5.445,5.445,0,1,1,5.4,9.457l-1.848,1.066A5.425,5.425,0,0,1,7929.338,1490.326Zm301.073-5.246a5.412,5.412,0,0,1-2.568-.647l-1.889-1a5.445,5.445,0,1,1,5.058-9.645l1.978,1.048a5.446,5.446,0,0,1-2.578,10.245Zm-279.869-5.983a5.446,5.446,0,0,1-2.365-10.353l2-.952a5.445,5.445,0,0,1,4.653,9.846l-1.933.921A5.434,5.434,0,0,1,7950.542,1479.1Zm258.246-4.518a5.42,5.42,0,0,1-2.188-.461l-1.966-.852a5.445,5.445,0,0,1,4.292-10.009l2.055.892a5.445,5.445,0,0,1-2.192,10.431Zm-236.248-5.022a5.446,5.446,0,0,1-1.978-10.52l2.081-.8a5.446,5.446,0,0,1,3.866,10.182l-2,.767A5.445,5.445,0,0,1,7972.54,1469.557Zm213.865-3.762a5.445,5.445,0,0,1-1.793-.3l-2.029-.7a5.445,5.445,0,0,1,3.5-10.314l2.119.73a5.445,5.445,0,0,1-1.792,10.586Zm-191.163-4.047a5.447,5.447,0,0,1-1.562-10.662l2.13-.631a5.445,5.445,0,0,1,3.061,10.451l-2.058.61A5.444,5.444,0,0,1,7995.242,1461.748Zm168.188-2.956a5.447,5.447,0,0,1-1.386-.179l-2.077-.537a5.445,5.445,0,1,1,2.685-10.554l2.152.557a5.445,5.445,0,0,1-1.374,10.714Zm-144.937-3.056a5.445,5.445,0,0,1-1.151-10.767l2.17-.463a5.445,5.445,0,0,1,2.241,10.656l-2.1.448A5.432,5.432,0,0,1,8018.492,1455.736Zm121.488-2.126a5.557,5.557,0,0,1-.977-.088l-2.11-.375a5.445,5.445,0,1,1,1.861-10.73l2.188.388a5.445,5.445,0,0,1-.963,10.8Zm-97.848-2.057a5.446,5.446,0,0,1-.734-10.841l2.206-.3a5.446,5.446,0,0,1,1.4,10.8l-2.127.284A5.363,5.363,0,0,1,8042.133,1451.553Zm74.071-1.292a5.432,5.432,0,0,1-.554-.028l-2.134-.208a5.446,5.446,0,0,1,1.017-10.844l2.214.217a5.445,5.445,0,0,1-.543,10.863Zm-50.173-1.047a5.446,5.446,0,0,1-.314-10.882l2.212-.123a5.446,5.446,0,0,1,.574,10.876l-2.146.119C8066.246,1449.212,8066.14,1449.214,8066.031,1449.214Zm26.2-.452-.137,0-2.144-.046a5.445,5.445,0,1,1,.191-10.887l2.223.047a5.445,5.445,0,0,1-.134,10.888Z" transform="translate(-7769.566 -1437.827)"/></g><g transform="translate(7801.013 1469.268)"><path class="a" d="M8078.58,2026.712a5.446,5.446,0,0,1-.068-10.891l2.128-.037a5.445,5.445,0,0,1,.238,10.888l-2.223.04Zm-21.748-.53c-.113,0-.227,0-.346-.012l-2.216-.15a5.444,5.444,0,1,1,.768-10.861l2.134.142a5.446,5.446,0,0,1-.34,10.88Zm45.646-.822a5.445,5.445,0,0,1-.527-10.863l2.115-.22a5.446,5.446,0,0,1,1.166,10.829l-2.215.227A5.147,5.147,0,0,1,8102.478,2025.36Zm-69.444-1.706a5.413,5.413,0,0,1-.812-.06l-2.2-.34a5.445,5.445,0,0,1,1.706-10.756l2.1.325a5.445,5.445,0,0,1-.8,10.831Zm93.142-1.681a5.446,5.446,0,0,1-1-10.8l2.1-.4a5.445,5.445,0,0,1,2.088,10.688l-2.176.416A5.394,5.394,0,0,1,8126.175,2021.973Zm-116.645-2.886a5.442,5.442,0,0,1-1.272-.151l-2.158-.525a5.445,5.445,0,0,1,2.619-10.57l2.075.505a5.446,5.446,0,0,1-1.264,10.741Zm139.961-2.536a5.445,5.445,0,0,1-1.459-10.692l2.058-.583a5.445,5.445,0,0,1,3,10.469l-2.136.6A5.431,5.431,0,0,1,8149.491,2016.552Zm-162.984-4.044a5.426,5.426,0,0,1-1.725-.282l-2.113-.711a5.446,5.446,0,1,1,3.534-10.3l2.028.687a5.446,5.446,0,0,1-1.725,10.611Zm185.748-3.378a5.446,5.446,0,0,1-1.911-10.545l2-.757a5.445,5.445,0,1,1,3.9,10.167l-2.074.787A5.415,5.415,0,0,1,8172.255,2009.129Zm-208.136-5.185a5.435,5.435,0,0,1-2.162-.449l-2.037-.89a5.446,5.446,0,0,1,4.4-9.966l1.967.863a5.445,5.445,0,0,1-2.163,10.443Zm230.157-4.171a5.447,5.447,0,0,1-2.35-10.361l1.923-.926a5.445,5.445,0,0,1,4.757,9.8l-1.987.957A5.434,5.434,0,0,1,8194.276,1999.773Zm-251.718-6.293a5.424,5.424,0,0,1-2.584-.656l-1.954-1.064a5.446,5.446,0,0,1,5.252-9.542l1.876,1.025a5.445,5.445,0,0,1-2.59,10.237Zm272.848-4.927a5.446,5.446,0,0,1-2.769-10.138l1.837-1.089a5.445,5.445,0,0,1,5.586,9.349l-1.9,1.125A5.408,5.408,0,0,1,8215.406,1988.553Zm-293.418-7.354a5.435,5.435,0,0,1-2.983-.892l-1.857-1.233a5.445,5.445,0,1,1,6.054-9.052l1.776,1.177a5.445,5.445,0,0,1-2.989,10Zm313.506-5.643a5.446,5.446,0,0,1-3.156-9.885l1.73-1.24a5.446,5.446,0,0,1,6.381,8.827l-1.8,1.29A5.415,5.415,0,0,1,8235.494,1975.556Zm-332.938-8.358a5.42,5.42,0,0,1-3.369-1.171l-1.729-1.372a5.444,5.444,0,1,1,6.789-8.513l1.686,1.337a5.444,5.444,0,0,1-3.377,9.719Zm351.847-6.318a5.446,5.446,0,0,1-3.512-9.609c.541-.454,1.073-.912,1.608-1.372a5.445,5.445,0,1,1,7.112,8.246q-.845.731-1.7,1.452A5.421,5.421,0,0,1,8254.4,1960.88Zm-370.008-9.29a5.421,5.421,0,0,1-3.721-1.473l-1.617-1.526a5.446,5.446,0,0,1,7.517-7.883l1.548,1.464a5.445,5.445,0,0,1-3.727,9.417Zm387.592-6.95a5.445,5.445,0,0,1-3.863-9.285l1.5-1.521a5.445,5.445,0,1,1,7.78,7.621l-1.558,1.577A5.428,5.428,0,0,1,8271.986,1944.64Zm-404.346-10.15a5.426,5.426,0,0,1-4.05-1.8l-1.476-1.653a5.445,5.445,0,1,1,8.15-7.223l1.42,1.593a5.445,5.445,0,0,1-4.045,9.087Zm420.487-7.538a5.446,5.446,0,0,1-4.177-8.939l1.366-1.644a5.445,5.445,0,1,1,8.405,6.923l-1.417,1.707A5.43,5.43,0,0,1,8288.128,1926.952Zm-435.718-10.929a5.435,5.435,0,0,1-4.352-2.167l-1.321-1.761a5.445,5.445,0,1,1,8.729-6.511l1.288,1.717a5.444,5.444,0,0,1-4.345,8.722Zm450.281-8.081a5.444,5.444,0,0,1-4.453-8.572l1.219-1.752a5.445,5.445,0,1,1,8.968,6.178l-1.27,1.828A5.443,5.443,0,0,1,8302.691,1907.943Zm-463.876-11.614a5.441,5.441,0,0,1-4.615-2.549l-1.172-1.882a5.445,5.445,0,1,1,9.268-5.719l1.125,1.807a5.448,5.448,0,0,1-4.605,8.343Zm476.768-8.573a5.449,5.449,0,0,1-4.71-8.17l1.067-1.861a5.445,5.445,0,1,1,9.466,5.385l-1.1,1.924A5.448,5.448,0,0,1,8315.583,1887.756Zm-488.616-12.214a5.445,5.445,0,0,1-4.85-2.964l-1-1.952a5.446,5.446,0,0,1,9.713-4.928l.974,1.914a5.447,5.447,0,0,1-4.842,7.93Zm499.72-9.017a5.446,5.446,0,0,1-4.918-7.769l.9-1.933a5.446,5.446,0,0,1,9.9,4.549c-.313.678-.625,1.354-.943,2.028A5.45,5.45,0,0,1,8326.687,1866.525Zm-509.731-12.7a5.448,5.448,0,0,1-5.039-3.379l-.835-2.062a5.445,5.445,0,1,1,10.11-4.049l.8,1.975a5.448,5.448,0,0,1-5.035,7.514Zm518.969-9.41a5.446,5.446,0,0,1-5.112-7.322l.735-2.022a5.445,5.445,0,0,1,10.246,3.687l-.759,2.088A5.446,5.446,0,0,1,8335.924,1844.41Zm-527.076-13.118a5.446,5.446,0,0,1-5.2-3.824l-.651-2.119a5.444,5.444,0,1,1,10.417-3.168l.631,2.046a5.447,5.447,0,0,1-5.2,7.066Zm534.353-9.7a5.448,5.448,0,0,1-5.256-6.882l.552-2.056a5.444,5.444,0,1,1,10.529,2.774l-.574,2.151A5.449,5.449,0,0,1,8343.2,1821.594Zm-540.477-13.446a5.445,5.445,0,0,1-5.313-4.28l-.466-2.18a5.444,5.444,0,1,1,10.657-2.23l.446,2.079a5.45,5.45,0,0,1-5.324,6.611Zm545.752-9.906a5.34,5.34,0,0,1-.98-.089,5.444,5.444,0,0,1-4.382-6.331l.369-2.1a5.446,5.446,0,0,1,10.733,1.851l-.388,2.193A5.45,5.45,0,0,1,8348.476,1798.241Zm-549.85-13.677a5.445,5.445,0,0,1-5.392-4.744l-.279-2.208a5.446,5.446,0,0,1,10.813-1.309l.264,2.111a5.444,5.444,0,0,1-4.7,6.1A5.538,5.538,0,0,1,7798.626,1784.565Zm553.087-10.043c-.17,0-.347-.007-.519-.023a5.445,5.445,0,0,1-4.91-5.932l.189-2.12a5.445,5.445,0,1,1,10.851.923l-.2,2.218A5.444,5.444,0,0,1,8351.713,1774.521Zm-555.143-13.809a5.443,5.443,0,0,1-5.435-5.212l-.088-2.207a5.445,5.445,0,1,1,10.884-.385l.085,2.127a5.447,5.447,0,0,1-5.208,5.672C7796.729,1760.713,7796.648,1760.713,7796.57,1760.713Zm556.335-10.1h-.05a5.444,5.444,0,0,1-5.395-5.492l.007-2.766a5.445,5.445,0,1,1,10.891,0l-.008,2.861A5.447,5.447,0,0,1,8352.905,1750.615Zm-556.35-13.833c-.077,0-.152,0-.229,0a5.447,5.447,0,0,1-5.218-5.665l.1-2.215a5.445,5.445,0,0,1,10.878.529l-.1,2.133A5.445,5.445,0,0,1,7796.556,1736.781Zm555.462-10.727a5.445,5.445,0,0,1-5.421-5.015l-.177-2.12a5.445,5.445,0,0,1,10.847-.96l.188,2.22a5.448,5.448,0,0,1-5,5.858C8352.311,1726.048,8352.164,1726.054,8352.018,1726.054Zm-553.458-13.126a5.539,5.539,0,0,1-.692-.044,5.446,5.446,0,0,1-4.716-6.088l.291-2.206a5.445,5.445,0,1,1,10.79,1.467l-.278,2.111A5.447,5.447,0,0,1,7798.56,1712.928ZM8349.1,1702.3a5.447,5.447,0,0,1-5.365-4.555l-.356-2.1a5.444,5.444,0,1,1,10.725-1.882l.373,2.2a5.446,5.446,0,0,1-4.478,6.263A5.5,5.5,0,0,1,8349.1,1702.3Zm-546.5-12.965a5.448,5.448,0,0,1-5.329-6.6l.479-2.173a5.446,5.446,0,1,1,10.625,2.394l-.458,2.077A5.449,5.449,0,0,1,7802.6,1689.333Zm541.543-10.456a5.448,5.448,0,0,1-5.272-4.093l-.535-2.056a5.444,5.444,0,1,1,10.52-2.81l.565,2.157a5.446,5.446,0,0,1-5.277,6.8Zm-535.479-12.7a5.445,5.445,0,0,1-5.205-7.05l.668-2.135a5.445,5.445,0,0,1,10.378,3.3l-.639,2.042A5.447,5.447,0,0,1,7808.669,1666.176Zm528.516-10.2a5.446,5.446,0,0,1-5.137-3.64l-.717-2.006a5.446,5.446,0,0,1,10.243-3.7l.747,2.1a5.448,5.448,0,0,1-5.137,7.252ZM7816.728,1643.6a5.449,5.449,0,0,1-5.042-7.5q.42-1.036.852-2.069a5.445,5.445,0,0,1,10.049,4.2l-.811,1.972A5.448,5.448,0,0,1,7816.728,1643.6Zm511.548-9.828a5.446,5.446,0,0,1-4.96-3.192l-.889-1.937a5.446,5.446,0,0,1,9.882-4.58l.918,2.008a5.447,5.447,0,0,1-4.951,7.7Zm-501.562-11.958a5.445,5.445,0,0,1-4.839-7.929l1.018-1.974a5.446,5.446,0,0,1,9.657,5.035l-.986,1.905A5.441,5.441,0,0,1,7826.713,1621.817Zm490.765-9.387a5.444,5.444,0,0,1-4.756-2.788l-1.045-1.845a5.445,5.445,0,1,1,9.453-5.406l1.095,1.931a5.447,5.447,0,0,1-4.747,8.107Zm-478.938-11.45a5.448,5.448,0,0,1-4.616-8.33c.4-.633.792-1.264,1.2-1.893a5.445,5.445,0,0,1,9.177,5.864q-.573.894-1.133,1.8A5.444,5.444,0,0,1,7838.539,1600.98Zm466.343-8.893a5.441,5.441,0,0,1-4.51-2.388l-1.2-1.748a5.445,5.445,0,1,1,8.95-6.2l1.261,1.836a5.448,5.448,0,0,1-4.5,8.5Zm-452.773-10.845a5.447,5.447,0,0,1-4.353-8.715c.449-.6.9-1.19,1.352-1.782a5.445,5.445,0,1,1,8.64,6.63c-.432.562-.856,1.126-1.283,1.691A5.432,5.432,0,0,1,7852.108,1581.242Zm438.472-8.349a5.432,5.432,0,0,1-4.222-2l-1.359-1.656a5.446,5.446,0,1,1,8.395-6.939l1.4,1.706a5.445,5.445,0,0,1-4.214,8.891Zm-423.266-10.151a5.445,5.445,0,0,1-4.049-9.082l1.473-1.634a5.446,5.446,0,0,1,8.075,7.309l-1.445,1.6A5.423,5.423,0,0,1,7867.314,1562.742Zm407.371-7.751a5.434,5.434,0,0,1-3.914-1.661l-1.489-1.531a5.444,5.444,0,1,1,7.771-7.627l1.547,1.587a5.447,5.447,0,0,1-3.914,9.232Zm-390.638-9.38a5.445,5.445,0,0,1-3.733-9.409c.544-.509,1.085-1.017,1.632-1.523a5.446,5.446,0,0,1,7.386,8.006c-.52.48-1.038.962-1.55,1.445A5.426,5.426,0,0,1,7884.048,1545.611Zm373.268-7.106a5.424,5.424,0,0,1-3.58-1.344l-1.607-1.391a5.446,5.446,0,1,1,7.089-8.268l1.684,1.457a5.445,5.445,0,0,1-3.585,9.546Zm-355.135-8.527a5.445,5.445,0,0,1-3.385-9.714q.876-.694,1.76-1.379a5.445,5.445,0,1,1,6.666,8.611c-.557.432-1.113.867-1.664,1.3A5.42,5.42,0,0,1,7902.181,1529.978Zm336.422-6.415a5.429,5.429,0,0,1-3.2-1.044l-1.742-1.261a5.446,5.446,0,0,1,6.366-8.838l1.789,1.3a5.446,5.446,0,0,1-3.211,9.847Zm-317.024-7.606a5.446,5.446,0,0,1-3-9.99l1.855-1.215a5.445,5.445,0,1,1,5.925,9.138l-1.783,1.165A5.411,5.411,0,0,1,7921.578,1515.957Zm297.093-5.678a5.419,5.419,0,0,1-2.824-.793l-1.824-1.1a5.445,5.445,0,1,1,5.567-9.359l1.913,1.151a5.445,5.445,0,0,1-2.832,10.1ZM7942.1,1503.65a5.446,5.446,0,0,1-2.6-10.235l1.945-1.044a5.446,5.446,0,0,1,5.126,9.611l-1.881,1.009A5.416,5.416,0,0,1,7942.1,1503.65Zm255.568-4.9a5.428,5.428,0,0,1-2.4-.564l-1.923-.94a5.446,5.446,0,0,1,4.743-9.8l2,.979a5.445,5.445,0,0,1-2.415,10.328Zm-234.073-5.592a5.446,5.446,0,0,1-2.178-10.438l2.032-.875a5.445,5.445,0,0,1,4.271,10.018l-1.951.842A5.448,5.448,0,0,1,7963.594,1493.162Zm212.15-4.079a5.421,5.421,0,0,1-1.983-.376l-1.994-.769a5.445,5.445,0,0,1,3.88-10.176l2.082.8a5.446,5.446,0,0,1-1.984,10.517Zm-189.837-4.511a5.445,5.445,0,0,1-1.733-10.606l2.1-.7a5.445,5.445,0,1,1,3.392,10.349l-2.029.673A5.42,5.42,0,0,1,7985.907,1484.572Zm167.173-3.218a5.439,5.439,0,0,1-1.537-.221l-2.049-.593a5.445,5.445,0,1,1,2.985-10.473l2.132.616a5.446,5.446,0,0,1-1.531,10.671Zm-144.178-3.415a5.446,5.446,0,0,1-1.274-10.74l2.157-.512a5.445,5.445,0,1,1,2.477,10.605l-2.076.493A5.446,5.446,0,0,1,8008.9,1477.939Zm120.943-2.322a5.466,5.466,0,0,1-1.082-.108l-2.1-.414a5.445,5.445,0,1,1,2.075-10.69l2.176.429a5.445,5.445,0,0,1-1.069,10.784Zm-97.454-2.3a5.446,5.446,0,0,1-.816-10.829l2.2-.327a5.446,5.446,0,0,1,1.551,10.781l-2.1.31A5.488,5.488,0,0,1,8032.392,1473.318Zm73.807-1.41a5.166,5.166,0,0,1-.621-.035l-2.117-.231a5.445,5.445,0,0,1,1.131-10.83l2.216.241a5.445,5.445,0,0,1-.608,10.855Zm-50.01-1.173a5.445,5.445,0,0,1-.347-10.879l2.215-.136a5.446,5.446,0,1,1,.621,10.874l-2.134.129C8056.425,1470.732,8056.3,1470.735,8056.188,1470.735Zm26.122-.494-.152,0-2.13-.05a5.447,5.447,0,0,1-5.341-5.548,5.515,5.515,0,0,1,5.55-5.34l2.223.052a5.446,5.446,0,0,1-.149,10.889Z" transform="translate(-7791.044 -1459.3)"/></g><g transform="translate(7867.522 1535.901)"><path class="a" d="M8053.64,1938.927l-2.21-.01a5.445,5.445,0,0,1,.048-10.891h.055l1.994.01a5.492,5.492,0,0,1,5.5,5.445A5.4,5.4,0,0,1,8053.64,1938.927Zm21.532-1.095a5.445,5.445,0,0,1-.541-10.862c.7-.07,1.394-.145,2.088-.222a5.444,5.444,0,1,1,1.21,10.822q-1.1.123-2.2.236A5.5,5.5,0,0,1,8075.172,1937.832Zm-45.213-.2a5.073,5.073,0,0,1-.609-.035l-2.191-.253a5.445,5.445,0,1,1,1.306-10.812l2.095.243a5.445,5.445,0,0,1-.6,10.857Zm68.645-3.516a5.446,5.446,0,0,1-1.146-10.769c.689-.148,1.371-.3,2.054-.455a5.446,5.446,0,0,1,2.414,10.621q-1.084.244-2.164.48A5.529,5.529,0,0,1,8098.6,1934.114Zm-92.044-.417a5.422,5.422,0,0,1-1.209-.136l-2.154-.5a5.445,5.445,0,1,1,2.516-10.6l2.05.476a5.447,5.447,0,0,1-1.2,10.758Zm114.916-5.913a5.446,5.446,0,0,1-1.756-10.6l1.991-.688a5.445,5.445,0,0,1,3.607,10.276l-2.09.722A5.442,5.442,0,0,1,8121.476,1927.785Zm-137.727-.631a5.444,5.444,0,0,1-1.792-.3c-.705-.244-1.4-.493-2.1-.747a5.445,5.445,0,1,1,3.708-10.239c.657.237,1.319.471,1.981.7a5.446,5.446,0,0,1-1.794,10.588Zm159.733-8.24a5.446,5.446,0,0,1-2.316-10.377q.948-.442,1.886-.9a5.445,5.445,0,1,1,4.739,9.8c-.665.321-1.33.638-2,.953A5.419,5.419,0,0,1,8143.482,1918.913Zm-181.669-.838a5.414,5.414,0,0,1-2.355-.539q-1.008-.483-2.007-.979a5.445,5.445,0,0,1,4.844-9.754c.625.312,1.252.616,1.882.918a5.446,5.446,0,0,1-2.363,10.354Zm202.529-10.445a5.445,5.445,0,0,1-2.855-10.084q.891-.55,1.771-1.1a5.445,5.445,0,0,1,5.814,9.207q-.937.593-1.885,1.174A5.4,5.4,0,0,1,8164.343,1907.63Zm-223.3-1.04a5.416,5.416,0,0,1-2.9-.836l-1.867-1.189a5.444,5.444,0,0,1,5.883-9.163l1.781,1.132a5.446,5.446,0,0,1-2.9,10.056Zm242.77-12.509a5.446,5.446,0,0,1-3.359-9.736q.828-.645,1.647-1.3a5.445,5.445,0,1,1,6.8,8.507q-.867.692-1.738,1.372A5.417,5.417,0,0,1,8183.812,1894.082Zm-262.125-1.228a5.426,5.426,0,0,1-3.388-1.186q-.867-.692-1.729-1.394a5.445,5.445,0,1,1,6.879-8.441c.544.441,1.086.88,1.635,1.316a5.445,5.445,0,0,1-3.4,9.705Zm279.963-14.409a5.446,5.446,0,0,1-3.811-9.336q.751-.736,1.494-1.479a5.444,5.444,0,1,1,7.7,7.7q-.779.782-1.573,1.56A5.423,5.423,0,0,1,8201.649,1878.445Zm-297.657-1.4a5.429,5.429,0,0,1-3.85-1.594l-1.555-1.57a5.444,5.444,0,1,1,7.771-7.627l1.482,1.5a5.445,5.445,0,0,1-3.85,9.295Zm313.647-16.131a5.447,5.447,0,0,1-4.216-8.89c.443-.542.88-1.085,1.316-1.631a5.445,5.445,0,0,1,8.514,6.791q-.691.869-1.394,1.73A5.434,5.434,0,0,1,8217.64,1860.915Zm-329.47-1.543a5.437,5.437,0,0,1-4.259-2.045q-.69-.865-1.374-1.737a5.446,5.446,0,0,1,8.58-6.709q.643.826,1.3,1.646a5.446,5.446,0,0,1-4.249,8.845Zm343.41-17.658a5.449,5.449,0,0,1-4.576-8.393q.571-.883,1.129-1.775a5.446,5.446,0,0,1,9.223,5.794c-.395.625-.791,1.252-1.19,1.873A5.444,5.444,0,0,1,8231.58,1841.714Zm-357.167-1.668a5.443,5.443,0,0,1-4.611-2.542q-.586-.934-1.167-1.873a5.446,5.446,0,1,1,9.271-5.718l1.111,1.782a5.448,5.448,0,0,1-4.6,8.35Zm368.871-18.976a5.448,5.448,0,0,1-4.872-7.868c.311-.625.619-1.253.921-1.883a5.446,5.446,0,0,1,9.814,4.722q-.486,1.006-.98,2.006A5.449,5.449,0,0,1,8243.284,1821.07Zm-380.381-1.761a5.445,5.445,0,0,1-4.9-3.073q-.48-.993-.951-1.99a5.446,5.446,0,0,1,9.85-4.65l.9,1.893a5.448,5.448,0,0,1-4.9,7.82Zm389.7-20.07a5.449,5.449,0,0,1-5.124-7.29l.71-1.994a5.445,5.445,0,1,1,10.28,3.593l-.742,2.089A5.447,5.447,0,0,1,8252.6,1799.239Zm-398.808-1.833a5.443,5.443,0,0,1-5.136-3.643l-.724-2.09a5.445,5.445,0,0,1,10.311-3.507l.687,1.989a5.447,5.447,0,0,1-5.138,7.251Zm405.6-20.912a5.38,5.38,0,0,1-1.261-.148,5.449,5.449,0,0,1-4.042-6.556l.479-2.05a5.445,5.445,0,1,1,10.618,2.414l-.5,2.152A5.452,5.452,0,0,1,8259.4,1776.495Zm-412.185-1.883a5.444,5.444,0,0,1-5.3-4.238l-.483-2.158a5.445,5.445,0,0,1,10.642-2.315l.459,2.056a5.452,5.452,0,0,1-5.312,6.655Zm416.374-21.467a5.461,5.461,0,0,1-5.411-6.107q.126-1.039.239-2.079a5.446,5.446,0,0,1,10.826,1.19c-.08.738-.169,1.475-.257,2.209A5.447,5.447,0,0,1,8263.589,1753.145Zm-420.346-1.924a5.448,5.448,0,0,1-5.406-4.835c-.081-.735-.161-1.473-.235-2.209a5.445,5.445,0,0,1,10.835-1.1q.105,1.041.224,2.082a5.453,5.453,0,0,1-5.417,6.057Zm421.887-21.749h-.049a5.445,5.445,0,0,1-5.4-5.494l.01-2.111v-.446a5.444,5.444,0,1,1,10.889,0l0,.369-.011,2.284A5.448,5.448,0,0,1,8265.13,1729.472Zm-423.217-1.936a5.444,5.444,0,0,1-5.445-5.445l.01-2.213a5.445,5.445,0,0,1,5.441-5.391h.057a5.445,5.445,0,0,1,5.391,5.5l-.009,2.1A5.444,5.444,0,0,1,7841.913,1727.537ZM8264,1705.33a5.445,5.445,0,0,1-5.409-4.882l-.228-2.1a5.446,5.446,0,0,1,10.823-1.224l.235,2.195a5.444,5.444,0,0,1-4.851,5.98C8264.384,1705.319,8264.191,1705.33,8264,1705.33Zm-420.8-1.48a5.191,5.191,0,0,1-.6-.034,5.446,5.446,0,0,1-4.817-6.007l.255-2.193a5.444,5.444,0,1,1,10.811,1.29l-.238,2.1A5.449,5.449,0,0,1,7843.2,1703.849Zm417.051-21.943a5.448,5.448,0,0,1-5.317-4.29c-.146-.681-.3-1.36-.456-2.039a5.446,5.446,0,0,1,10.613-2.448q.248,1.085.486,2.174a5.451,5.451,0,0,1-5.326,6.6Zm-413.129-1.454a5.385,5.385,0,0,1-1.21-.136,5.443,5.443,0,0,1-4.1-6.517l.5-2.151a5.445,5.445,0,1,1,10.6,2.512l-.476,2.053A5.448,5.448,0,0,1,7847.124,1680.453Zm406.765-21.4a5.446,5.446,0,0,1-5.154-3.691l-.687-1.991a5.444,5.444,0,1,1,10.272-3.606l.723,2.087a5.449,5.449,0,0,1-5.153,7.2Zm-400.238-1.41a5.449,5.449,0,0,1-5.143-7.24l.741-2.093A5.446,5.446,0,0,1,7859.5,1652l-.706,1.993A5.447,5.447,0,0,1,7853.65,1657.641Zm391.338-20.581a5.442,5.442,0,0,1-4.921-3.108l-.91-1.9a5.445,5.445,0,1,1,9.8-4.754l.949,1.979a5.447,5.447,0,0,1-4.915,7.784Zm-382.274-1.356a5.449,5.449,0,0,1-4.9-7.807c.32-.666.647-1.331.972-1.994a5.446,5.446,0,0,1,9.768,4.819l-.925,1.9A5.452,5.452,0,0,1,7862.714,1635.7Zm370.96-19.487a5.446,5.446,0,0,1-4.636-2.58l-1.114-1.785a5.444,5.444,0,1,1,9.205-5.814l1.171,1.867a5.446,5.446,0,0,1-4.626,8.312Zm-359.487-1.29a5.45,5.45,0,0,1-4.61-8.34q.59-.94,1.192-1.873a5.445,5.445,0,0,1,9.163,5.883c-.378.59-.757,1.182-1.128,1.776A5.443,5.443,0,0,1,7874.187,1614.928Zm345.906-18.157a5.436,5.436,0,0,1-4.289-2.085l-1.307-1.647a5.445,5.445,0,0,1,8.5-6.807c.463.574.919,1.152,1.375,1.734a5.446,5.446,0,0,1-4.28,8.805Zm-332.181-1.205a5.445,5.445,0,0,1-4.251-8.841q.688-.865,1.39-1.726a5.445,5.445,0,1,1,8.439,6.882q-.662.815-1.316,1.637A5.441,5.441,0,0,1,7887.912,1595.565Zm316.51-16.613a5.43,5.43,0,0,1-3.881-1.626q-.732-.747-1.479-1.486a5.446,5.446,0,1,1,7.679-7.725q.787.782,1.563,1.575a5.444,5.444,0,0,1-3.882,9.262Zm-300.707-1.094a5.445,5.445,0,0,1-3.854-9.292l1.565-1.555a5.446,5.446,0,0,1,7.637,7.766l-1.5,1.483A5.425,5.425,0,0,1,7903.715,1577.859Zm283.153-14.873a5.422,5.422,0,0,1-3.427-1.217q-.817-.664-1.641-1.318a5.444,5.444,0,1,1,6.772-8.526q.869.687,1.729,1.388a5.444,5.444,0,0,1-3.435,9.672Zm-265.482-.963a5.444,5.444,0,0,1-3.4-9.7l1.72-1.365a5.445,5.445,0,0,1,6.733,8.559l-1.655,1.313A5.434,5.434,0,0,1,7921.386,1562.022Zm246.253-12.946a5.422,5.422,0,0,1-2.937-.864q-.888-.569-1.776-1.127a5.445,5.445,0,1,1,5.786-9.226q.942.591,1.873,1.19a5.444,5.444,0,0,1-2.946,10.027Zm-226.933-.82a5.446,5.446,0,0,1-2.913-10.05l1.873-1.169a5.445,5.445,0,1,1,5.725,9.264l-1.781,1.113A5.426,5.426,0,0,1,7940.706,1548.256Zm206.272-10.854a5.437,5.437,0,0,1-2.406-.562q-.942-.466-1.894-.922a5.446,5.446,0,0,1,4.718-9.816q1,.481,2,.971a5.446,5.446,0,0,1-2.414,10.33Zm-185.542-.665a5.445,5.445,0,0,1-2.379-10.344q1-.486,2-.959a5.446,5.446,0,0,1,4.625,9.861q-.943.442-1.879.9A5.412,5.412,0,0,1,7961.437,1536.737Zm163.7-8.612a5.454,5.454,0,0,1-1.849-.325c-.658-.238-1.321-.471-1.983-.7a5.445,5.445,0,0,1,3.574-10.288c.7.245,1.4.492,2.105.745a5.446,5.446,0,0,1-1.848,10.569Zm-141.808-.5a5.446,5.446,0,0,1-1.8-10.584l2.08-.72a5.446,5.446,0,1,1,3.528,10.3l-2,.691A5.39,5.39,0,0,1,7983.33,1527.621Zm119.057-6.252a5.491,5.491,0,0,1-1.261-.148q-1.021-.244-2.047-.474a5.444,5.444,0,1,1,2.4-10.621q1.084.244,2.162.5a5.447,5.447,0,0,1-1.254,10.746Zm-96.27-.338a5.446,5.446,0,0,1-1.215-10.753c.724-.167,1.45-.329,2.174-.486a5.445,5.445,0,1,1,2.3,10.645c-.683.148-1.36.3-2.038.455A5.48,5.48,0,0,1,8006.117,1521.031Zm72.912-3.81a5.308,5.308,0,0,1-.659-.041q-1.04-.125-2.084-.24a5.445,5.445,0,1,1,1.188-10.825q1.106.12,2.2.253a5.446,5.446,0,0,1-.647,10.852Zm-49.53-.173a5.446,5.446,0,0,1-.605-10.857q1.1-.125,2.205-.237a5.445,5.445,0,1,1,1.109,10.833c-.7.072-1.394.148-2.089.226A5.481,5.481,0,0,1,8029.5,1517.048Zm25.85-1.341h-.047l-2.109-.007a5.445,5.445,0,0,1,0-10.891l2.2.007a5.445,5.445,0,0,1-.048,10.891Z" transform="translate(-7836.468 -1504.809)"/></g></g></svg>