<svg xmlns="http://www.w3.org/2000/svg" xmlns:xlink="http://www.w3.org/1999/xlink" width="215" height="215" viewBox="0 0 215 215"><defs><style>.a{fill:#fff;stroke:#707070;}.b{clip-path:url(#a);}.c{fill:#89bbe0;}</style><clipPath id="a"><circle class="a" cx="107.5" cy="107.5" r="107.5" transform="translate(967 2144)"/></clipPath></defs><g class="b" transform="translate(-967 -2144)"><circle class="c" cx="5.359" cy="5.359" r="5.359" transform="translate(963.75 2137.986)"/><circle class="c" cx="5.359" cy="5.359" r="5.359" transform="translate(987.079 2137.986)"/><circle class="c" cx="5.359" cy="5.359" r="5.359" transform="translate(1010.408 2137.986)"/><circle class="c" cx="5.359" cy="5.359" r="5.359" transform="translate(1033.737 2137.986)"/><circle class="c" cx="5.359" cy="5.359" r="5.359" transform="translate(1057.066 2137.986)"/><circle class="c" cx="5.359" cy="5.359" r="5.359" transform="translate(1080.395 2137.986)"/><circle class="c" cx="5.359" cy="5.359" r="5.359" transform="translate(1103.724 2137.986)"/><circle class="c" cx="5.359" cy="5.359" r="5.359" transform="translate(1127.053 2137.986)"/><circle class="c" cx="5.359" cy="5.359" r="5.359" transform="translate(1150.383 2137.986)"/><circle class="c" cx="5.359" cy="5.359" r="5.359" transform="translate(1173.712 2137.986)"/><circle class="c" cx="5.359" cy="5.359" r="5.359" transform="translate(963.75 2161.315)"/><circle class="c" cx="5.359" cy="5.359" r="5.359" transform="translate(987.079 2161.315)"/><circle class="c" cx="5.359" cy="5.359" r="5.359" transform="translate(1010.408 2161.315)"/><circle class="c" cx="5.359" cy="5.359" r="5.359" transform="translate(1033.737 2161.315)"/><circle class="c" cx="5.359" cy="5.359" r="5.359" transform="translate(1057.066 2161.315)"/><circle class="c" cx="5.359" cy="5.359" r="5.359" transform="translate(1080.395 2161.315)"/><circle class="c" cx="5.359" cy="5.359" r="5.359" transform="translate(1103.724 2161.315)"/><circle class="c" cx="5.359" cy="5.359" r="5.359" transform="translate(1127.053 2161.315)"/><circle class="c" cx="5.359" cy="5.359" r="5.359" transform="translate(1150.383 2161.315)"/><circle class="c" cx="5.359" cy="5.359" r="5.359" transform="translate(1173.712 2161.315)"/><circle class="c" cx="5.359" cy="5.359" r="5.359" transform="translate(963.75 2184.645)"/><circle class="c" cx="5.359" cy="5.359" r="5.359" transform="translate(987.079 2184.645)"/><circle class="c" cx="5.359" cy="5.359" r="5.359" transform="translate(1010.408 2184.645)"/><circle class="c" cx="5.359" cy="5.359" r="5.359" transform="translate(1033.737 2184.645)"/><circle class="c" cx="5.359" cy="5.359" r="5.359" transform="translate(1057.066 2184.645)"/><circle class="c" cx="5.359" cy="5.359" r="5.359" transform="translate(1080.395 2184.645)"/><circle class="c" cx="5.359" cy="5.359" r="5.359" transform="translate(1103.724 2184.645)"/><circle class="c" cx="5.359" cy="5.359" r="5.359" transform="translate(1127.053 2184.645)"/><circle class="c" cx="5.359" cy="5.359" r="5.359" transform="translate(1150.383 2184.645)"/><circle class="c" cx="5.359" cy="5.359" r="5.359" transform="translate(1173.712 2184.645)"/><circle class="c" cx="5.359" cy="5.359" r="5.359" transform="translate(963.75 2207.974)"/><circle class="c" cx="5.359" cy="5.359" r="5.359" transform="translate(987.079 2207.974)"/><circle class="c" cx="5.359" cy="5.359" r="5.359" transform="translate(1010.408 2207.974)"/><circle class="c" cx="5.359" cy="5.359" r="5.359" transform="translate(1033.737 2207.974)"/><circle class="c" cx="5.359" cy="5.359" r="5.359" transform="translate(1057.066 2207.974)"/><circle class="c" cx="5.359" cy="5.359" r="5.359" transform="translate(1080.395 2207.974)"/><circle class="c" cx="5.359" cy="5.359" r="5.359" transform="translate(1103.724 2207.974)"/><circle class="c" cx="5.359" cy="5.359" r="5.359" transform="translate(1127.053 2207.974)"/><circle class="c" cx="5.359" cy="5.359" r="5.359" transform="translate(1150.383 2207.974)"/><circle class="c" cx="5.359" cy="5.359" r="5.359" transform="translate(1173.712 2207.974)"/><circle class="c" cx="5.359" cy="5.359" r="5.359" transform="translate(963.75 2231.303)"/><circle class="c" cx="5.359" cy="5.359" r="5.359" transform="translate(987.079 2231.303)"/><circle class="c" cx="5.359" cy="5.359" r="5.359" transform="translate(1010.408 2231.303)"/><circle class="c" cx="5.359" cy="5.359" r="5.359" transform="translate(1033.737 2231.303)"/><circle class="c" cx="5.359" cy="5.359" r="5.359" transform="translate(1057.066 2231.303)"/><circle class="c" cx="5.359" cy="5.359" r="5.359" transform="translate(1080.395 2231.303)"/><circle class="c" cx="5.359" cy="5.359" r="5.359" transform="translate(1103.724 2231.303)"/><circle class="c" cx="5.359" cy="5.359" r="5.359" transform="translate(1127.053 2231.303)"/><circle class="c" cx="5.359" cy="5.359" r="5.359" transform="translate(1150.383 2231.303)"/><circle class="c" cx="5.359" cy="5.359" r="5.359" transform="translate(1173.712 2231.303)"/><circle class="c" cx="5.359" cy="5.359" r="5.359" transform="translate(963.75 2254.632)"/><circle class="c" cx="5.359" cy="5.359" r="5.359" transform="translate(987.079 2254.632)"/><circle class="c" cx="5.359" cy="5.359" r="5.359" transform="translate(1010.408 2254.632)"/><circle class="c" cx="5.359" cy="5.359" r="5.359" transform="translate(1033.737 2254.632)"/><circle class="c" cx="5.359" cy="5.359" r="5.359" transform="translate(1057.066 2254.632)"/><circle class="c" cx="5.359" cy="5.359" r="5.359" transform="translate(1080.395 2254.632)"/><circle class="c" cx="5.359" cy="5.359" r="5.359" transform="translate(1103.724 2254.632)"/><circle class="c" cx="5.359" cy="5.359" r="5.359" transform="translate(1127.053 2254.632)"/><circle class="c" cx="5.359" cy="5.359" r="5.359" transform="translate(1150.383 2254.632)"/><circle class="c" cx="5.359" cy="5.359" r="5.359" transform="translate(1173.712 2254.632)"/><circle class="c" cx="5.359" cy="5.359" r="5.359" transform="translate(963.75 2277.961)"/><circle class="c" cx="5.359" cy="5.359" r="5.359" transform="translate(987.079 2277.961)"/><circle class="c" cx="5.359" cy="5.359" r="5.359" transform="translate(1010.408 2277.961)"/><circle class="c" cx="5.359" cy="5.359" r="5.359" transform="translate(1033.737 2277.961)"/><circle class="c" cx="5.359" cy="5.359" r="5.359" transform="translate(1057.066 2277.961)"/><circle class="c" cx="5.359" cy="5.359" r="5.359" transform="translate(1080.395 2277.961)"/><circle class="c" cx="5.359" cy="5.359" r="5.359" transform="translate(1103.724 2277.961)"/><circle class="c" cx="5.359" cy="5.359" r="5.359" transform="translate(1127.053 2277.961)"/><circle class="c" cx="5.359" cy="5.359" r="5.359" transform="translate(1150.383 2277.961)"/><circle class="c" cx="5.359" cy="5.359" r="5.359" transform="translate(1173.712 2277.961)"/><circle class="c" cx="5.359" cy="5.359" r="5.359" transform="translate(963.75 2301.29)"/><circle class="c" cx="5.359" cy="5.359" r="5.359" transform="translate(987.079 2301.29)"/><circle class="c" cx="5.359" cy="5.359" r="5.359" transform="translate(1010.408 2301.29)"/><circle class="c" cx="5.359" cy="5.359" r="5.359" transform="translate(1033.737 2301.29)"/><circle class="c" cx="5.359" cy="5.359" r="5.359" transform="translate(1057.066 2301.29)"/><circle class="c" cx="5.359" cy="5.359" r="5.359" transform="translate(1080.395 2301.29)"/><circle class="c" cx="5.359" cy="5.359" r="5.359" transform="translate(1103.724 2301.29)"/><circle class="c" cx="5.359" cy="5.359" r="5.359" transform="translate(1127.053 2301.29)"/><circle class="c" cx="5.359" cy="5.359" r="5.359" transform="translate(1150.383 2301.29)"/><circle class="c" cx="5.359" cy="5.359" r="5.359" transform="translate(1173.712 2301.29)"/><circle class="c" cx="5.359" cy="5.359" r="5.359" transform="translate(963.75 2324.619)"/><circle class="c" cx="5.359" cy="5.359" r="5.359" transform="translate(987.079 2324.619)"/><circle class="c" cx="5.359" cy="5.359" r="5.359" transform="translate(1010.408 2324.619)"/><circle class="c" cx="5.359" cy="5.359" r="5.359" transform="translate(1033.737 2324.619)"/><circle class="c" cx="5.359" cy="5.359" r="5.359" transform="translate(1057.066 2324.619)"/><circle class="c" cx="5.359" cy="5.359" r="5.359" transform="translate(1080.395 2324.619)"/><circle class="c" cx="5.359" cy="5.359" r="5.359" transform="translate(1103.724 2324.619)"/><circle class="c" cx="5.359" cy="5.359" r="5.359" transform="translate(1127.053 2324.619)"/><circle class="c" cx="5.359" cy="5.359" r="5.359" transform="translate(1150.383 2324.619)"/><circle class="c" cx="5.359" cy="5.359" r="5.359" transform="translate(1173.712 2324.619)"/><circle class="c" cx="5.359" cy="5.359" r="5.359" transform="translate(963.75 2347.948)"/><circle class="c" cx="5.359" cy="5.359" r="5.359" transform="translate(987.079 2347.948)"/><circle class="c" cx="5.359" cy="5.359" r="5.359" transform="translate(1010.408 2347.948)"/><circle class="c" cx="5.359" cy="5.359" r="5.359" transform="translate(1033.737 2347.948)"/><circle class="c" cx="5.359" cy="5.359" r="5.359" transform="translate(1057.066 2347.948)"/><circle class="c" cx="5.359" cy="5.359" r="5.359" transform="translate(1080.395 2347.948)"/><circle class="c" cx="5.359" cy="5.359" r="5.359" transform="translate(1103.724 2347.948)"/><circle class="c" cx="5.359" cy="5.359" r="5.359" transform="translate(1127.053 2347.948)"/><circle class="c" cx="5.359" cy="5.359" r="5.359" transform="translate(1150.383 2347.948)"/><circle class="c" cx="5.359" cy="5.359" r="5.359" transform="translate(1173.712 2347.948)"/></g></svg>