<svg xmlns="http://www.w3.org/2000/svg" width="141" height="141" viewBox="0 0 141 141"><defs><style>.a{fill:#88e2a6;}.b{fill:#fff;}</style></defs><g transform="translate(-217 -881.909)"><circle class="a" cx="70.5" cy="70.5" r="70.5" transform="translate(217 881.909)"/><g transform="translate(801.378 -640.294)"><g transform="translate(-553.378 1549.295)"><g transform="translate(0 0)"><path class="b" d="M-523.929,1576.863c-1.443-2.923-2.911-5.687-4.192-8.534a13.25,13.25,0,0,1,3.4-15.078,14.474,14.474,0,0,1,23.971,7c1,3.844-.113,7.315-1.8,10.67-1.06,2.107-2.279,4.135-3.411,6.17a21.815,21.815,0,0,1,2.027,1.049,4.374,4.374,0,0,1,1.956,4.7c-.165,1.071-.459,2.131-.515,3.206a2.193,2.193,0,0,0,.557,1.649,1.9,1.9,0,0,0,2.458.105,11.154,11.154,0,0,0,1.662-1.571c3.975-4.882,10.592-1.788,12.151,2.956a7.831,7.831,0,0,1,.447,2.109,3.848,3.848,0,0,1-3.325,4.322c-.741.18-1.482.36-2.227.518a1.89,1.89,0,0,0-1.606,2.067c-.049,1.806-.089,3.617-.273,5.412a2.811,2.811,0,0,1-2.762,2.764,37.056,37.056,0,0,0-6.016,1.625,2.51,2.51,0,0,0-1.712,1.924,9.39,9.39,0,0,1-5.517,6.015,3.362,3.362,0,0,1-1.868-.047c-1.53-.313-3.036-.745-4.565-1.06a4.984,4.984,0,0,0-1.8-.045,1.287,1.287,0,0,0-.778,2.188c1.791,1.694,2.5,3.86,3.1,6.144a16.127,16.127,0,0,0,1.355,3.469,3.721,3.721,0,0,0,1.564,1.448c1.445.723,2.154,2.814,1.516,4.891-.785,2.551-2.265,3.552-5.043,3.077a28.532,28.532,0,0,1-14.749-7.669,9.8,9.8,0,0,1-2.944-7.774,10.553,10.553,0,0,0-4.106-8.6,25.717,25.717,0,0,1-1.914-1.84,4.582,4.582,0,0,1-1.139-5.076c1.19-3.282,2.358-6.581,3.306-9.937a21.983,21.983,0,0,0,.45-4.863c.041-.846-.477-1.109-1.333-1.1-4.466.042-8.932.022-13.4.018-1.894,0-2.008-.388-2.29-2.254-.491-3.245,1.045-5.257,3.407-7.114,3.455-2.717,7.127-4.848,11.619-5.051a24.673,24.673,0,0,1,10.809,2.02A5.5,5.5,0,0,0-523.929,1576.863Zm-26.235,9.356h1.283q5.915,0,11.83,0c2,0,3.319.844,3.54,2.837a17.914,17.914,0,0,1-.177,6.059,84.045,84.045,0,0,1-3.2,9.839,3.042,3.042,0,0,0,.925,3.909,33.436,33.436,0,0,1,3.542,3.618c2.189,2.539,2.5,5.687,2.576,8.848a7.082,7.082,0,0,0,2.347,5.24,28.864,28.864,0,0,0,12.121,6.458c1.852.505,2.536-.179,2.384-2.14a4.957,4.957,0,0,1-2.975-3.092,34.243,34.243,0,0,1-1.723-4.75,8.579,8.579,0,0,0-2.179-4.08,3.857,3.857,0,0,1-.708-4.675,4.169,4.169,0,0,1,3.818-2.492,18.6,18.6,0,0,1,6.5,1.032,1.639,1.639,0,0,0,1.211-.016c1.324-.989,2.656-2.059,3.043-3.766a5.324,5.324,0,0,1,3.8-3.989c2.148-.736,4.359-1.289,6.909-2.028,0-1.591-.042-3.392.01-5.191a4.614,4.614,0,0,1,3.7-4.6c.738-.188,1.482-.365,2.233-.493.968-.164,1.252-.752,1.105-1.637a5.105,5.105,0,0,0-2.883-3.916c-1.743-.872-2.948-.607-4.316.844-.5.527-.987,1.063-1.517,1.555a5.254,5.254,0,0,1-6.555.672c-1.786-1.043-2.373-2.815-1.845-5.388a21.621,21.621,0,0,0,.424-2.977c.057-.917-.822-1.882-1.632-1.662a5.515,5.515,0,0,0-2.566,1.339c-1.493,1.623-2.748,3.462-4.155,5.169-1.119,1.357-1.961,1.363-3.034.02-1.631-2.042-3.251-4.1-4.774-6.22a1.64,1.64,0,0,0-1.913-.77,10.1,10.1,0,0,1-6.313-.526,18.35,18.35,0,0,0-11.1-1.2c-3.532.772-6.3,2.9-8.922,5.278A2.6,2.6,0,0,0-550.165,1586.22Zm35.125-2.532a4.214,4.214,0,0,0,.514-.394c.351-.438.691-.885,1.035-1.329a68.063,68.063,0,0,0,8.5-13.253,12.661,12.661,0,0,0,1.5-5.371,11.284,11.284,0,0,0-16.54-9.649c-3.856,1.943-7.143,6.988-5.768,11.733a28.919,28.919,0,0,0,3.2,6.965C-520.24,1576.238-517.59,1579.911-515.039,1583.687Z" transform="translate(553.378 -1549.295)"/></g><g transform="translate(62.628 10.585)"><path class="b" d="M-280.08,1612.247c-.367.786-.609,1.376-.909,1.935a3.554,3.554,0,0,1-3.811,2.156q-3.218-.438-6.424-.966a2.634,2.634,0,0,1-2.367-1.779,2.674,2.674,0,0,1,.966-2.809,33.335,33.335,0,0,1,2.992-2.621,3.569,3.569,0,0,0,1.56-2.632c.542-4.284.516-3.357-2.958-3.469-.322-.01-.646,0-.964-.043-1.727-.217-2.387-1.4-1.779-3.02a5.2,5.2,0,0,1,4.512-3.724c3.53-.492,7.011-1.326,10.524-1.958a17.411,17.411,0,0,1,2.883-.184c2.2-.024,2.569.382,2.371,2.673,2.324.323,4.659.633,6.989.979a15.834,15.834,0,0,1,2.228.492,3.214,3.214,0,0,1,2.343,4.021,7.85,7.85,0,0,1-3.045,4.771,13.083,13.083,0,0,0-3.959,4.628,5.521,5.521,0,0,1-1.648,1.71c-1.314.992-2.657,1.959-4.061,2.815-2.594,1.58-4.294.874-5.16-2.049C-279.867,1612.941-279.939,1612.712-280.08,1612.247Zm-10.236.323a46.593,46.593,0,0,1,4.986.7c1.155.29,1.621-.125,2-1.07.618-1.525,1.287-3.029,1.934-4.542.311-.726.664-1.424,1.62-1.347s1.358.707,1.59,1.559c.458,1.684.96,3.356,1.536,5.353,1.85-1.478,3.92-2.545,5.111-4.232a24.222,24.222,0,0,1,4.974-5.475,4.415,4.415,0,0,0,1.745-3.3,10.455,10.455,0,0,0-1.57-.465c-1.589-.22-3.2-.313-4.779-.575-2.247-.372-4.781-.278-5.8-3.268l-13.319,2.631.048.4c.736.081,1.475.144,2.207.247,1.944.275,3.019,1.236,3.144,3.2.085,1.34-.282,2.7-.332,4.059a4.646,4.646,0,0,1-2.194,3.8C-288.349,1610.9-289.209,1611.673-290.316,1612.57Z" transform="translate(293.995 -1593.132)"/></g><g transform="translate(31.065 6.04)"><path class="b" d="M-409.676,1581.888a7.4,7.4,0,0,1-7.608,7.468,7.458,7.458,0,0,1-7.432-7.541,7.554,7.554,0,0,1,7.5-7.5A7.517,7.517,0,0,1-409.676,1581.888Zm-7.5-4.459a4.354,4.354,0,0,0-4.429,4.421,4.513,4.513,0,0,0,4.449,4.466,4.649,4.649,0,0,0,4.434-4.422A4.513,4.513,0,0,0-417.171,1577.429Z" transform="translate(424.717 -1574.312)"/></g></g><g transform="translate(-538.56 1604.088)"><rect class="b" width="38.956" height="1.342" transform="translate(0)"/></g><g transform="translate(-532.273 1616.347)"><path class="b" d="M-449.882,1833.242l-11.364-4.665-4.132,1.836-.588-1.324,4.7-2.087,11.936,4.9Z" transform="translate(465.966 -1827.002)"/></g><g transform="translate(-537.813 1577.802)"><g transform="translate(0 0)"><rect class="b" width="12.028" height="1.449" transform="translate(0 9.32) rotate(-50.793)"/></g></g></g></g></svg>