<svg xmlns="http://www.w3.org/2000/svg" width="141" height="141" viewBox="0 0 141 141"><defs><style>.a{fill:#89bbe0;}.b{fill:#fff;}</style></defs><g transform="translate(-932 -881.909)"><circle class="a" cx="70.5" cy="70.5" r="70.5" transform="translate(932 881.909)"/><g transform="translate(1486.62 104.55)"><g transform="translate(-511.995 823.056)"><path class="b" d="M-464.256,939.016h30.665c-.83.94-1.367,1.55-2.118,2.4,3.066,2.65,5.884,5.575,9.173,7.808,3.925,2.663,8.738,1.681,12.459-1.977,4.061-4,8.065-8.049,12.092-12.079,2.155-2.152,4.336-4.284,6.46-6.468,4.567-4.7,4.54-10.482-.031-15.143-1.9-1.938-3.807-3.87-5.729-5.824l-10.783,10.752c1.589,1.548,3.2,3.2,4.9,4.747,1.346,1.223,1.3,2.22-.037,3.438-1.362,1.244-2.561,2.668-4.059,4.255-.325-.843-.516-1.351-.715-1.857a10.1,10.1,0,0,0-7.973-6.672c-3.1-.589-6.2-1.15-9.293-1.723-.2-.267-.409-.534-.61-.8a6.768,6.768,0,0,0,1.461-.55,14.611,14.611,0,0,0,5.745-7.85A2.815,2.815,0,0,1-421.362,910a5.7,5.7,0,0,0,3.5-5.522c-.1-4.627.241-9.335-.518-13.855-1.5-8.927-10-15.148-19.191-14.69-8.769.437-16.549,7.452-17.277,16.253-.534,6.449-.356,12.967-.325,19.45.016,2.883,1.836,4.483,4.74,4.412a4.193,4.193,0,0,1,3.92,1.668,21.066,21.066,0,0,0,3.315,2.836c-3.532.676-6.533,1.291-9.55,1.812a10.014,10.014,0,0,0-8.319,7.026C-462.146,932.5-463.143,935.638-464.256,939.016Zm12.181-29.058c2.2-.037,1.608,1.985,2.474,3.182C-452.185,913.182-452.5,912.708-452.075,909.958Zm1.165-7.251v4.205C-452.656,905.117-452.591,903.729-450.909,902.708Zm29.045-.265c1.561,1.964,1.542,2.616,0,4.266Zm-9.381-11.045c-7.675,6.507-13.62,5.533-19.206,6.138-.382.681-.744,1.322-1.105,1.964-1.872-7.439.791-14.368,6.334-18.026a15.841,15.841,0,0,1,17.547.018c5.591,3.82,8.191,10.723,6.625,18.555-.634-1.131-1.029-1.838-1.438-2.569C-425.02,897.792-429.625,892.705-431.246,891.4Zm-12.408,24.664h3.156a1.408,1.408,0,0,0,1.408-1.408h0a1.409,1.409,0,0,0-1.391-1.408c-1.647-.021-2.169-.066-4.3.051-1.414.076-2.257-.469-2.393-1.713-.382-3.464-.618-6.947-.841-10.424a1.219,1.219,0,0,1,.738-.932c4.145-.456,12.926-2.262,15.877-4.81.689,1.626,4.154,4.5,6.38,5.177,0,2.2,0,4.575,0,6.944a11.263,11.263,0,0,1-4.025,8.722C-433.122,919.893-440.142,919.919-443.654,916.062Zm10.636,5.693-2.225,2.251a1.814,1.814,0,0,1-2.6-.016l-2.154-2.235ZM-431.4,941.5l6.436-6.486c2.692,1.655,6.062,7.379,10.811,2.63l8.7-8.7c4.737-4.737-1.355-8.025-2.932-11.073l6.476-6.468c3.216,3.014,10.957,8.538,4.893,14.6q-9.889,9.889-19.8,19.765C-422.558,951.51-428.795,944.839-431.4,941.5Zm-28.875-5.247c.689-2.152,1.254-4.1,1.932-6a7.375,7.375,0,0,1,6.054-5.083c2.6-.458,5.211-.882,7.79-1.443a2.746,2.746,0,0,1,2.975.922c.49.55.992,1.089,1.5,1.626a4.792,4.792,0,0,0,6.879.067c.636-.646,1.269-1.263,1.925-1.856a3.387,3.387,0,0,1,2.409-.772c2.81.375,5.6.94,8.384,1.5a7.181,7.181,0,0,1,4.967,3.3c2.134,3.462,1.98,4.467-.846,7.261-1.194,1.181-2.069,1.019-3.179-.052-1.757-1.694-3.608-3.294-5.674-5.164-1.466,1.537-2.833,2.888-4.1,4.331a3.878,3.878,0,0,1-3.281,1.4c-4.7-.081-9.406-.031-14.111-.031C-451.077,936.259-455.51,936.256-460.279,936.256Z" transform="translate(464.256 -875.909)"/></g><g transform="translate(-495.709 813.016)"><path class="b" d="M-358.991,867.755l.013-.024a1.394,1.394,0,0,1,1.9-.526l2.479,1.4c-.741-6.171-6.211-14.846-12.712-19.926-9.9-7.734-20.947-9.917-33-6.955a1.4,1.4,0,0,1-1.665-.921l-.008-.026a1.4,1.4,0,0,1,.976-1.79,39.368,39.368,0,0,1,30.2,3.845c10.043,5.629,16.315,14.309,19.367,25.747l2.014-3.235a1.394,1.394,0,0,1,1.892-.463l.048.028a1.4,1.4,0,0,1,.485,1.923l-3.6,5.969a1.4,1.4,0,0,1-1.92.47l-5.967-3.631A1.4,1.4,0,0,1-358.991,867.755Z" transform="translate(402.06 -837.569)"/></g><g transform="translate(-527.511 835.994)"><path class="b" d="M-511.8,933.932l-.023.014a1.391,1.391,0,0,1-1.9-.427c-.166-.256-.327-.5-.489-.753-.409-.627-.822-1.252-1.424-2.167-3.776,12.743-1.74,24.092,5.549,34.5a1.39,1.39,0,0,1-.292,1.9l-.022.017a1.391,1.391,0,0,1-1.981-.3c-7.927-11.29-10.033-23.439-6.055-36.912l-2.936,1.766a1.39,1.39,0,0,1-1.912-.482l-.037-.062a1.39,1.39,0,0,1,.483-1.9l6.04-3.607a1.391,1.391,0,0,1,1.911.489l3.551,6.039A1.39,1.39,0,0,1-511.8,933.932Z" transform="translate(523.51 -925.321)"/></g><g transform="translate(-522.786 814.54)"><rect class="b" width="16.892" height="2.747"/></g><g transform="translate(-517.201 820.369)"><rect class="b" width="11.26" height="2.571" transform="translate(0)"/></g><g transform="translate(-522.833 820.34)"><rect class="b" width="2.632" height="2.595" transform="translate(0 0)"/></g><g transform="translate(-528.93 804.306)"><path class="b" d="M-505.733,833.486h-8.607a14.607,14.607,0,0,1-14.59-14.59,14.607,14.607,0,0,1,14.59-14.59,14.607,14.607,0,0,1,14.59,14.59,14.6,14.6,0,0,1-5.983,11.779Zm-8.607-27.609A13.034,13.034,0,0,0-527.359,818.9a13.034,13.034,0,0,0,13.019,13.019h7.036v-2.058l.34-.234a13.028,13.028,0,0,0,5.643-10.727A13.034,13.034,0,0,0-514.34,805.877Z" transform="translate(528.93 -804.306)"/></g></g></g></svg>