<svg xmlns="http://www.w3.org/2000/svg" width="429.467" height="429.529" viewBox="0 0 429.467 429.529"><defs><style>.a{fill:#89bbe0;}</style></defs><g transform="translate(-7769.565 -1437.826)"><g transform="translate(7904.705 1572.834)"><path class="a" d="M7987.235,1732.679a3.711,3.711,0,0,1-.126-7.42c.479-.017.953-.038,1.43-.064a3.711,3.711,0,0,1,.4,7.412c-.521.027-1.043.051-1.568.069Zm-14.924-.93a3.784,3.784,0,0,1-.6-.048c-.518-.084-1.035-.173-1.549-.266a3.711,3.711,0,1,1,1.325-7.3c.468.085.937.167,1.406.242a3.712,3.712,0,0,1-.586,7.376Zm31.21-1.41a3.711,3.711,0,0,1-.922-7.3c.463-.119.922-.242,1.382-.369a3.711,3.711,0,0,1,1.983,7.151c-.5.14-1.01.275-1.515.4A3.677,3.677,0,0,1,8003.521,1730.339Zm-47.079-2.964a3.687,3.687,0,0,1-1.37-.263q-.735-.292-1.462-.6a3.71,3.71,0,1,1,2.882-6.838q.656.275,1.322.54a3.712,3.712,0,0,1-1.372,7.16Zm62.485-2.839a3.71,3.71,0,0,1-1.68-7.021q.633-.322,1.258-.655a3.711,3.711,0,1,1,3.49,6.55c-.463.246-.926.488-1.395.725A3.7,3.7,0,0,1,8018.928,1724.537Zm-77.034-4.862a3.69,3.69,0,0,1-2.078-.639q-.655-.443-1.3-.9a3.711,3.711,0,0,1,4.291-6.056c.386.272.776.543,1.169.807a3.712,3.712,0,0,1-2.082,6.786Zm90.814-4.12a3.711,3.711,0,0,1-2.349-6.587c.368-.3.73-.6,1.092-.91a3.711,3.711,0,0,1,4.81,5.653q-.6.509-1.21,1.009A3.7,3.7,0,0,1,8032.708,1715.554Zm-103.366-6.525a3.7,3.7,0,0,1-2.69-1.154q-.541-.569-1.068-1.147a3.71,3.71,0,0,1,5.473-5.011q.485.529.976,1.047a3.709,3.709,0,0,1-2.689,6.265Zm114.905-5.2a3.712,3.712,0,0,1-2.907-6.014q.444-.561.879-1.131a3.711,3.711,0,0,1,5.905,4.5q-.476.624-.963,1.239A3.706,3.706,0,0,1,8044.247,1703.828Zm-124.89-7.875a3.709,3.709,0,0,1-3.178-1.789q-.4-.669-.8-1.346a3.711,3.711,0,0,1,6.419-3.727q.359.618.728,1.228a3.711,3.711,0,0,1-3.171,5.634Zm133.657-6.052a3.711,3.711,0,0,1-3.329-5.343c.206-.424.41-.852.608-1.282a3.711,3.711,0,0,1,6.737,3.112q-.333.721-.682,1.433A3.711,3.711,0,0,1,8053.015,1689.9Zm-140.6-8.864a3.711,3.711,0,0,1-3.513-2.516c-.17-.495-.332-.993-.492-1.494a3.711,3.711,0,0,1,7.071-2.254c.146.455.293.906.446,1.356a3.713,3.713,0,0,1-3.513,4.908Zm146.166-6.628a3.712,3.712,0,0,1-3.612-4.573q.167-.7.32-1.395a3.71,3.71,0,1,1,7.248,1.591c-.112.511-.228,1.02-.35,1.527A3.712,3.712,0,0,1,8058.579,1674.41Zm-149.724-9.437a3.709,3.709,0,0,1-3.685-3.312c-.058-.518-.107-1.038-.154-1.558a3.71,3.71,0,1,1,7.391-.667c.042.477.091.952.142,1.425a3.711,3.711,0,0,1-3.291,4.089A3.655,3.655,0,0,1,7908.855,1664.972Zm151.8-6.884h-.077a3.709,3.709,0,0,1-3.633-3.786q.012-.711.013-1.424l0-.309a3.711,3.711,0,0,1,7.422,0v.257c0,.579,0,1.1-.016,1.627A3.709,3.709,0,0,1,8060.659,1658.089Zm-151.829-9.57a3.665,3.665,0,0,1-.391-.021,3.709,3.709,0,0,1-3.3-4.077q.082-.786.182-1.567a3.71,3.71,0,1,1,7.362.93q-.088.7-.163,1.411A3.711,3.711,0,0,1,7908.83,1648.519Zm150.32-7.121a3.711,3.711,0,0,1-3.634-2.981q-.139-.7-.3-1.388a3.712,3.712,0,0,1,7.246-1.616c.112.512.223,1.027.327,1.544a3.716,3.716,0,0,1-3.643,4.442Zm-146.836-8.958a3.713,3.713,0,0,1-3.52-4.89q.25-.742.51-1.48a3.711,3.711,0,0,1,7,2.473q-.243.679-.471,1.364A3.712,3.712,0,0,1,7912.314,1632.439Zm141.841-6.718a3.71,3.71,0,0,1-3.4-2.211q-.289-.649-.588-1.291a3.711,3.711,0,0,1,6.726-3.137c.221.474.439.95.651,1.428a3.713,3.713,0,0,1-3.394,5.212Zm-134.959-8.234a3.712,3.712,0,0,1-3.178-5.624c.271-.45.545-.9.824-1.343a3.711,3.711,0,1,1,6.283,3.951c-.254.4-.5.808-.747,1.217A3.708,3.708,0,0,1,7919.2,1617.487Zm126.7-5.989a3.705,3.705,0,0,1-3-1.516q-.423-.573-.854-1.137a3.71,3.71,0,1,1,5.893-4.51q.476.623.943,1.257a3.71,3.71,0,0,1-2.987,5.906Zm-116.756-7.131a3.711,3.711,0,0,1-2.7-6.252q.539-.573,1.09-1.135a3.711,3.711,0,1,1,5.3,5.193q-.5.507-.986,1.026A3.7,3.7,0,0,1,7929.137,1604.366Zm105.625-4.994a3.69,3.69,0,0,1-2.446-.923q-.539-.471-1.083-.933a3.71,3.71,0,1,1,4.792-5.666q.6.506,1.188,1.024a3.711,3.711,0,0,1-2.45,6.5Zm-93.111-5.7a3.711,3.711,0,0,1-2.1-6.774q.649-.443,1.306-.873a3.711,3.711,0,0,1,4.064,6.209q-.6.391-1.183.792A3.7,3.7,0,0,1,7941.65,1593.676Zm79.651-3.77a3.687,3.687,0,0,1-1.8-.467c-.413-.229-.832-.453-1.251-.675a3.711,3.711,0,1,1,3.457-6.568q.7.368,1.394.753a3.711,3.711,0,0,1-1.8,6.956Zm-65.143-3.985a3.711,3.711,0,0,1-1.384-7.154q.729-.293,1.465-.572a3.711,3.711,0,0,1,2.633,6.939c-.447.17-.89.343-1.331.52A3.717,3.717,0,0,1,7956.159,1585.921Zm49.962-2.363a3.712,3.712,0,0,1-1.048-.152c-.455-.134-.915-.264-1.374-.39a3.711,3.711,0,0,1,1.957-7.159q.759.208,1.51.429a3.711,3.711,0,0,1-1.045,7.272ZM7972,1581.484a3.711,3.711,0,0,1-.6-7.373c.514-.085,1.032-.166,1.551-.24a3.711,3.711,0,0,1,1.066,7.345c-.471.068-.941.141-1.409.218A3.714,3.714,0,0,1,7972,1581.484Zm17.932-.84q-.13,0-.264-.009c-.473-.034-.948-.062-1.425-.087a3.71,3.71,0,1,1,.377-7.411q.785.039,1.566.093a3.711,3.711,0,0,1-.255,7.414Z" transform="translate(-7905.001 -1573.13)"/></g><g transform="translate(7951.91 1619.573)"><path class="a" d="M7980.5,1685.829a3.591,3.591,0,0,1-.523-.038c-.57-.08-1.134-.175-1.7-.283a3.711,3.711,0,1,1,1.417-7.286c.437.086.875.159,1.318.223a3.711,3.711,0,0,1-.517,7.385Zm14.993-1.773a3.711,3.711,0,0,1-1.369-7.161c.415-.164.822-.338,1.226-.522a3.711,3.711,0,1,1,3.087,6.749q-.778.356-1.578.673A3.707,3.707,0,0,1,7995.488,1684.056Zm-30.084-5.093a3.7,3.7,0,0,1-2.425-.9q-.652-.563-1.272-1.16a3.71,3.71,0,0,1,5.14-5.352q.48.461.986.9a3.711,3.711,0,0,1-2.429,6.518Zm43.138-5.106a3.711,3.711,0,0,1-3.008-5.88q.388-.539.748-1.1a3.71,3.71,0,1,1,6.244,4.009c-.309.485-.634.961-.971,1.428A3.707,3.707,0,0,1,8008.542,1673.858Zm-52.127-8.818a3.71,3.71,0,0,1-3.558-2.661q-.243-.822-.444-1.663a3.711,3.711,0,0,1,7.218-1.725c.1.434.22.864.345,1.288a3.711,3.711,0,0,1-3.561,4.762Zm57.616-6.821c-.064,0-.128,0-.193-.005a3.712,3.712,0,0,1-3.516-3.9q.035-.663.035-1.335a3.763,3.763,0,0,1,3.711-3.771,3.659,3.659,0,0,1,3.711,3.649v.123q0,.864-.044,1.718A3.713,3.713,0,0,1,8014.031,1658.219Zm-57.65-9.751a3.714,3.714,0,0,1-3.565-4.744q.242-.837.528-1.652a3.711,3.711,0,0,1,7,2.459c-.147.414-.28.833-.4,1.257A3.713,3.713,0,0,1,7956.381,1648.468Zm53.76-6.479a3.707,3.707,0,0,1-3.213-1.85q-.335-.578-.7-1.14a3.711,3.711,0,1,1,6.224-4.042q.466.717.9,1.459a3.712,3.712,0,0,1-3.208,5.573Zm-44.83-7.484a3.711,3.711,0,0,1-2.44-6.506c.43-.375.872-.741,1.322-1.1a3.711,3.711,0,1,1,4.586,5.835c-.349.275-.692.559-1.027.851A3.7,3.7,0,0,1,7965.311,1634.505Zm32.841-3.959a3.7,3.7,0,0,1-1.7-.416q-.592-.307-1.2-.584a3.711,3.711,0,1,1,3.064-6.759q.785.356,1.551.752a3.712,3.712,0,0,1-1.708,7.007Zm-17.793-2.969a3.712,3.712,0,0,1-.533-7.384q.847-.123,1.706-.2a3.711,3.711,0,0,1,.694,7.389q-.668.063-1.327.159A3.7,3.7,0,0,1,7980.358,1627.576Z" transform="translate(-7952.31 -1619.972)"/></g><g transform="translate(7859.747 1527.934)"><path class="a" d="M7980.457,1777.4q-.062,0-.123,0c-.5-.015-1.011-.035-1.514-.058a3.71,3.71,0,0,1,.331-7.414q.71.031,1.423.055a3.711,3.711,0,0,1-.117,7.42Zm14.676-.4a3.71,3.71,0,0,1-.318-7.407q.71-.063,1.419-.134a3.711,3.711,0,0,1,.736,7.386q-.753.075-1.509.142C7995.351,1776.989,7995.241,1776.993,7995.133,1776.993Zm-30.749-1.188a3.665,3.665,0,0,1-.612-.051c-.5-.083-1-.17-1.5-.26a3.711,3.711,0,1,1,1.319-7.3c.464.083.931.163,1.4.241a3.711,3.711,0,0,1-.605,7.372Zm46.714-1.292a3.711,3.711,0,0,1-.814-7.331c.466-.1.929-.212,1.394-.322a3.711,3.711,0,0,1,1.713,7.221q-.734.174-1.471.34A3.752,3.752,0,0,1,8011.1,1774.512Zm-62.437-2.431a3.718,3.718,0,0,1-1.1-.167c-.485-.15-.971-.3-1.452-.459a3.71,3.71,0,1,1,2.281-7.061c.452.145.906.289,1.363.431a3.711,3.711,0,0,1-1.095,7.256Zm77.928-2.166a3.712,3.712,0,0,1-1.3-7.189q.671-.25,1.337-.506a3.711,3.711,0,0,1,2.67,6.925q-.7.271-1.415.536A3.722,3.722,0,0,1,8026.588,1769.915Zm-93.024-3.64a3.7,3.7,0,0,1-1.56-.345q-.691-.322-1.377-.651a3.71,3.71,0,1,1,3.211-6.689q.643.307,1.291.608a3.711,3.711,0,0,1-1.565,7.077Zm107.76-3a3.711,3.711,0,0,1-1.749-6.985q.627-.334,1.245-.675a3.711,3.711,0,0,1,3.58,6.5q-.664.365-1.331.721A3.7,3.7,0,0,1,8041.323,1763.28Zm-121.936-4.779a3.7,3.7,0,0,1-2-.586c-.423-.272-.847-.546-1.268-.822a3.71,3.71,0,1,1,4.068-6.206c.4.261.8.521,1.2.778a3.711,3.711,0,0,1-2,6.836Zm135.642-3.76a3.71,3.71,0,0,1-2.169-6.723c.383-.276.766-.555,1.144-.835a3.711,3.711,0,1,1,4.415,5.966q-.611.452-1.228.9A3.691,3.691,0,0,1,8055.029,1754.741Zm-148.647-5.83a3.694,3.694,0,0,1-2.4-.879l-1.145-.978a3.711,3.711,0,1,1,4.85-5.619l1.09.933a3.71,3.71,0,0,1-2.4,6.543Zm161.1-4.456a3.711,3.711,0,0,1-2.546-6.411q.517-.488,1.028-.983a3.71,3.71,0,1,1,5.159,5.334q-.545.528-1.1,1.049A3.7,3.7,0,0,1,8067.479,1744.455Zm-172.715-6.771a3.7,3.7,0,0,1-2.75-1.218c-.34-.374-.675-.749-1.009-1.127a3.711,3.711,0,0,1,5.558-4.92q.472.534.951,1.063a3.711,3.711,0,0,1-2.75,6.2Zm183.7-5.077a3.711,3.711,0,0,1-2.879-6.05q.448-.554.891-1.112a3.711,3.711,0,0,1,5.821,4.6q-.472.6-.948,1.184A3.7,3.7,0,0,1,8078.462,1732.607Zm-193.72-7.587a3.706,3.706,0,0,1-3.062-1.609q-.426-.621-.847-1.246a3.711,3.711,0,0,1,6.161-4.137q.4.593.8,1.18a3.711,3.711,0,0,1-3.056,5.812Zm203.035-5.616a3.712,3.712,0,0,1-3.165-5.642q.371-.611.738-1.226a3.71,3.71,0,1,1,6.381,3.788q-.385.652-.782,1.3A3.707,3.707,0,0,1,8087.777,1719.4Zm-211.286-8.264a3.707,3.707,0,0,1-3.313-2.036q-.34-.669-.673-1.343a3.711,3.711,0,1,1,6.656-3.284l.638,1.277a3.71,3.71,0,0,1-3.308,5.386Zm218.763-6.07a3.712,3.712,0,0,1-3.393-5.211c.193-.433.379-.87.565-1.307a3.711,3.711,0,0,1,6.83,2.907q-.3.7-.606,1.4A3.71,3.71,0,0,1,8095.254,1705.07Zm-225.087-8.793a3.713,3.713,0,0,1-3.5-2.492q-.249-.717-.489-1.436a3.711,3.711,0,0,1,7.04-2.35c.15.45.3.9.459,1.346a3.712,3.712,0,0,1-3.5,4.931Zm230.581-6.416a3.712,3.712,0,0,1-3.567-4.734q.195-.683.381-1.369a3.712,3.712,0,0,1,7.162,1.953q-.2.732-.409,1.462A3.715,3.715,0,0,1,8100.748,1689.862Zm-234.86-9.165a3.71,3.71,0,0,1-3.632-2.975l-.291-1.477a3.71,3.71,0,1,1,7.287-1.4l.277,1.407a3.715,3.715,0,0,1-3.642,4.448Zm238.257-6.628a3.72,3.72,0,0,1-3.678-4.24l.2-1.422a3.711,3.711,0,0,1,7.355.987l-.207,1.491A3.712,3.712,0,0,1,8104.145,1674.069Zm-240.405-9.383a3.711,3.711,0,0,1-3.7-3.458c-.034-.507-.066-1.015-.092-1.522a3.71,3.71,0,1,1,7.409-.4q.038.706.087,1.412a3.711,3.711,0,0,1-3.45,3.955C7863.911,1664.682,7863.825,1664.685,7863.739,1664.685Zm241.66-6.724h-.045a3.71,3.71,0,0,1-3.666-3.755q.007-.711.008-1.426v-.241a3.711,3.711,0,0,1,7.422,0v.241q0,.758-.01,1.515A3.71,3.71,0,0,1,8105.4,1657.961Zm-241.667-9.432c-.082,0-.163,0-.246-.007a3.712,3.712,0,0,1-3.462-3.944c.033-.5.07-1.008.108-1.511a3.711,3.711,0,1,1,7.4.571c-.037.475-.07.948-.1,1.423A3.714,3.714,0,0,1,7863.732,1648.529Zm240.764-6.939a3.711,3.711,0,0,1-3.678-3.251l-.184-1.424a3.71,3.71,0,0,1,7.354-.99l.192,1.494a3.71,3.71,0,0,1-3.221,4.142A3.92,3.92,0,0,1,8104.5,1641.59Zm-238.646-9.076a3.749,3.749,0,0,1-.739-.074,3.711,3.711,0,0,1-2.9-4.372l.307-1.474a3.71,3.71,0,1,1,7.258,1.539l-.291,1.4A3.709,3.709,0,0,1,7865.851,1632.514Zm235.605-6.79a3.711,3.711,0,0,1-3.588-2.78q-.177-.684-.365-1.363a3.71,3.71,0,1,1,7.151-1.978q.205.736.4,1.477a3.713,3.713,0,0,1-3.6,4.644Zm-231.365-8.807a3.712,3.712,0,0,1-3.506-4.924q.249-.722.508-1.438a3.711,3.711,0,1,1,6.981,2.516q-.242.671-.477,1.346A3.711,3.711,0,0,1,7870.091,1616.917Zm226.229-6.51a3.712,3.712,0,0,1-3.43-2.292q-.272-.659-.551-1.313a3.711,3.711,0,1,1,6.827-2.912q.293.691.58,1.387a3.711,3.711,0,0,1-3.427,5.131Zm-219.925-8.381a3.712,3.712,0,0,1-3.308-5.387l.684-1.337a3.711,3.711,0,1,1,6.6,3.4l-.659,1.285A3.706,3.706,0,0,1,7876.395,1602.027Zm212.788-6.1a3.713,3.713,0,0,1-3.217-1.856q-.353-.611-.716-1.217a3.711,3.711,0,0,1,6.372-3.807c.26.435.516.872.771,1.312a3.713,3.713,0,0,1-3.211,5.568Zm-204.552-7.813a3.711,3.711,0,0,1-3.055-5.815q.429-.623.864-1.24a3.71,3.71,0,1,1,6.067,4.272q-.412.585-.818,1.177A3.706,3.706,0,0,1,7884.631,1588.118Zm195.54-5.59a3.7,3.7,0,0,1-2.941-1.444c-.288-.373-.577-.745-.872-1.115a3.711,3.711,0,1,1,5.813-4.616c.314.4.628.8.936,1.2a3.71,3.71,0,0,1-2.935,5.978Zm-185.528-7.1a3.712,3.712,0,0,1-2.752-6.2c.339-.376.682-.749,1.024-1.12a3.712,3.712,0,0,1,5.442,5.048q-.485.521-.961,1.05A3.7,3.7,0,0,1,7894.643,1575.432Zm174.816-4.994a3.7,3.7,0,0,1-2.607-1.07q-.51-.5-1.021-1a3.711,3.711,0,0,1,5.153-5.34q.545.524,1.084,1.057a3.711,3.711,0,0,1-2.608,6.351Zm-163.21-6.25a3.71,3.71,0,0,1-2.4-6.543q.577-.488,1.16-.971a3.71,3.71,0,1,1,4.729,5.719q-.548.454-1.093.915A3.69,3.69,0,0,1,7906.249,1564.188Zm150.981-4.318a3.7,3.7,0,0,1-2.233-.75q-.568-.428-1.139-.849a3.71,3.71,0,1,1,4.392-5.982c.41.3.815.6,1.221.91a3.71,3.71,0,0,1-2.24,6.671Zm-138-5.285a3.712,3.712,0,0,1-2.006-6.836q.639-.409,1.283-.811a3.711,3.711,0,0,1,3.92,6.3q-.6.374-1.2.757A3.7,3.7,0,0,1,7919.235,1554.585Zm124.477-3.567a3.688,3.688,0,0,1-1.816-.478q-.625-.35-1.252-.693a3.711,3.711,0,1,1,3.563-6.511c.443.242.884.488,1.326.736a3.711,3.711,0,0,1-1.821,6.946Zm-110.335-4.221a3.712,3.712,0,0,1-1.573-7.073q.687-.319,1.375-.632a3.711,3.711,0,0,1,3.054,6.765q-.647.292-1.286.591A3.7,3.7,0,0,1,7933.377,1546.8Zm95.75-2.751a3.7,3.7,0,0,1-1.367-.262c-.442-.176-.888-.349-1.332-.52a3.711,3.711,0,1,1,2.655-6.931q.71.272,1.414.553a3.711,3.711,0,0,1-1.37,7.16Zm-80.69-3.075a3.712,3.712,0,0,1-1.1-7.255c.485-.15.969-.3,1.454-.442a3.711,3.711,0,0,1,2.113,7.114c-.456.136-.908.273-1.361.415A3.729,3.729,0,0,1,7948.437,1540.971Zm65.3-1.875a3.719,3.719,0,0,1-.9-.112c-.46-.114-.919-.226-1.38-.333a3.711,3.711,0,0,1,1.7-7.225c.492.117.987.236,1.479.359a3.711,3.711,0,0,1-.9,7.311Zm-49.59-1.879a3.711,3.711,0,0,1-.612-7.371q.749-.127,1.5-.244a3.711,3.711,0,0,1,1.143,7.334c-.469.073-.939.15-1.406.227A3.75,3.75,0,0,1,7964.148,1537.217Zm33.687-.961a3.814,3.814,0,0,1-.411-.023c-.473-.052-.943-.1-1.415-.147a3.711,3.711,0,1,1,.722-7.387q.757.073,1.508.157a3.711,3.711,0,0,1-.4,7.4Zm-17.613-.661a3.711,3.711,0,0,1-.123-7.42q.754-.025,1.511-.042a3.662,3.662,0,0,1,3.792,3.627,3.71,3.71,0,0,1-3.627,3.793q-.713.015-1.423.04Z" transform="translate(-7859.945 -1528.131)"/></g><g transform="translate(7881.693 1550.27)"><path class="a" d="M7991.234,1755.151a3.711,3.711,0,0,1-.245-7.413c.476-.033.951-.068,1.427-.108a3.711,3.711,0,0,1,.609,7.4q-.768.063-1.537.114C7991.4,1755.148,7991.319,1755.151,7991.234,1755.151Zm-14.826-.1c-.1,0-.2,0-.3-.012-.513-.041-1.024-.087-1.539-.137a3.711,3.711,0,0,1,.716-7.387q.71.069,1.422.127a3.71,3.71,0,0,1-.294,7.409Zm30.962-2.338a3.711,3.711,0,0,1-.851-7.323q.7-.165,1.389-.339a3.71,3.71,0,1,1,1.814,7.2c-.5.127-1,.249-1.5.367A3.782,3.782,0,0,1,8007.37,1752.714Zm-47.062-.316a3.7,3.7,0,0,1-.908-.113q-.749-.188-1.491-.387a3.711,3.711,0,0,1,1.917-7.169c.459.123.922.242,1.384.359a3.711,3.711,0,0,1-.9,7.31Zm62.576-4.756a3.711,3.711,0,0,1-1.435-7.134q.653-.272,1.3-.559a3.711,3.711,0,0,1,2.992,6.793c-.472.208-.944.411-1.422.611A3.7,3.7,0,0,1,8022.884,1747.642Zm-78.031-.531a3.688,3.688,0,0,1-1.486-.312q-.709-.311-1.412-.631a3.71,3.71,0,1,1,3.081-6.75c.434.2.87.392,1.308.584a3.711,3.711,0,0,1-1.49,7.11Zm92.48-7.029a3.711,3.711,0,0,1-2-6.841c.4-.256.807-.516,1.207-.778a3.711,3.711,0,0,1,4.064,6.209q-.64.417-1.283.827A3.691,3.691,0,0,1,8037.333,1740.082Zm-106.842-.741a3.69,3.69,0,0,1-2.028-.606q-.646-.422-1.287-.854a3.711,3.711,0,1,1,4.157-6.149q.593.4,1.192.792a3.711,3.711,0,0,1-2.034,6.817Zm119.852-9.1a3.711,3.711,0,0,1-2.478-6.475c.355-.317.71-.638,1.059-.962a3.711,3.711,0,1,1,5.032,5.456q-.567.522-1.139,1.035A3.7,3.7,0,0,1,8050.343,1730.243Zm-132.734-.927a3.7,3.7,0,0,1-2.512-.981q-.565-.519-1.124-1.05a3.711,3.711,0,1,1,5.105-5.386q.519.491,1.046.976a3.711,3.711,0,0,1-2.516,6.441Zm143.961-10.912a3.71,3.71,0,0,1-2.89-6.034q.448-.558.888-1.124a3.711,3.711,0,1,1,5.854,4.562c-.314.405-.634.807-.954,1.208A3.709,3.709,0,0,1,8061.569,1718.4Zm-155.021-1.081a3.707,3.707,0,0,1-2.929-1.427q-.473-.606-.937-1.219a3.711,3.711,0,1,1,5.917-4.481q.431.57.872,1.133a3.711,3.711,0,0,1-2.923,5.994Zm164.163-12.442a3.712,3.712,0,0,1-3.226-5.54q.349-.618.687-1.241a3.71,3.71,0,1,1,6.525,3.533c-.247.457-.5.911-.753,1.365A3.711,3.711,0,0,1,8070.711,1704.882Zm-173.111-1.2a3.709,3.709,0,0,1-3.261-1.935q-.369-.678-.727-1.363a3.71,3.71,0,1,1,6.574-3.439c.221.419.442.835.669,1.249a3.712,3.712,0,0,1-3.256,5.488Zm179.906-13.655a3.711,3.711,0,0,1-3.49-4.969q.24-.672.474-1.349a3.71,3.71,0,1,1,7.021,2.4c-.167.489-.34.977-.515,1.463A3.709,3.709,0,0,1,8077.506,1690.031Zm-186.488-1.274a3.713,3.713,0,0,1-3.509-2.5q-.249-.725-.49-1.455a3.711,3.711,0,0,1,7.05-2.321q.224.683.459,1.361a3.715,3.715,0,0,1-3.51,4.919Zm190.726-14.49a3.627,3.627,0,0,1-.668-.061,3.71,3.71,0,0,1-2.988-4.315q.127-.7.245-1.406a3.71,3.71,0,1,1,7.32,1.214q-.126.762-.264,1.52A3.711,3.711,0,0,1,8081.743,1674.266ZM7887,1672.941a3.712,3.712,0,0,1-3.656-3.1q-.126-.754-.241-1.512a3.71,3.71,0,0,1,7.334-1.13q.111.714.228,1.423a3.711,3.711,0,0,1-3.051,4.27A3.775,3.775,0,0,1,7887,1672.941Zm196.313-14.915h-.057a3.712,3.712,0,0,1-3.654-3.765q.01-.714.01-1.431v-.273a3.711,3.711,0,0,1,7.422,0v.273q0,.771-.011,1.54A3.712,3.712,0,0,1,8083.313,1658.026Zm-197.664-1.417a3.652,3.652,0,0,1-3.71-3.642v-.138c0-.466,0-.931.009-1.4a3.711,3.711,0,0,1,3.708-3.663h.051a3.713,3.713,0,0,1,3.663,3.759q-.01.65-.01,1.3A3.77,3.77,0,0,1,7885.649,1656.609Zm196.531-15.136a3.71,3.71,0,0,1-3.663-3.147c-.072-.472-.148-.941-.228-1.411a3.71,3.71,0,0,1,7.316-1.239q.129.759.246,1.522a3.711,3.711,0,0,1-3.1,4.232A3.816,3.816,0,0,1,8082.181,1641.473Zm-195.218-1.059a3.761,3.761,0,0,1-.6-.049,3.712,3.712,0,0,1-3.065-4.26q.125-.762.261-1.52a3.711,3.711,0,0,1,7.306,1.305q-.126.7-.24,1.408A3.713,3.713,0,0,1,7886.963,1640.415Zm191.424-14.81a3.712,3.712,0,0,1-3.524-2.551q-.223-.678-.456-1.35a3.711,3.711,0,1,1,7.011-2.436q.253.73.5,1.465a3.715,3.715,0,0,1-3.525,4.872Zm-187.457-1.018a3.712,3.712,0,0,1-3.511-4.912q.25-.733.511-1.462a3.711,3.711,0,1,1,6.983,2.511c-.162.45-.318.9-.474,1.352A3.711,3.711,0,0,1,7890.93,1624.586Zm181.084-14.005a3.712,3.712,0,0,1-3.291-1.989q-.327-.63-.67-1.251a3.712,3.712,0,0,1,6.518-3.553q.368.677.729,1.359a3.714,3.714,0,0,1-3.285,5.434Zm-174.543-.957a3.714,3.714,0,0,1-3.262-5.477q.368-.68.744-1.351a3.711,3.711,0,1,1,6.477,3.623c-.234.417-.464.837-.692,1.258A3.709,3.709,0,0,1,7897.471,1609.624Zm165.782-12.8a3.7,3.7,0,0,1-2.955-1.463q-.437-.571-.876-1.136a3.71,3.71,0,1,1,5.845-4.572q.47.6.936,1.213a3.711,3.711,0,0,1-2.949,5.958Zm-156.862-.874a3.711,3.711,0,0,1-2.926-5.989q.472-.606.95-1.205a3.711,3.711,0,0,1,5.8,4.634q-.448.56-.891,1.128A3.706,3.706,0,0,1,7906.391,1595.95Zm145.96-11.267a3.7,3.7,0,0,1-2.549-1.014q-.519-.491-1.046-.973a3.711,3.711,0,1,1,5.016-5.471q.568.522,1.129,1.051a3.71,3.71,0,0,1-2.55,6.407Zm-134.916-.754a3.712,3.712,0,0,1-2.52-6.439c.378-.347.755-.692,1.136-1.033a3.71,3.71,0,0,1,4.957,5.522q-.533.481-1.06.966A3.7,3.7,0,0,1,7917.435,1583.929Zm122.169-9.44a3.7,3.7,0,0,1-2.068-.633c-.395-.266-.791-.53-1.191-.789a3.711,3.711,0,1,1,4.044-6.222c.433.281.861.565,1.29.853a3.712,3.712,0,0,1-2.074,6.791Zm-109.315-.61a3.711,3.711,0,0,1-2.038-6.814q.636-.419,1.279-.829a3.711,3.711,0,0,1,4,6.253q-.606.386-1.208.781A3.7,3.7,0,0,1,7930.288,1573.879Zm95.062-7.356a3.687,3.687,0,0,1-1.537-.336q-.649-.3-1.3-.581a3.711,3.711,0,0,1,2.968-6.8q.712.311,1.417.633a3.711,3.711,0,0,1-1.545,7.086Zm-80.742-.443a3.711,3.711,0,0,1-1.5-7.105q.7-.311,1.416-.613a3.711,3.711,0,1,1,2.885,6.838q-.653.275-1.3.562A3.71,3.71,0,0,1,7944.607,1566.08Zm65.371-5.057a3.7,3.7,0,0,1-.962-.127c-.458-.123-.917-.241-1.38-.357a3.711,3.711,0,1,1,1.8-7.2q.751.187,1.5.387a3.711,3.711,0,0,1-.955,7.3Zm-49.956-.268a3.712,3.712,0,0,1-.911-7.309q.749-.189,1.5-.367a3.711,3.711,0,1,1,1.72,7.219q-.7.166-1.388.342A3.714,3.714,0,0,1,7960.022,1560.755Zm33.9-2.607c-.119,0-.237-.006-.357-.017q-.709-.069-1.42-.124a3.711,3.711,0,0,1,.586-7.4c.514.041,1.028.086,1.541.135a3.711,3.711,0,0,1-.35,7.4Zm-17.807-.095a3.711,3.711,0,0,1-.307-7.409q.768-.063,1.537-.117a3.711,3.711,0,1,1,.51,7.4c-.476.033-.952.069-1.426.109C7976.32,1558.048,7976.216,1558.052,7976.112,1558.052Z" transform="translate(-7881.939 -1550.517)"/></g><g transform="translate(7927.262 1595.598)"><path class="a" d="M7984.64,1709.909h-.054q-.788,0-1.573-.022a3.711,3.711,0,1,1,.209-7.419c.452.013.908.019,1.364.019a3.733,3.733,0,0,1,3.737,3.711A3.688,3.688,0,0,1,7984.64,1709.909Zm15-2.156a3.711,3.711,0,0,1-1.041-7.272q.678-.2,1.348-.417a3.711,3.711,0,0,1,2.3,7.058q-.773.251-1.557.481A3.691,3.691,0,0,1,7999.635,1707.753Zm-31.451-.417a3.718,3.718,0,0,1-1.144-.181q-.776-.252-1.543-.525a3.71,3.71,0,1,1,2.48-6.994q.672.238,1.348.457a3.711,3.711,0,0,1-1.142,7.242Zm46.5-6.736a3.711,3.711,0,0,1-2.1-6.771c.39-.265.773-.538,1.152-.814a3.711,3.711,0,1,1,4.372,6q-.656.479-1.326.938A3.7,3.7,0,0,1,8014.684,1700.6Zm-61.355-.82a3.692,3.692,0,0,1-2.178-.707q-.658-.477-1.3-.975a3.711,3.711,0,1,1,4.528-5.88q.563.434,1.134.849a3.71,3.71,0,0,1-2.182,6.713Zm73.451-10.623a3.711,3.711,0,0,1-2.935-5.977q.432-.563.851-1.135a3.711,3.711,0,0,1,6,4.367q-.479.656-.976,1.3A3.706,3.706,0,0,1,8026.779,1689.156Zm-85.243-1.143a3.707,3.707,0,0,1-3-1.522q-.482-.66-.942-1.333a3.711,3.711,0,0,1,6.126-4.191c.263.387.534.768.81,1.146a3.711,3.711,0,0,1-2.993,5.9Zm93.239-13.476a3.713,3.713,0,0,1-3.5-4.961c.16-.443.311-.888.455-1.336a3.712,3.712,0,0,1,7.063,2.283c-.168.521-.346,1.038-.528,1.552A3.713,3.713,0,0,1,8034.775,1674.537Zm-100.837-1.345a3.711,3.711,0,0,1-3.526-2.564q-.252-.769-.48-1.549a3.71,3.71,0,1,1,7.117-2.1c.135.453.274.9.421,1.353a3.714,3.714,0,0,1-3.531,4.86Zm103.9-15.032h-.107a3.712,3.712,0,0,1-3.6-3.817q.022-.7.021-1.414v-.206a3.711,3.711,0,0,1,7.422,0v.206q0,.817-.024,1.628A3.711,3.711,0,0,1,8037.835,1658.16Zm-106.517-1.469a3.667,3.667,0,0,1-3.711-3.659v-.1q0-.762.02-1.52a3.756,3.756,0,0,1,3.813-3.607,3.71,3.71,0,0,1,3.605,3.813c-.011.437-.017.874-.017,1.314A3.755,3.755,0,0,1,7931.318,1656.692Zm104.335-15.249a3.712,3.712,0,0,1-3.556-2.654q-.2-.68-.422-1.35a3.711,3.711,0,0,1,7.051-2.318c.17.514.33,1.032.485,1.554a3.714,3.714,0,0,1-3.559,4.768Zm-101.775-1.157a3.713,3.713,0,0,1-3.532-4.851q.25-.777.521-1.545a3.711,3.711,0,0,1,7,2.48c-.159.445-.31.893-.455,1.345A3.714,3.714,0,0,1,7933.878,1640.286Zm94.584-13.865a3.7,3.7,0,0,1-3.054-1.6c-.27-.39-.543-.776-.824-1.157a3.711,3.711,0,0,1,5.99-4.383q.476.653.936,1.317a3.71,3.71,0,0,1-3.048,5.822Zm-87.048-.994a3.711,3.711,0,0,1-3-5.885q.478-.663.978-1.312a3.711,3.711,0,0,1,5.877,4.533q-.431.557-.842,1.127A3.706,3.706,0,0,1,7941.414,1625.426Zm75.562-11.076a3.7,3.7,0,0,1-2.263-.772q-.555-.428-1.125-.84a3.71,3.71,0,1,1,4.343-6.017c.443.319.883.646,1.313.979a3.711,3.711,0,0,1-2.269,6.651Zm-63.8-.733a3.71,3.71,0,0,1-2.192-6.706q.649-.476,1.313-.934a3.711,3.711,0,0,1,4.229,6.1q-.586.407-1.164.826A3.684,3.684,0,0,1,7953.175,1613.617Zm49.165-7.215a3.7,3.7,0,0,1-1.237-.213c-.446-.158-.893-.308-1.344-.453a3.711,3.711,0,1,1,2.268-7.067q.779.25,1.55.523a3.711,3.711,0,0,1-1.236,7.209Zm-34.354-.392a3.712,3.712,0,0,1-1.152-7.239q.771-.251,1.546-.482a3.711,3.711,0,0,1,2.114,7.115q-.681.2-1.356.422A3.7,3.7,0,0,1,7967.985,1606.01Zm17.969-2.621h-.1c-.423-.011-.846-.016-1.271-.016h-.154a3.711,3.711,0,1,1,0-7.422h.1c.543-.019,1.027.005,1.513.018a3.71,3.71,0,0,1-.092,7.42Z" transform="translate(-7927.607 -1595.944)"/></g><g transform="translate(7813.421 1481.761)"><path class="a" d="M7984.423,1823.5l-1.519-.006a3.711,3.711,0,0,1,.029-7.422h.029l1.373.006a3.747,3.747,0,0,1,3.755,3.711A3.674,3.674,0,0,1,7984.423,1823.5Zm14.889-.662a3.711,3.711,0,0,1-.32-7.408c.482-.043.966-.087,1.446-.135a3.711,3.711,0,1,1,.726,7.386c-.508.05-1.014.1-1.522.142C7999.532,1822.833,7999.42,1822.838,7999.312,1822.838Zm-31.259-.122c-.119,0-.239-.006-.361-.017l-1.518-.153a3.711,3.711,0,0,1,.779-7.382l1.452.148a3.71,3.71,0,0,1-.353,7.4Zm47.5-2.127a3.711,3.711,0,0,1-.686-7.357l1.436-.278a3.711,3.711,0,0,1,1.44,7.281l-1.5.289A3.752,3.752,0,0,1,8015.548,1820.589Zm-63.715-.248a3.722,3.722,0,0,1-.724-.071l-1.489-.3a3.711,3.711,0,1,1,1.5-7.269l1.432.289a3.711,3.711,0,0,1-.714,7.352Zm79.658-3.587a3.712,3.712,0,0,1-1.044-7.273l1.4-.416a3.711,3.711,0,1,1,2.153,7.1l-1.461.435A3.7,3.7,0,0,1,8031.492,1816.755Zm-95.57-.375a3.714,3.714,0,0,1-1.073-.159q-.735-.221-1.469-.452a3.71,3.71,0,0,1,2.218-7.081q.7.217,1.395.428a3.711,3.711,0,0,1-1.07,7.264Zm111.058-5.016a3.711,3.711,0,0,1-1.393-7.152q.672-.271,1.34-.548a3.71,3.71,0,1,1,2.85,6.852q-.7.292-1.409.578A3.709,3.709,0,0,1,8046.979,1811.364Zm-126.514-.5a3.688,3.688,0,0,1-1.416-.283l-1.411-.591a3.71,3.71,0,1,1,2.9-6.832l1.35.566a3.711,3.711,0,0,1-1.42,7.14Zm141.383-6.384a3.712,3.712,0,0,1-1.727-7l1.284-.68a3.711,3.711,0,1,1,3.507,6.541l-1.342.712A3.7,3.7,0,0,1,8061.848,1804.478Zm-156.215-.632a3.686,3.686,0,0,1-1.746-.439l-1.341-.724a3.71,3.71,0,1,1,3.548-6.518l1.292.7a3.711,3.711,0,0,1-1.753,6.984Zm170.338-7.684a3.712,3.712,0,0,1-2.036-6.816c.4-.265.808-.531,1.207-.8a3.711,3.711,0,1,1,4.134,6.163c-.423.283-.846.565-1.273.845A3.694,3.694,0,0,1,8075.971,1796.162Zm-184.4-.752a3.693,3.693,0,0,1-2.059-.626c-.425-.283-.849-.569-1.268-.855a3.711,3.711,0,0,1,4.181-6.132l1.209.814a3.712,3.712,0,0,1-2.063,6.8Zm197.646-8.908a3.711,3.711,0,0,1-2.335-6.6l1.134-.923a3.71,3.71,0,1,1,4.708,5.736l-1.177.959A3.7,3.7,0,0,1,8089.215,1786.5Zm-210.817-.864a3.7,3.7,0,0,1-2.352-.842l-1.172-.97a3.711,3.711,0,0,1,4.752-5.7l1.128.934a3.711,3.711,0,0,1-2.356,6.579Zm223.056-10.043a3.711,3.711,0,0,1-2.6-6.359q.517-.509,1.031-1.024a3.71,3.71,0,0,1,5.252,5.243q-.538.54-1.085,1.078A3.7,3.7,0,0,1,8101.454,1775.594Zm-235.208-.967a3.7,3.7,0,0,1-2.621-1.085l-1.075-1.083a3.711,3.711,0,1,1,5.291-5.2l1.025,1.033a3.71,3.71,0,0,1-2.62,6.338Zm246.331-11.083a3.711,3.711,0,0,1-2.854-6.082l.94-1.135a3.711,3.711,0,1,1,5.73,4.716l-.962,1.162A3.7,3.7,0,0,1,8112.577,1763.544Zm-257.352-1.057a3.7,3.7,0,0,1-2.865-1.351l-.961-1.177a3.711,3.711,0,0,1,5.767-4.674l.922,1.132a3.711,3.711,0,0,1-2.862,6.071Zm267.242-12.022a3.711,3.711,0,0,1-3.059-5.806q.41-.6.813-1.205a3.711,3.711,0,0,1,6.17,4.127q-.428.638-.858,1.269A3.707,3.707,0,0,1,8122.467,1750.466Zm-277.026-1.132a3.7,3.7,0,0,1-3.081-1.641q-.426-.634-.846-1.272a3.71,3.71,0,0,1,6.2-4.076q.4.606.8,1.207a3.712,3.712,0,0,1-3.076,5.782Zm285.6-12.853a3.712,3.712,0,0,1-3.252-5.495q.352-.638.694-1.28a3.711,3.711,0,0,1,6.545,3.5c-.243.451-.484.9-.73,1.348A3.711,3.711,0,0,1,8131.038,1736.482Zm-294.046-1.192a3.707,3.707,0,0,1-3.271-1.953q-.36-.672-.716-1.348a3.711,3.711,0,0,1,6.572-3.448c.225.428.449.854.679,1.279a3.712,3.712,0,0,1-3.265,5.47Zm301.2-13.568a3.712,3.712,0,0,1-3.415-5.158l.567-1.356a3.71,3.71,0,1,1,6.853,2.845l-.587,1.4A3.712,3.712,0,0,1,8138.2,1721.721Zm-308.234-1.235a3.717,3.717,0,0,1-3.429-2.287c-.192-.467-.387-.937-.576-1.407a3.71,3.71,0,1,1,6.879-2.783l.551,1.34a3.715,3.715,0,0,1-3.425,5.137Zm313.9-14.164a3.711,3.711,0,0,1-3.541-4.823l.429-1.4a3.711,3.711,0,0,1,7.1,2.153c-.149.49-.3.98-.452,1.467A3.712,3.712,0,0,1,8143.862,1706.322Zm-319.437-1.262a3.713,3.713,0,0,1-3.548-2.629l-.437-1.464a3.711,3.711,0,1,1,7.119-2.1l.417,1.395a3.714,3.714,0,0,1-3.551,4.794Zm323.557-14.613a3.651,3.651,0,0,1-.751-.078,3.71,3.71,0,0,1-2.889-4.38l.291-1.44a3.711,3.711,0,0,1,7.279,1.449l-.3,1.484A3.713,3.713,0,0,1,8147.981,1690.447Zm-327.547-1.29a3.714,3.714,0,0,1-3.636-2.986l-.29-1.5a3.711,3.711,0,0,1,7.291-1.383l.278,1.431a3.712,3.712,0,0,1-3.644,4.436Zm330.075-14.908a3.808,3.808,0,0,1-.395-.021,3.712,3.712,0,0,1-3.3-4.08l.147-1.451a3.711,3.711,0,0,1,7.388.714l-.154,1.517A3.712,3.712,0,0,1,8150.509,1674.249Zm-332.476-1.308a3.709,3.709,0,0,1-3.687-3.343l-.146-1.519a3.711,3.711,0,0,1,7.393-.67l.137,1.452a3.708,3.708,0,0,1-3.324,4.06A3.563,3.563,0,0,1,7818.034,1672.94Zm333.407-15.059h-.031a3.712,3.712,0,0,1-3.68-3.744l.008-1.807a3.71,3.71,0,1,1,7.421,0l-.007,1.873A3.711,3.711,0,0,1,8151.441,1657.881Zm-334.213-1.317a3.711,3.711,0,0,1-3.711-3.711l.006-1.528a3.711,3.711,0,0,1,3.709-3.674h.038a3.71,3.71,0,0,1,3.674,3.748l0,1.454A3.711,3.711,0,0,1,7817.228,1656.564Zm333.531-15.411a3.711,3.711,0,0,1-3.689-3.366l-.14-1.463a3.71,3.71,0,1,1,7.384-.736l.145,1.508a3.71,3.71,0,0,1-3.348,4.04C8150.992,1641.147,8150.875,1641.153,8150.759,1641.153Zm-332.752-.964c-.119,0-.241-.006-.361-.017a3.709,3.709,0,0,1-3.336-4.05l.151-1.518a3.711,3.711,0,0,1,7.381.78l-.146,1.451A3.711,3.711,0,0,1,7818.007,1640.189Zm330.479-15.272a3.713,3.713,0,0,1-3.64-3.008l-.283-1.441a3.711,3.711,0,0,1,7.279-1.451l.291,1.486a3.714,3.714,0,0,1-3.647,4.414Zm-328.11-.949a3.717,3.717,0,0,1-3.646-4.425l.3-1.495a3.712,3.712,0,0,1,7.271,1.493l-.289,1.43A3.712,3.712,0,0,1,7820.375,1623.968Zm324.252-14.984a3.713,3.713,0,0,1-3.56-2.662l-.418-1.4a3.711,3.711,0,1,1,7.1-2.163l.438,1.461a3.711,3.711,0,0,1-3.561,4.761Zm-320.3-.927a3.712,3.712,0,0,1-3.553-4.787l.445-1.456a3.711,3.711,0,0,1,7.089,2.2l-.432,1.408A3.714,3.714,0,0,1,7824.325,1608.057Zm314.89-14.549a3.709,3.709,0,0,1-3.437-2.311l-.557-1.348a3.712,3.712,0,0,1,6.854-2.85l.574,1.4a3.711,3.711,0,0,1-3.435,5.112Zm-309.382-.907a3.713,3.713,0,0,1-3.43-5.125l.59-1.412a3.711,3.711,0,0,1,6.837,2.889l-.564,1.35A3.713,3.713,0,0,1,7829.833,1592.6Zm302.474-13.949a3.713,3.713,0,0,1-3.288-1.985l-.682-1.281a3.711,3.711,0,1,1,6.535-3.517c.24.447.48.9.716,1.345a3.713,3.713,0,0,1-3.281,5.438Zm-295.469-.884a3.712,3.712,0,0,1-3.27-5.459q.36-.678.728-1.35a3.711,3.711,0,0,1,6.512,3.563q-.35.639-.693,1.281A3.7,3.7,0,0,1,7836.837,1577.767Zm287.131-13.226a3.708,3.708,0,0,1-3.1-1.671l-.8-1.208a3.71,3.71,0,1,1,6.157-4.142l.845,1.269a3.712,3.712,0,0,1-3.1,5.752Zm-278.7-.845a3.713,3.713,0,0,1-3.081-5.775l.848-1.258a3.711,3.711,0,1,1,6.143,4.166l-.822,1.219A3.707,3.707,0,0,1,7845.268,1563.7Zm269.021-12.385a3.7,3.7,0,0,1-2.883-1.371l-.926-1.135a3.71,3.71,0,1,1,5.726-4.719l.961,1.174a3.711,3.711,0,0,1-2.878,6.051Zm-259.254-.793a3.711,3.711,0,0,1-2.867-6.066l.969-1.168a3.71,3.71,0,1,1,5.7,4.749l-.935,1.13A3.7,3.7,0,0,1,7855.036,1550.518Zm248.323-11.431a3.7,3.7,0,0,1-2.646-1.109q-.51-.517-1.024-1.03a3.711,3.711,0,0,1,5.237-5.258q.543.54,1.077,1.084a3.711,3.711,0,0,1-2.645,6.312Zm-237.32-.729a3.711,3.711,0,0,1-2.626-6.332l1.076-1.07a3.71,3.71,0,0,1,5.214,5.28l-1.038,1.033A3.7,3.7,0,0,1,7866.039,1538.358Zm225.251-10.374a3.7,3.7,0,0,1-2.376-.861l-1.127-.931a3.711,3.711,0,0,1,4.707-5.738l1.175.97a3.711,3.711,0,0,1-2.379,6.56Zm-213.116-.653a3.71,3.71,0,0,1-2.363-6.572q.589-.488,1.186-.969a3.711,3.711,0,1,1,4.662,5.775c-.377.3-.749.609-1.122.916A3.7,3.7,0,0,1,7878.173,1527.33Zm200.021-9.221a3.684,3.684,0,0,1-2.087-.646q-.6-.409-1.205-.811a3.711,3.711,0,0,1,4.114-6.176c.426.283.852.57,1.271.856a3.711,3.711,0,0,1-2.094,6.777Zm-186.871-.57a3.711,3.711,0,0,1-2.069-6.793l1.265-.841a3.711,3.711,0,0,1,4.084,6.2l-1.215.808A3.7,3.7,0,0,1,7891.324,1517.54Zm172.874-7.976a3.7,3.7,0,0,1-1.773-.453l-1.29-.7a3.71,3.71,0,1,1,3.5-6.544l1.341.723a3.711,3.711,0,0,1-1.777,6.97Zm-158.832-.481a3.711,3.711,0,0,1-1.761-6.979l1.34-.714a3.71,3.71,0,1,1,3.459,6.566l-1.282.683A3.692,3.692,0,0,1,7905.366,1509.082Zm144.062-6.651a3.693,3.693,0,0,1-1.44-.292l-1.357-.568a3.71,3.71,0,1,1,2.835-6.857l1.405.586a3.712,3.712,0,0,1-1.442,7.131Zm-129.262-.383a3.711,3.711,0,0,1-1.427-7.138l1.4-.576a3.71,3.71,0,0,1,2.794,6.875l-1.344.553A3.688,3.688,0,0,1,7920.166,1502.048Zm113.855-5.257a3.692,3.692,0,0,1-1.1-.168l-1.4-.429a3.711,3.711,0,1,1,2.142-7.105l1.46.447a3.711,3.711,0,0,1-1.1,7.255Zm-98.437-.286a3.711,3.711,0,0,1-1.082-7.261q.734-.224,1.467-.439a3.711,3.711,0,1,1,2.09,7.121c-.464.137-.929.275-1.391.416A3.734,3.734,0,0,1,7935.584,1496.5Zm82.555-3.8a3.666,3.666,0,0,1-.752-.077l-1.426-.285a3.711,3.711,0,0,1,1.426-7.284q.751.148,1.5.3a3.711,3.711,0,0,1-.745,7.346Zm-66.657-.192a3.711,3.711,0,0,1-.721-7.351l1.5-.291a3.711,3.711,0,1,1,1.386,7.292l-1.431.277A3.662,3.662,0,0,1,7951.482,1492.509Zm50.46-2.314a3.8,3.8,0,0,1-.395-.02c-.481-.051-.962-.1-1.444-.145a3.711,3.711,0,1,1,.7-7.389c.51.049,1.017.1,1.524.153a3.711,3.711,0,0,1-.386,7.4Zm-34.243-.1a3.711,3.711,0,0,1-.358-7.4l1.512-.143a3.711,3.711,0,1,1,.669,7.392l-1.457.137C7967.942,1490.092,7967.821,1490.1,7967.7,1490.1Zm17.869-.814h-.026l-1.205,0h-.26a3.711,3.711,0,1,1,0-7.422h.23l1.287,0a3.711,3.711,0,0,1-.026,7.422Z" transform="translate(-7813.517 -1481.858)"/></g><g transform="translate(7769.565 1437.826)"><path class="a" d="M7986.972,1867.355a3.711,3.711,0,0,1-.05-7.422l1.465-.023a3.711,3.711,0,1,1,.142,7.42l-1.507.025Zm-14.87-.326c-.071,0-.143,0-.215-.006l-1.508-.091a3.711,3.711,0,1,1,.468-7.407l1.464.088a3.711,3.711,0,0,1-.209,7.416Zm31.208-.507a3.711,3.711,0,0,1-.325-7.407l1.452-.135a3.711,3.711,0,1,1,.716,7.387l-1.509.141C8003.532,1866.518,8003.419,1866.522,8003.31,1866.522Zm-47.5-1.047a3.745,3.745,0,0,1-.5-.034l-1.5-.208a3.711,3.711,0,1,1,1.04-7.348l1.447.2a3.711,3.711,0,0,1-.489,7.389Zm63.726-1.042a3.711,3.711,0,0,1-.613-7.371l1.444-.248a3.71,3.71,0,1,1,1.278,7.309l-1.488.257A3.759,3.759,0,0,1,8019.539,1864.433Zm-79.846-1.771a3.69,3.69,0,0,1-.785-.084l-1.48-.324a3.71,3.71,0,1,1,1.615-7.243l1.425.311a3.711,3.711,0,0,1-.774,7.34Zm95.864-1.573a3.711,3.711,0,0,1-.9-7.311l1.415-.359a3.71,3.71,0,1,1,1.855,7.185l-1.471.373A3.7,3.7,0,0,1,8035.558,1861.09Zm-111.721-2.487a3.718,3.718,0,0,1-1.064-.156l-1.447-.438a3.71,3.71,0,0,1,2.171-7.1l1.4.423a3.711,3.711,0,0,1-1.06,7.267Zm127.435-2.1a3.711,3.711,0,0,1-1.171-7.233l1.377-.466a3.711,3.711,0,1,1,2.407,7.022l-1.443.487A3.685,3.685,0,0,1,8051.271,1856.508Zm-142.946-3.2a3.7,3.7,0,0,1-1.331-.248c-.477-.184-.954-.368-1.427-.557a3.711,3.711,0,1,1,2.736-6.9q.675.268,1.354.529a3.711,3.711,0,0,1-1.333,7.175Zm158.234-2.591a3.711,3.711,0,0,1-1.454-7.126l1.346-.576a3.71,3.71,0,1,1,2.938,6.814l-1.38.592A3.7,3.7,0,0,1,8066.56,1850.72Zm-173.283-3.9a3.681,3.681,0,0,1-1.594-.363l-1.375-.663a3.71,3.71,0,1,1,3.258-6.667l1.314.634a3.712,3.712,0,0,1-1.6,7.061Zm188.072-3.062a3.711,3.711,0,0,1-1.715-7l1.293-.677a3.711,3.711,0,1,1,3.467,6.563l-1.336.7A3.712,3.712,0,0,1,8081.349,1843.76Zm-202.562-4.576a3.691,3.691,0,0,1-1.854-.5l-1.312-.765a3.71,3.71,0,0,1,3.76-6.4l1.265.736a3.711,3.711,0,0,1-1.858,6.925Zm216.771-3.513a3.711,3.711,0,0,1-1.96-6.864l1.232-.773a3.711,3.711,0,0,1,3.965,6.275l-1.284.8A3.693,3.693,0,0,1,8095.558,1835.671Zm-230.624-5.225a3.685,3.685,0,0,1-2.094-.651l-1.252-.865a3.711,3.711,0,1,1,4.246-6.087l1.2.831a3.711,3.711,0,0,1-2.1,6.771ZM8109.1,1826.5a3.711,3.711,0,0,1-2.2-6.7l1.171-.867a3.711,3.711,0,1,1,4.439,5.947l-1.216.9A3.7,3.7,0,0,1,8109.1,1826.5Zm-257.3-5.837a3.709,3.709,0,0,1-2.327-.82l-1.178-.96a3.71,3.71,0,1,1,4.7-5.74l1.133.919a3.711,3.711,0,0,1-2.329,6.6Zm270.1-4.351a3.711,3.711,0,0,1-2.425-6.521l1.106-.962a3.712,3.712,0,0,1,4.88,5.594l-1.139.987A3.7,3.7,0,0,1,8121.9,1816.313ZM7839.47,1809.9a3.7,3.7,0,0,1-2.547-1.013l-1.095-1.038a3.711,3.711,0,0,1,5.123-5.371l1.065,1.012a3.711,3.711,0,0,1-2.547,6.41Zm294.41-4.738a3.712,3.712,0,0,1-2.628-6.332l1.025-1.037a3.711,3.711,0,1,1,5.3,5.2l-1.067,1.081A3.7,3.7,0,0,1,8133.88,1805.165ZM7828,1798.225a3.7,3.7,0,0,1-2.747-1.215l-1.017-1.126a3.711,3.711,0,0,1,5.532-4.947l.976,1.082a3.711,3.711,0,0,1-2.744,6.207Zm316.963-5.1a3.711,3.711,0,0,1-2.817-6.125l.94-1.108a3.71,3.71,0,1,1,5.682,4.772l-.983,1.163A3.709,3.709,0,0,1,8144.967,1793.124Zm-327.492-7.424a3.707,3.707,0,0,1-2.933-1.433l-.929-1.205a3.711,3.711,0,1,1,5.9-4.5l.885,1.149a3.71,3.71,0,0,1-2.927,5.989Zm337.622-5.437a3.71,3.71,0,0,1-3-5.894l.86-1.19a3.711,3.711,0,0,1,6.027,4.33l-.885,1.228A3.708,3.708,0,0,1,8155.1,1780.263Zm-347.153-7.857a3.7,3.7,0,0,1-3.1-1.668l-.827-1.261a3.71,3.71,0,0,1,6.22-4.048l.8,1.223a3.711,3.711,0,0,1-3.094,5.754Zm356.261-5.751a3.712,3.712,0,0,1-3.154-5.658l.756-1.242a3.711,3.711,0,0,1,6.355,3.833c-.263.435-.527.871-.795,1.3A3.709,3.709,0,0,1,8164.2,1766.655Zm-364.732-8.236a3.714,3.714,0,0,1-3.25-1.912l-.729-1.329a3.711,3.711,0,0,1,6.522-3.543l.7,1.273a3.712,3.712,0,0,1-3.241,5.511Zm372.761-6.043a3.711,3.711,0,0,1-3.3-5.407l.66-1.3a3.711,3.711,0,0,1,6.631,3.333l-.691,1.36A3.708,3.708,0,0,1,8172.232,1752.376Zm-380.12-8.555a3.711,3.711,0,0,1-3.379-2.17l-.622-1.373a3.711,3.711,0,0,1,6.773-3.036l.6,1.327a3.712,3.712,0,0,1-3.374,5.252Zm387.016-6.308a3.711,3.711,0,0,1-3.424-5.138l.561-1.358a3.711,3.711,0,0,1,6.87,2.808l-.58,1.4A3.709,3.709,0,0,1,8179.128,1737.513Zm-393.219-8.81a3.712,3.712,0,0,1-3.485-2.438l-.516-1.431a3.71,3.71,0,1,1,6.992-2.486l.494,1.368a3.713,3.713,0,0,1-3.485,4.986Zm398.934-6.552a3.666,3.666,0,0,1-1.154-.186,3.709,3.709,0,0,1-2.371-4.682l.452-1.4a3.711,3.711,0,0,1,7.068,2.266l-.469,1.444A3.712,3.712,0,0,1,8184.843,1722.152Zm-403.945-9.029a3.709,3.709,0,0,1-3.57-2.713l-.4-1.469a3.71,3.71,0,1,1,7.166-1.929l.386,1.4a3.714,3.714,0,0,1-3.577,4.71Zm408.44-6.713a3.713,3.713,0,0,1-3.61-4.581l.343-1.433a3.711,3.711,0,0,1,7.223,1.71l-.35,1.461A3.713,3.713,0,0,1,8189.338,1706.409ZM7777.12,1697.2a3.714,3.714,0,0,1-3.638-3l-.286-1.49a3.71,3.71,0,1,1,7.292-1.375l.276,1.433a3.71,3.71,0,0,1-2.925,4.357A3.775,3.775,0,0,1,7777.12,1697.2Zm415.469-6.829a3.751,3.751,0,0,1-.59-.048,3.711,3.711,0,0,1-3.079-4.25l.229-1.448a3.711,3.711,0,1,1,7.336,1.127l-.236,1.493A3.712,3.712,0,0,1,8192.589,1690.372Zm-418-9.338a3.712,3.712,0,0,1-3.682-3.283l-.17-1.5a3.711,3.711,0,1,1,7.377-.811l.164,1.456a3.71,3.71,0,0,1-3.256,4.115A3.792,3.792,0,0,1,7774.593,1681.033Zm419.988-6.905c-.105,0-.212,0-.318-.013a3.711,3.711,0,0,1-3.383-4.013l.114-1.451a3.712,3.712,0,0,1,7.4.565l-.122,1.516A3.712,3.712,0,0,1,8194.581,1674.128Zm-421.255-9.41a3.71,3.71,0,0,1-3.706-3.563l-.054-1.51a3.71,3.71,0,1,1,7.417-.24l.054,1.455a3.711,3.711,0,0,1-3.562,3.854C7773.425,1664.718,7773.375,1664.718,7773.326,1664.718Zm421.988-6.937h-.032a3.711,3.711,0,0,1-3.679-3.743l.006-1.929a3.711,3.711,0,0,1,7.422,0l-.007,1.994A3.708,3.708,0,0,1,8195.314,1657.781Zm-422-9.424-.138,0a3.713,3.713,0,0,1-3.573-3.845l.063-1.515a3.71,3.71,0,1,1,7.413.326l-.059,1.46A3.711,3.711,0,0,1,7773.312,1648.357Zm421.455-7.406a3.709,3.709,0,0,1-3.7-3.45l-.11-1.452a3.711,3.711,0,0,1,7.4-.586l.115,1.517a3.713,3.713,0,0,1-3.442,3.962C8194.942,1640.948,8194.855,1640.951,8194.767,1640.951Zm-420.222-8.91a3.887,3.887,0,0,1-.427-.024,3.711,3.711,0,0,1-3.264-4.11l.178-1.506a3.71,3.71,0,0,1,7.366.9l-.17,1.451A3.714,3.714,0,0,1,7774.545,1632.041Zm418.423-7.353a3.713,3.713,0,0,1-3.664-3.148l-.226-1.46a3.711,3.711,0,1,1,7.332-1.149l.229,1.483a3.711,3.711,0,0,1-3.1,4.232A3.814,3.814,0,0,1,8192.968,1624.688Zm-415.933-8.82a3.718,3.718,0,0,1-3.648-4.416l.294-1.488a3.711,3.711,0,0,1,7.275,1.464l-.282,1.433A3.713,3.713,0,0,1,7777.035,1615.868Zm412.874-7.255a3.712,3.712,0,0,1-3.61-2.868l-.338-1.437a3.711,3.711,0,1,1,7.221-1.713l.344,1.463a3.711,3.711,0,0,1-2.77,4.457A3.748,3.748,0,0,1,8189.909,1608.613Zm-409.136-8.677a3.764,3.764,0,0,1-.989-.134,3.712,3.712,0,0,1-2.591-4.564l.41-1.461a3.71,3.71,0,1,1,7.138,2.028l-.393,1.4A3.714,3.714,0,0,1,7780.773,1599.936Zm404.836-7.113a3.713,3.713,0,0,1-3.538-2.6l-.443-1.393a3.711,3.711,0,1,1,7.063-2.279l.461,1.443a3.713,3.713,0,0,1-3.542,4.826Zm-399.866-8.477a3.713,3.713,0,0,1-3.489-4.976l.524-1.428a3.711,3.711,0,0,1,6.96,2.578l-.506,1.378A3.713,3.713,0,0,1,7785.743,1584.345Zm394.349-6.928a3.711,3.711,0,0,1-3.439-2.315l-.558-1.366a3.711,3.711,0,0,1,6.866-2.819l.567,1.391a3.714,3.714,0,0,1-3.437,5.109Zm-388.167-8.25a3.67,3.67,0,0,1-1.532-.333,3.71,3.71,0,0,1-1.844-4.913l.629-1.374a3.711,3.711,0,1,1,6.74,3.105l-.612,1.339A3.713,3.713,0,0,1,7791.925,1569.168Zm381.469-6.664a3.715,3.715,0,0,1-3.326-2.057l-.652-1.305a3.71,3.71,0,1,1,6.62-3.35l.678,1.348a3.713,3.713,0,0,1-3.319,5.364Zm-374.125-7.978a3.713,3.713,0,0,1-3.247-5.5l.741-1.331a3.711,3.711,0,1,1,6.47,3.635l-.71,1.276A3.71,3.71,0,0,1,7799.269,1554.525Zm366.287-6.37a3.708,3.708,0,0,1-3.184-1.8l-.758-1.256a3.71,3.71,0,1,1,6.343-3.851l.777,1.286a3.711,3.711,0,0,1-3.179,5.622Zm-357.828-7.655a3.712,3.712,0,0,1-3.1-5.751l.835-1.259a3.711,3.711,0,0,1,6.178,4.112l-.812,1.226A3.71,3.71,0,0,1,7807.728,1540.5Zm348.9-6.049a3.705,3.705,0,0,1-3.027-1.561l-.853-1.2a3.71,3.71,0,1,1,6.029-4.325l.871,1.221a3.711,3.711,0,0,1-3.021,5.861Zm-339.38-7.278a3.712,3.712,0,0,1-2.932-5.984l.932-1.191a3.711,3.711,0,0,1,5.839,4.581l-.9,1.156A3.7,3.7,0,0,1,7817.247,1527.173Zm329.417-5.7a3.7,3.7,0,0,1-2.854-1.337l-.941-1.125a3.71,3.71,0,0,1,5.679-4.776l.967,1.153a3.711,3.711,0,0,1-2.85,6.086Zm-318.9-6.848a3.712,3.712,0,0,1-2.746-6.2l1.016-1.114a3.711,3.711,0,1,1,5.472,5.015l-.99,1.085A3.7,3.7,0,0,1,7827.762,1514.626Zm307.967-5.324a3.7,3.7,0,0,1-2.665-1.127l-1.021-1.046a3.711,3.711,0,1,1,5.291-5.2l1.058,1.083a3.711,3.711,0,0,1-2.663,6.294Zm-296.516-6.374a3.711,3.711,0,0,1-2.548-6.41l1.1-1.031a3.71,3.71,0,1,1,5.063,5.424l-1.069,1A3.7,3.7,0,0,1,7839.213,1502.928Zm284.67-4.924a3.7,3.7,0,0,1-2.446-.922l-1.111-.973a3.711,3.711,0,0,1,4.879-5.594l1.129.989a3.711,3.711,0,0,1-2.45,6.5Zm-272.355-5.854a3.711,3.711,0,0,1-2.336-6.6l1.174-.944a3.711,3.711,0,0,1,4.636,5.8l-1.145.919A3.687,3.687,0,0,1,7851.527,1492.15Zm259.672-4.5a3.7,3.7,0,0,1-2.228-.745l-1.177-.881a3.711,3.711,0,0,1,4.429-5.956l1.207.905a3.711,3.711,0,0,1-2.231,6.677Zm-246.568-5.3a3.71,3.71,0,0,1-2.11-6.764l1.254-.858a3.71,3.71,0,1,1,4.159,6.146l-1.2.819A3.69,3.69,0,0,1,7864.631,1482.354Zm233.122-4.047a3.694,3.694,0,0,1-2-.587l-1.235-.783a3.71,3.71,0,1,1,3.951-6.281l1.284.814a3.711,3.711,0,0,1-2,6.837Zm-219.308-4.7a3.712,3.712,0,0,1-1.867-6.92l1.311-.755a3.71,3.71,0,1,1,3.679,6.445l-1.259.726A3.7,3.7,0,0,1,7878.445,1473.6Zm205.176-3.575a3.694,3.694,0,0,1-1.752-.441l-1.286-.682a3.711,3.711,0,1,1,3.446-6.573l1.348.714a3.712,3.712,0,0,1-1.756,6.982Zm-190.726-4.077a3.711,3.711,0,0,1-1.611-7.055l1.361-.649a3.711,3.711,0,1,1,3.171,6.71l-1.316.628A3.7,3.7,0,0,1,7892.9,1465.951Zm175.988-3.079a3.7,3.7,0,0,1-1.491-.314l-1.339-.581a3.711,3.711,0,1,1,2.925-6.821l1.4.608a3.711,3.711,0,0,1-1.5,7.109Zm-161-3.422a3.711,3.711,0,0,1-1.348-7.169l1.419-.545a3.711,3.711,0,0,1,2.635,6.939l-1.363.523A3.7,3.7,0,0,1,7907.887,1459.45Zm145.745-2.563a3.71,3.71,0,0,1-1.223-.208l-1.383-.476a3.711,3.711,0,0,1,2.383-7.029l1.443.5a3.711,3.711,0,0,1-1.221,7.214Zm-130.273-2.758a3.712,3.712,0,0,1-1.065-7.266l1.452-.43a3.711,3.711,0,0,1,2.085,7.122l-1.4.416A3.72,3.72,0,0,1,7923.358,1454.128Zm114.616-2.015a3.7,3.7,0,0,1-.944-.122l-1.416-.366a3.711,3.711,0,1,1,1.829-7.192l1.468.379a3.711,3.711,0,0,1-.937,7.3Zm-98.772-2.083a3.711,3.711,0,0,1-.784-7.338l1.479-.315a3.71,3.71,0,0,1,1.527,7.262l-1.432.305A3.717,3.717,0,0,1,7939.2,1450.031Zm82.791-1.449a3.8,3.8,0,0,1-.665-.06l-1.438-.255a3.711,3.711,0,1,1,1.27-7.312l1.491.264a3.711,3.711,0,0,1-.657,7.363Zm-66.681-1.4a3.711,3.711,0,0,1-.5-7.388l1.5-.2a3.711,3.711,0,0,1,.955,7.361l-1.449.193A3.657,3.657,0,0,1,7955.313,1447.181Zm50.479-.88a3.745,3.745,0,0,1-.378-.019l-1.454-.142a3.711,3.711,0,0,1,.693-7.39l1.508.148a3.711,3.711,0,0,1-.369,7.4Zm-34.191-.713a3.711,3.711,0,0,1-.214-7.416l1.507-.084a3.711,3.711,0,0,1,.391,7.412l-1.463.081C7971.746,1445.585,7971.673,1445.587,7971.6,1445.587Zm17.857-.308h-.094l-1.461-.031a3.71,3.71,0,1,1,.131-7.42l1.515.032a3.71,3.71,0,0,1-.091,7.42Z" transform="translate(-7769.564 -1437.826)"/></g><g transform="translate(7790.997 1459.253)"><path class="a" d="M7986.993,1845.978a3.711,3.711,0,0,1-.047-7.422l1.45-.025a3.711,3.711,0,0,1,.162,7.42l-1.515.027Zm-14.82-.361c-.078,0-.156,0-.236-.008l-1.51-.1a3.71,3.71,0,1,1,.522-7.4l1.454.1a3.711,3.711,0,0,1-.23,7.415Zm31.105-.56a3.71,3.71,0,0,1-.359-7.4l1.442-.15a3.711,3.711,0,0,1,.794,7.38l-1.51.155A3.468,3.468,0,0,1,8003.278,1845.057Zm-47.325-1.162a3.7,3.7,0,0,1-.553-.041l-1.5-.231a3.711,3.711,0,0,1,1.163-7.33l1.434.222a3.711,3.711,0,0,1-.543,7.381Zm63.475-1.146a3.711,3.711,0,0,1-.682-7.359l1.431-.273a3.711,3.711,0,0,1,1.423,7.284l-1.482.283A3.7,3.7,0,0,1,8019.428,1842.749Zm-79.49-1.967a3.717,3.717,0,0,1-.868-.1l-1.471-.358a3.711,3.711,0,0,1,1.785-7.2l1.415.344a3.711,3.711,0,0,1-.861,7.32Zm95.379-1.728a3.711,3.711,0,0,1-.994-7.286l1.4-.4a3.711,3.711,0,0,1,2.044,7.134l-1.455.412A3.708,3.708,0,0,1,8035.316,1839.054Zm-111.069-2.756a3.7,3.7,0,0,1-1.176-.193l-1.439-.485a3.711,3.711,0,1,1,2.407-7.022l1.383.468a3.711,3.711,0,0,1-1.175,7.231Zm126.583-2.3a3.711,3.711,0,0,1-1.3-7.186l1.361-.516a3.711,3.711,0,1,1,2.659,6.929l-1.414.536A3.684,3.684,0,0,1,8050.83,1834Zm-141.84-3.533a3.7,3.7,0,0,1-1.474-.307l-1.388-.606a3.711,3.711,0,0,1,3-6.791l1.34.588a3.711,3.711,0,0,1-1.474,7.116Zm156.847-2.843a3.712,3.712,0,0,1-1.6-7.06l1.311-.631a3.711,3.711,0,0,1,3.241,6.677l-1.354.652A3.7,3.7,0,0,1,8065.837,1827.62Zm-171.54-4.289a3.7,3.7,0,0,1-1.761-.447l-1.331-.725a3.711,3.711,0,0,1,3.578-6.5l1.278.7a3.711,3.711,0,0,1-1.765,6.977Zm185.939-3.358a3.711,3.711,0,0,1-1.887-6.909l1.252-.742a3.711,3.711,0,0,1,3.807,6.371l-1.292.766A3.691,3.691,0,0,1,8080.236,1819.974Zm-199.957-5.012a3.7,3.7,0,0,1-2.033-.608l-1.266-.84a3.71,3.71,0,1,1,4.125-6.168l1.211.8a3.711,3.711,0,0,1-2.037,6.814Zm213.647-3.845a3.711,3.711,0,0,1-2.151-6.736l1.179-.845a3.711,3.711,0,1,1,4.349,6.016l-1.229.879A3.69,3.69,0,0,1,8093.927,1811.117Zm-226.891-5.7a3.691,3.691,0,0,1-2.3-.8l-1.178-.935a3.71,3.71,0,0,1,4.626-5.8l1.149.911a3.71,3.71,0,0,1-2.3,6.624Zm239.775-4.306a3.711,3.711,0,0,1-2.393-6.549c.368-.309.731-.622,1.095-.935a3.711,3.711,0,1,1,4.848,5.62q-.576.5-1.16.99A3.693,3.693,0,0,1,8106.812,1801.115Zm-252.152-6.331a3.694,3.694,0,0,1-2.535-1l-1.1-1.04a3.711,3.711,0,0,1,5.122-5.372l1.055,1a3.711,3.711,0,0,1-2.54,6.418Zm264.135-4.737a3.711,3.711,0,0,1-2.632-6.327l1.023-1.037a3.711,3.711,0,1,1,5.3,5.193l-1.062,1.075A3.7,3.7,0,0,1,8118.794,1790.048Zm-275.552-6.917a3.7,3.7,0,0,1-2.761-1.229l-1-1.127a3.711,3.711,0,1,1,5.555-4.922l.968,1.086a3.711,3.711,0,0,1-2.757,6.192Zm286.553-5.137a3.711,3.711,0,0,1-2.847-6.092l.932-1.12a3.71,3.71,0,1,1,5.728,4.718l-.966,1.164A3.7,3.7,0,0,1,8129.795,1777.994Zm-296.932-7.448a3.7,3.7,0,0,1-2.966-1.477l-.9-1.2a3.711,3.711,0,1,1,5.949-4.437l.878,1.17a3.71,3.71,0,0,1-2.961,5.944Zm306.856-5.507a3.71,3.71,0,0,1-3.035-5.841l.831-1.194a3.71,3.71,0,1,1,6.11,4.211l-.864,1.245A3.71,3.71,0,0,1,8139.72,1765.04Zm-316.121-7.915a3.706,3.706,0,0,1-3.145-1.737l-.8-1.282a3.711,3.711,0,1,1,6.315-3.9l.768,1.231a3.713,3.713,0,0,1-3.139,5.685Zm324.906-5.842a3.713,3.713,0,0,1-3.21-5.568l.728-1.268a3.711,3.711,0,1,1,6.45,3.67l-.75,1.311A3.713,3.713,0,0,1,8148.5,1751.283Zm-332.98-8.324a3.711,3.711,0,0,1-3.306-2.02l-.678-1.33a3.711,3.711,0,0,1,6.619-3.359l.663,1.3a3.712,3.712,0,0,1-3.3,5.4Zm340.548-6.145a3.712,3.712,0,0,1-3.353-5.294l.611-1.317a3.711,3.711,0,0,1,6.743,3.1c-.213.462-.426.923-.643,1.382A3.713,3.713,0,0,1,8156.072,1736.815Zm-347.371-8.658a3.711,3.711,0,0,1-3.434-2.3l-.57-1.4a3.711,3.711,0,1,1,6.891-2.759l.545,1.346a3.713,3.713,0,0,1-3.432,5.121Zm353.665-6.413a3.712,3.712,0,0,1-3.484-4.99l.5-1.378a3.71,3.71,0,0,1,6.982,2.513l-.517,1.423A3.712,3.712,0,0,1,8162.366,1721.744Zm-359.189-8.939a3.713,3.713,0,0,1-3.542-2.606l-.442-1.444a3.71,3.71,0,1,1,7.1-2.159l.429,1.394a3.711,3.711,0,0,1-3.543,4.815Zm364.148-6.609a3.713,3.713,0,0,1-3.581-4.69l.375-1.4a3.71,3.71,0,1,1,7.176,1.891l-.392,1.466A3.713,3.713,0,0,1,8167.325,1706.195ZM7799,1697.032a3.712,3.712,0,0,1-3.621-2.917l-.317-1.486a3.71,3.71,0,1,1,7.263-1.52l.3,1.417a3.714,3.714,0,0,1-3.628,4.505Zm371.917-6.751a3.647,3.647,0,0,1-.668-.061,3.71,3.71,0,0,1-2.986-4.315l.252-1.428a3.711,3.711,0,0,1,7.314,1.261l-.264,1.495A3.714,3.714,0,0,1,8170.92,1690.281Zm-374.709-9.32a3.71,3.71,0,0,1-3.675-3.233l-.19-1.5a3.711,3.711,0,0,1,7.369-.892l.18,1.439a3.709,3.709,0,0,1-3.2,4.159A3.751,3.751,0,0,1,7796.211,1680.96Zm376.915-6.844c-.115,0-.235-.005-.353-.016a3.71,3.71,0,0,1-3.347-4.042l.129-1.445a3.711,3.711,0,1,1,7.395.629l-.134,1.512A3.71,3.71,0,0,1,8173.126,1674.116Zm-378.316-9.41a3.71,3.71,0,0,1-3.7-3.552l-.06-1.5a3.711,3.711,0,0,1,7.417-.262l.058,1.45a3.711,3.711,0,0,1-3.549,3.865C7794.917,1664.706,7794.863,1664.706,7794.81,1664.706Zm379.13-6.882h-.034a3.71,3.71,0,0,1-3.677-3.743l0-1.885a3.711,3.711,0,0,1,7.422,0l-.006,1.95A3.711,3.711,0,0,1,8173.939,1657.824ZM7794.8,1648.4c-.052,0-.1,0-.156,0a3.712,3.712,0,0,1-3.556-3.86l.068-1.51a3.711,3.711,0,0,1,7.413.36l-.064,1.454A3.712,3.712,0,0,1,7794.8,1648.4Zm378.536-7.31a3.711,3.711,0,0,1-3.7-3.417l-.12-1.445a3.71,3.71,0,0,1,7.392-.655l.128,1.513a3.713,3.713,0,0,1-3.406,3.992C8173.533,1641.083,8173.434,1641.087,8173.335,1641.087Zm-377.17-8.945a3.766,3.766,0,0,1-.472-.03,3.711,3.711,0,0,1-3.214-4.149l.2-1.5a3.711,3.711,0,1,1,7.354,1l-.189,1.439A3.713,3.713,0,0,1,7796.165,1632.141Zm375.181-7.244a3.713,3.713,0,0,1-3.656-3.1l-.242-1.43a3.71,3.71,0,1,1,7.309-1.282l.254,1.5a3.711,3.711,0,0,1-3.052,4.269A3.749,3.749,0,0,1,8171.346,1624.9Zm-372.424-8.836a3.712,3.712,0,0,1-3.632-4.5l.326-1.481a3.711,3.711,0,1,1,7.241,1.631l-.312,1.416A3.712,3.712,0,0,1,7798.922,1616.062Zm369.049-7.125a3.712,3.712,0,0,1-3.593-2.789l-.365-1.4a3.711,3.711,0,1,1,7.17-1.915l.385,1.47a3.711,3.711,0,0,1-3.6,4.635Zm-364.917-8.655a3.711,3.711,0,0,1-3.547-4.8l.456-1.455a3.71,3.71,0,1,1,7.071,2.25l-.435,1.392A3.712,3.712,0,0,1,7803.054,1600.281Zm360.172-6.954a3.71,3.71,0,0,1-3.5-2.48l-.489-1.367a3.712,3.712,0,0,1,6.981-2.522l.509,1.428a3.713,3.713,0,0,1-3.5,4.942Zm-354.679-8.43a3.714,3.714,0,0,1-3.437-5.109q.287-.706.581-1.41a3.71,3.71,0,0,1,6.848,2.86l-.552,1.344A3.712,3.712,0,0,1,7808.547,1584.9Zm348.607-6.7a3.713,3.713,0,0,1-3.381-2.175l-.605-1.32a3.712,3.712,0,0,1,6.735-3.121l.626,1.368a3.713,3.713,0,0,1-3.375,5.249Zm-341.8-8.149a3.71,3.71,0,0,1-3.3-5.4l.694-1.345a3.711,3.711,0,0,1,6.581,3.432l-.672,1.3A3.71,3.71,0,0,1,7815.351,1570.052Zm334.445-6.4a3.71,3.71,0,0,1-3.241-1.9l-.712-1.257a3.71,3.71,0,1,1,6.441-3.684l.747,1.316a3.712,3.712,0,0,1-3.235,5.525Zm-326.386-7.8a3.713,3.713,0,0,1-3.146-5.677c.27-.431.539-.861.814-1.29a3.71,3.71,0,1,1,6.253,4c-.26.406-.516.814-.771,1.223A3.71,3.71,0,0,1,7823.41,1555.852Zm317.8-6.061a3.708,3.708,0,0,1-3.073-1.627l-.817-1.191a3.711,3.711,0,1,1,6.1-4.228l.859,1.251a3.713,3.713,0,0,1-3.068,5.8Zm-308.555-7.391a3.711,3.711,0,0,1-2.966-5.939q.458-.609.921-1.214a3.711,3.711,0,1,1,5.888,4.518c-.294.383-.584.767-.874,1.152A3.7,3.7,0,0,1,7832.657,1542.4Zm298.809-5.689a3.7,3.7,0,0,1-2.877-1.364l-.927-1.129a3.711,3.711,0,0,1,5.721-4.729l.955,1.162a3.711,3.711,0,0,1-2.872,6.059Zm-288.445-6.918a3.711,3.711,0,0,1-2.76-6.189l1-1.114a3.711,3.711,0,0,1,5.5,4.981l-.984,1.09A3.7,3.7,0,0,1,7843.021,1529.793Zm277.613-5.282a3.7,3.7,0,0,1-2.666-1.132l-1.016-1.044a3.71,3.71,0,1,1,5.295-5.2l1.055,1.082a3.712,3.712,0,0,1-2.668,6.291Zm-266.211-6.392a3.711,3.711,0,0,1-2.544-6.412c.371-.347.74-.693,1.112-1.038a3.711,3.711,0,0,1,5.033,5.456q-.532.491-1.056.985A3.7,3.7,0,0,1,7854.423,1518.119Zm254.374-4.842a3.7,3.7,0,0,1-2.439-.916l-1.1-.948a3.711,3.711,0,1,1,4.831-5.635l1.147.993a3.711,3.711,0,0,1-2.443,6.506Zm-242.017-5.811a3.71,3.71,0,0,1-2.307-6.62q.6-.473,1.2-.94a3.71,3.71,0,1,1,4.542,5.868q-.568.442-1.134.889A3.7,3.7,0,0,1,7866.78,1507.465Zm229.265-4.371a3.7,3.7,0,0,1-2.183-.711l-1.187-.859a3.711,3.711,0,0,1,4.338-6.023l1.22.883a3.712,3.712,0,0,1-2.188,6.71ZM7880,1497.91a3.711,3.711,0,0,1-2.047-6.808l1.265-.828a3.711,3.711,0,1,1,4.037,6.227l-1.214.794A3.691,3.691,0,0,1,7880,1497.91Zm202.462-3.87a3.694,3.694,0,0,1-1.925-.541l-1.243-.749a3.711,3.711,0,1,1,3.795-6.378l1.3.784a3.711,3.711,0,0,1-1.931,6.883Zm-188.477-4.517a3.712,3.712,0,0,1-1.771-6.975l1.325-.711a3.711,3.711,0,0,1,3.493,6.55l-1.281.688A3.693,3.693,0,0,1,7893.984,1489.524Zm174.164-3.337a3.7,3.7,0,0,1-1.64-.384l-1.311-.641a3.711,3.711,0,0,1,3.233-6.681l1.362.668a3.711,3.711,0,0,1-1.646,7.038Zm-159.517-3.81a3.711,3.711,0,0,1-1.483-7.114l1.385-.6a3.711,3.711,0,1,1,2.91,6.827l-1.329.574A3.714,3.714,0,0,1,7908.632,1482.376Zm144.575-2.78a3.692,3.692,0,0,1-1.351-.256l-1.359-.524a3.711,3.711,0,0,1,2.645-6.935l1.419.548a3.711,3.711,0,0,1-1.354,7.167Zm-129.369-3.074a3.711,3.711,0,0,1-1.182-7.228l1.436-.477a3.711,3.711,0,1,1,2.311,7.053l-1.383.459A3.7,3.7,0,0,1,7923.838,1476.522Zm113.925-2.193a3.7,3.7,0,0,1-1.047-.151l-1.4-.4a3.711,3.711,0,0,1,2.034-7.137l1.453.42a3.711,3.711,0,0,1-1.043,7.272ZM7939.51,1472a3.712,3.712,0,0,1-.869-7.319l1.47-.349a3.711,3.711,0,0,1,1.688,7.227l-1.415.336A3.7,3.7,0,0,1,7939.51,1472Zm82.419-1.582a3.73,3.73,0,0,1-.737-.074l-1.431-.282a3.711,3.711,0,0,1,1.414-7.285l1.483.292a3.711,3.711,0,0,1-.729,7.349Zm-66.412-1.567a3.711,3.711,0,0,1-.557-7.38l1.5-.223a3.711,3.711,0,0,1,1.057,7.347l-1.435.211A3.733,3.733,0,0,1,7955.517,1468.853Zm50.3-.961a3.53,3.53,0,0,1-.423-.024l-1.442-.158a3.71,3.71,0,1,1,.771-7.381l1.509.165a3.711,3.711,0,0,1-.414,7.4Zm-34.081-.8a3.711,3.711,0,0,1-.234-7.414l1.508-.093a3.711,3.711,0,0,1,.424,7.411l-1.454.088C7971.895,1467.091,7971.813,1467.093,7971.732,1467.093Zm17.8-.336-.1,0-1.451-.034a3.71,3.71,0,0,1-3.639-3.781,3.758,3.758,0,0,1,3.781-3.639l1.515.035a3.711,3.711,0,0,1-.1,7.421Z" transform="translate(-7791.043 -1459.3)"/></g><g transform="translate(7836.32 1504.662)"><path class="a" d="M7984.464,1800.65l-1.506-.007a3.711,3.711,0,0,1,.033-7.422h.037l1.358.007a3.743,3.743,0,0,1,3.749,3.711A3.678,3.678,0,0,1,7984.464,1800.65Zm14.674-.746a3.71,3.71,0,0,1-.368-7.4q.712-.072,1.423-.151a3.71,3.71,0,1,1,.824,7.375q-.751.083-1.5.161A3.721,3.721,0,0,1,7999.138,1799.9Zm-30.811-.138a3.459,3.459,0,0,1-.417-.024l-1.492-.173a3.711,3.711,0,1,1,.89-7.368l1.427.166a3.711,3.711,0,0,1-.407,7.4Zm46.779-2.4a3.712,3.712,0,0,1-.781-7.339c.47-.1.934-.2,1.4-.31a3.711,3.711,0,0,1,1.645,7.238q-.738.166-1.475.327A3.753,3.753,0,0,1,8015.106,1797.371Zm-62.727-.284a3.7,3.7,0,0,1-.824-.093l-1.468-.341a3.711,3.711,0,1,1,1.715-7.221l1.4.324a3.712,3.712,0,0,1-.819,7.331Zm78.313-4.029a3.711,3.711,0,0,1-1.2-7.224l1.357-.469a3.711,3.711,0,0,1,2.459,7l-1.425.492A3.709,3.709,0,0,1,8030.692,1793.057Zm-93.856-.43a3.709,3.709,0,0,1-1.222-.208c-.48-.167-.957-.336-1.434-.509a3.711,3.711,0,1,1,2.527-6.978c.447.162.9.321,1.35.479a3.711,3.711,0,0,1-1.222,7.215Zm108.854-5.616a3.711,3.711,0,0,1-1.579-7.072c.431-.2.858-.405,1.285-.611a3.71,3.71,0,1,1,3.229,6.681c-.453.218-.906.435-1.363.65A3.7,3.7,0,0,1,8045.69,1787.011Zm-123.8-.571a3.7,3.7,0,0,1-1.605-.367q-.686-.329-1.367-.668a3.711,3.711,0,0,1,3.3-6.647q.639.319,1.283.626a3.711,3.711,0,0,1-1.611,7.056Zm138.02-7.118a3.711,3.711,0,0,1-1.946-6.872q.608-.374,1.207-.752a3.71,3.71,0,1,1,3.962,6.274q-.639.4-1.283.8A3.685,3.685,0,0,1,8059.906,1779.322Zm-152.175-.709a3.694,3.694,0,0,1-1.974-.57l-1.272-.81a3.71,3.71,0,0,1,4.01-6.244l1.214.771a3.711,3.711,0,0,1-1.978,6.853Zm165.441-8.524a3.711,3.711,0,0,1-2.289-6.635q.565-.44,1.123-.886a3.71,3.71,0,1,1,4.633,5.8q-.59.471-1.184.935A3.692,3.692,0,0,1,8073.173,1770.09Zm-178.632-.837a3.7,3.7,0,0,1-2.309-.808c-.394-.314-.788-.632-1.179-.95a3.71,3.71,0,1,1,4.688-5.752c.37.3.739.6,1.113.9a3.71,3.71,0,0,1-2.314,6.614Zm190.788-9.819a3.711,3.711,0,0,1-2.6-6.362q.511-.5,1.018-1.008a3.71,3.71,0,1,1,5.246,5.248q-.53.533-1.071,1.063A3.7,3.7,0,0,1,8085.329,1759.433Zm-202.847-.953a3.7,3.7,0,0,1-2.623-1.087l-1.06-1.07a3.71,3.71,0,1,1,5.3-5.2l1.01,1.02a3.71,3.71,0,0,1-2.624,6.334Zm213.744-10.993a3.712,3.712,0,0,1-2.873-6.059q.453-.554.9-1.112a3.71,3.71,0,0,1,5.8,4.628q-.47.593-.949,1.179A3.7,3.7,0,0,1,8096.227,1747.487Zm-224.526-1.052a3.7,3.7,0,0,1-2.9-1.394q-.47-.59-.936-1.183a3.711,3.711,0,0,1,5.847-4.572q.439.563.888,1.122a3.712,3.712,0,0,1-2.9,6.028Zm234.026-12.033a3.713,3.713,0,0,1-3.118-5.719q.388-.6.769-1.209a3.711,3.711,0,0,1,6.285,3.948c-.269.426-.539.853-.812,1.276A3.708,3.708,0,0,1,8105.727,1734.4Zm-243.4-1.137a3.71,3.71,0,0,1-3.144-1.732q-.4-.636-.795-1.276a3.711,3.711,0,1,1,6.317-3.9l.758,1.214a3.713,3.713,0,0,1-3.137,5.691Zm251.377-12.932a3.713,3.713,0,0,1-3.321-5.362c.212-.426.423-.854.628-1.283a3.711,3.711,0,0,1,6.688,3.218q-.331.686-.669,1.367A3.711,3.711,0,0,1,8113.7,1720.334Zm-259.221-1.2a3.712,3.712,0,0,1-3.343-2.094q-.328-.677-.647-1.356a3.711,3.711,0,1,1,6.711-3.169l.616,1.29a3.712,3.712,0,0,1-3.337,5.329Zm265.571-13.677a3.673,3.673,0,0,1-1.257-.22,3.71,3.71,0,0,1-2.235-4.748l.483-1.359a3.711,3.711,0,1,1,7.007,2.448l-.507,1.424A3.71,3.71,0,0,1,8120.054,1705.456Zm-271.778-1.249a3.708,3.708,0,0,1-3.5-2.483l-.493-1.424a3.711,3.711,0,0,1,7.026-2.39l.468,1.355a3.712,3.712,0,0,1-3.5,4.941Zm276.409-14.251a3.653,3.653,0,0,1-.858-.1,3.713,3.713,0,0,1-2.755-4.468l.326-1.4a3.711,3.711,0,1,1,7.236,1.645l-.341,1.467A3.714,3.714,0,0,1,8124.685,1689.956Zm-280.895-1.283a3.711,3.711,0,0,1-3.615-2.888l-.329-1.471a3.711,3.711,0,0,1,7.252-1.578l.313,1.4a3.716,3.716,0,0,1-3.621,4.535Zm283.75-14.629a3.723,3.723,0,0,1-3.688-4.162c.059-.472.112-.944.164-1.417a3.711,3.711,0,0,1,7.378.811c-.056.5-.115,1-.176,1.506A3.712,3.712,0,0,1,8127.54,1674.044Zm-286.456-1.311a3.713,3.713,0,0,1-3.685-3.295c-.056-.5-.109-1-.16-1.506a3.711,3.711,0,0,1,7.384-.746q.072.71.152,1.419a3.711,3.711,0,0,1-3.271,4.1A3.753,3.753,0,0,1,7841.084,1672.733Zm287.507-14.822h-.034a3.711,3.711,0,0,1-3.677-3.744l.007-1.439v-.3a3.71,3.71,0,1,1,7.421,0l0,.251-.007,1.557A3.713,3.713,0,0,1,8128.591,1657.912Zm-288.413-1.319a3.71,3.71,0,0,1-3.711-3.711l.006-1.508a3.712,3.712,0,0,1,3.709-3.674h.038a3.71,3.71,0,0,1,3.674,3.748l-.006,1.434A3.71,3.71,0,0,1,7840.178,1656.593Zm287.646-15.134a3.71,3.71,0,0,1-3.686-3.327l-.155-1.43a3.711,3.711,0,1,1,7.375-.834l.161,1.5a3.711,3.711,0,0,1-3.306,4.075C8128.082,1641.452,8127.951,1641.459,8127.823,1641.459Zm-286.767-1.009a3.563,3.563,0,0,1-.41-.023,3.711,3.711,0,0,1-3.282-4.094l.173-1.495a3.71,3.71,0,1,1,7.368.879l-.164,1.428A3.711,3.711,0,0,1,7841.057,1640.45Zm284.21-14.953a3.714,3.714,0,0,1-3.624-2.924c-.1-.464-.2-.927-.311-1.39a3.711,3.711,0,0,1,7.232-1.668q.168.74.331,1.482a3.715,3.715,0,0,1-3.629,4.5Zm-281.538-.991a3.672,3.672,0,0,1-.825-.093,3.709,3.709,0,0,1-2.795-4.441l.339-1.466a3.71,3.71,0,1,1,7.221,1.712l-.324,1.4A3.711,3.711,0,0,1,7843.729,1624.506Zm277.2-14.585a3.711,3.711,0,0,1-3.513-2.516l-.469-1.357a3.71,3.71,0,1,1,7-2.458l.492,1.422a3.714,3.714,0,0,1-3.512,4.908Zm-272.754-.961a3.713,3.713,0,0,1-3.5-4.934l.5-1.426a3.711,3.711,0,1,1,6.983,2.514l-.48,1.358A3.714,3.714,0,0,1,7848.176,1608.96Zm266.688-14.025a3.71,3.71,0,0,1-3.354-2.118l-.619-1.3a3.71,3.71,0,1,1,6.676-3.24l.647,1.349a3.713,3.713,0,0,1-3.35,5.3Zm-260.512-.924a3.714,3.714,0,0,1-3.342-5.32c.219-.454.441-.907.663-1.359a3.711,3.711,0,0,1,6.655,3.284l-.63,1.293A3.714,3.714,0,0,1,7854.353,1594.011Zm252.8-13.28a3.711,3.711,0,0,1-3.159-1.758l-.76-1.216a3.71,3.71,0,1,1,6.273-3.962l.8,1.272a3.711,3.711,0,0,1-3.152,5.665Zm-244.982-.879a3.713,3.713,0,0,1-3.142-5.683q.4-.641.813-1.276a3.71,3.71,0,0,1,6.244,4.009c-.257.4-.516.805-.769,1.21A3.71,3.71,0,0,1,7862.171,1579.852Zm235.728-12.374a3.706,3.706,0,0,1-2.924-1.421l-.89-1.123a3.711,3.711,0,0,1,5.794-4.639q.472.587.936,1.182a3.71,3.71,0,0,1-2.916,6Zm-226.374-.821a3.71,3.71,0,0,1-2.9-6.025q.469-.59.947-1.176a3.71,3.71,0,1,1,5.751,4.69c-.3.37-.6.742-.9,1.116A3.707,3.707,0,0,1,7871.524,1566.657Zm215.7-11.321a3.7,3.7,0,0,1-2.646-1.109q-.5-.509-1.008-1.013a3.711,3.711,0,1,1,5.232-5.264q.536.533,1.065,1.074a3.71,3.71,0,0,1-2.645,6.312Zm-204.927-.745a3.71,3.71,0,0,1-2.626-6.332l1.067-1.06a3.711,3.711,0,0,1,5.2,5.292l-1.02,1.011A3.7,3.7,0,0,1,7882.293,1554.591Zm192.963-10.136a3.694,3.694,0,0,1-2.334-.829q-.557-.452-1.119-.9a3.71,3.71,0,1,1,4.616-5.81q.592.469,1.179.946a3.71,3.71,0,0,1-2.342,6.591Zm-180.92-.656a3.71,3.71,0,0,1-2.318-6.609l1.172-.93a3.711,3.711,0,0,1,4.589,5.833l-1.129.9A3.7,3.7,0,0,1,7894.336,1543.8Zm167.816-8.823a3.693,3.693,0,0,1-2-.589q-.6-.388-1.211-.768a3.711,3.711,0,1,1,3.943-6.287q.64.4,1.276.811a3.711,3.711,0,0,1-2.008,6.833Zm-154.65-.559a3.711,3.711,0,0,1-1.984-6.849l1.276-.8a3.711,3.711,0,1,1,3.9,6.313l-1.215.759A3.7,3.7,0,0,1,7907.5,1534.417Zm140.57-7.4a3.7,3.7,0,0,1-1.64-.383q-.642-.318-1.29-.629a3.711,3.711,0,1,1,3.215-6.689q.683.328,1.36.661a3.712,3.712,0,0,1-1.646,7.04Zm-126.442-.453a3.711,3.711,0,0,1-1.621-7.049q.68-.331,1.366-.654a3.711,3.711,0,0,1,3.151,6.72q-.643.3-1.28.611A3.683,3.683,0,0,1,7921.63,1526.567Zm111.559-5.869a3.719,3.719,0,0,1-1.26-.222c-.448-.163-.9-.321-1.352-.478a3.711,3.711,0,0,1,2.436-7.011c.48.167.957.335,1.436.508a3.711,3.711,0,0,1-1.26,7.2Zm-96.638-.343a3.712,3.712,0,0,1-1.229-7.213l1.417-.491a3.711,3.711,0,1,1,2.4,7.022l-1.363.471A3.676,3.676,0,0,1,7936.551,1520.355Zm81.133-4.261a3.737,3.737,0,0,1-.858-.1c-.464-.111-.93-.217-1.4-.323a3.71,3.71,0,1,1,1.636-7.238q.738.166,1.473.339a3.712,3.712,0,0,1-.854,7.323Zm-65.6-.231a3.711,3.711,0,0,1-.828-7.328c.493-.114.988-.224,1.481-.331a3.711,3.711,0,1,1,1.569,7.254q-.7.151-1.39.31A3.73,3.73,0,0,1,7952.079,1515.864Zm49.688-2.6a3.6,3.6,0,0,1-.448-.028q-.709-.086-1.422-.164a3.71,3.71,0,1,1,.81-7.377q.754.082,1.5.173a3.711,3.711,0,0,1-.441,7.4Zm-33.754-.118a3.711,3.711,0,0,1-.412-7.4c.5-.057,1-.111,1.5-.162a3.711,3.711,0,1,1,.756,7.383q-.713.073-1.423.154A3.787,3.787,0,0,1,7968.013,1513.15Zm17.616-.914h-.031l-1.437-.005a3.711,3.711,0,1,1,0-7.422l1.5,0a3.711,3.711,0,0,1-.032,7.422Z" transform="translate(-7836.467 -1504.809)"/></g></g></svg>