<svg xmlns="http://www.w3.org/2000/svg" width="141" height="141" viewBox="0 0 141 141"><defs><style>.a{fill:#89bbe0;}.b{fill:none;stroke:#fff;stroke-width:2px;}</style></defs><g transform="translate(-574 -881.909)"><circle class="a" cx="70.5" cy="70.5" r="70.5" transform="translate(574 881.909)"/><path class="b" d="M57.022,21.263l-.913,1.592a1.376,1.376,0,0,1-1.681.6,12.3,12.3,0,0,1-3.574-2.071,1.383,1.383,0,0,1-.312-1.748l.913-1.592a9.612,9.612,0,0,1-1.77-3.051H47.847a1.375,1.375,0,0,1-1.358-1.147,12.545,12.545,0,0,1,0-4.131,1.384,1.384,0,0,1,1.358-1.158h1.837a9.612,9.612,0,0,1,1.77-3.051l-.913-1.592a1.37,1.37,0,0,1,.312-1.748A12.452,12.452,0,0,1,54.428.1a1.376,1.376,0,0,1,1.681.6l.913,1.592a9.894,9.894,0,0,1,3.53,0L61.465.7A1.376,1.376,0,0,1,63.146.1,12.3,12.3,0,0,1,66.72,2.167a1.383,1.383,0,0,1,.312,1.748l-.913,1.592a9.612,9.612,0,0,1,1.77,3.051h1.837A1.375,1.375,0,0,1,71.085,9.7a12.545,12.545,0,0,1,0,4.131,1.384,1.384,0,0,1-1.358,1.158H67.89a9.612,9.612,0,0,1-1.77,3.051l.913,1.592a1.37,1.37,0,0,1-.312,1.748,12.452,12.452,0,0,1-3.574,2.071,1.376,1.376,0,0,1-1.681-.6l-.913-1.592a9.894,9.894,0,0,1-3.53,0Zm-1.169-6.547c4.287,3.3,9.175-1.592,5.879-5.879C57.445,5.529,52.557,10.429,55.853,14.716ZM43.014,31.852l3.752,1.871a2.677,2.677,0,0,1,1.169,3.24,26.286,26.286,0,0,1-4.743,7.327,2.662,2.662,0,0,1-3.374.59l-3.24-1.871a19.128,19.128,0,0,1-6.113,3.53V50.28a2.665,2.665,0,0,1-2.194,2.628,25.04,25.04,0,0,1-8.451,0,2.675,2.675,0,0,1-2.227-2.628V46.539a19.337,19.337,0,0,1-6.113-3.53l-3.24,1.86a2.664,2.664,0,0,1-3.374-.59,26.247,26.247,0,0,1-4.7-7.316,2.687,2.687,0,0,1,1.169-3.24l3.708-1.871a19.29,19.29,0,0,1,0-7.059L1.337,22.911A2.655,2.655,0,0,1,.167,19.682a26.143,26.143,0,0,1,4.7-7.327,2.662,2.662,0,0,1,3.374-.59l3.24,1.871a19.128,19.128,0,0,1,6.113-3.53V6.353a2.652,2.652,0,0,1,2.182-2.617,25.394,25.394,0,0,1,8.462-.011,2.675,2.675,0,0,1,2.227,2.628v3.741a19.337,19.337,0,0,1,6.113,3.53l3.24-1.871a2.664,2.664,0,0,1,3.374.59,26.108,26.108,0,0,1,4.688,7.327,2.661,2.661,0,0,1-1.113,3.24l-3.752,1.871a19.35,19.35,0,0,1,0,7.071ZM29.92,34.2c6.592-8.574-3.2-18.361-11.77-11.77C11.558,31.006,21.346,40.793,29.92,34.2Zm27.1,20.343-.913,1.592a1.376,1.376,0,0,1-1.681.6,12.3,12.3,0,0,1-3.574-2.071,1.383,1.383,0,0,1-.312-1.748l.913-1.592a9.612,9.612,0,0,1-1.77-3.051H47.847a1.375,1.375,0,0,1-1.358-1.147,12.545,12.545,0,0,1,0-4.131,1.384,1.384,0,0,1,1.358-1.158h1.837a9.612,9.612,0,0,1,1.77-3.051L50.541,37.2a1.37,1.37,0,0,1,.312-1.748,12.451,12.451,0,0,1,3.574-2.071,1.376,1.376,0,0,1,1.681.6l.913,1.592a9.894,9.894,0,0,1,3.53,0l.913-1.592a1.376,1.376,0,0,1,1.681-.6,12.3,12.3,0,0,1,3.574,2.071,1.383,1.383,0,0,1,.312,1.748l-.913,1.592a9.612,9.612,0,0,1,1.77,3.051h1.837a1.375,1.375,0,0,1,1.358,1.147,12.544,12.544,0,0,1,0,4.131,1.384,1.384,0,0,1-1.358,1.158H67.89a9.612,9.612,0,0,1-1.77,3.051l.913,1.592a1.37,1.37,0,0,1-.312,1.748,12.452,12.452,0,0,1-3.574,2.071,1.376,1.376,0,0,1-1.681-.6l-.913-1.592A9.894,9.894,0,0,1,57.022,54.545Zm-1.169-6.558c4.287,3.3,9.175-1.592,5.879-5.879C57.445,38.811,52.557,43.7,55.853,47.987Z" transform="translate(604.47 923.992)"/></g></svg>