<svg xmlns="http://www.w3.org/2000/svg" width="430.409" height="430.471" viewBox="0 0 430.409 430.471"><defs><style>.a{fill:#89bbe0;}</style></defs><g transform="translate(-7769.565 -1437.826)"><path class="a" d="M7987.416,1733.029a3.719,3.719,0,0,1-.127-7.436c.48-.017.956-.038,1.433-.064a3.719,3.719,0,0,1,.4,7.428c-.523.027-1.046.051-1.572.069Zm-14.957-.932a3.786,3.786,0,0,1-.6-.048q-.779-.126-1.553-.267a3.719,3.719,0,1,1,1.328-7.319c.469.085.938.167,1.41.242a3.72,3.72,0,0,1-.588,7.392Zm31.279-1.413a3.719,3.719,0,0,1-.924-7.321c.464-.119.924-.243,1.385-.37a3.719,3.719,0,0,1,1.987,7.167c-.5.14-1.011.275-1.518.4A3.683,3.683,0,0,1,8003.738,1730.684Zm-47.183-2.97a3.693,3.693,0,0,1-1.373-.264q-.737-.292-1.465-.6A3.718,3.718,0,1,1,7956.6,1720q.658.276,1.325.541a3.72,3.72,0,0,1-1.375,7.176Zm62.623-2.845a3.719,3.719,0,0,1-1.684-7.036q.634-.322,1.261-.656a3.719,3.719,0,1,1,3.5,6.564c-.464.247-.928.489-1.4.727A3.716,3.716,0,0,1,8019.178,1724.869Zm-77.2-4.873a3.7,3.7,0,0,1-2.082-.64q-.656-.444-1.3-.9a3.719,3.719,0,0,1,4.3-6.069c.387.273.778.544,1.171.809a3.721,3.721,0,0,1-2.087,6.8Zm91.014-4.129a3.719,3.719,0,0,1-2.353-6.6c.369-.3.732-.6,1.094-.912a3.719,3.719,0,0,1,4.82,5.665q-.6.51-1.213,1.011A3.7,3.7,0,0,1,8032.988,1715.867Zm-103.593-6.539a3.7,3.7,0,0,1-2.7-1.157q-.542-.57-1.071-1.149a3.718,3.718,0,0,1,5.485-5.022q.486.53.978,1.049a3.718,3.718,0,0,1-2.7,6.279Zm115.158-5.213a3.72,3.72,0,0,1-2.914-6.027c.3-.375.592-.752.881-1.133a3.719,3.719,0,0,1,5.918,4.506q-.477.625-.965,1.242A3.715,3.715,0,0,1,8044.553,1704.115Zm-125.164-7.892a3.717,3.717,0,0,1-3.185-1.793q-.405-.671-.8-1.349a3.719,3.719,0,0,1,6.433-3.735q.359.62.729,1.231a3.719,3.719,0,0,1-3.178,5.646Zm133.951-6.065A3.719,3.719,0,0,1,8050,1684.8q.311-.637.61-1.285a3.719,3.719,0,0,1,6.752,3.119q-.333.723-.683,1.436A3.719,3.719,0,0,1,8053.34,1690.158Zm-140.911-8.883a3.719,3.719,0,0,1-3.52-2.522c-.17-.5-.333-.995-.493-1.5A3.719,3.719,0,0,1,7915.5,1675q.218.684.446,1.359a3.721,3.721,0,0,1-3.52,4.919Zm146.487-6.643a3.719,3.719,0,0,1-3.62-4.583q.167-.7.321-1.4a3.718,3.718,0,1,1,7.264,1.595q-.168.768-.35,1.53A3.719,3.719,0,0,1,8058.916,1674.632Zm-150.052-9.458a3.718,3.718,0,0,1-3.693-3.319q-.086-.778-.155-1.561a3.719,3.719,0,1,1,7.408-.668c.042.478.09.954.141,1.428a3.718,3.718,0,0,1-3.3,4.1A3.643,3.643,0,0,1,7908.864,1665.174Zm152.137-6.9h-.077a3.718,3.718,0,0,1-3.642-3.794q.013-.712.013-1.427v-.31a3.719,3.719,0,1,1,7.438,0V1653c0,.58,0,1.105-.016,1.63A3.717,3.717,0,0,1,8061,1658.275Zm-152.162-9.591a3.725,3.725,0,0,1-3.7-4.107q.082-.788.182-1.57a3.719,3.719,0,1,1,7.379.932q-.088.7-.164,1.414A3.719,3.719,0,0,1,7908.839,1648.684Zm150.65-7.137a3.719,3.719,0,0,1-3.642-2.988q-.14-.7-.3-1.391a3.72,3.72,0,0,1,7.261-1.62c.113.513.224,1.029.328,1.547a3.724,3.724,0,0,1-3.65,4.452Zm-147.159-8.978a3.721,3.721,0,0,1-3.527-4.9q.25-.744.511-1.483a3.719,3.719,0,0,1,7.014,2.478q-.243.681-.471,1.367A3.721,3.721,0,0,1,7912.33,1632.569Zm142.153-6.733a3.718,3.718,0,0,1-3.4-2.216q-.289-.651-.589-1.294a3.719,3.719,0,1,1,6.74-3.144c.221.475.441.952.653,1.431a3.721,3.721,0,0,1-3.4,5.223Zm-135.256-8.252a3.72,3.72,0,0,1-3.184-5.636c.272-.451.546-.9.826-1.346a3.719,3.719,0,0,1,6.3,3.96c-.255.4-.5.81-.749,1.22A3.716,3.716,0,0,1,7919.227,1617.584Zm126.974-6a3.713,3.713,0,0,1-3-1.519q-.423-.574-.856-1.14a3.719,3.719,0,1,1,5.907-4.52q.477.624.945,1.26a3.719,3.719,0,0,1-2.995,5.919Zm-117.011-7.147a3.719,3.719,0,0,1-2.709-6.266q.54-.574,1.092-1.138a3.719,3.719,0,0,1,5.314,5.2q-.5.508-.988,1.028A3.709,3.709,0,0,1,7929.19,1604.435Zm105.857-5.005a3.7,3.7,0,0,1-2.452-.925q-.541-.473-1.085-.935a3.719,3.719,0,1,1,4.8-5.679q.6.507,1.19,1.026a3.719,3.719,0,0,1-2.455,6.513Zm-93.316-5.709a3.719,3.719,0,0,1-2.1-6.789q.65-.444,1.308-.875a3.719,3.719,0,0,1,4.073,6.223q-.6.391-1.185.794A3.7,3.7,0,0,1,7941.731,1593.721Zm79.826-3.778a3.7,3.7,0,0,1-1.8-.468c-.414-.229-.833-.454-1.253-.676a3.719,3.719,0,1,1,3.464-6.582q.7.369,1.4.755a3.719,3.719,0,0,1-1.807,6.971Zm-65.285-3.994a3.719,3.719,0,0,1-1.387-7.17q.731-.294,1.468-.573a3.719,3.719,0,0,1,2.638,6.954c-.448.17-.891.344-1.334.521A3.723,3.723,0,0,1,7956.272,1585.949Zm50.071-2.368a3.715,3.715,0,0,1-1.05-.152c-.456-.134-.917-.265-1.377-.391a3.719,3.719,0,0,1,1.961-7.175q.76.208,1.513.43a3.72,3.72,0,0,1-1.047,7.288Zm-34.2-2.079a3.719,3.719,0,0,1-.6-7.389c.515-.085,1.035-.166,1.554-.241a3.719,3.719,0,0,1,1.069,7.361q-.708.1-1.412.219A3.723,3.723,0,0,1,7972.145,1581.5Zm17.971-.842c-.087,0-.175,0-.264-.009-.474-.034-.95-.062-1.428-.087a3.718,3.718,0,1,1,.378-7.427q.787.039,1.57.093a3.72,3.72,0,0,1-.256,7.43Z"/><path class="a" d="M7980.557,1685.974a3.6,3.6,0,0,1-.525-.038c-.571-.08-1.136-.175-1.7-.284a3.719,3.719,0,1,1,1.42-7.3c.437.086.877.159,1.321.223a3.719,3.719,0,0,1-.518,7.4Zm15.026-1.777a3.72,3.72,0,0,1-1.372-7.177c.416-.164.824-.339,1.228-.523a3.719,3.719,0,1,1,3.094,6.764q-.78.357-1.582.674A3.713,3.713,0,0,1,7995.583,1684.2Zm-30.15-5.1a3.7,3.7,0,0,1-2.43-.906q-.654-.564-1.275-1.162a3.718,3.718,0,0,1,5.151-5.364q.482.462.988.9a3.719,3.719,0,0,1-2.434,6.532Zm43.233-5.117a3.719,3.719,0,0,1-3.014-5.893q.387-.54.749-1.1a3.719,3.719,0,1,1,6.258,4.018c-.31.486-.636.963-.973,1.431A3.715,3.715,0,0,1,8008.666,1673.976Zm-52.242-8.837a3.717,3.717,0,0,1-3.565-2.667q-.245-.824-.446-1.667a3.719,3.719,0,0,1,7.234-1.729c.1.435.22.866.345,1.291a3.719,3.719,0,0,1-3.568,4.772Zm57.743-6.836c-.064,0-.129,0-.194-.005a3.719,3.719,0,0,1-3.523-3.906q.034-.664.035-1.338a3.772,3.772,0,0,1,3.719-3.78,3.666,3.666,0,0,1,3.719,3.657v.123q0,.866-.044,1.722A3.719,3.719,0,0,1,8014.167,1658.3Zm-57.777-9.772a3.722,3.722,0,0,1-3.573-4.754q.242-.838.529-1.656a3.719,3.719,0,0,1,7.019,2.464c-.147.415-.28.835-.4,1.26A3.721,3.721,0,0,1,7956.39,1648.531Zm53.878-6.493a3.715,3.715,0,0,1-3.22-1.854q-.335-.579-.7-1.142a3.719,3.719,0,1,1,6.238-4.051q.467.719.9,1.462a3.72,3.72,0,0,1-3.215,5.585Zm-44.928-7.5a3.719,3.719,0,0,1-2.447-6.52q.647-.564,1.326-1.1a3.719,3.719,0,0,1,4.6,5.848q-.525.414-1.03.853A3.71,3.71,0,0,1,7965.34,1634.537Zm32.912-3.968a3.7,3.7,0,0,1-1.707-.417q-.594-.307-1.206-.585a3.719,3.719,0,1,1,3.071-6.774q.786.357,1.554.753a3.72,3.72,0,0,1-1.712,7.023Zm-17.832-2.976a3.72,3.72,0,0,1-.534-7.4c.565-.082,1.136-.15,1.709-.2a3.719,3.719,0,0,1,.7,7.405q-.67.063-1.331.159A3.7,3.7,0,0,1,7980.42,1627.593Z"/><path class="a" d="M7980.722,1777.943c-.042,0-.083,0-.124,0-.505-.015-1.012-.035-1.516-.058a3.719,3.719,0,0,1,.331-7.43q.713.031,1.426.055a3.719,3.719,0,0,1-.117,7.436Zm14.708-.4a3.719,3.719,0,0,1-.319-7.423c.475-.042.948-.086,1.422-.134a3.719,3.719,0,0,1,.738,7.4q-.754.075-1.512.142C7995.648,1777.535,7995.539,1777.539,7995.43,1777.539Zm-30.816-1.191a3.666,3.666,0,0,1-.614-.051q-.754-.125-1.5-.26a3.719,3.719,0,1,1,1.322-7.319c.464.083.932.164,1.4.242a3.719,3.719,0,0,1-.606,7.388Zm46.816-1.3a3.719,3.719,0,0,1-.816-7.347q.7-.158,1.4-.323a3.719,3.719,0,0,1,1.717,7.237q-.737.174-1.474.341A3.758,3.758,0,0,1,8011.43,1775.053Zm-62.575-2.436a3.725,3.725,0,0,1-1.1-.167c-.486-.15-.973-.3-1.455-.46a3.719,3.719,0,1,1,2.286-7.077c.453.145.908.29,1.366.432a3.719,3.719,0,0,1-1.1,7.272Zm78.1-2.171a3.72,3.72,0,0,1-1.3-7.205q.674-.25,1.34-.507a3.719,3.719,0,0,1,2.676,6.94q-.706.272-1.418.537A3.733,3.733,0,0,1,8026.954,1770.446Zm-93.229-3.648a3.707,3.707,0,0,1-1.563-.346q-.693-.322-1.38-.652a3.718,3.718,0,1,1,3.219-6.7q.644.308,1.293.609a3.719,3.719,0,0,1-1.569,7.093Zm108-3a3.719,3.719,0,0,1-1.753-7q.627-.335,1.248-.677a3.719,3.719,0,0,1,3.588,6.515q-.665.366-1.335.723A3.7,3.7,0,0,1,8041.722,1763.8Zm-122.2-4.789a3.711,3.711,0,0,1-2-.587q-.636-.41-1.27-.824a3.719,3.719,0,1,1,4.077-6.22c.4.262.8.522,1.2.78a3.719,3.719,0,0,1-2.009,6.851Zm135.939-3.768a3.718,3.718,0,0,1-2.174-6.738q.576-.415,1.146-.837a3.719,3.719,0,1,1,4.425,5.979c-.408.3-.817.6-1.23.9A3.7,3.7,0,0,1,8055.458,1755.239Zm-148.974-5.843a3.7,3.7,0,0,1-2.4-.881l-1.148-.98a3.719,3.719,0,1,1,4.861-5.631l1.092.935a3.718,3.718,0,0,1-2.4,6.557Zm161.451-4.466a3.719,3.719,0,0,1-2.551-6.425q.519-.489,1.03-.985a3.719,3.719,0,0,1,5.171,5.346q-.546.53-1.1,1.051A3.707,3.707,0,0,1,8067.935,1744.93Zm-173.093-6.786a3.711,3.711,0,0,1-2.757-1.221q-.51-.562-1.011-1.129a3.719,3.719,0,0,1,5.57-4.931q.472.535.953,1.065a3.719,3.719,0,0,1-2.755,6.216Zm184.1-5.088a3.719,3.719,0,0,1-2.885-6.063q.448-.555.892-1.114a3.719,3.719,0,0,1,5.834,4.614q-.473.6-.95,1.187A3.713,3.713,0,0,1,8078.942,1733.056Zm-194.145-7.6a3.713,3.713,0,0,1-3.068-1.613q-.428-.623-.849-1.249a3.719,3.719,0,0,1,6.174-4.146q.4.594.8,1.183a3.719,3.719,0,0,1-3.062,5.825Zm203.481-5.628a3.719,3.719,0,0,1-3.172-5.654q.371-.612.739-1.229a3.718,3.718,0,1,1,6.4,3.8q-.386.654-.783,1.3A3.717,3.717,0,0,1,8088.278,1719.824Zm-211.75-8.282a3.716,3.716,0,0,1-3.321-2.041q-.341-.671-.674-1.346a3.719,3.719,0,1,1,6.671-3.291l.639,1.28a3.719,3.719,0,0,1-3.315,5.4Zm219.243-6.083a3.72,3.72,0,0,1-3.4-5.223c.193-.434.38-.872.566-1.31a3.72,3.72,0,0,1,6.845,2.913q-.3.7-.607,1.4A3.719,3.719,0,0,1,8095.771,1705.459Zm-225.581-8.812a3.722,3.722,0,0,1-3.513-2.5q-.248-.719-.49-1.439a3.719,3.719,0,0,1,7.055-2.355c.151.451.3.9.46,1.349a3.72,3.72,0,0,1-3.512,4.942Zm231.087-6.43a3.72,3.72,0,0,1-3.576-4.744q.2-.684.383-1.372a3.72,3.72,0,0,1,7.177,1.957q-.2.734-.41,1.465A3.722,3.722,0,0,1,8101.277,1690.217Zm-235.376-9.185a3.718,3.718,0,0,1-3.64-2.982l-.292-1.48a3.719,3.719,0,1,1,7.3-1.406l.278,1.41a3.723,3.723,0,0,1-3.65,4.458Zm238.78-6.643a3.728,3.728,0,0,1-3.686-4.249l.2-1.425a3.719,3.719,0,0,1,7.372.989l-.208,1.494A3.72,3.72,0,0,1,8104.681,1674.389Zm-240.933-9.4a3.718,3.718,0,0,1-3.705-3.466q-.053-.762-.093-1.525a3.718,3.718,0,1,1,7.426-.4q.039.708.087,1.415a3.719,3.719,0,0,1-3.458,3.964C7863.92,1664.982,7863.834,1664.985,7863.748,1664.985Zm242.191-6.739h-.045a3.718,3.718,0,0,1-3.675-3.763q.007-.712.008-1.429v-.242a3.719,3.719,0,1,1,7.438,0v.242q0,.759-.009,1.518A3.718,3.718,0,0,1,8105.939,1658.246Zm-242.2-9.453c-.083,0-.164,0-.247-.007a3.72,3.72,0,0,1-3.469-3.953q.05-.758.109-1.514a3.719,3.719,0,1,1,7.415.572c-.037.476-.07.95-.1,1.426A3.722,3.722,0,0,1,7863.741,1648.793Zm241.292-6.954a3.719,3.719,0,0,1-3.686-3.258l-.184-1.427a3.719,3.719,0,0,1,7.371-.992l.193,1.5a3.719,3.719,0,0,1-3.228,4.151A3.9,3.9,0,0,1,8105.033,1641.839Zm-239.169-9.1a3.721,3.721,0,0,1-3.65-4.456l.307-1.477a3.718,3.718,0,1,1,7.275,1.542l-.292,1.408A3.718,3.718,0,0,1,7865.864,1632.743Zm236.123-6.805a3.719,3.719,0,0,1-3.6-2.786q-.179-.686-.366-1.366a3.718,3.718,0,1,1,7.167-1.982q.206.738.4,1.48a3.721,3.721,0,0,1-3.6,4.654Zm-231.873-8.826a3.72,3.72,0,0,1-3.514-4.935q.249-.723.509-1.441a3.718,3.718,0,1,1,7,2.522q-.242.672-.477,1.349A3.718,3.718,0,0,1,7870.114,1617.112Zm226.725-6.524a3.718,3.718,0,0,1-3.437-2.3c-.183-.44-.366-.879-.553-1.316a3.719,3.719,0,1,1,6.842-2.919q.294.693.582,1.39a3.72,3.72,0,0,1-3.434,5.142Zm-220.408-8.4a3.72,3.72,0,0,1-3.315-5.4l.685-1.34a3.719,3.719,0,1,1,6.61,3.41l-.66,1.288A3.715,3.715,0,0,1,7876.431,1602.189Zm213.255-6.109a3.719,3.719,0,0,1-3.223-1.86q-.354-.612-.718-1.22a3.719,3.719,0,0,1,6.386-3.815q.39.654.773,1.315a3.721,3.721,0,0,1-3.218,5.58Zm-205-7.83a3.719,3.719,0,0,1-3.061-5.828q.429-.624.866-1.243a3.718,3.718,0,1,1,6.081,4.281q-.412.586-.82,1.18A3.716,3.716,0,0,1,7884.685,1588.25Zm195.97-5.6a3.712,3.712,0,0,1-2.948-1.447c-.289-.374-.579-.747-.874-1.117a3.719,3.719,0,0,1,5.825-4.626c.315.4.629.8.938,1.2a3.718,3.718,0,0,1-2.941,5.991Zm-185.936-7.112a3.72,3.72,0,0,1-2.758-6.213q.51-.565,1.027-1.123a3.72,3.72,0,0,1,5.454,5.059q-.486.522-.963,1.052A3.711,3.711,0,0,1,7894.719,1575.536Zm175.2-5.005a3.709,3.709,0,0,1-2.613-1.072q-.51-.5-1.024-1a3.719,3.719,0,0,1,5.165-5.352c.364.35.725.7,1.086,1.059a3.719,3.719,0,0,1-2.614,6.365Zm-163.568-6.264a3.718,3.718,0,0,1-2.405-6.557q.578-.489,1.162-.973a3.719,3.719,0,1,1,4.739,5.732q-.549.454-1.1.917A3.7,3.7,0,0,1,7906.351,1564.267Zm151.313-4.327a3.7,3.7,0,0,1-2.238-.752q-.57-.429-1.142-.851a3.718,3.718,0,1,1,4.4-5.995c.412.3.818.6,1.224.912a3.719,3.719,0,0,1-2.245,6.686Zm-138.3-5.3a3.72,3.72,0,0,1-2.009-6.851q.639-.409,1.286-.813a3.719,3.719,0,1,1,3.928,6.317q-.6.375-1.2.759A3.706,3.706,0,0,1,7919.365,1554.643Zm124.75-3.575a3.7,3.7,0,0,1-1.82-.479q-.625-.351-1.254-.695a3.719,3.719,0,1,1,3.571-6.525q.667.365,1.329.738a3.72,3.72,0,0,1-1.826,6.961Zm-110.576-4.23a3.72,3.72,0,0,1-1.577-7.089q.688-.32,1.378-.633a3.719,3.719,0,0,1,3.06,6.78q-.648.292-1.289.592A3.7,3.7,0,0,1,7933.539,1546.838Zm95.96-2.757a3.7,3.7,0,0,1-1.37-.263q-.666-.264-1.336-.521a3.719,3.719,0,0,1,2.661-6.946q.713.273,1.418.554a3.719,3.719,0,0,1-1.373,7.176ZM7948.631,1541a3.72,3.72,0,0,1-1.1-7.271q.729-.225,1.457-.443a3.719,3.719,0,0,1,2.118,7.13c-.457.136-.91.274-1.364.416A3.738,3.738,0,0,1,7948.631,1541Zm65.445-1.879a3.724,3.724,0,0,1-.905-.112c-.461-.114-.921-.226-1.383-.334a3.72,3.72,0,1,1,1.705-7.241c.494.117.99.236,1.482.36a3.719,3.719,0,0,1-.9,7.327Zm-49.7-1.883a3.719,3.719,0,0,1-.613-7.387q.75-.127,1.5-.244a3.719,3.719,0,1,1,1.145,7.35c-.47.073-.941.15-1.409.228A3.764,3.764,0,0,1,7964.377,1537.237Zm33.761-.963a3.833,3.833,0,0,1-.412-.023q-.71-.078-1.418-.147a3.719,3.719,0,1,1,.723-7.4q.76.073,1.511.157a3.719,3.719,0,0,1-.4,7.416Zm-17.652-.663a3.719,3.719,0,0,1-.123-7.436q.757-.026,1.514-.042a3.67,3.67,0,0,1,3.8,3.635,3.718,3.718,0,0,1-3.635,3.8q-.714.015-1.426.04Z"/><path class="a" d="M7991.475,1755.6a3.719,3.719,0,0,1-.246-7.429c.477-.033.953-.068,1.43-.108a3.72,3.72,0,0,1,.61,7.414q-.768.063-1.54.114C7991.645,1755.6,7991.559,1755.6,7991.475,1755.6Zm-14.86-.1c-.1,0-.2,0-.3-.012-.515-.041-1.028-.087-1.543-.137a3.719,3.719,0,0,1,.718-7.4q.711.069,1.424.127a3.718,3.718,0,0,1-.295,7.425Zm31.031-2.343a3.719,3.719,0,0,1-.853-7.339q.7-.165,1.392-.34a3.718,3.718,0,1,1,1.819,7.211c-.5.127-1,.25-1.5.368A3.788,3.788,0,0,1,8007.646,1753.158Zm-47.166-.317a3.7,3.7,0,0,1-.91-.113q-.751-.189-1.495-.388a3.719,3.719,0,1,1,1.921-7.185c.46.123.924.243,1.387.36a3.719,3.719,0,0,1-.9,7.326Zm62.714-4.766a3.72,3.72,0,0,1-1.438-7.15q.654-.273,1.3-.56a3.72,3.72,0,0,1,3,6.808q-.708.312-1.425.612A3.7,3.7,0,0,1,8023.194,1748.075Zm-78.2-.532a3.7,3.7,0,0,1-1.49-.313q-.711-.312-1.415-.633a3.718,3.718,0,1,1,3.088-6.765c.434.2.872.393,1.31.585a3.719,3.719,0,0,1-1.493,7.126Zm92.683-7.045a3.719,3.719,0,0,1-2-6.856c.4-.257.809-.517,1.21-.78a3.719,3.719,0,0,1,4.073,6.223q-.641.419-1.286.829A3.7,3.7,0,0,1,8037.674,1740.5Zm-107.076-.743a3.7,3.7,0,0,1-2.033-.607q-.647-.423-1.29-.856a3.72,3.72,0,1,1,4.167-6.163q.594.4,1.194.794a3.719,3.719,0,0,1-2.038,6.832Zm120.115-9.117a3.719,3.719,0,0,1-2.483-6.489c.356-.318.711-.639,1.061-.964a3.719,3.719,0,1,1,5.043,5.468q-.568.523-1.141,1.037A3.711,3.711,0,0,1,8050.713,1730.638Zm-133.026-.929a3.7,3.7,0,0,1-2.517-.983q-.567-.52-1.127-1.052a3.719,3.719,0,1,1,5.116-5.4q.52.492,1.049.978a3.719,3.719,0,0,1-2.521,6.455Zm144.277-10.936a3.718,3.718,0,0,1-2.9-6.047q.449-.559.89-1.126a3.719,3.719,0,1,1,5.866,4.572q-.473.609-.957,1.211A3.715,3.715,0,0,1,8061.964,1718.773ZM7906.6,1717.69a3.715,3.715,0,0,1-2.935-1.43q-.474-.608-.94-1.222a3.719,3.719,0,1,1,5.93-4.491q.431.571.874,1.136a3.719,3.719,0,0,1-2.929,6.007Zm164.524-12.469a3.721,3.721,0,0,1-3.233-5.552q.349-.619.688-1.244a3.719,3.719,0,1,1,6.54,3.541c-.248.458-.5.913-.755,1.368A3.72,3.72,0,0,1,8071.126,1705.221Zm-173.492-1.2a3.716,3.716,0,0,1-3.268-1.939q-.371-.68-.728-1.366a3.718,3.718,0,1,1,6.589-3.447c.221.42.443.837.67,1.252a3.72,3.72,0,0,1-3.263,5.5Zm180.3-13.685a3.72,3.72,0,0,1-3.5-4.98q.242-.674.475-1.352a3.719,3.719,0,1,1,7.037,2.407c-.167.49-.34.979-.516,1.466A3.717,3.717,0,0,1,8077.935,1690.337Zm-186.9-1.277a3.721,3.721,0,0,1-3.517-2.51q-.249-.726-.491-1.458a3.719,3.719,0,0,1,7.065-2.326q.225.684.46,1.364a3.724,3.724,0,0,1-3.517,4.93Zm191.144-14.522a3.641,3.641,0,0,1-.67-.061,3.718,3.718,0,0,1-2.994-4.324q.127-.7.245-1.409a3.718,3.718,0,1,1,7.336,1.217q-.126.763-.263,1.523A3.719,3.719,0,0,1,8082.182,1674.538Zm-195.17-1.328a3.72,3.72,0,0,1-3.664-3.109q-.126-.756-.242-1.515a3.718,3.718,0,0,1,7.35-1.132q.112.716.228,1.426a3.719,3.719,0,0,1-3.057,4.279A3.788,3.788,0,0,1,7887.012,1673.21Zm196.744-14.948h-.057a3.72,3.72,0,0,1-3.663-3.773q.01-.716.011-1.434v-.274a3.719,3.719,0,1,1,7.438,0v.274q0,.773-.011,1.543A3.721,3.721,0,0,1,8083.756,1658.262Zm-198.1-1.42a3.661,3.661,0,0,1-3.719-3.65v-.138q0-.7.009-1.4a3.719,3.719,0,0,1,3.717-3.671h.05a3.721,3.721,0,0,1,3.671,3.767q-.01.651-.009,1.3A3.778,3.778,0,0,1,7885.658,1656.842Zm196.962-15.169a3.718,3.718,0,0,1-3.671-3.154c-.072-.473-.148-.943-.228-1.414a3.719,3.719,0,0,1,7.333-1.242q.129.76.246,1.525a3.718,3.718,0,0,1-3.11,4.241A3.819,3.819,0,0,1,8082.62,1641.673Zm-195.646-1.061a3.765,3.765,0,0,1-.6-.049,3.721,3.721,0,0,1-3.072-4.269c.083-.509.171-1.016.261-1.523a3.719,3.719,0,1,1,7.322,1.308q-.126.7-.241,1.411A3.721,3.721,0,0,1,7886.974,1640.612Zm191.844-14.843a3.719,3.719,0,0,1-3.532-2.557q-.223-.68-.457-1.353a3.719,3.719,0,1,1,7.026-2.441c.17.488.334.977.5,1.468a3.723,3.723,0,0,1-3.533,4.883Zm-187.869-1.02a3.72,3.72,0,0,1-3.518-4.923q.25-.735.512-1.465a3.719,3.719,0,1,1,7,2.517c-.162.451-.319.9-.475,1.355A3.719,3.719,0,0,1,7890.949,1624.749Zm181.482-14.036a3.721,3.721,0,0,1-3.3-1.993q-.328-.632-.671-1.254a3.719,3.719,0,0,1,6.531-3.561q.368.678.73,1.362a3.722,3.722,0,0,1-3.292,5.446Zm-174.926-.959a3.723,3.723,0,0,1-3.269-5.489q.369-.681.746-1.354a3.718,3.718,0,1,1,6.49,3.631c-.234.418-.464.839-.693,1.261A3.717,3.717,0,0,1,7897.5,1609.754Zm166.146-12.828a3.713,3.713,0,0,1-2.962-1.466q-.437-.573-.878-1.139a3.719,3.719,0,0,1,5.858-4.582q.472.6.938,1.216a3.72,3.72,0,0,1-2.956,5.971Zm-157.206-.876a3.719,3.719,0,0,1-2.933-6q.472-.608.953-1.208a3.719,3.719,0,1,1,5.811,4.644q-.448.561-.892,1.13A3.714,3.714,0,0,1,7906.445,1596.05Zm146.28-11.292a3.709,3.709,0,0,1-2.555-1.016q-.519-.492-1.048-.975a3.719,3.719,0,1,1,5.027-5.483q.57.523,1.131,1.053a3.719,3.719,0,0,1-2.555,6.421ZM7917.512,1584a3.72,3.72,0,0,1-2.524-6.453c.378-.348.756-.693,1.138-1.035a3.718,3.718,0,0,1,4.968,5.534q-.535.482-1.062.968A3.711,3.711,0,0,1,7917.512,1584Zm122.438-9.461a3.708,3.708,0,0,1-2.073-.634c-.4-.266-.793-.531-1.194-.791a3.719,3.719,0,1,1,4.053-6.236q.65.423,1.293.855a3.72,3.72,0,0,1-2.079,6.806Zm-109.556-.611a3.719,3.719,0,0,1-2.042-6.829q.637-.42,1.282-.831a3.719,3.719,0,0,1,4.007,6.267q-.606.387-1.21.783A3.708,3.708,0,0,1,7930.394,1573.93Zm95.271-7.372a3.7,3.7,0,0,1-1.541-.337q-.65-.3-1.306-.582a3.719,3.719,0,0,1,2.975-6.817q.713.312,1.42.634a3.719,3.719,0,0,1-1.548,7.1Zm-80.92-.444a3.72,3.72,0,0,1-1.5-7.121c.471-.208.943-.413,1.42-.614a3.719,3.719,0,1,1,2.891,6.853q-.653.276-1.3.563A3.715,3.715,0,0,1,7944.745,1566.114Zm65.515-5.068a3.722,3.722,0,0,1-.964-.127c-.459-.123-.919-.242-1.383-.358a3.719,3.719,0,1,1,1.8-7.215c.5.125,1,.255,1.5.388a3.719,3.719,0,0,1-.957,7.312Zm-50.066-.269a3.72,3.72,0,0,1-.913-7.325q.75-.189,1.5-.368a3.719,3.719,0,0,1,1.723,7.235q-.7.167-1.391.343A3.726,3.726,0,0,1,7960.194,1560.777Zm33.971-2.613c-.119,0-.238-.006-.359-.017q-.71-.069-1.422-.124a3.719,3.719,0,0,1,.587-7.415q.772.062,1.544.135a3.719,3.719,0,0,1-.35,7.421Zm-17.846-.095a3.719,3.719,0,0,1-.307-7.425q.769-.063,1.54-.117a3.719,3.719,0,1,1,.511,7.42c-.476.033-.954.069-1.429.109C7976.528,1558.065,7976.423,1558.069,7976.319,1558.069Z"/><path class="a" d="M7984.765,1710.159h-.053q-.79,0-1.577-.022a3.719,3.719,0,1,1,.209-7.435c.454.013.911.019,1.368.019a3.741,3.741,0,0,1,3.745,3.719A3.7,3.7,0,0,1,7984.765,1710.159Zm15.029-2.161a3.719,3.719,0,0,1-1.044-7.288q.68-.2,1.351-.418a3.719,3.719,0,0,1,2.3,7.073q-.776.252-1.56.482A3.7,3.7,0,0,1,7999.794,1708Zm-31.521-.418a3.727,3.727,0,0,1-1.146-.181q-.777-.252-1.547-.526a3.719,3.719,0,1,1,2.487-7.009c.449.159.9.312,1.35.458a3.719,3.719,0,0,1-1.144,7.258Zm46.6-6.751a3.719,3.719,0,0,1-2.107-6.786q.585-.4,1.155-.816a3.719,3.719,0,1,1,4.382,6.011q-.658.48-1.33.94A3.707,3.707,0,0,1,8014.875,1700.829Zm-61.49-.822a3.7,3.7,0,0,1-2.182-.709q-.66-.478-1.306-.977a3.719,3.719,0,1,1,4.538-5.893q.564.435,1.137.851a3.719,3.719,0,0,1-2.187,6.728ZM8027,1689.361a3.719,3.719,0,0,1-2.942-5.99q.434-.564.853-1.138a3.719,3.719,0,0,1,6.014,4.377q-.48.657-.978,1.3A3.712,3.712,0,0,1,8027,1689.361Zm-85.431-1.145a3.713,3.713,0,0,1-3.006-1.525q-.483-.662-.945-1.336a3.719,3.719,0,0,1,6.139-4.2c.264.388.536.77.812,1.149a3.719,3.719,0,0,1-3,5.912Zm93.444-13.506a3.721,3.721,0,0,1-3.5-4.972c.16-.444.311-.89.456-1.339a3.719,3.719,0,0,1,7.078,2.288c-.168.522-.346,1.04-.529,1.555A3.721,3.721,0,0,1,8035.011,1674.71Zm-101.058-1.348a3.718,3.718,0,0,1-3.534-2.57q-.253-.771-.482-1.552a3.718,3.718,0,1,1,7.133-2.1c.135.454.275.907.421,1.356a3.721,3.721,0,0,1-3.538,4.871Zm104.124-15.065h-.107a3.72,3.72,0,0,1-3.612-3.825q.021-.7.021-1.417v-.207a3.719,3.719,0,1,1,7.438,0v.207q0,.819-.024,1.631A3.719,3.719,0,0,1,8038.077,1658.3Zm-106.75-1.472a3.675,3.675,0,0,1-3.719-3.667v-.1q0-.763.02-1.523a3.763,3.763,0,0,1,3.821-3.615,3.718,3.718,0,0,1,3.614,3.821c-.011.438-.017.876-.017,1.317A3.764,3.764,0,0,1,7931.327,1656.825Zm104.564-15.282a3.721,3.721,0,0,1-3.564-2.66q-.2-.681-.422-1.353a3.719,3.719,0,0,1,7.066-2.323c.17.515.331,1.034.486,1.557a3.722,3.722,0,0,1-3.566,4.779Zm-102-1.16a3.722,3.722,0,0,1-3.54-4.862q.25-.779.523-1.549a3.719,3.719,0,0,1,7.011,2.486c-.159.446-.31.9-.456,1.348A3.722,3.722,0,0,1,7933.892,1640.383Zm94.792-13.9a3.713,3.713,0,0,1-3.061-1.6c-.27-.391-.544-.778-.825-1.16a3.719,3.719,0,0,1,6-4.393q.478.654.938,1.32a3.718,3.718,0,0,1-3.055,5.835Zm-87.239-1a3.719,3.719,0,0,1-3.01-5.9q.478-.664.98-1.315a3.719,3.719,0,0,1,5.89,4.543c-.288.372-.568.749-.844,1.13A3.713,3.713,0,0,1,7941.445,1625.491Zm75.728-11.1a3.7,3.7,0,0,1-2.268-.774q-.557-.429-1.128-.842a3.718,3.718,0,1,1,4.352-6.03c.444.32.885.647,1.317.981a3.719,3.719,0,0,1-2.273,6.665Zm-63.942-.735a3.718,3.718,0,0,1-2.2-6.721q.65-.477,1.315-.936a3.719,3.719,0,0,1,4.239,6.113q-.588.408-1.167.828A3.694,3.694,0,0,1,7953.231,1613.656Zm49.273-7.231a3.706,3.706,0,0,1-1.24-.213c-.447-.158-.894-.309-1.346-.454a3.719,3.719,0,1,1,2.272-7.082q.781.25,1.553.524a3.719,3.719,0,0,1-1.239,7.225Zm-34.43-.393a3.72,3.72,0,0,1-1.154-7.255q.771-.252,1.549-.483a3.719,3.719,0,0,1,2.119,7.13q-.683.2-1.359.423A3.716,3.716,0,0,1,7968.074,1606.032Zm18.008-2.627h-.1c-.424-.011-.848-.016-1.274-.016h-.155a3.719,3.719,0,1,1,0-7.438h.1c.544-.019,1.029.005,1.516.018a3.719,3.719,0,0,1-.093,7.436Z"/><path class="a" d="M7984.8,1824.251l-1.522-.006a3.719,3.719,0,0,1,.029-7.438h.029l1.377.006a3.756,3.756,0,0,1,3.763,3.719A3.682,3.682,0,0,1,7984.8,1824.251Zm14.921-.664a3.719,3.719,0,0,1-.321-7.424c.484-.043.968-.087,1.45-.135a3.719,3.719,0,1,1,.726,7.4c-.508.05-1.015.1-1.525.142C7999.94,1823.582,7999.829,1823.587,7999.72,1823.587Zm-31.327-.122c-.12,0-.24-.006-.362-.017l-1.521-.153a3.72,3.72,0,0,1,.781-7.4l1.455.148a3.719,3.719,0,0,1-.353,7.42Zm47.6-2.132a3.719,3.719,0,0,1-.687-7.373l1.438-.279a3.719,3.719,0,0,1,1.444,7.3l-1.5.29A3.757,3.757,0,0,1,8015.992,1821.333Zm-63.855-.248a3.74,3.74,0,0,1-.725-.071l-1.493-.3a3.719,3.719,0,1,1,1.5-7.285l1.435.29a3.719,3.719,0,0,1-.716,7.368Zm79.833-3.595a3.72,3.72,0,0,1-1.046-7.289l1.4-.417a3.719,3.719,0,1,1,2.159,7.118l-1.464.436A3.713,3.713,0,0,1,8031.97,1817.49Zm-95.78-.376a3.716,3.716,0,0,1-1.075-.159q-.738-.222-1.473-.453a3.718,3.718,0,1,1,2.223-7.1q.7.218,1.4.429a3.719,3.719,0,0,1-1.073,7.28Zm111.3-5.027a3.72,3.72,0,0,1-1.4-7.168q.673-.271,1.343-.549a3.719,3.719,0,1,1,2.856,6.867q-.7.292-1.412.579A3.725,3.725,0,0,1,8047.491,1812.087Zm-126.791-.5a3.7,3.7,0,0,1-1.419-.284l-1.415-.592a3.719,3.719,0,1,1,2.9-6.847l1.352.567a3.719,3.719,0,0,1-1.423,7.156Zm141.694-6.4a3.72,3.72,0,0,1-1.731-7.013l1.287-.682a3.719,3.719,0,1,1,3.515,6.555l-1.345.713A3.7,3.7,0,0,1,8062.394,1805.186Zm-156.558-.633a3.7,3.7,0,0,1-1.75-.44l-1.344-.726a3.719,3.719,0,1,1,3.556-6.532l1.294.7a3.719,3.719,0,0,1-1.756,7Zm170.712-7.7a3.72,3.72,0,0,1-2.041-6.831c.405-.266.809-.532,1.21-.8a3.719,3.719,0,1,1,4.143,6.177c-.424.284-.848.566-1.277.847A3.7,3.7,0,0,1,8076.548,1796.852Zm-184.807-.754a3.7,3.7,0,0,1-2.063-.627q-.639-.426-1.27-.857a3.719,3.719,0,0,1,4.19-6.145l1.211.816a3.72,3.72,0,0,1-2.068,6.813Zm198.08-8.928a3.719,3.719,0,0,1-2.34-6.611l1.136-.925a3.718,3.718,0,1,1,4.718,5.749l-1.179.961A3.7,3.7,0,0,1,8089.821,1787.17Zm-211.28-.866a3.7,3.7,0,0,1-2.357-.844l-1.174-.972a3.719,3.719,0,1,1,4.762-5.714l1.13.936a3.719,3.719,0,0,1-2.361,6.594Zm223.545-10.065a3.719,3.719,0,0,1-2.6-6.373q.518-.51,1.033-1.026a3.719,3.719,0,0,1,5.264,5.254q-.54.541-1.088,1.08A3.709,3.709,0,0,1,8102.086,1776.239Zm-235.724-.969a3.71,3.71,0,0,1-2.627-1.087l-1.078-1.085a3.719,3.719,0,1,1,5.3-5.215l1.028,1.035a3.719,3.719,0,0,1-2.626,6.352Zm246.871-11.107a3.72,3.72,0,0,1-2.859-6.1l.942-1.137a3.719,3.719,0,0,1,5.743,4.726l-.964,1.165A3.713,3.713,0,0,1,8113.233,1764.163Zm-257.916-1.059a3.709,3.709,0,0,1-2.871-1.354l-.964-1.18a3.72,3.72,0,0,1,5.779-4.684l.924,1.134a3.719,3.719,0,0,1-2.868,6.084Zm267.829-12.048a3.719,3.719,0,0,1-3.066-5.819q.411-.6.816-1.208a3.719,3.719,0,0,1,6.183,4.136q-.428.639-.86,1.272A3.717,3.717,0,0,1,8123.146,1751.056Zm-277.635-1.134a3.714,3.714,0,0,1-3.088-1.645q-.427-.636-.847-1.275a3.718,3.718,0,1,1,6.214-4.085q.4.608.8,1.21a3.72,3.72,0,0,1-3.083,5.8Zm286.224-12.881a3.719,3.719,0,0,1-3.259-5.507c.234-.426.467-.854.695-1.283a3.719,3.719,0,0,1,6.56,3.507c-.243.452-.486.9-.732,1.351A3.72,3.72,0,0,1,8131.735,1737.041Zm-294.692-1.2a3.715,3.715,0,0,1-3.277-1.957q-.362-.674-.718-1.351a3.719,3.719,0,0,1,6.587-3.456c.225.429.45.856.68,1.282a3.72,3.72,0,0,1-3.272,5.482Zm301.865-13.6a3.72,3.72,0,0,1-3.422-5.169l.569-1.359a3.718,3.718,0,1,1,6.868,2.851l-.589,1.407A3.72,3.72,0,0,1,8138.908,1722.248ZM7830,1721.01a3.724,3.724,0,0,1-3.436-2.292c-.194-.468-.388-.939-.578-1.41a3.718,3.718,0,1,1,6.894-2.789l.552,1.343a3.723,3.723,0,0,1-3.432,5.148Zm314.589-14.2a3.719,3.719,0,0,1-3.549-4.834l.43-1.4a3.719,3.719,0,0,1,7.118,2.158c-.15.491-.3.982-.453,1.47A3.72,3.72,0,0,1,8144.587,1706.815Zm-320.139-1.265a3.722,3.722,0,0,1-3.556-2.635l-.438-1.467a3.719,3.719,0,1,1,7.135-2.1l.418,1.4a3.722,3.722,0,0,1-3.559,4.8Zm324.267-14.645a3.66,3.66,0,0,1-.752-.078,3.718,3.718,0,0,1-2.9-4.39l.292-1.443a3.719,3.719,0,0,1,7.295,1.452l-.3,1.487A3.721,3.721,0,0,1,8148.715,1690.905Zm-328.266-1.293a3.721,3.721,0,0,1-3.643-2.992l-.291-1.5a3.718,3.718,0,0,1,7.307-1.386l.279,1.434a3.72,3.72,0,0,1-3.652,4.446Zm330.8-14.941a3.784,3.784,0,0,1-.4-.021,3.719,3.719,0,0,1-3.308-4.089l.148-1.454a3.719,3.719,0,0,1,7.4.715l-.154,1.52A3.72,3.72,0,0,1,8151.249,1674.671Zm-333.205-1.311a3.717,3.717,0,0,1-3.7-3.35l-.146-1.522a3.72,3.72,0,0,1,7.409-.671l.137,1.455a3.717,3.717,0,0,1-3.331,4.069A3.6,3.6,0,0,1,7818.044,1673.36Zm334.139-15.092h-.032a3.72,3.72,0,0,1-3.687-3.752l.007-1.811a3.719,3.719,0,1,1,7.438,0l-.007,1.877A3.719,3.719,0,0,1,8152.183,1658.268Zm-334.947-1.32a3.719,3.719,0,0,1-3.719-3.719l.006-1.531a3.719,3.719,0,0,1,3.717-3.682h.038a3.718,3.718,0,0,1,3.682,3.756l0,1.457A3.719,3.719,0,0,1,7817.236,1656.948ZM8151.5,1641.5a3.72,3.72,0,0,1-3.7-3.373l-.14-1.466a3.718,3.718,0,1,1,7.4-.738l.145,1.511a3.718,3.718,0,0,1-3.355,4.049C8151.733,1641.5,8151.616,1641.5,8151.5,1641.5Zm-333.483-.966c-.119,0-.241-.006-.361-.017a3.717,3.717,0,0,1-3.344-4.059l.152-1.521a3.719,3.719,0,0,1,7.4.782l-.146,1.454A3.719,3.719,0,0,1,7818.017,1640.537Zm331.2-15.306a3.722,3.722,0,0,1-3.648-3.015l-.283-1.444a3.719,3.719,0,0,1,7.295-1.454l.292,1.489a3.722,3.722,0,0,1-3.656,4.424Zm-328.831-.951a3.725,3.725,0,0,1-3.654-4.435l.3-1.5a3.72,3.72,0,0,1,7.287,1.5l-.29,1.433A3.72,3.72,0,0,1,7820.39,1624.28Zm324.964-15.017a3.722,3.722,0,0,1-3.567-2.668l-.419-1.4a3.719,3.719,0,1,1,7.115-2.168l.44,1.464a3.72,3.72,0,0,1-3.569,4.771Zm-321.006-.929a3.72,3.72,0,0,1-3.56-4.8l.447-1.459a3.719,3.719,0,0,1,7.1,2.2l-.433,1.411A3.721,3.721,0,0,1,7824.348,1608.334Zm315.581-14.581a3.719,3.719,0,0,1-3.445-2.316l-.557-1.351a3.72,3.72,0,0,1,6.869-2.856l.576,1.4a3.72,3.72,0,0,1-3.443,5.123Zm-310.061-.909a3.721,3.721,0,0,1-3.437-5.136l.591-1.415a3.719,3.719,0,0,1,6.852,2.9l-.566,1.353A3.719,3.719,0,0,1,7829.868,1592.844Zm303.138-13.98a3.72,3.72,0,0,1-3.295-1.989l-.683-1.284a3.719,3.719,0,0,1,6.549-3.525q.361.672.718,1.348a3.721,3.721,0,0,1-3.289,5.45Zm-296.117-.886a3.721,3.721,0,0,1-3.277-5.471q.362-.68.729-1.353a3.72,3.72,0,0,1,6.526,3.571q-.352.641-.694,1.284A3.715,3.715,0,0,1,7836.889,1577.978Zm287.761-13.255a3.714,3.714,0,0,1-3.109-1.675l-.806-1.211a3.719,3.719,0,1,1,6.171-4.151l.847,1.272a3.721,3.721,0,0,1-3.1,5.765Zm-279.312-.847a3.721,3.721,0,0,1-3.088-5.788l.85-1.261a3.719,3.719,0,1,1,6.156,4.175l-.824,1.222A3.716,3.716,0,0,1,7845.338,1563.876Zm269.612-12.412a3.711,3.711,0,0,1-2.889-1.374l-.928-1.137a3.718,3.718,0,1,1,5.738-4.73l.963,1.177a3.719,3.719,0,0,1-2.884,6.064Zm-259.823-.8a3.719,3.719,0,0,1-2.874-6.079l.971-1.171a3.718,3.718,0,1,1,5.715,4.759l-.936,1.132A3.712,3.712,0,0,1,7855.127,1550.669ZM8104,1539.213a3.708,3.708,0,0,1-2.651-1.111q-.51-.518-1.026-1.032a3.719,3.719,0,0,1,5.248-5.27q.545.541,1.08,1.087a3.719,3.719,0,0,1-2.651,6.326Zm-237.841-.731a3.719,3.719,0,0,1-2.632-6.346l1.078-1.072a3.719,3.719,0,0,1,5.226,5.292l-1.04,1.035A3.709,3.709,0,0,1,7866.154,1538.482Zm225.745-10.4a3.7,3.7,0,0,1-2.381-.863l-1.129-.933a3.719,3.719,0,0,1,4.718-5.75l1.176.972a3.719,3.719,0,0,1-2.384,6.574Zm-213.583-.655a3.719,3.719,0,0,1-2.369-6.586q.59-.489,1.188-.971a3.719,3.719,0,1,1,4.672,5.788c-.378.3-.751.61-1.124.918A3.708,3.708,0,0,1,7878.316,1527.43Zm200.46-9.241a3.7,3.7,0,0,1-2.092-.647q-.6-.409-1.207-.813a3.719,3.719,0,1,1,4.123-6.19c.427.284.853.571,1.274.858a3.719,3.719,0,0,1-2.1,6.792Zm-187.281-.571a3.719,3.719,0,0,1-2.074-6.808l1.267-.843a3.719,3.719,0,0,1,4.093,6.21l-1.217.81A3.711,3.711,0,0,1,7891.5,1517.618Zm173.253-7.994a3.7,3.7,0,0,1-1.777-.454l-1.293-.7a3.718,3.718,0,1,1,3.507-6.558l1.345.725a3.719,3.719,0,0,1-1.782,6.985Zm-159.18-.482a3.719,3.719,0,0,1-1.765-6.994l1.343-.715a3.718,3.718,0,1,1,3.466,6.58l-1.285.684A3.7,3.7,0,0,1,7905.568,1509.142Zm144.377-6.666a3.7,3.7,0,0,1-1.443-.293l-1.361-.569a3.718,3.718,0,1,1,2.841-6.872l1.408.587a3.72,3.72,0,0,1-1.445,7.147Zm-129.545-.384a3.72,3.72,0,0,1-1.43-7.154l1.4-.577a3.719,3.719,0,0,1,2.8,6.89l-1.348.554A3.69,3.69,0,0,1,7920.4,1502.092Zm114.1-5.269a3.7,3.7,0,0,1-1.1-.168l-1.408-.43a3.719,3.719,0,1,1,2.147-7.121l1.463.448a3.719,3.719,0,0,1-1.1,7.271Zm-98.653-.287a3.72,3.72,0,0,1-1.084-7.277c.49-.15.981-.3,1.47-.44a3.719,3.719,0,1,1,2.1,7.137q-.7.205-1.394.417A3.736,3.736,0,0,1,7935.852,1496.536Zm82.737-3.812a3.669,3.669,0,0,1-.754-.077l-1.429-.286a3.719,3.719,0,0,1,1.429-7.3q.753.148,1.5.3a3.719,3.719,0,0,1-.746,7.362Zm-66.8-.192a3.719,3.719,0,0,1-.723-7.367l1.5-.292a3.719,3.719,0,0,1,1.389,7.308l-1.434.278A3.662,3.662,0,0,1,7951.785,1492.532Zm50.57-2.319a3.782,3.782,0,0,1-.4-.02q-.723-.077-1.448-.145a3.719,3.719,0,0,1,.7-7.405c.51.049,1.018.1,1.527.153a3.719,3.719,0,0,1-.387,7.417Zm-34.318-.1a3.719,3.719,0,0,1-.359-7.42l1.515-.143a3.719,3.719,0,1,1,.671,7.408l-1.46.137C7968.281,1490.11,7968.159,1490.116,7968.037,1490.116Zm17.909-.816h-.027l-1.207,0h-.261a3.719,3.719,0,1,1,0-7.438h.231l1.29,0a3.719,3.719,0,0,1-.026,7.438Z"/><path class="a" d="M7987.448,1868.3a3.719,3.719,0,0,1-.048-7.438l1.467-.023a3.719,3.719,0,1,1,.142,7.436l-1.51.025Zm-14.9-.327c-.071,0-.142,0-.215-.006l-1.511-.091a3.719,3.719,0,1,1,.468-7.423l1.467.088a3.719,3.719,0,0,1-.209,7.432Zm31.277-.508a3.719,3.719,0,0,1-.327-7.423l1.457-.135a3.719,3.719,0,1,1,.717,7.4l-1.512.141C8004.046,1867.459,8003.933,1867.463,8003.823,1867.463Zm-47.6-1.049a3.714,3.714,0,0,1-.5-.034l-1.5-.208a3.719,3.719,0,1,1,1.043-7.364l1.451.2a3.719,3.719,0,0,1-.491,7.4Zm63.865-1.044a3.719,3.719,0,0,1-.614-7.387l1.448-.248a3.718,3.718,0,1,1,1.281,7.325l-1.492.258A3.773,3.773,0,0,1,8020.087,1865.37Zm-80.021-1.775a3.71,3.71,0,0,1-.786-.084l-1.484-.325a3.719,3.719,0,1,1,1.618-7.259l1.429.312a3.719,3.719,0,0,1-.777,7.356Zm96.076-1.576a3.719,3.719,0,0,1-.9-7.327l1.418-.36a3.719,3.719,0,1,1,1.86,7.2l-1.474.374A3.7,3.7,0,0,1,8036.142,1862.019Zm-111.967-2.492a3.72,3.72,0,0,1-1.066-.156l-1.451-.439a3.719,3.719,0,0,1,2.176-7.112l1.4.424a3.719,3.719,0,0,1-1.063,7.283Zm127.715-2.1a3.72,3.72,0,0,1-1.173-7.249l1.38-.467a3.719,3.719,0,1,1,2.412,7.037l-1.447.488A3.692,3.692,0,0,1,8051.89,1857.427Zm-143.26-3.2a3.711,3.711,0,0,1-1.334-.249c-.478-.184-.956-.369-1.431-.558a3.719,3.719,0,1,1,2.743-6.914q.678.269,1.358.53a3.72,3.72,0,0,1-1.336,7.191Zm158.581-2.6a3.72,3.72,0,0,1-1.457-7.142l1.348-.577a3.719,3.719,0,1,1,2.946,6.829l-1.383.593A3.7,3.7,0,0,1,8067.211,1851.626Zm-173.662-3.906a3.7,3.7,0,0,1-1.6-.364l-1.377-.665a3.718,3.718,0,1,1,3.265-6.682l1.317.635a3.72,3.72,0,0,1-1.606,7.076Zm188.484-3.069a3.719,3.719,0,0,1-1.718-7.019l1.295-.679a3.719,3.719,0,1,1,3.475,6.577l-1.339.7A3.721,3.721,0,0,1,8082.033,1844.651Zm-203.006-4.586a3.692,3.692,0,0,1-1.857-.5l-1.316-.767a3.719,3.719,0,1,1,3.768-6.412l1.267.738a3.719,3.719,0,0,1-1.862,6.94Zm217.246-3.521a3.719,3.719,0,0,1-1.964-6.879l1.236-.775a3.719,3.719,0,1,1,3.972,6.289l-1.286.805A3.7,3.7,0,0,1,8096.273,1836.544Zm-231.13-5.237a3.7,3.7,0,0,1-2.1-.652l-1.255-.867a3.719,3.719,0,1,1,4.256-6.1l1.2.833a3.719,3.719,0,0,1-2.1,6.786Zm244.705-3.952a3.719,3.719,0,0,1-2.2-6.716l1.174-.869a3.718,3.718,0,1,1,4.448,5.96l-1.218.9A3.71,3.71,0,0,1,8109.848,1827.355Zm-257.866-5.85a3.713,3.713,0,0,1-2.331-.822l-1.182-.962a3.718,3.718,0,1,1,4.712-5.753l1.136.921a3.719,3.719,0,0,1-2.335,6.616Zm270.694-4.361a3.719,3.719,0,0,1-2.431-6.535l1.11-.964a3.72,3.72,0,0,1,4.89,5.606l-1.141.989A3.7,3.7,0,0,1,8122.676,1817.144Zm-283.053-6.425a3.709,3.709,0,0,1-2.552-1.015l-1.1-1.04a3.719,3.719,0,1,1,5.134-5.383l1.068,1.014a3.719,3.719,0,0,1-2.553,6.424Zm295.056-4.748a3.72,3.72,0,0,1-2.632-6.346l1.027-1.039a3.719,3.719,0,1,1,5.308,5.21l-1.07,1.083A3.709,3.709,0,0,1,8134.679,1805.971Zm-306.547-6.955a3.7,3.7,0,0,1-2.752-1.218l-1.019-1.129a3.719,3.719,0,1,1,5.544-4.958l.977,1.084a3.718,3.718,0,0,1-2.75,6.221Zm317.659-5.112a3.72,3.72,0,0,1-2.824-6.138l.943-1.111a3.718,3.718,0,1,1,5.694,4.783l-.986,1.166A3.717,3.717,0,0,1,8145.791,1793.9Zm-328.211-7.44a3.715,3.715,0,0,1-2.939-1.436l-.931-1.208a3.719,3.719,0,0,1,5.916-4.509l.887,1.151a3.719,3.719,0,0,1-2.933,6Zm338.363-5.449a3.718,3.718,0,0,1-3-5.907l.862-1.193a3.718,3.718,0,1,1,6.04,4.339l-.887,1.231A3.714,3.714,0,0,1,8155.943,1781.015Zm-347.915-7.874a3.713,3.713,0,0,1-3.108-1.672l-.828-1.264a3.719,3.719,0,0,1,6.233-4.057l.8,1.226a3.719,3.719,0,0,1-3.1,5.767Zm357.043-5.764a3.72,3.72,0,0,1-3.162-5.671l.758-1.245a3.719,3.719,0,0,1,6.369,3.841c-.263.436-.528.873-.8,1.307A3.718,3.718,0,0,1,8165.071,1767.377Zm-365.534-8.254a3.72,3.72,0,0,1-3.256-1.916l-.731-1.332a3.719,3.719,0,0,1,6.536-3.551l.7,1.276a3.72,3.72,0,0,1-3.249,5.523Zm373.579-6.056a3.719,3.719,0,0,1-3.3-5.419l.662-1.3a3.719,3.719,0,0,1,6.645,3.34l-.692,1.363A3.718,3.718,0,0,1,8173.116,1753.067Zm-380.955-8.574a3.719,3.719,0,0,1-3.385-2.175l-.623-1.376a3.719,3.719,0,1,1,6.787-3.043l.6,1.33a3.72,3.72,0,0,1-3.382,5.264Zm387.866-6.322a3.719,3.719,0,0,1-3.431-5.149l.561-1.361a3.719,3.719,0,0,1,6.885,2.814l-.581,1.406A3.717,3.717,0,0,1,8180.027,1738.171Zm-394.082-8.829a3.72,3.72,0,0,1-3.493-2.443l-.517-1.434a3.719,3.719,0,0,1,7.008-2.491l.5,1.371a3.721,3.721,0,0,1-3.493,5Zm399.81-6.566a3.68,3.68,0,0,1-1.158-.186,3.718,3.718,0,0,1-2.376-4.692l.454-1.4a3.72,3.72,0,0,1,7.084,2.271l-.47,1.447A3.721,3.721,0,0,1,8185.755,1722.776Zm-404.832-9.049a3.717,3.717,0,0,1-3.579-2.719l-.405-1.472a3.719,3.719,0,1,1,7.182-1.933l.386,1.4a3.722,3.722,0,0,1-3.584,4.72ZM8190.26,1707a3.72,3.72,0,0,1-3.619-4.591l.344-1.436a3.719,3.719,0,1,1,7.238,1.714l-.35,1.464A3.722,3.722,0,0,1,8190.26,1707Zm-413.124-9.229a3.72,3.72,0,0,1-3.645-3l-.287-1.493a3.718,3.718,0,0,1,7.308-1.378l.277,1.436a3.718,3.718,0,0,1-2.931,4.367A3.785,3.785,0,0,1,7777.136,1697.77Zm416.381-6.844a3.727,3.727,0,0,1-3.677-4.307l.23-1.451a3.719,3.719,0,1,1,7.351,1.129l-.236,1.5A3.719,3.719,0,0,1,8193.518,1690.926Zm-418.914-9.359a3.72,3.72,0,0,1-3.69-3.29l-.17-1.505a3.719,3.719,0,1,1,7.393-.813l.165,1.459a3.719,3.719,0,0,1-3.264,4.124A3.761,3.761,0,0,1,7774.6,1681.567Zm420.91-6.92c-.105,0-.212-.005-.318-.013a3.721,3.721,0,0,1-3.391-4.022l.116-1.454a3.72,3.72,0,0,1,7.418.566l-.122,1.519A3.721,3.721,0,0,1,8195.514,1674.647Zm-422.18-9.431a3.719,3.719,0,0,1-3.714-3.571l-.053-1.513a3.718,3.718,0,1,1,7.433-.24l.053,1.458a3.719,3.719,0,0,1-3.569,3.863C7773.434,1665.216,7773.384,1665.216,7773.334,1665.216Zm422.915-6.952h-.032a3.719,3.719,0,0,1-3.687-3.751l.006-1.933a3.719,3.719,0,1,1,7.438,0l-.006,2A3.717,3.717,0,0,1,8196.249,1658.264Zm-422.929-9.445-.138,0a3.72,3.72,0,0,1-3.581-3.853l.062-1.518a3.718,3.718,0,1,1,7.43.327l-.059,1.463A3.719,3.719,0,0,1,7773.32,1648.819Zm422.38-7.422a3.719,3.719,0,0,1-3.706-3.458l-.109-1.455a3.719,3.719,0,0,1,7.415-.587l.115,1.52a3.721,3.721,0,0,1-3.45,3.971C8195.876,1641.394,8195.789,1641.4,8195.7,1641.4Zm-421.144-8.93a3.883,3.883,0,0,1-.428-.024,3.72,3.72,0,0,1-3.271-4.119l.178-1.509a3.719,3.719,0,0,1,7.383.9l-.171,1.454A3.721,3.721,0,0,1,7774.556,1632.467ZM8193.9,1625.1a3.719,3.719,0,0,1-3.671-3.155l-.226-1.463a3.719,3.719,0,1,1,7.348-1.152l.229,1.486a3.719,3.719,0,0,1-3.11,4.241A3.811,3.811,0,0,1,8193.9,1625.1Zm-416.847-8.839a3.726,3.726,0,0,1-3.656-4.426l.295-1.491a3.719,3.719,0,0,1,7.291,1.467l-.283,1.436A3.721,3.721,0,0,1,7777.051,1616.259Zm413.781-7.271a3.72,3.72,0,0,1-3.618-2.874l-.339-1.44a3.719,3.719,0,0,1,7.237-1.717l.345,1.466a3.72,3.72,0,0,1-2.776,4.467A3.759,3.759,0,0,1,8190.832,1608.988Zm-410.034-8.7a3.762,3.762,0,0,1-.991-.134,3.72,3.72,0,0,1-2.6-4.574l.411-1.464a3.719,3.719,0,1,1,7.154,2.033l-.394,1.408A3.721,3.721,0,0,1,7780.8,1600.292Zm405.725-7.129a3.72,3.72,0,0,1-3.546-2.6l-.444-1.4a3.718,3.718,0,1,1,7.077-2.284l.462,1.446a3.719,3.719,0,0,1-3.549,4.837Zm-400.744-8.5a3.721,3.721,0,0,1-3.5-4.987l.525-1.431a3.719,3.719,0,0,1,6.975,2.584l-.506,1.381A3.722,3.722,0,0,1,7785.779,1584.667Zm395.214-6.943a3.721,3.721,0,0,1-3.447-2.32l-.558-1.369a3.719,3.719,0,1,1,6.88-2.825l.569,1.394a3.722,3.722,0,0,1-3.444,5.12Zm-389.019-8.268a3.721,3.721,0,0,1-3.383-5.258l.63-1.377a3.719,3.719,0,1,1,6.755,3.112l-.614,1.342A3.72,3.72,0,0,1,7791.974,1569.456Zm382.306-6.679a3.721,3.721,0,0,1-3.333-2.062l-.655-1.308a3.718,3.718,0,1,1,6.636-3.357l.679,1.351a3.721,3.721,0,0,1-3.327,5.376Zm-374.946-8a3.72,3.72,0,0,1-3.254-5.514l.742-1.334a3.719,3.719,0,1,1,6.484,3.643l-.711,1.279A3.719,3.719,0,0,1,7799.334,1554.781Zm367.091-6.384a3.717,3.717,0,0,1-3.191-1.8l-.759-1.259a3.718,3.718,0,1,1,6.357-3.859l.779,1.289a3.72,3.72,0,0,1-3.186,5.634Zm-358.614-7.672a3.72,3.72,0,0,1-3.1-5.764l.836-1.262a3.719,3.719,0,0,1,6.192,4.121l-.814,1.229A3.716,3.716,0,0,1,7807.811,1540.725Zm349.666-6.062a3.713,3.713,0,0,1-3.034-1.564l-.855-1.2a3.718,3.718,0,1,1,6.043-4.334l.873,1.224a3.719,3.719,0,0,1-3.027,5.874Zm-340.125-7.294a3.72,3.72,0,0,1-2.938-6l.933-1.194a3.719,3.719,0,0,1,5.852,4.591l-.9,1.159A3.713,3.713,0,0,1,7817.352,1527.369Zm330.139-5.711a3.709,3.709,0,0,1-2.859-1.34l-.945-1.128a3.719,3.719,0,0,1,5.692-4.787l.968,1.156a3.719,3.719,0,0,1-2.856,6.1Zm-319.6-6.863a3.72,3.72,0,0,1-2.753-6.218l1.018-1.116a3.719,3.719,0,1,1,5.483,5.026l-.992,1.087A3.709,3.709,0,0,1,7827.89,1514.8Zm308.642-5.336a3.711,3.711,0,0,1-2.671-1.13l-1.022-1.048a3.719,3.719,0,1,1,5.3-5.215l1.06,1.085a3.719,3.719,0,0,1-2.669,6.308Zm-297.167-6.388a3.719,3.719,0,0,1-2.553-6.424l1.1-1.033a3.718,3.718,0,1,1,5.075,5.436l-1.072,1.007A3.707,3.707,0,0,1,7839.365,1503.071Zm285.3-4.935a3.7,3.7,0,0,1-2.452-.924l-1.114-.975a3.719,3.719,0,0,1,4.89-5.606l1.132.991a3.719,3.719,0,0,1-2.456,6.514Zm-272.954-5.867a3.719,3.719,0,0,1-2.34-6.611l1.175-.946a3.719,3.719,0,0,1,4.646,5.809l-1.147.921A3.693,3.693,0,0,1,7851.707,1492.269Zm260.242-4.508a3.7,3.7,0,0,1-2.232-.747l-1.18-.883a3.719,3.719,0,0,1,4.439-5.969l1.21.907a3.719,3.719,0,0,1-2.237,6.692Zm-247.109-5.309a3.719,3.719,0,0,1-2.116-6.779l1.257-.86a3.719,3.719,0,1,1,4.169,6.159l-1.2.821A3.7,3.7,0,0,1,7864.84,1482.452Zm233.633-4.056a3.7,3.7,0,0,1-2-.588l-1.238-.785a3.718,3.718,0,1,1,3.96-6.295l1.287.816a3.72,3.72,0,0,1-2.008,6.852Zm-219.788-4.714a3.72,3.72,0,0,1-1.872-6.935l1.314-.757a3.719,3.719,0,1,1,3.687,6.459l-1.262.728A3.7,3.7,0,0,1,7878.685,1473.682Zm205.625-3.583a3.7,3.7,0,0,1-1.755-.442l-1.29-.684a3.719,3.719,0,1,1,3.454-6.587l1.351.716a3.719,3.719,0,0,1-1.76,7Zm-191.144-4.086a3.719,3.719,0,0,1-1.614-7.071l1.364-.65a3.719,3.719,0,1,1,3.178,6.725l-1.32.629A3.713,3.713,0,0,1,7893.166,1466.013Zm176.375-3.086a3.7,3.7,0,0,1-1.494-.315l-1.343-.582a3.719,3.719,0,1,1,2.932-6.836l1.4.609a3.719,3.719,0,0,1-1.5,7.124Zm-161.351-3.43a3.719,3.719,0,0,1-1.35-7.185l1.421-.546a3.719,3.719,0,0,1,2.641,6.954l-1.366.524A3.715,3.715,0,0,1,7908.19,1459.5Zm146.065-2.569a3.722,3.722,0,0,1-1.225-.208l-1.386-.477a3.719,3.719,0,0,1,2.388-7.044l1.447.5a3.719,3.719,0,0,1-1.224,7.23Zm-130.558-2.764a3.72,3.72,0,0,1-1.068-7.282l1.455-.431a3.719,3.719,0,0,1,2.089,7.138l-1.4.417A3.715,3.715,0,0,1,7923.7,1454.164Zm114.866-2.019a3.714,3.714,0,0,1-.946-.122l-1.419-.367a3.719,3.719,0,1,1,1.833-7.208l1.471.38a3.719,3.719,0,0,1-.939,7.317Zm-98.989-2.087a3.719,3.719,0,0,1-.786-7.354l1.482-.316a3.719,3.719,0,0,1,1.531,7.278l-1.435.306A3.724,3.724,0,0,1,7939.574,1450.058Zm82.974-1.452a3.8,3.8,0,0,1-.667-.06l-1.442-.256a3.719,3.719,0,0,1,1.272-7.328l1.5.265a3.719,3.719,0,0,1-.658,7.379Zm-66.828-1.4a3.719,3.719,0,0,1-.5-7.4l1.507-.2a3.719,3.719,0,0,1,.956,7.377l-1.451.194A3.7,3.7,0,0,1,7955.72,1447.2Zm50.589-.882a3.724,3.724,0,0,1-.378-.019l-1.458-.142a3.719,3.719,0,0,1,.695-7.406l1.512.148a3.719,3.719,0,0,1-.371,7.419Zm-34.266-.715a3.719,3.719,0,0,1-.215-7.432l1.511-.084a3.719,3.719,0,0,1,.392,7.428l-1.467.081C7972.19,1445.6,7972.116,1445.6,7972.043,1445.6Zm17.9-.309h-.094l-1.463-.031a3.719,3.719,0,1,1,.131-7.436l1.518.032a3.719,3.719,0,0,1-.092,7.436Z"/><path class="a" d="M7987.424,1846.827a3.719,3.719,0,0,1-.048-7.438l1.453-.025a3.719,3.719,0,0,1,.163,7.436l-1.517.027Zm-14.853-.362c-.079,0-.157,0-.237-.008l-1.513-.1a3.718,3.718,0,1,1,.523-7.418l1.458.1a3.719,3.719,0,0,1-.231,7.431Zm31.173-.561a3.718,3.718,0,0,1-.36-7.419l1.445-.15a3.719,3.719,0,0,1,.8,7.4l-1.512.155A3.49,3.49,0,0,1,8003.744,1845.9Zm-47.429-1.165a3.715,3.715,0,0,1-.554-.041l-1.5-.232a3.719,3.719,0,0,1,1.165-7.346l1.437.222a3.719,3.719,0,0,1-.545,7.4Zm63.614-1.148a3.72,3.72,0,0,1-.683-7.375l1.434-.274a3.719,3.719,0,0,1,1.426,7.3l-1.486.284A3.708,3.708,0,0,1,8019.929,1843.591Zm-79.665-1.971a3.713,3.713,0,0,1-.869-.1l-1.474-.359a3.719,3.719,0,0,1,1.789-7.219l1.417.345a3.719,3.719,0,0,1-.863,7.336Zm95.589-1.732a3.719,3.719,0,0,1-1-7.3l1.406-.4a3.719,3.719,0,0,1,2.048,7.15l-1.458.413A3.718,3.718,0,0,1,8035.853,1839.888Zm-111.313-2.762a3.7,3.7,0,0,1-1.178-.193l-1.443-.486a3.719,3.719,0,1,1,2.412-7.037l1.387.469a3.719,3.719,0,0,1-1.178,7.247Zm126.861-2.307a3.72,3.72,0,0,1-1.306-7.2l1.365-.517a3.719,3.719,0,1,1,2.664,6.944l-1.416.537A3.7,3.7,0,0,1,8051.4,1834.819Zm-142.152-3.541a3.707,3.707,0,0,1-1.476-.307l-1.391-.608a3.719,3.719,0,0,1,3-6.806l1.343.589a3.719,3.719,0,0,1-1.478,7.132Zm157.192-2.849a3.72,3.72,0,0,1-1.6-7.076l1.313-.632a3.719,3.719,0,0,1,3.249,6.691l-1.357.654A3.721,3.721,0,0,1,8066.441,1828.429Zm-171.917-4.3a3.7,3.7,0,0,1-1.764-.448l-1.335-.727a3.719,3.719,0,0,1,3.586-6.517l1.282.7a3.719,3.719,0,0,1-1.769,6.992Zm186.347-3.365a3.719,3.719,0,0,1-1.89-6.924l1.255-.744a3.719,3.719,0,0,1,3.815,6.385l-1.3.768A3.7,3.7,0,0,1,8080.871,1820.766Zm-200.4-5.023a3.707,3.707,0,0,1-2.037-.609l-1.269-.842a3.719,3.719,0,1,1,4.134-6.182l1.214.8a3.719,3.719,0,0,1-2.042,6.829Zm214.117-3.854a3.719,3.719,0,0,1-2.157-6.751l1.182-.847a3.72,3.72,0,1,1,4.358,6.029l-1.232.881A3.7,3.7,0,0,1,8094.592,1811.889Zm-227.389-5.708a3.7,3.7,0,0,1-2.3-.8l-1.18-.937a3.718,3.718,0,1,1,4.637-5.814l1.151.913a3.719,3.719,0,0,1-2.307,6.638Zm240.3-4.315a3.72,3.72,0,0,1-2.4-6.563c.369-.31.733-.623,1.1-.937a3.719,3.719,0,1,1,4.858,5.632q-.577.5-1.163.992A3.7,3.7,0,0,1,8107.5,1801.866Zm-252.705-6.345a3.7,3.7,0,0,1-2.542-1.006l-1.1-1.042a3.719,3.719,0,0,1,5.133-5.384l1.058,1a3.72,3.72,0,0,1-2.545,6.432Zm264.714-4.747a3.719,3.719,0,0,1-2.638-6.341l1.026-1.039a3.719,3.719,0,1,1,5.314,5.2l-1.063,1.077A3.709,3.709,0,0,1,8119.514,1790.774Zm-276.157-6.932a3.708,3.708,0,0,1-2.766-1.232l-1.008-1.129a3.719,3.719,0,1,1,5.567-4.933l.97,1.088a3.719,3.719,0,0,1-2.763,6.206Zm287.181-5.148a3.719,3.719,0,0,1-2.852-6.1l.933-1.123a3.719,3.719,0,1,1,5.741,4.728l-.968,1.166A3.708,3.708,0,0,1,8130.538,1778.694Zm-297.583-7.464a3.712,3.712,0,0,1-2.972-1.48l-.9-1.2a3.719,3.719,0,1,1,5.962-4.447l.879,1.173a3.718,3.718,0,0,1-2.967,5.957Zm307.531-5.519a3.718,3.718,0,0,1-3.042-5.854l.832-1.2a3.719,3.719,0,1,1,6.125,4.22l-.867,1.248A3.717,3.717,0,0,1,8140.486,1765.711Zm-316.816-7.932a3.715,3.715,0,0,1-3.151-1.741l-.8-1.285a3.719,3.719,0,1,1,6.329-3.906l.769,1.234a3.721,3.721,0,0,1-3.146,5.7Zm325.62-5.855a3.721,3.721,0,0,1-3.217-5.58l.729-1.271a3.719,3.719,0,0,1,6.465,3.678l-.753,1.314A3.72,3.72,0,0,1,8149.29,1751.924Zm-333.712-8.342a3.717,3.717,0,0,1-3.312-2.024l-.68-1.333a3.719,3.719,0,1,1,6.633-3.366l.666,1.307a3.721,3.721,0,0,1-3.307,5.416Zm341.3-6.158a3.719,3.719,0,0,1-3.36-5.306l.613-1.32a3.719,3.719,0,0,1,6.758,3.107c-.214.463-.427.925-.645,1.385A3.719,3.719,0,0,1,8156.874,1737.424Zm-348.134-8.677a3.72,3.72,0,0,1-3.441-2.308l-.571-1.408a3.719,3.719,0,1,1,6.9-2.765l.546,1.349a3.72,3.72,0,0,1-3.439,5.132Zm354.441-6.427a3.72,3.72,0,0,1-3.491-5l.5-1.381a3.719,3.719,0,0,1,7,2.518l-.519,1.426A3.718,3.718,0,0,1,8163.181,1722.32Zm-359.978-8.959a3.721,3.721,0,0,1-3.549-2.612l-.444-1.447a3.719,3.719,0,1,1,7.115-2.164l.43,1.4a3.72,3.72,0,0,1-3.552,4.826Zm364.949-6.624a3.721,3.721,0,0,1-3.59-4.7l.377-1.4a3.718,3.718,0,1,1,7.191,1.895l-.392,1.469A3.722,3.722,0,0,1,8168.152,1706.737Zm-369.132-9.183a3.72,3.72,0,0,1-3.629-2.923l-.318-1.489a3.718,3.718,0,1,1,7.279-1.523l.3,1.42a3.721,3.721,0,0,1-3.636,4.515Zm372.735-6.766a3.657,3.657,0,0,1-.67-.061,3.719,3.719,0,0,1-2.993-4.324l.252-1.431a3.719,3.719,0,0,1,7.331,1.264l-.265,1.5A3.721,3.721,0,0,1,8171.755,1690.788Zm-375.533-9.341a3.72,3.72,0,0,1-3.683-3.24l-.19-1.508a3.719,3.719,0,0,1,7.385-.894l.18,1.442a3.717,3.717,0,0,1-3.207,4.168A3.8,3.8,0,0,1,7796.222,1681.447Zm377.743-6.859c-.116,0-.236-.005-.353-.016a3.719,3.719,0,0,1-3.354-4.051l.129-1.448a3.719,3.719,0,1,1,7.411.63l-.135,1.515A3.718,3.718,0,0,1,8173.965,1674.588Zm-379.147-9.431a3.718,3.718,0,0,1-3.712-3.56l-.06-1.507a3.719,3.719,0,0,1,7.434-.263l.057,1.453a3.719,3.719,0,0,1-3.557,3.874C7794.926,1665.157,7794.872,1665.157,7794.818,1665.157Zm379.962-6.9h-.034a3.719,3.719,0,0,1-3.685-3.751l.006-1.889a3.719,3.719,0,1,1,7.437,0l0,1.954A3.72,3.72,0,0,1,8174.78,1658.26Zm-379.973-9.448c-.052,0-.1,0-.156,0a3.719,3.719,0,0,1-3.563-3.869l.068-1.513a3.719,3.719,0,0,1,7.429.361l-.065,1.457A3.719,3.719,0,0,1,7794.807,1648.812Zm379.367-7.326a3.719,3.719,0,0,1-3.7-3.425l-.121-1.448a3.719,3.719,0,0,1,7.409-.656l.127,1.516a3.72,3.72,0,0,1-3.414,4C8174.373,1641.482,8174.273,1641.486,8174.174,1641.486Zm-378-8.965a3.781,3.781,0,0,1-.473-.03,3.719,3.719,0,0,1-3.221-4.158l.2-1.507a3.719,3.719,0,1,1,7.37,1l-.19,1.442A3.72,3.72,0,0,1,7796.177,1632.521Zm376-7.26a3.72,3.72,0,0,1-3.664-3.111l-.244-1.433a3.719,3.719,0,1,1,7.325-1.285l.255,1.5a3.719,3.719,0,0,1-3.058,4.278A3.772,3.772,0,0,1,8172.181,1625.261Zm-373.242-8.855a3.721,3.721,0,0,1-3.639-4.505l.327-1.484a3.719,3.719,0,1,1,7.257,1.635l-.313,1.419A3.721,3.721,0,0,1,7798.939,1616.406Zm369.859-7.141a3.719,3.719,0,0,1-3.6-2.8l-.366-1.4a3.718,3.718,0,1,1,7.185-1.919l.386,1.473a3.72,3.72,0,0,1-3.6,4.645Zm-365.717-8.674a3.718,3.718,0,0,1-3.555-4.815l.457-1.458a3.719,3.719,0,1,1,7.087,2.255l-.436,1.4A3.721,3.721,0,0,1,7803.081,1600.591Zm360.962-6.969a3.719,3.719,0,0,1-3.508-2.486l-.49-1.37a3.719,3.719,0,0,1,7-2.528l.51,1.431a3.72,3.72,0,0,1-3.508,4.953Zm-355.458-8.448a3.722,3.722,0,0,1-3.444-5.12c.192-.472.385-.943.582-1.413a3.719,3.719,0,0,1,6.863,2.866l-.554,1.347A3.72,3.72,0,0,1,7808.585,1585.174Zm349.374-6.712a3.72,3.72,0,0,1-3.388-2.18l-.607-1.323a3.719,3.719,0,0,1,6.749-3.128l.628,1.371a3.721,3.721,0,0,1-3.382,5.26ZM7815.4,1570.3a3.719,3.719,0,0,1-3.306-5.415l.7-1.348a3.719,3.719,0,0,1,6.6,3.439l-.673,1.3A3.716,3.716,0,0,1,7815.4,1570.3Zm335.179-6.411a3.72,3.72,0,0,1-3.249-1.9l-.713-1.26a3.719,3.719,0,1,1,6.456-3.692l.748,1.319a3.721,3.721,0,0,1-3.242,5.537Zm-327.1-7.82a3.721,3.721,0,0,1-3.152-5.689q.405-.648.816-1.293a3.719,3.719,0,1,1,6.267,4.005q-.39.61-.773,1.226A3.719,3.719,0,0,1,7823.481,1556.064Zm318.5-6.074a3.716,3.716,0,0,1-3.08-1.631l-.819-1.194a3.719,3.719,0,1,1,6.113-4.237l.86,1.254a3.72,3.72,0,0,1-3.074,5.808Zm-309.233-7.407a3.72,3.72,0,0,1-2.971-5.952q.458-.61.922-1.217a3.719,3.719,0,1,1,5.9,4.528c-.295.384-.585.769-.876,1.155A3.712,3.712,0,0,1,7832.748,1542.583Zm299.465-5.7a3.709,3.709,0,0,1-2.883-1.367l-.928-1.131a3.719,3.719,0,1,1,5.733-4.739l.957,1.165a3.719,3.719,0,0,1-2.879,6.072Zm-289.078-6.933a3.719,3.719,0,0,1-2.766-6.2l1.006-1.116a3.719,3.719,0,0,1,5.515,4.992l-.987,1.092A3.7,3.7,0,0,1,7843.135,1529.948Zm278.223-5.294a3.709,3.709,0,0,1-2.673-1.134l-1.018-1.046a3.719,3.719,0,1,1,5.308-5.209l1.056,1.084a3.72,3.72,0,0,1-2.673,6.305Zm-266.795-6.406a3.718,3.718,0,0,1-2.55-6.426c.371-.348.741-.7,1.115-1.04a3.72,3.72,0,0,1,5.044,5.468q-.534.492-1.059.987A3.7,3.7,0,0,1,7854.563,1518.248ZM8109.5,1513.4a3.7,3.7,0,0,1-2.445-.918l-1.1-.95a3.719,3.719,0,1,1,4.841-5.647l1.15.995a3.719,3.719,0,0,1-2.448,6.52Zm-242.548-5.824a3.719,3.719,0,0,1-2.312-6.634q.6-.474,1.2-.942a3.718,3.718,0,0,1,4.552,5.881c-.38.3-.76.592-1.136.891A3.7,3.7,0,0,1,7866.947,1507.571Zm229.767-4.381a3.705,3.705,0,0,1-2.186-.713l-1.19-.861a3.719,3.719,0,0,1,4.347-6.036l1.222.885a3.719,3.719,0,0,1-2.193,6.725Zm-216.519-5.195a3.72,3.72,0,0,1-2.052-6.823l1.267-.83a3.719,3.719,0,1,1,4.047,6.241l-1.217.8A3.7,3.7,0,0,1,7880.195,1497.995Zm202.906-3.878a3.7,3.7,0,0,1-1.929-.542l-1.246-.75a3.719,3.719,0,1,1,3.8-6.392l1.307.786a3.719,3.719,0,0,1-1.935,6.9Zm-188.891-4.527a3.72,3.72,0,0,1-1.775-6.99l1.328-.713a3.72,3.72,0,0,1,3.5,6.564l-1.284.689A3.7,3.7,0,0,1,7894.21,1489.59Zm174.547-3.344a3.71,3.71,0,0,1-1.643-.385l-1.313-.642a3.719,3.719,0,0,1,3.239-6.7l1.366.669a3.719,3.719,0,0,1-1.649,7.054Zm-159.866-3.819a3.719,3.719,0,0,1-1.487-7.129l1.387-.6a3.719,3.719,0,1,1,2.917,6.842l-1.332.575A3.72,3.72,0,0,1,7908.891,1482.427Zm144.892-2.786a3.707,3.707,0,0,1-1.354-.257l-1.362-.525a3.719,3.719,0,0,1,2.65-6.95l1.422.549a3.719,3.719,0,0,1-1.356,7.183Zm-129.653-3.081a3.719,3.719,0,0,1-1.184-7.244l1.438-.478a3.719,3.719,0,1,1,2.316,7.068l-1.386.46A3.706,3.706,0,0,1,7924.13,1476.56Zm114.174-2.2a3.712,3.712,0,0,1-1.049-.151l-1.4-.405a3.719,3.719,0,1,1,2.039-7.153l1.456.421a3.72,3.72,0,0,1-1.046,7.288Zm-98.469-2.332a3.72,3.72,0,0,1-.87-7.335l1.473-.35a3.719,3.719,0,0,1,1.691,7.243l-1.418.337A3.722,3.722,0,0,1,7939.835,1472.03Zm82.6-1.586a3.733,3.733,0,0,1-.739-.074l-1.434-.283a3.719,3.719,0,1,1,1.418-7.3l1.486.293a3.719,3.719,0,0,1-.731,7.365Zm-66.558-1.57a3.719,3.719,0,0,1-.558-7.4l1.5-.223a3.719,3.719,0,0,1,1.06,7.363l-1.438.212A3.752,3.752,0,0,1,7955.878,1468.874Zm50.407-.963a3.555,3.555,0,0,1-.424-.024l-1.446-.158a3.719,3.719,0,1,1,.773-7.4l1.512.165a3.719,3.719,0,0,1-.415,7.414Zm-34.155-.8a3.719,3.719,0,0,1-.236-7.43l1.512-.093a3.72,3.72,0,0,1,.424,7.427l-1.457.088C7972.292,1467.108,7972.21,1467.11,7972.13,1467.11Zm17.841-.337-.1,0-1.454-.034a3.72,3.72,0,0,1-3.647-3.789,3.766,3.766,0,0,1,3.79-3.647l1.518.035a3.719,3.719,0,0,1-.1,7.437Z"/><path class="a" d="M7984.789,1801.3l-1.509-.007a3.719,3.719,0,0,1,.033-7.438h.037l1.362.007a3.751,3.751,0,0,1,3.757,3.719A3.686,3.686,0,0,1,7984.789,1801.3Zm14.706-.748a3.718,3.718,0,0,1-.369-7.418q.714-.072,1.426-.152a3.719,3.719,0,1,1,.826,7.391q-.753.084-1.5.161A3.721,3.721,0,0,1,7999.5,1800.552Zm-30.879-.138a3.464,3.464,0,0,1-.417-.024l-1.5-.173a3.719,3.719,0,1,1,.892-7.384l1.43.166a3.719,3.719,0,0,1-.409,7.415Zm46.883-2.4a3.72,3.72,0,0,1-.783-7.355c.47-.1.936-.2,1.4-.311a3.719,3.719,0,0,1,1.648,7.254q-.74.167-1.478.328A3.75,3.75,0,0,1,8015.5,1798.013Zm-62.864-.285a3.714,3.714,0,0,1-.826-.093l-1.471-.342a3.719,3.719,0,1,1,1.718-7.237l1.4.325a3.72,3.72,0,0,1-.821,7.347Zm78.484-4.038a3.719,3.719,0,0,1-1.2-7.24l1.36-.47a3.719,3.719,0,0,1,2.464,7.018l-1.427.493A3.714,3.714,0,0,1,8031.119,1793.69Zm-94.063-.431a3.716,3.716,0,0,1-1.224-.208q-.721-.25-1.437-.51a3.719,3.719,0,1,1,2.533-6.993c.449.162.9.322,1.353.48a3.719,3.719,0,0,1-1.225,7.231Zm109.094-5.628a3.72,3.72,0,0,1-1.582-7.087c.431-.2.86-.406,1.287-.612a3.719,3.719,0,1,1,3.237,6.7c-.454.219-.908.436-1.366.651A3.707,3.707,0,0,1,8046.15,1787.631Zm-124.076-.572a3.7,3.7,0,0,1-1.608-.368q-.688-.33-1.371-.669a3.719,3.719,0,0,1,3.309-6.662q.639.32,1.285.627a3.72,3.72,0,0,1-1.615,7.072Zm138.323-7.134a3.719,3.719,0,0,1-1.95-6.887q.608-.375,1.209-.754a3.718,3.718,0,1,1,3.971,6.288q-.64.405-1.286.8A3.694,3.694,0,0,1,8060.4,1779.925Zm-152.509-.71a3.7,3.7,0,0,1-1.978-.571l-1.275-.812a3.718,3.718,0,0,1,4.018-6.258l1.217.773a3.719,3.719,0,0,1-1.982,6.868Zm165.8-8.543a3.719,3.719,0,0,1-2.294-6.649q.565-.441,1.125-.888a3.719,3.719,0,1,1,4.643,5.81q-.591.473-1.186.937A3.7,3.7,0,0,1,8073.693,1770.672Zm-179.024-.839a3.706,3.706,0,0,1-2.314-.81c-.4-.315-.79-.633-1.181-.952a3.718,3.718,0,1,1,4.7-5.765c.371.3.742.6,1.117.9a3.719,3.719,0,0,1-2.32,6.628Zm191.207-9.841a3.72,3.72,0,0,1-2.6-6.376q.512-.5,1.02-1.01a3.718,3.718,0,0,1,5.258,5.259q-.532.534-1.074,1.065A3.708,3.708,0,0,1,8085.876,1759.992Zm-203.292-.955a3.707,3.707,0,0,1-2.629-1.089l-1.062-1.072a3.719,3.719,0,1,1,5.308-5.209l1.013,1.022a3.719,3.719,0,0,1-2.63,6.348ZM8096.8,1748.02a3.72,3.72,0,0,1-2.879-6.072q.453-.555.9-1.114a3.719,3.719,0,0,1,5.814,4.638q-.472.594-.952,1.182A3.712,3.712,0,0,1,8096.8,1748.02Zm-225.019-1.054a3.713,3.713,0,0,1-2.909-1.4q-.471-.591-.938-1.186a3.719,3.719,0,0,1,5.86-4.582q.439.564.889,1.124a3.72,3.72,0,0,1-2.9,6.041Zm234.54-12.06a3.721,3.721,0,0,1-3.125-5.732q.389-.6.77-1.212a3.719,3.719,0,0,1,6.3,3.957c-.269.427-.54.855-.813,1.279A3.718,3.718,0,0,1,8106.318,1734.906Zm-243.935-1.139a3.717,3.717,0,0,1-3.15-1.736q-.4-.638-.8-1.279a3.719,3.719,0,1,1,6.331-3.9l.76,1.217a3.721,3.721,0,0,1-3.144,5.7Zm251.929-12.96a3.721,3.721,0,0,1-3.328-5.374c.212-.427.423-.856.629-1.286a3.719,3.719,0,1,1,6.7,3.225q-.331.687-.67,1.37A3.721,3.721,0,0,1,8114.312,1720.807Zm-259.79-1.2a3.72,3.72,0,0,1-3.35-2.1q-.328-.678-.649-1.359a3.719,3.719,0,1,1,6.726-3.176l.617,1.293a3.72,3.72,0,0,1-3.344,5.341Zm266.155-13.707a3.681,3.681,0,0,1-1.26-.221,3.718,3.718,0,0,1-2.24-4.758l.484-1.362a3.719,3.719,0,1,1,7.022,2.454l-.507,1.427A3.72,3.72,0,0,1,8120.677,1705.9Zm-272.375-1.252a3.716,3.716,0,0,1-3.508-2.488l-.494-1.427a3.719,3.719,0,0,1,7.042-2.4l.468,1.358a3.721,3.721,0,0,1-3.508,4.952Zm277.016-14.282a3.677,3.677,0,0,1-.861-.1,3.72,3.72,0,0,1-2.76-4.478l.326-1.4a3.719,3.719,0,1,1,7.252,1.649l-.341,1.47A3.722,3.722,0,0,1,8125.318,1690.363Zm-281.512-1.286a3.719,3.719,0,0,1-3.623-2.894l-.33-1.474a3.719,3.719,0,0,1,7.268-1.581l.314,1.4a3.724,3.724,0,0,1-3.629,4.545Zm284.373-14.661a3.73,3.73,0,0,1-3.7-4.171q.087-.71.164-1.42a3.719,3.719,0,0,1,7.394.813c-.055.5-.115,1.007-.176,1.509A3.721,3.721,0,0,1,8128.179,1674.416Zm-287.085-1.314a3.721,3.721,0,0,1-3.692-3.3c-.056-.5-.11-1.006-.161-1.509a3.719,3.719,0,0,1,7.4-.748q.072.711.153,1.422a3.719,3.719,0,0,1-3.278,4.113A3.777,3.777,0,0,1,7841.094,1673.1Zm288.138-14.854h-.034a3.719,3.719,0,0,1-3.685-3.752l.007-1.442v-.3a3.719,3.719,0,1,1,7.437,0l0,.252-.007,1.56A3.721,3.721,0,0,1,8129.232,1658.248Zm-289.046-1.322a3.718,3.718,0,0,1-3.719-3.719l.006-1.511a3.719,3.719,0,0,1,3.717-3.682h.038a3.718,3.718,0,0,1,3.682,3.756l-.006,1.437A3.718,3.718,0,0,1,7840.186,1656.926Zm288.277-15.167a3.719,3.719,0,0,1-3.694-3.334l-.155-1.433a3.719,3.719,0,1,1,7.391-.836l.161,1.5a3.718,3.718,0,0,1-3.313,4.084C8128.722,1641.752,8128.591,1641.759,8128.463,1641.759Zm-287.4-1.011a3.586,3.586,0,0,1-.411-.023,3.719,3.719,0,0,1-3.29-4.1l.173-1.5a3.719,3.719,0,1,1,7.385.881l-.164,1.431A3.72,3.72,0,0,1,7841.067,1640.748Zm284.834-14.986a3.721,3.721,0,0,1-3.632-2.93c-.1-.465-.205-.929-.311-1.393a3.719,3.719,0,0,1,7.248-1.672q.169.741.332,1.485a3.724,3.724,0,0,1-3.637,4.51Zm-282.156-.993a3.676,3.676,0,0,1-.827-.093,3.718,3.718,0,0,1-2.8-4.451l.34-1.469a3.719,3.719,0,1,1,7.237,1.716l-.325,1.4A3.72,3.72,0,0,1,7843.745,1624.769Zm277.809-14.617a3.718,3.718,0,0,1-3.52-2.521l-.47-1.36a3.718,3.718,0,1,1,7.016-2.463l.494,1.425a3.722,3.722,0,0,1-3.52,4.919Zm-273.352-.963a3.721,3.721,0,0,1-3.512-4.945l.506-1.429a3.719,3.719,0,1,1,7,2.519l-.482,1.361A3.721,3.721,0,0,1,7848.2,1609.189Zm267.274-14.056a3.719,3.719,0,0,1-3.362-2.123l-.621-1.3a3.719,3.719,0,1,1,6.691-3.247l.648,1.352a3.721,3.721,0,0,1-3.356,5.316Zm-261.084-.926a3.721,3.721,0,0,1-3.349-5.332c.219-.455.442-.909.664-1.362a3.719,3.719,0,0,1,6.671,3.291l-.632,1.3A3.722,3.722,0,0,1,7854.392,1594.207Zm253.356-13.309a3.719,3.719,0,0,1-3.166-1.762l-.761-1.219a3.718,3.718,0,1,1,6.287-3.971l.8,1.275a3.719,3.719,0,0,1-3.159,5.677Zm-245.521-.881a3.722,3.722,0,0,1-3.148-5.7q.4-.642.814-1.279a3.718,3.718,0,0,1,6.258,4.018c-.258.4-.516.807-.77,1.213A3.718,3.718,0,0,1,7862.227,1580.017Zm236.245-12.4a3.714,3.714,0,0,1-2.929-1.424l-.892-1.125a3.719,3.719,0,0,1,5.806-4.649q.472.588.938,1.184a3.719,3.719,0,0,1-2.923,6.014Zm-226.87-.823a3.719,3.719,0,0,1-2.9-6.038q.471-.591.95-1.179a3.719,3.719,0,1,1,5.764,4.7c-.3.371-.6.744-.9,1.118A3.715,3.715,0,0,1,7871.6,1566.793Zm216.168-11.346a3.707,3.707,0,0,1-2.651-1.111q-.5-.51-1.01-1.015a3.719,3.719,0,1,1,5.244-5.276q.537.534,1.068,1.076a3.718,3.718,0,0,1-2.651,6.326Zm-205.376-.747a3.718,3.718,0,0,1-2.632-6.346l1.07-1.062a3.719,3.719,0,0,1,5.215,5.3l-1.021,1.013A3.708,3.708,0,0,1,7882.394,1554.7Zm193.387-10.158a3.7,3.7,0,0,1-2.34-.831q-.558-.453-1.121-.9a3.718,3.718,0,1,1,4.626-5.823q.593.469,1.181.948a3.718,3.718,0,0,1-2.346,6.606Zm-181.318-.658a3.719,3.719,0,0,1-2.324-6.624l1.175-.932a3.719,3.719,0,0,1,4.6,5.846l-1.131.9A3.71,3.71,0,0,1,7894.463,1543.884Zm168.185-8.842a3.705,3.705,0,0,1-2.006-.59q-.606-.389-1.213-.77a3.719,3.719,0,1,1,3.952-6.3q.642.4,1.279.813a3.719,3.719,0,0,1-2.012,6.848Zm-154.99-.56a3.72,3.72,0,0,1-1.989-6.864l1.279-.8a3.719,3.719,0,1,1,3.91,6.327l-1.217.76A3.7,3.7,0,0,1,7907.658,1534.482Zm140.879-7.413a3.708,3.708,0,0,1-1.643-.384q-.644-.318-1.293-.63a3.719,3.719,0,1,1,3.222-6.7q.683.328,1.363.663a3.72,3.72,0,0,1-1.649,7.055Zm-126.72-.454a3.719,3.719,0,0,1-1.625-7.065q.681-.332,1.37-.655a3.719,3.719,0,0,1,3.158,6.735q-.645.3-1.283.612A3.7,3.7,0,0,1,7921.817,1526.615Zm111.8-5.882a3.724,3.724,0,0,1-1.262-.222q-.675-.244-1.354-.479a3.719,3.719,0,0,1,2.441-7.026c.481.167.959.336,1.438.509a3.719,3.719,0,0,1-1.263,7.218Zm-96.85-.344a3.72,3.72,0,0,1-1.232-7.229l1.421-.492a3.72,3.72,0,0,1,2.409,7.038l-1.366.472A3.687,3.687,0,0,1,7936.77,1520.389Zm81.312-4.27a3.748,3.748,0,0,1-.861-.1c-.465-.111-.931-.218-1.4-.324a3.718,3.718,0,1,1,1.639-7.254q.74.167,1.476.34a3.72,3.72,0,0,1-.856,7.339Zm-65.749-.231a3.719,3.719,0,0,1-.83-7.344c.494-.114.99-.225,1.485-.332a3.719,3.719,0,1,1,1.572,7.27q-.7.151-1.392.311A3.74,3.74,0,0,1,7952.333,1515.888Zm49.8-2.6a3.622,3.622,0,0,1-.45-.028q-.711-.086-1.424-.164a3.719,3.719,0,1,1,.811-7.393q.756.082,1.5.173a3.72,3.72,0,0,1-.442,7.412Zm-33.828-.118a3.719,3.719,0,0,1-.414-7.415c.5-.057,1-.111,1.506-.162a3.719,3.719,0,1,1,.758,7.4c-.477.049-.952.1-1.427.154A3.783,3.783,0,0,1,7968.3,1513.168Zm17.655-.916h-.032l-1.441-.005a3.719,3.719,0,0,1,0-7.438l1.5.005a3.719,3.719,0,0,1-.032,7.438Z"/></g></svg>