<svg xmlns="http://www.w3.org/2000/svg" width="141" height="141" viewBox="0 0 141 141"><defs><style>.a{fill:#89bbe0;}.b{fill:none;stroke:#fff;stroke-linecap:round;stroke-linejoin:round;stroke-width:3px;}</style></defs><g transform="translate(-932 -881.909)"><circle class="a" cx="70.5" cy="70.5" r="70.5" transform="translate(932 881.909)"/><g transform="translate(970.909 920.818)"><path class="b" d="M18,38.014,38.014,18l8.577,8.577L26.577,46.591Z" transform="translate(13.591 13.591)"/><path class="b" d="M48.745,34.45,44.457,13.007,3,3,13.007,44.457,34.45,48.745Z" transform="translate(0 0)"/><path class="b" d="M3,3,24.689,24.689" transform="translate(0 0)"/><path class="b" d="M24.936,19.218A5.718,5.718,0,1,1,19.218,13.5,5.718,5.718,0,0,1,24.936,19.218Z" transform="translate(9.514 9.514)"/></g><g transform="translate(955.909 970.5)"><path class="b" d="M25.5,10.5l-15,15"/><path class="b" d="M25.5,25.5h-15v-15"/></g><g transform="translate(1056.591 941.818) rotate(180)"><path class="b" d="M25.5,10.5l-15,15"/><path class="b" d="M25.5,25.5h-15v-15"/></g></g></svg>