<svg xmlns="http://www.w3.org/2000/svg" width="141" height="141" viewBox="0 0 141 141"><defs><style>.a{fill:#88e2a6;}.b{fill:none;stroke:#fff;stroke-width:3px;}.c{fill:#fff;}</style></defs><g transform="translate(-574 -881.909)"><circle class="a" cx="70.5" cy="70.5" r="70.5" transform="translate(574 881.909)"/><rect class="b" width="48" height="71" transform="translate(622 916)"/><path class="b" d="M646,987V918"/><path class="c" d="M24.49,15.216a.919.919,0,0,1-1.294.007l-4.282-4.268V27.218a.914.914,0,0,1-1.828,0V10.955L12.8,15.23a.925.925,0,0,1-1.294-.007.91.91,0,0,1,.007-1.287l5.836-5.794h0a1.026,1.026,0,0,1,.288-.19.872.872,0,0,1,.352-.07.916.916,0,0,1,.64.26l5.836,5.794A.9.9,0,0,1,24.49,15.216Z" transform="translate(665.203 912.406)"/><path class="c" d="M24.49,15.216a.919.919,0,0,1-1.294.007l-4.282-4.268V27.218a.914.914,0,0,1-1.828,0V10.955L12.8,15.23a.925.925,0,0,1-1.294-.007.91.91,0,0,1,.007-1.287l5.836-5.794h0a1.026,1.026,0,0,1,.288-.19.872.872,0,0,1,.352-.07.916.916,0,0,1,.64.26l5.836,5.794A.9.9,0,0,1,24.49,15.216Z" transform="translate(627.749 992.125) rotate(180)"/></g></svg>