<svg xmlns="http://www.w3.org/2000/svg" width="141" height="141" viewBox="0 0 141 141"><defs><style>.a{fill:#88e2a6;}.b,.c{fill:none;stroke:#fff;stroke-width:3px;}.c{stroke-linecap:round;stroke-linejoin:round;}</style></defs><g transform="translate(-932 -881.909)"><path class="a" d="M70.5,0A70.5,70.5,0,1,1,0,70.5,70.5,70.5,0,0,1,70.5,0Z" transform="translate(932 881.909)"/><g transform="translate(0 5)"><path class="b" d="M90.068,23.791a5.274,5.274,0,0,0-6.787,0L68.558,35.565A10.144,10.144,0,0,1,62.185,37.8H43.337a2.549,2.549,0,0,1,0-5.1H55.812a5.3,5.3,0,0,0,5.306-4.238A5.1,5.1,0,0,0,56.083,22.5H30.591a18.752,18.752,0,0,0-11.806,4.19L11.376,32.7H2.549A2.557,2.557,0,0,0,0,35.246v15.3a2.557,2.557,0,0,0,2.549,2.549H59.4A10.209,10.209,0,0,0,65.77,50.86l24.09-19.279A5.1,5.1,0,0,0,90.068,23.791Z" transform="translate(956.611 929.909)"/><g transform="translate(984.5 899.997)"><path class="c" d="M39.251,30.028V14.583a3.861,3.861,0,0,0-1.931-3.34L23.806,3.52a3.861,3.861,0,0,0-3.861,0L6.431,11.243A3.861,3.861,0,0,0,4.5,14.583V30.028a3.861,3.861,0,0,0,1.931,3.34L19.945,41.09a3.861,3.861,0,0,0,3.861,0l13.514-7.723a3.861,3.861,0,0,0,1.931-3.34Z"/><path class="c" d="M4.905,10.44l16.854,9.75,16.854-9.75" transform="translate(0.116 2.135)"/><path class="c" d="M18,37.461V18" transform="translate(3.876 4.305)"/></g></g></g></svg>