<svg xmlns="http://www.w3.org/2000/svg" xmlns:xlink="http://www.w3.org/1999/xlink" width="132" height="132" viewBox="0 0 132 132"><defs><style>.a{fill:#fff;stroke:#707070;}.b{clip-path:url(#a);}.c{fill:#89bbe0;}</style><clipPath id="a"><circle class="a" cx="66" cy="66" r="66" transform="translate(967 2144)"/></clipPath></defs><g class="b" transform="translate(-967 -2144)"><g transform="translate(965 2140.299)"><circle class="c" cx="3.299" cy="3.299" r="3.299"/><circle class="c" cx="3.299" cy="3.299" r="3.299" transform="translate(14.359)"/><circle class="c" cx="3.299" cy="3.299" r="3.299" transform="translate(28.718)"/><circle class="c" cx="3.299" cy="3.299" r="3.299" transform="translate(43.077)"/><circle class="c" cx="3.299" cy="3.299" r="3.299" transform="translate(57.437)"/><circle class="c" cx="3.299" cy="3.299" r="3.299" transform="translate(71.796)"/><circle class="c" cx="3.299" cy="3.299" r="3.299" transform="translate(86.155)"/><circle class="c" cx="3.299" cy="3.299" r="3.299" transform="translate(100.514)"/><circle class="c" cx="3.299" cy="3.299" r="3.299" transform="translate(114.873)"/><circle class="c" cx="3.299" cy="3.299" r="3.299" transform="translate(129.232)"/><circle class="c" cx="3.299" cy="3.299" r="3.299" transform="translate(0 14.359)"/><circle class="c" cx="3.299" cy="3.299" r="3.299" transform="translate(14.359 14.359)"/><circle class="c" cx="3.299" cy="3.299" r="3.299" transform="translate(28.718 14.359)"/><circle class="c" cx="3.299" cy="3.299" r="3.299" transform="translate(43.077 14.359)"/><circle class="c" cx="3.299" cy="3.299" r="3.299" transform="translate(57.437 14.359)"/><circle class="c" cx="3.299" cy="3.299" r="3.299" transform="translate(71.796 14.359)"/><circle class="c" cx="3.299" cy="3.299" r="3.299" transform="translate(86.155 14.359)"/><circle class="c" cx="3.299" cy="3.299" r="3.299" transform="translate(100.514 14.359)"/><circle class="c" cx="3.299" cy="3.299" r="3.299" transform="translate(114.873 14.359)"/><circle class="c" cx="3.299" cy="3.299" r="3.299" transform="translate(129.232 14.359)"/><circle class="c" cx="3.299" cy="3.299" r="3.299" transform="translate(0 28.718)"/><circle class="c" cx="3.299" cy="3.299" r="3.299" transform="translate(14.359 28.718)"/><circle class="c" cx="3.299" cy="3.299" r="3.299" transform="translate(28.718 28.718)"/><circle class="c" cx="3.299" cy="3.299" r="3.299" transform="translate(43.077 28.718)"/><circle class="c" cx="3.299" cy="3.299" r="3.299" transform="translate(57.437 28.718)"/><circle class="c" cx="3.299" cy="3.299" r="3.299" transform="translate(71.796 28.718)"/><circle class="c" cx="3.299" cy="3.299" r="3.299" transform="translate(86.155 28.718)"/><circle class="c" cx="3.299" cy="3.299" r="3.299" transform="translate(100.514 28.718)"/><circle class="c" cx="3.299" cy="3.299" r="3.299" transform="translate(114.873 28.718)"/><circle class="c" cx="3.299" cy="3.299" r="3.299" transform="translate(129.232 28.718)"/><circle class="c" cx="3.299" cy="3.299" r="3.299" transform="translate(0 43.078)"/><circle class="c" cx="3.299" cy="3.299" r="3.299" transform="translate(14.359 43.078)"/><circle class="c" cx="3.299" cy="3.299" r="3.299" transform="translate(28.718 43.078)"/><circle class="c" cx="3.299" cy="3.299" r="3.299" transform="translate(43.077 43.078)"/><circle class="c" cx="3.299" cy="3.299" r="3.299" transform="translate(57.437 43.078)"/><circle class="c" cx="3.299" cy="3.299" r="3.299" transform="translate(71.796 43.078)"/><circle class="c" cx="3.299" cy="3.299" r="3.299" transform="translate(86.155 43.078)"/><circle class="c" cx="3.299" cy="3.299" r="3.299" transform="translate(100.514 43.078)"/><circle class="c" cx="3.299" cy="3.299" r="3.299" transform="translate(114.873 43.078)"/><circle class="c" cx="3.299" cy="3.299" r="3.299" transform="translate(129.232 43.078)"/><circle class="c" cx="3.299" cy="3.299" r="3.299" transform="translate(0 57.437)"/><circle class="c" cx="3.299" cy="3.299" r="3.299" transform="translate(14.359 57.437)"/><circle class="c" cx="3.299" cy="3.299" r="3.299" transform="translate(28.718 57.437)"/><circle class="c" cx="3.299" cy="3.299" r="3.299" transform="translate(43.077 57.437)"/><circle class="c" cx="3.299" cy="3.299" r="3.299" transform="translate(57.437 57.437)"/><circle class="c" cx="3.299" cy="3.299" r="3.299" transform="translate(71.796 57.437)"/><circle class="c" cx="3.299" cy="3.299" r="3.299" transform="translate(86.155 57.437)"/><circle class="c" cx="3.299" cy="3.299" r="3.299" transform="translate(100.514 57.437)"/><circle class="c" cx="3.299" cy="3.299" r="3.299" transform="translate(114.873 57.437)"/><circle class="c" cx="3.299" cy="3.299" r="3.299" transform="translate(129.232 57.437)"/><circle class="c" cx="3.299" cy="3.299" r="3.299" transform="translate(0 71.796)"/><circle class="c" cx="3.299" cy="3.299" r="3.299" transform="translate(14.359 71.796)"/><circle class="c" cx="3.299" cy="3.299" r="3.299" transform="translate(28.718 71.796)"/><circle class="c" cx="3.299" cy="3.299" r="3.299" transform="translate(43.077 71.796)"/><circle class="c" cx="3.299" cy="3.299" r="3.299" transform="translate(57.437 71.796)"/><circle class="c" cx="3.299" cy="3.299" r="3.299" transform="translate(71.796 71.796)"/><circle class="c" cx="3.299" cy="3.299" r="3.299" transform="translate(86.155 71.796)"/><circle class="c" cx="3.299" cy="3.299" r="3.299" transform="translate(100.514 71.796)"/><circle class="c" cx="3.299" cy="3.299" r="3.299" transform="translate(114.873 71.796)"/><circle class="c" cx="3.299" cy="3.299" r="3.299" transform="translate(129.232 71.796)"/><circle class="c" cx="3.299" cy="3.299" r="3.299" transform="translate(0 86.155)"/><circle class="c" cx="3.299" cy="3.299" r="3.299" transform="translate(14.359 86.155)"/><circle class="c" cx="3.299" cy="3.299" r="3.299" transform="translate(28.718 86.155)"/><circle class="c" cx="3.299" cy="3.299" r="3.299" transform="translate(43.077 86.155)"/><circle class="c" cx="3.299" cy="3.299" r="3.299" transform="translate(57.437 86.155)"/><circle class="c" cx="3.299" cy="3.299" r="3.299" transform="translate(71.796 86.155)"/><circle class="c" cx="3.299" cy="3.299" r="3.299" transform="translate(86.155 86.155)"/><circle class="c" cx="3.299" cy="3.299" r="3.299" transform="translate(100.514 86.155)"/><circle class="c" cx="3.299" cy="3.299" r="3.299" transform="translate(114.873 86.155)"/><circle class="c" cx="3.299" cy="3.299" r="3.299" transform="translate(129.232 86.155)"/><circle class="c" cx="3.299" cy="3.299" r="3.299" transform="translate(0 100.514)"/><circle class="c" cx="3.299" cy="3.299" r="3.299" transform="translate(14.359 100.514)"/><circle class="c" cx="3.299" cy="3.299" r="3.299" transform="translate(28.718 100.514)"/><circle class="c" cx="3.299" cy="3.299" r="3.299" transform="translate(43.077 100.514)"/><circle class="c" cx="3.299" cy="3.299" r="3.299" transform="translate(57.437 100.514)"/><circle class="c" cx="3.299" cy="3.299" r="3.299" transform="translate(71.796 100.514)"/><circle class="c" cx="3.299" cy="3.299" r="3.299" transform="translate(86.155 100.514)"/><circle class="c" cx="3.299" cy="3.299" r="3.299" transform="translate(100.514 100.514)"/><circle class="c" cx="3.299" cy="3.299" r="3.299" transform="translate(114.873 100.514)"/><circle class="c" cx="3.299" cy="3.299" r="3.299" transform="translate(129.232 100.514)"/><circle class="c" cx="3.299" cy="3.299" r="3.299" transform="translate(0 114.873)"/><circle class="c" cx="3.299" cy="3.299" r="3.299" transform="translate(14.359 114.873)"/><circle class="c" cx="3.299" cy="3.299" r="3.299" transform="translate(28.718 114.873)"/><circle class="c" cx="3.299" cy="3.299" r="3.299" transform="translate(43.077 114.873)"/><circle class="c" cx="3.299" cy="3.299" r="3.299" transform="translate(57.437 114.873)"/><circle class="c" cx="3.299" cy="3.299" r="3.299" transform="translate(71.796 114.873)"/><circle class="c" cx="3.299" cy="3.299" r="3.299" transform="translate(86.155 114.873)"/><circle class="c" cx="3.299" cy="3.299" r="3.299" transform="translate(100.514 114.873)"/><circle class="c" cx="3.299" cy="3.299" r="3.299" transform="translate(114.873 114.873)"/><circle class="c" cx="3.299" cy="3.299" r="3.299" transform="translate(129.232 114.873)"/><circle class="c" cx="3.299" cy="3.299" r="3.299" transform="translate(0 129.232)"/><circle class="c" cx="3.299" cy="3.299" r="3.299" transform="translate(14.359 129.232)"/><circle class="c" cx="3.299" cy="3.299" r="3.299" transform="translate(28.718 129.232)"/><circle class="c" cx="3.299" cy="3.299" r="3.299" transform="translate(43.077 129.232)"/><circle class="c" cx="3.299" cy="3.299" r="3.299" transform="translate(57.437 129.232)"/><circle class="c" cx="3.299" cy="3.299" r="3.299" transform="translate(71.796 129.232)"/><circle class="c" cx="3.299" cy="3.299" r="3.299" transform="translate(86.155 129.232)"/><circle class="c" cx="3.299" cy="3.299" r="3.299" transform="translate(100.514 129.232)"/><circle class="c" cx="3.299" cy="3.299" r="3.299" transform="translate(114.873 129.232)"/><circle class="c" cx="3.299" cy="3.299" r="3.299" transform="translate(129.232 129.232)"/></g></g></svg>